<svg xmlns="http://www.w3.org/2000/svg" width="22" height="22" viewBox="0 0 22 22">
  <path id="Shape" d="M6.86,22a1.006,1.006,0,0,1-.707-.293L.293,15.847A1.006,1.006,0,0,1,0,15.14V6.86a1.006,1.006,0,0,1,.293-.707L6.153.293A1.006,1.006,0,0,1,6.86,0h8.28a1.006,1.006,0,0,1,.707.293l5.86,5.861A1.006,1.006,0,0,1,22,6.86v8.28a1.006,1.006,0,0,1-.293.707l-5.86,5.86A1.006,1.006,0,0,1,15.14,22ZM2,7.274v7.452L7.274,20h7.452L20,14.726V7.274L14.726,2H7.274Zm8.294,8.433A1,1,0,1,1,11,16,1,1,0,0,1,10.293,15.707ZM10,11V7a1,1,0,1,1,2,0v4a1,1,0,0,1-2,0Z"/>
</svg>
