<svg xmlns="http://www.w3.org/2000/svg" width="24" height="24" viewBox="0 0 24 24">
  <path id="Shape" d="M22.293,23.707,16.586,18H3a1,1,0,0,1-.554-1.832l.023-.016a2.751,2.751,0,0,0,.275-.261,5.956,5.956,0,0,0,.879-1.245A13.864,13.864,0,0,0,5,8a6.855,6.855,0,0,1,.149-1.439L.293,1.707A1,1,0,0,1,1.707.293L17.7,16.284l.017.017,5.991,5.991a1,1,0,1,1-1.414,1.414ZM5.378,15.6c-.075.138-.151.27-.227.4h9.435L7,8.411A15.461,15.461,0,0,1,5.378,15.6Zm4.028,5.9a1,1,0,1,1,1.73-1l.065.1a1,1,0,0,0,1.665-.1l.065-.1A1,1,0,0,1,14.6,21.5a3,3,0,0,1-5.19,0Zm8.26-8.239A18.871,18.871,0,0,1,17,7.986,5,5,0,0,0,9.225,3.832a1,1,0,1,1-1.11-1.664A7,7,0,0,1,19,7.984c0,.011,0,.022,0,.032a16.9,16.9,0,0,0,.595,4.72,1,1,0,0,1-1.93.526Z" transform="translate(0 0)"/>
</svg>
