<svg xmlns="http://www.w3.org/2000/svg" width="20.004" height="21.997" viewBox="0 0 20.004 21.997">
  <path id="Shape" d="M7.407,20.5a1,1,0,1,1,1.73-1l.065.1a1,1,0,0,0,1.665-.1l.065-.1A1,1,0,0,1,12.6,20.5a3,3,0,0,1-5.189,0ZM1,17a1,1,0,0,1-.554-1.832l.023-.016a2.829,2.829,0,0,0,.274-.261,5.878,5.878,0,0,0,.879-1.245A13.919,13.919,0,0,0,3,7l0-.241A7,7,0,0,1,17,7a13.919,13.919,0,0,0,1.378,6.646,5.953,5.953,0,0,0,.879,1.245,2.383,2.383,0,0,0,.3.277l.094.069A1,1,0,0,1,19,17ZM5,7l0,.455A15.47,15.47,0,0,1,3.38,14.6c-.081.148-.156.276-.228.4h13.7c-.08-.132-.154-.262-.228-.4A15.859,15.859,0,0,1,15,7,5,5,0,1,0,5,7Z" transform="translate(0)"/>
</svg>
