<svg xmlns="http://www.w3.org/2000/svg" width="22" height="18" viewBox="0 0 22 18">
  <path id="Shape" d="M13,18a1,1,0,0,1-.117-1.993L13,16h6a1,1,0,0,0,.994-.884L20,15V3a1,1,0,0,0-.883-.993L19,2H3a1,1,0,0,0-.994.884L2,3V5a1,1,0,0,1-1.993.116L0,5V3A3,3,0,0,1,2.824.005L3,0H19a3,3,0,0,1,3,2.823L22,3V15a3,3,0,0,1-2.824,2.994L19,18Zm-5.045-.889A7.954,7.954,0,0,0,.89,10.044a1,1,0,0,1,.1-1.994l.116.006a10.038,10.038,0,0,1,5.966,2.868,10.037,10.037,0,0,1,2.867,5.965,1,1,0,0,1-.884,1.1A.928.928,0,0,1,8.949,18,1,1,0,0,1,7.956,17.111ZM3.92,17.2A4,4,0,0,0,.8,14.08,1,1,0,0,1,.021,12.9,1,1,0,0,1,1,12.1a1.015,1.015,0,0,1,.2.021A5.99,5.99,0,0,1,5.88,16.8,1,1,0,0,1,4.9,18,1,1,0,0,1,3.92,17.2Zm-3.627.508A1,1,0,1,1,1,18,1,1,0,0,1,.293,17.708Z"/>
</svg>
