<svg xmlns="http://www.w3.org/2000/svg" width="22" height="22" viewBox="0 0 22 22">
  <path id="Shape" d="M9.836,21.939a.992.992,0,0,1-.133-.015A11,11,0,0,1,0,11,10.916,10.916,0,0,1,2.106,4.523a.992.992,0,0,1,.085-.115,11.157,11.157,0,0,1,1.03-1.186A11,11,0,1,1,18.778,18.778,10.924,10.924,0,0,1,11,22,11.2,11.2,0,0,1,9.836,21.939Zm1.751-1.958A9,9,0,0,0,19.486,8H15a4.991,4.991,0,0,1,.249,5.637ZM2,11a9.015,9.015,0,0,0,7.355,8.849l2.241-3.884a5,5,0,0,1-5-2.6L2.928,7.02A8.946,8.946,0,0,0,2,11Zm9,3a3,3,0,0,0,2.524-1.381l.069-.119q.019-.033.04-.063a3,3,0,1,0-5.3-.065l.073.127c.012.02.022.04.032.061A3,3,0,0,0,11,14ZM6.4,9.035A5.008,5.008,0,0,1,11,6H18.48A8.991,8.991,0,0,0,4.161,5.156Z" transform="translate(0 0)"/>
</svg>
