<svg xmlns="http://www.w3.org/2000/svg" width="24.001" height="22" viewBox="0 0 24.001 22">
  <path id="Shape" d="M11.3,21.707a1,1,0,1,1,.707.293A1,1,0,0,1,11.3,21.707Zm4-2a1,1,0,1,1,.707.292A1,1,0,0,1,15.3,19.707Zm-8,0A1,1,0,1,1,8.006,20,1,1,0,0,1,7.3,19.707Zm4-2a1,1,0,1,1,.707.293A1,1,0,0,1,11.3,17.707Zm7.791-.725a1,1,0,0,1,.515-1.318A4,4,0,0,0,18.006,8h-1.26a1,1,0,0,1-.968-.751A7,7,0,1,0,4.631,14.468a1,1,0,1,1-1.248,1.562A9,9,0,1,1,17.486,6h.521a6,6,0,0,1,2.4,11.5,1,1,0,0,1-1.317-.515ZM15.3,15.707a1,1,0,1,1,.707.293A1,1,0,0,1,15.3,15.707Zm-8,0A1,1,0,1,1,8.006,16,1,1,0,0,1,7.3,15.707Z" transform="translate(0 0)"/>
</svg>
