<svg xmlns="http://www.w3.org/2000/svg" width="24.139" height="24" viewBox="0 0 24.139 24">
  <path id="Shape" d="M22.423,23.707l-2.877-2.877a6.024,6.024,0,0,1-1.117.163l-.3.008H8.871A9,9,0,0,1,3.552,4.837L.423,1.707A1,1,0,1,1,1.837.293l22,22a1,1,0,1,1-1.414,1.414Zm-20.185-9.9A7.041,7.041,0,0,0,8.869,19h8.847L4.984,6.268A6.989,6.989,0,0,0,2.237,13.805ZM22.35,17.871a1,1,0,0,1-.531-1.311,4,4,0,0,0-3.452-5.553L18.13,11H16.87a1,1,0,0,1-.969-.754A7,7,0,0,0,9.732,5a1,1,0,0,1,.059-2l.117,0a9,9,0,0,1,7.6,5.722l.1.274h.522a6,6,0,0,1,5.527,8.34,1,1,0,0,1-1.311.531Z" transform="translate(0.001 0)"/>
</svg>
