<svg xmlns="http://www.w3.org/2000/svg" width="24.001" height="23.999" viewBox="0 0 24.001 23.999">
  <path id="Shape" d="M11.006,23V21a1,1,0,0,1,2,0v2a1,1,0,0,1-2,0Zm4-2V19a1,1,0,1,1,2,0v2a1,1,0,1,1-2,0Zm-8,0V19a1,1,0,1,1,2,0v2a1,1,0,1,1-2,0Zm4-4V15a1,1,0,0,1,2,0v2a1,1,0,0,1-2,0Zm8.085-.019a1,1,0,0,1,.515-1.318A4,4,0,0,0,18.006,8h-1.26a1,1,0,0,1-.968-.751A7,7,0,1,0,4.631,14.468a1,1,0,1,1-1.248,1.562A9,9,0,1,1,17.486,6h.521a6,6,0,0,1,2.4,11.5,1,1,0,0,1-1.317-.515ZM15.007,15V13a1,1,0,0,1,2,0v2a1,1,0,1,1-2,0Zm-8,0V13a1,1,0,1,1,2,0v2a1,1,0,1,1-2,0Z" transform="translate(0 0)"/>
</svg>
