<svg xmlns="http://www.w3.org/2000/svg" width="20" height="22.078" viewBox="0 0 20 22.078">
  <path id="Shape" d="M9.526,21.959A2.985,2.985,0,0,1,8.5,21.6l-3.2-1.827a1,1,0,0,1-.555-.317L1.5,17.594A3.009,3.009,0,0,1,0,15V11.013Q0,11,0,10.982V7A3,3,0,0,1,.311,5.672a1,1,0,0,1,.257-.427A3,3,0,0,1,1.5,4.4L4.753,2.543a1,1,0,0,1,.553-.316L8.5.4a3,3,0,0,1,3,0l3.2,1.828a1,1,0,0,1,.552.315L18.5,4.4a2.991,2.991,0,0,1,.931.844,1.006,1.006,0,0,1,.256.426A3,3,0,0,1,20,7v3.984c0,.01,0,.02,0,.03V15a3.013,3.013,0,0,1-1.5,2.6l-3.25,1.857a1,1,0,0,1-.552.315L11.5,21.595a3.01,3.01,0,0,1-1.025.363,1,1,0,0,1-.95,0ZM11,19.577l2.5-1.429V13.6a1,1,0,0,1,.5-.866l4-2.311V7.535l-7,4.049Zm-2,0V11.585L2,7.535v2.885l4,2.311a1,1,0,0,1,.5.866v4.55Zm6.5-5.4v2.83l2-1.143A1,1,0,0,0,18,15V12.731ZM2,15a1,1,0,0,0,.5.862l2,1.145v-2.83L2,12.731Zm8-5.144,6.961-4.027-2.51-1.434L10.5,6.674a1,1,0,0,1-1,0L5.549,4.392,3.039,5.826Zm0-5.2,2.441-1.41L10.5,2.134A1,1,0,0,0,10,2a1.01,1.01,0,0,0-.506.136L7.559,3.243Z" transform="translate(0)"/>
</svg>
