<svg xmlns="http://www.w3.org/2000/svg" width="22" height="22" viewBox="0 0 22 22">
  <path id="Shape" d="M11,22h-.042a.994.994,0,0,1-.468-.139l-.006,0-.007,0-.022-.014-10-6.5-.009-.006-.006,0-.019-.013,0,0L.4,15.3h0a1,1,0,0,1-.371-.584v0l0-.021,0-.008,0-.01A1,1,0,0,1,0,14.491V7.51a1,1,0,0,1,.008-.133V7.371l0-.012,0-.017V7.334l0-.018v0l0-.023h0a.993.993,0,0,1,.214-.435l.007-.008,0,0a.993.993,0,0,1,.242-.2L10.426.181A1,1,0,0,1,10.958,0h.069l.049,0h0l.023,0h0l.024,0h0l.021,0h.008l.013,0,.01,0,.013,0,.021,0h0a.994.994,0,0,1,.35.152l9.948,6.466A1,1,0,0,1,22,7.522v6.955a1,1,0,0,1-.1.451l0,.009,0,.008a1,1,0,0,1-.174.247l0,0-.018.018-.006.006-.015.014-.01.009-.007.006-.018.016h0L21.6,15.3l0,0-.02.014-.011.007-.011.007-.008.005-10,6.5a1.012,1.012,0,0,1-.133.072h0l-.017.007-.005,0-.019.008-.008,0-.011,0-.011,0-.008,0-.024.008h0l-.012,0-.009,0-.012,0-.01,0-.017,0-.012,0-.009,0-.013,0-.009,0-.021,0h-.005l-.018,0h0l-.047.006h0l-.049,0H11Zm1-2.842,7.213-4.688L16,12.221l-4,2.8Zm-2,0V15.02l-4-2.8L2.787,14.469Zm1-5.878L14.256,11,11,8.721,7.744,11Zm-9-.7L4.256,11,2,9.421Zm18,0V9.421L17.744,11ZM6,9.779l4-2.8V2.842L2.787,7.531Zm10,0,3.212-2.249L12,2.842V6.979Z" transform="translate(0)"/>
</svg>
