<svg xmlns="http://www.w3.org/2000/svg" width="22" height="22" viewBox="0 0 22 22">
  <path id="Shape" d="M3.222,18.778A11,11,0,1,1,18.778,3.222,11,11,0,1,1,3.222,18.778ZM2,11a9,9,0,1,0,9-9A9.01,9.01,0,0,0,2,11Zm3.946,4.822a.987.987,0,0,1-.135-.9l2.119-6.36a1.006,1.006,0,0,1,.633-.633l6.36-2.119a1.023,1.023,0,0,1,.321-.053,1,1,0,0,1,.809.42.984.984,0,0,1,.134.9l-2.12,6.36a1.006,1.006,0,0,1-.633.633l-6.36,2.12a1.019,1.019,0,0,1-.321.053A1,1,0,0,1,5.946,15.822ZM9.67,9.67,8.341,13.658l3.988-1.329,1.329-3.988Z" transform="translate(0 0)"/>
</svg>
