<svg xmlns="http://www.w3.org/2000/svg" width="24" height="24" viewBox="0 0 24 24">
  <path id="Shape" d="M14,23V21H10v2a1,1,0,1,1-2,0V21H6a3,3,0,0,1-3-3V15H1a1,1,0,0,1,0-2H3V10H1A1,1,0,1,1,1,8H3V6A3,3,0,0,1,6,3H8V1a1,1,0,1,1,2,0V3h4V1a1,1,0,1,1,2,0V3h2a3,3,0,0,1,3,3V8h2a1,1,0,1,1,0,2H21v3h2a1,1,0,0,1,0,2H21v3a3,3,0,0,1-3,3H16v2a1,1,0,1,1-2,0ZM5,18a1,1,0,0,0,1,1H18a1,1,0,0,0,1-1V6a1,1,0,0,0-1-1H6A1,1,0,0,0,5,6v2.96C5,8.973,5,8.986,5,9s0,.027,0,.041V13.96c0,.014,0,.027,0,.041s0,.027,0,.041Zm4-2a1,1,0,0,1-1-1V9A1,1,0,0,1,9,8h6a1,1,0,0,1,1,1v6a1,1,0,0,1-1,1Zm1-2h4V10H10Z"/>
</svg>
