<svg xmlns="http://www.w3.org/2000/svg" width="13.333" height="14.666" viewBox="0 0 13.333 14.666">
  <path id="Shape" d="M3.333,14.666a2,2,0,0,1-2-1.882l0-.118V4H.667a.667.667,0,0,1,0-1.334H3.333V2A2,2,0,0,1,5.216,0l.118,0H8a2,2,0,0,1,2,1.882L10,2v.667h2.667a.667.667,0,0,1,0,1.334H12v8.666a2,2,0,0,1-1.883,2l-.118,0Zm-.667-2a.666.666,0,0,0,.589.662l.077,0H10a.666.666,0,0,0,.662-.589l0-.078V4h-8Zm6-10V2a.666.666,0,0,0-.589-.662L8,1.333H5.333a.667.667,0,0,0-.662.589l0,.077v.667Zm-1.333,8v-4a.667.667,0,0,1,1.333,0v4a.667.667,0,1,1-1.333,0Zm-2.666,0v-4A.667.667,0,1,1,6,6.667v4a.667.667,0,1,1-1.333,0Z" fill="#ff642f"/>
</svg>
