<svg xmlns="http://www.w3.org/2000/svg" width="20" height="19.122" viewBox="0 0 20 19.122">
  <path id="Shape" d="M.212,18.735a.994.994,0,0,1-.181-.857l1-4a1,1,0,0,1,.264-.464l12.5-12.5A3.12,3.12,0,0,1,16.606.059l.2.047L17,.163a3.122,3.122,0,0,1,1.211,5.166l-12.5,12.5a1,1,0,0,1-.464.264l-4,1A1.006,1.006,0,0,1,1,19.122,1,1,0,0,1,.212,18.735Zm15-16.407L2.9,14.632l-.529,2.115,2.115-.529,12.3-12.3a1.121,1.121,0,0,0-.5-1.876A1.172,1.172,0,0,0,16,2,1.114,1.114,0,0,0,15.208,2.328ZM10,19.121a1,1,0,1,1,0-2h9a1,1,0,0,1,0,2Z" transform="translate(0)"/>
</svg>
