<svg xmlns="http://www.w3.org/2000/svg" width="21.828" height="21.83" viewBox="0 0 21.828 21.83">
  <path id="Shape" d="M1,21.83a1,1,0,0,1-.792-.4.991.991,0,0,1-.169-.869l1.5-5.5a1.011,1.011,0,0,1,.257-.444l13.5-13.5A3.827,3.827,0,0,1,18.771.078l.22.052L19.2.192a3.829,3.829,0,0,1,1.51,6.344l-13.5,13.5a1,1,0,0,1-.444.257l-5.5,1.5A1.019,1.019,0,0,1,1,21.83ZM18,2h0a1.815,1.815,0,0,0-1.292.535L3.4,15.848,2.426,19.4l3.555-.969L19.294,5.121A1.829,1.829,0,0,0,18,2Z" transform="translate(0 0)"/>
</svg>
