<svg xmlns="http://www.w3.org/2000/svg" width="24" height="24" viewBox="0 0 24 24">
  <path id="Shape" d="M22.293,23.707l-4.466-4.466A11.019,11.019,0,0,1,12,21c-3.191,0-6.17-1.452-8.854-4.316A20.493,20.493,0,0,1,.895,13.793l-.238-.378c-.14-.225-.263-.436-.369-.626l-.069-.127-.113-.214a1,1,0,0,1,.013-.92A19.317,19.317,0,0,1,4.568,5.983L.293,1.707A1,1,0,0,1,1.707.293l8.874,8.874.017.017,8.02,8.02c.018.017.036.034.053.053l5.036,5.037a1,1,0,1,1-1.414,1.414ZM2.378,11.607l-.235.4.131.222c.1.161.2.323.3.481A18.437,18.437,0,0,0,4.6,15.316C6.9,17.761,9.38,19,11.984,19a9,9,0,0,0,4.389-1.214l-2.323-2.323A4,4,0,0,1,8.536,9.95L5.987,7.4A17.372,17.372,0,0,0,2.378,11.607Zm7.609.962a2,2,0,0,0,2.571,1.4l-2.531-2.531A2,2,0,0,0,9.987,12.569ZM20.2,15.955a1,1,0,0,1-.122-1.409,17.318,17.318,0,0,0,1.518-2.1L21.858,12l-.132-.224-.194-.316-.106-.166A18.505,18.505,0,0,0,19.4,8.684C17.1,6.24,14.615,5,12,5h-.012a8.132,8.132,0,0,0-1.859.214.986.986,0,0,1-.229.027,1,1,0,0,1-.227-1.975A10.117,10.117,0,0,1,11.976,3H12c3.191,0,6.17,1.453,8.855,4.316a20.545,20.545,0,0,1,2.251,2.891l.238.378c.139.225.263.437.369.626l.069.127.112.214a1,1,0,0,1-.013.919,19.5,19.5,0,0,1-2.276,3.362,1,1,0,0,1-1.409.122Z" transform="translate(0 0)"/>
</svg>
