<svg xmlns="http://www.w3.org/2000/svg" width="23.999" height="18" viewBox="0 0 23.999 18">
  <path id="Shape" d="M3.146,13.684A20.544,20.544,0,0,1,.895,10.793l-.238-.378C.482,10.133.33,9.872.218,9.661L.105,9.447a1.008,1.008,0,0,1,0-.895l.113-.214c.112-.211.265-.472.438-.753l.238-.378A20.544,20.544,0,0,1,3.146,4.316C5.83,1.453,8.809,0,12,0s6.17,1.453,8.855,4.316a20.545,20.545,0,0,1,2.251,2.891l.238.378c.167.27.318.53.438.753l.112.214a1,1,0,0,1,0,.895l-.112.214c-.121.223-.272.483-.438.753l-.238.378a20.545,20.545,0,0,1-2.251,2.891C18.169,16.547,15.19,18,12,18S5.83,16.547,3.146,13.684Zm1.459-8a18.534,18.534,0,0,0-2.03,2.609c-.163.253-.309.491-.433.707.122.213.268.452.433.707A18.534,18.534,0,0,0,4.6,12.317C6.9,14.761,9.385,16,12,16s5.1-1.239,7.4-3.684a18.433,18.433,0,0,0,2.029-2.609c.105-.163.207-.325.3-.483L21.859,9l-.132-.224-.2-.318-.106-.166A18.433,18.433,0,0,0,19.4,5.684C17.1,3.239,14.615,2,12,2S6.9,3.239,4.6,5.684ZM8,9a4,4,0,1,1,4,4A4,4,0,0,1,8,9Zm2,0a2,2,0,1,0,2-2A2,2,0,0,0,10,9Z" transform="translate(-0.001)"/>
</svg>
