<?xml version="1.0" encoding="UTF-8"?>
<svg width="24px" height="24px" viewBox="0 0 24 24" version="1.1" xmlns="http://www.w3.org/2000/svg" xmlns:xlink="http://www.w3.org/1999/xlink">
    <title>feather-icon/feather</title>
    <g id="feather-icon/feather" stroke="none" stroke-width="1" fill="none" fill-rule="evenodd">
        <rect id="Bounding-Box" fill-opacity="0" fill="#FFFFFF" x="0" y="0" width="24" height="24"></rect>
        <path d="M20.9471068,3.04289318 C23.6820799,5.77786625 23.6820799,10.2121337 20.9481536,12.9460584 L18.2887351,15.6148064 C18.2386164,15.6790123 18.180829,15.7369405 18.1167501,15.787214 L14.2081536,19.7060585 C14.0205327,19.894236 13.7657299,20 13.5,20 L5.41399995,19.9996634 L2.70710674,22.7071068 C2.34662278,23.0675908 1.77939172,23.0953203 1.38710051,22.7902954 L1.29289317,22.7071068 C0.902368881,22.3165825 0.902368881,21.6834176 1.29289317,21.2928933 L1.29289317,21.2928933 L3.99999995,18.5846634 L3.99999997,10.5 C3.99999997,10.2347835 4.10535681,9.98042959 4.29289319,9.79289321 L11.0428932,3.04289318 C13.7778663,0.307920115 18.2121338,0.307920115 20.9471068,3.04289318 Z M15.078,15.9996634 L9.41399995,15.9996634 L7.41399995,17.9996634 L13.0849184,18 L15.078,15.9996634 Z M12.4571068,4.45710675 L5.99999997,10.9142136 L5.99999995,16.5846634 L15.2928932,7.2928932 C15.6533772,6.93240924 16.2206083,6.9046797 16.6128995,7.20970459 L16.7071068,7.2928932 C17.0976311,7.68341749 17.0976311,8.31658247 16.7071068,8.70710677 L16.7071068,8.70710677 L11.414,13.9996634 L17.072,13.9996634 L19.5328933,11.5328932 C21.4868177,9.57896874 21.4868177,6.41103123 19.5328933,4.45710675 C17.5789688,2.50318227 14.4110313,2.50318227 12.4571068,4.45710675 Z" id="Shape" fill="#000000"></path>
    </g>
</svg>