<?xml version="1.0" encoding="UTF-8"?>
<svg width="24px" height="24px" viewBox="0 0 24 24" version="1.1" xmlns="http://www.w3.org/2000/svg" xmlns:xlink="http://www.w3.org/1999/xlink">
    <title>feather-icon/figma</title>
    <g id="feather-icon/figma" stroke="none" stroke-width="1" fill="none" fill-rule="evenodd">
        <rect id="Bounding-Box" fill-opacity="0" fill="#FFFFFF" x="0" y="0" width="24" height="24"></rect>
        <path d="M15.5,0.999999954 C17.1076952,0.999999954 18.5932668,1.85769509 19.3971144,3.24999994 C20.200962,4.64230481 20.200962,6.35769514 19.3971144,7.75 C19.1161857,8.23658273 18.7519938,8.65787021 18.3284247,9.00007181 C19.3755427,9.84532768 20,11.1282069 20,12.4999999 C20,14.1076952 19.1423049,15.5932668 17.7500001,16.3971144 C16.3576952,17.200962 14.6423048,17.200962 13.25,16.3971144 C13.1645542,16.3477823 13.081122,16.2958826 12.9997779,16.2415447 L13,19.5 C13,21.9852814 10.9852814,24 8.49999997,24 C6.0147186,24 3.99999997,21.9852814 3.99999997,19.5 C3.99999997,18.0864228 4.65178198,16.8250773 5.67121208,16.0000977 C4.65178198,15.1749227 3.99999997,13.9135773 3.99999997,12.5 C3.99999997,11.0864227 4.65178198,9.82507732 5.67121208,9.00009767 C4.65178198,8.17492264 3.99999997,6.91357723 3.99999997,5.49999995 C3.99999997,3.01471859 6.0147186,0.999999954 8.49999997,0.999999954 L15.5,0.999999954 Z M11,17 L8.49999998,17 C7.11928811,17 5.99999998,18.1192882 5.99999998,19.5 C5.99999998,20.8807119 7.11928811,22 8.49999998,22 C9.88071187,22 11,20.8807119 11,19.5 L11,17 Z M14.25,10.3349364 C13.4764973,10.7815184 13,11.606836 13,12.4999999 C13,13.393164 13.4764973,14.2184816 14.25,14.6650636 C15.0235027,15.1116456 15.9764973,15.1116456 16.75,14.6650636 C17.5235027,14.2184816 18,13.393164 18,12.4999999 C18,11.606836 17.5235027,10.7815184 16.75,10.3349364 C15.9764973,9.88835442 15.0235027,9.88835442 14.25,10.3349364 Z M11,9.99999999 L8.49999998,9.99999999 C7.11928811,9.99999999 5.99999998,11.1192881 5.99999998,12.5 C5.99999998,13.8807119 7.11928811,15 8.49999998,15 L11,15 L11,9.99999999 Z M11,2.99999996 L8.49999998,2.99999996 C7.11928811,2.99999996 5.99999998,4.11928809 5.99999998,5.49999996 C5.99999998,6.88071185 7.11928811,7.99999996 8.49999998,7.99999996 L11,7.99999996 L11,2.99999996 Z M15.5,2.99999996 L13,2.99999996 L13,7.99999996 L15.5,7.99999996 C16.393164,7.99999996 17.2184816,7.52350268 17.6650636,6.74999999 C18.1116456,5.97649729 18.1116456,5.02350266 17.6650636,4.24999996 C17.2184816,3.47649727 16.393164,2.99999996 15.5,2.99999996 Z" id="Shape" fill="#000000"></path>
    </g>
</svg>