<?xml version="1.0" encoding="UTF-8"?>
<svg width="24px" height="24px" viewBox="0 0 24 24" version="1.1" xmlns="http://www.w3.org/2000/svg" xmlns:xlink="http://www.w3.org/1999/xlink">
    <title>feather-icon/file-plus</title>
    <g id="feather-icon/file-plus" stroke="none" stroke-width="1" fill="none" fill-rule="evenodd">
        <rect id="Bounding-Box" fill-opacity="0" fill="#FFFFFF" x="0" y="0" width="24" height="24"></rect>
        <path d="M14,0.999999954 C14.0425909,0.999999954 14.0845598,1.00266257 14.1257495,1.00783043 L14,0.999999954 C14.0528361,0.999999954 14.1052411,1.00418137 14.1567725,1.01236094 C14.1883933,1.01720355 14.2193064,1.02361577 14.249662,1.03141739 C14.2598053,1.03427965 14.2698902,1.03704983 14.2799252,1.03997616 C14.3109399,1.04873219 14.3413507,1.05922612 14.3710585,1.07110392 C14.3800191,1.07496952 14.3890567,1.07873415 14.3980377,1.08263084 C14.4262995,1.09463811 14.4536613,1.10806786 14.4802859,1.12267432 C14.4906553,1.12855819 14.5012587,1.13461326 14.5117542,1.14086464 C14.5399066,1.15749755 14.567027,1.17554942 14.5931738,1.19484447 C14.5995817,1.19963486 14.6064603,1.20483433 14.6132762,1.21012662 C14.6177282,1.21353884 14.6216003,1.21659984 14.625449,1.21968872 L14.7071068,1.29289317 L14.7071068,1.29289317 L20.7071068,7.29289318 C20.7364445,7.32223091 20.7639678,7.35338307 20.7894939,7.38616689 L20.7071068,7.2928932 C20.7429509,7.32873731 20.7757929,7.36702235 20.8054709,7.40735762 C20.8244506,7.43297302 20.8425024,7.46009334 20.8592239,7.4880999 C20.8653867,7.49874129 20.8714418,7.50934471 20.8772982,7.52005031 C20.8919321,7.54633871 20.9053619,7.57370045 20.9175449,7.60172933 C20.9212658,7.61094324 20.9250304,7.61998089 20.9286618,7.62907224 C20.9407738,7.65864929 20.9512678,7.68906004 20.9602981,7.720094 C20.9629501,7.73010976 20.9657203,7.74019467 20.9683328,7.75032592 C20.9763842,7.7806936 20.9827964,7.81160662 20.9877474,7.84300523 C20.9892866,7.85360721 20.9907719,7.86402243 20.9920936,7.87446947 C20.9973374,7.91544013 21,7.9574091 21,7.99999995 L21,7.99999995 L21,20 C21,21.6568543 19.6568543,23 18,23 L5.99999996,23 C4.34314572,23 2.99999996,21.6568543 2.99999996,20 L2.99999996,3.99999995 C2.99999996,2.34314571 4.34314572,0.999999954 5.99999996,0.999999954 Z M13,2.99999995 L5.99999997,2.99999996 C5.44771522,2.99999996 4.99999997,3.44771521 4.99999997,3.99999996 L4.99999997,20 C4.99999997,20.5522848 5.44771522,21 5.99999997,21 L18,21 C18.5522848,21 19,20.5522848 19,20 L19,8.99999995 L14,8.99999995 C13.4871642,8.99999995 13.0644928,8.61395979 13.0067277,8.11662109 L13,7.99999995 L13,2.99999995 Z M12,11 C12.5522848,11 13,11.4477152 13,12 L13,12 L13,14 L15,14 C15.5128359,14 15.9355071,14.3860402 15.9932723,14.8833789 L16,15 C16,15.5522848 15.5522848,16 15,16 L15,16 L13,16 L13,18 C13,18.5128359 12.6139598,18.9355072 12.1166211,18.9932723 L12,19 C11.4477152,19 11,18.5522848 11,18 L11,18 L11,16 L8.99999998,16 C8.48716415,16 8.06449282,15.6139598 8.00672771,15.1166211 L7.99999998,15 C7.99999998,14.4477153 8.44771524,14 8.99999998,14 L8.99999998,14 L11,14 L11,12 C11,11.4871642 11.3860402,11.0644928 11.8833789,11.0067277 Z M15,4.41499995 L15,6.99999995 L17.586,6.99999995 L15,4.41499995 Z" id="Shape" fill="#000000"></path>
    </g>
</svg>