<?xml version="1.0" encoding="UTF-8"?>
<svg width="24px" height="24px" viewBox="0 0 24 24" version="1.1" xmlns="http://www.w3.org/2000/svg" xmlns:xlink="http://www.w3.org/1999/xlink">
    <title>feather-icon/file</title>
    <g id="feather-icon/file" stroke="none" stroke-width="1" fill="none" fill-rule="evenodd">
        <rect id="Bounding-Box" fill-opacity="0" fill="#FFFFFF" x="0" y="0" width="24" height="24"></rect>
        <path d="M13,0.999999954 C13.0425909,0.999999954 13.0845598,1.00266257 13.1257495,1.00783043 L13,0.999999954 C13.0528361,0.999999954 13.1052411,1.00418137 13.1567725,1.01236094 C13.1883933,1.01720355 13.2193064,1.02361577 13.249662,1.03141739 C13.2598053,1.03427965 13.2698902,1.03704983 13.2799252,1.03997616 C13.3109399,1.04873219 13.3413507,1.05922612 13.3710585,1.07110392 C13.3800191,1.07496952 13.3890567,1.07873415 13.3980377,1.08263084 C13.4262995,1.09463811 13.4536613,1.10806786 13.4802859,1.12267432 C13.4906553,1.12855819 13.5012587,1.13461326 13.5117542,1.14086464 C13.5399066,1.15749755 13.5670269,1.17554942 13.5931738,1.19484447 C13.5995817,1.19963486 13.6064603,1.20483433 13.6132762,1.21012662 C13.6177282,1.21353884 13.6216003,1.21659984 13.625449,1.21968872 L13.7071068,1.29289317 L13.7071068,1.29289317 L20.7071068,8.29289318 C20.7364445,8.32223091 20.7639678,8.35338307 20.7894939,8.38616689 L20.7071068,8.2928932 C20.7429509,8.32873731 20.7757929,8.36702235 20.8054709,8.40735762 C20.8244505,8.43297302 20.8425024,8.46009335 20.8592238,8.4880999 C20.8653867,8.49874129 20.8714418,8.50934472 20.8772982,8.52005031 C20.8919321,8.54633871 20.9053619,8.57370045 20.9175449,8.60172933 C20.9212658,8.61094324 20.9250304,8.61998089 20.9286618,8.62907225 C20.9407738,8.65864929 20.9512678,8.68906004 20.9602981,8.720094 C20.9629501,8.73010976 20.9657203,8.74019467 20.9683328,8.75032592 C20.9763842,8.7806936 20.9827964,8.81160662 20.9877474,8.84300523 C20.9892889,8.85362217 20.9907762,8.86405245 20.9920993,8.87451464 C20.9973374,8.91544013 21,8.9574091 21,8.99999995 L21,8.99999995 L21,20 C21,21.6568543 19.6568543,23 18,23 L5.99999996,23 C4.34314572,23 2.99999996,21.6568543 2.99999996,20 L2.99999996,3.99999995 C2.99999996,2.34314571 4.34314572,0.999999954 5.99999996,0.999999954 Z M12,2.99999995 L5.99999997,2.99999996 C5.44771522,2.99999996 4.99999997,3.44771521 4.99999997,3.99999996 L4.99999997,20 C4.99999997,20.5522848 5.44771522,21 5.99999997,21 L18,21 C18.5522848,21 19,20.5522848 19,20 L19,9.99899995 L13,9.99999995 C12.4871642,9.99999995 12.0644928,9.61395979 12.0067277,9.11662109 L12,8.99999995 L12,2.99999995 Z M17.585,7.99899995 L14,4.41499995 L14,7.99999995 L17.585,7.99899995 Z" id="Shape" fill="#000000"></path>
    </g>
</svg>