<?xml version="1.0" encoding="UTF-8"?>
<svg width="24px" height="24px" viewBox="0 0 24 24" version="1.1" xmlns="http://www.w3.org/2000/svg" xmlns:xlink="http://www.w3.org/1999/xlink">
    <title>feather-icon/film</title>
    <g id="feather-icon/film" stroke="none" stroke-width="1" fill="none" fill-rule="evenodd">
        <rect id="Bounding-Box" fill-opacity="0" fill="#FFFFFF" x="0" y="0" width="24" height="24"></rect>
        <path d="M19.82,0.999999954 C21.5762655,0.999999954 23,2.42373446 23,4.17999997 L22.999,6.98299995 L23,6.99999998 C23,7.00578128 22.999951,7.01155113 22.9998532,7.01730912 L22.999,16.983 L23,17 C23,17.0057813 22.999951,17.0115512 22.9998532,17.0173092 L23,19.82 C23,21.5762655 21.5762655,23 19.82,23 L4.17999997,23 C2.42373446,23 0.999999954,21.5762655 0.999999954,19.82 L0.999999954,4.17999997 C0.999999954,2.42373446 2.42373446,0.999999954 4.17999997,0.999999954 L19.82,0.999999954 Z M5.99999995,18 L2.99999995,18 L2.99999996,19.82 C2.99999996,20.471696 3.52830396,21 4.17999997,21 L5.99999995,21 L5.99999995,18 Z M16,13 L7.99999995,13 L7.99999995,21 L16,21 L16,13 Z M21,18 L18,18 L18,21 L19.82,21 C20.471696,21 21,20.471696 21,19.82 L21,18 Z M21,13 L18,13 L18,16 L21,16 L21,13 Z M5.99999995,13 L2.99999995,13 L2.99999995,16 L5.99999995,16 L5.99999995,13 Z M5.99999995,7.99999995 L2.99999995,7.99999995 L2.99999995,11 L5.99999995,11 L5.99999995,7.99999995 Z M16,2.99999995 L7.99999995,2.99999995 L7.99999995,11 L16,11 L16,2.99999995 Z M21,7.99999995 L18,7.99999995 L18,11 L21,11 L21,7.99999995 Z M19.82,2.99999996 L18,2.99999995 L18,5.99999995 L21,5.99999995 L21,4.17999997 C21,3.52830396 20.471696,2.99999996 19.82,2.99999996 Z M5.99999995,2.99999995 L4.17999997,2.99999996 C3.52830396,2.99999996 2.99999996,3.52830396 2.99999996,4.17999997 L2.99999995,5.99999995 L5.99999995,5.99999995 L5.99999995,2.99999995 Z" id="Shape" fill="#000000"></path>
    </g>
</svg>