<?xml version="1.0" encoding="UTF-8"?>
<svg width="24px" height="24px" viewBox="0 0 24 24" version="1.1" xmlns="http://www.w3.org/2000/svg" xmlns:xlink="http://www.w3.org/1999/xlink">
    <title>feather-icon/filter</title>
    <g id="feather-icon/filter" stroke="none" stroke-width="1" fill="none" fill-rule="evenodd">
        <rect id="Bounding-Box" fill-opacity="0" fill="#FFFFFF" x="0" y="0" width="24" height="24"></rect>
        <path d="M8.99999999,12.8261466 L1.23643,3.64572508 C0.686770693,2.99575295 1.14877194,1.99999996 1.99999996,1.99999996 L22,1.99999996 C22.8512281,1.99999996 23.3132293,2.99575295 22.76357,3.64572508 L15,12.8261466 L15,21 C15,21.7433821 14.2176875,22.2268778 13.5527864,21.8944272 L9.55278639,19.8944272 C9.21400236,19.7250352 8.99999999,19.3787721 8.99999999,19 L8.99999999,12.8261466 Z M4.15530363,3.99999997 L10.7635699,11.8142749 C10.9162342,11.9948003 11,12.223577 11,12.46 L11,18.381966 L13,19.381966 L13,12.46 C13,12.223577 13.0837658,11.9948003 13.2364301,11.8142749 L19.8446964,3.99999997 L4.15530363,3.99999997 Z" id="Shape" fill="#000000"></path>
    </g>
</svg>