<?xml version="1.0" encoding="UTF-8"?>
<svg width="24px" height="24px" viewBox="0 0 24 24" version="1.1" xmlns="http://www.w3.org/2000/svg" xmlns:xlink="http://www.w3.org/1999/xlink">
    <title>feather-icon/folder-minus</title>
    <g id="feather-icon/folder-minus" stroke="none" stroke-width="1" fill="none" fill-rule="evenodd">
        <rect id="Bounding-Box" fill-opacity="0" fill="#FFFFFF" x="0" y="0" width="24" height="24"></rect>
        <path d="M8.99999995,1.99999996 C9.33435318,1.99999996 9.64658451,2.16710109 9.83205029,2.44529976 L11.5351838,4.99999996 L20,4.99999996 C21.6568543,4.99999996 23,6.34314573 23,7.99999996 L23,19 C23,20.6568543 21.6568543,22 20,22 L3.99999995,22 C2.34314571,22 0.999999954,20.6568543 0.999999954,19 L0.999999954,4.99999996 C0.999999954,3.34314571 2.34314571,1.99999996 3.99999995,1.99999996 L8.99999995,1.99999996 Z M8.46481623,3.99999997 L3.99999996,3.99999997 C3.44771521,3.99999997 2.99999996,4.44771522 2.99999996,4.99999997 L2.99999996,19 C2.99999996,19.5522848 3.44771521,20 3.99999996,20 L20,20 C20.5522848,20 21,19.5522848 21,19 L21,7.99999997 C21,7.44771523 20.5522848,6.99999997 20,6.99999997 L11,6.99999997 C10.6656468,6.99999997 10.3534155,6.83289884 10.1679497,6.55470017 L8.46481623,3.99999997 Z M15,13 C15.5522848,13 16,13.4477153 16,14 C16,14.5522848 15.5522848,15 15,15 L15,15 L8.99999998,15 C8.44771524,15 7.99999998,14.5522848 7.99999998,14 C7.99999998,13.4477153 8.44771524,13 8.99999998,13 L8.99999998,13 Z" id="Shape" fill="#000000"></path>
    </g>
</svg>