<?xml version="1.0" encoding="UTF-8"?>
<svg width="24px" height="24px" viewBox="0 0 24 24" version="1.1" xmlns="http://www.w3.org/2000/svg" xmlns:xlink="http://www.w3.org/1999/xlink">
    <title>feather-icon/framer</title>
    <g id="feather-icon/framer" stroke="none" stroke-width="1" fill="none" fill-rule="evenodd">
        <rect id="Bounding-Box" fill-opacity="0" fill="#FFFFFF" x="0" y="0" width="24" height="24"></rect>
        <path d="M4.99999997,0.999999954 L19,0.999999954 C19.5128359,0.999999954 19.9355072,1.38604015 19.9932723,1.88337883 L20,1.99999995 L20,8.99999995 C20,9.51283583 19.6139598,9.93550715 19.1166212,9.99327226 L19,9.99999995 L14.4142136,9.99999995 L19.7071068,15.2928932 C20.3096819,15.8954683 19.9276677,16.9071808 19.113631,16.9940167 L19,17 L13,17 L13,23 C13,23.8521699 12.0144864,24.2974339 11.3774732,23.7832252 L11.2928932,23.7071068 L4.26152732,16.6743114 L4.19633455,16.5953066 L4.12467114,16.4840621 L4.07122546,16.371336 L4.03584511,16.265993 L4.01072101,16.1464655 L4.00396638,16.0892501 L3.99999997,16 L3.99999997,8.99999995 C3.99999997,8.48716415 4.38604016,8.06449282 4.88337884,8.00672771 L4.99999997,7.99999995 L9.58578643,7.99999995 L4.29289319,2.70710674 C3.6903181,2.10453166 4.07233228,1.09281914 4.88636903,1.00598323 L4.99999997,0.999999954 L19,0.999999954 L4.99999997,0.999999954 Z M11,17 L7.41499998,17 L11,20.5857865 L11,17 Z M16.5857865,15 L11.5857864,9.99999999 L5.99999998,9.99999999 L5.99999998,15 L16.5857865,15 Z M18,2.99999996 L7.41421354,2.99999996 L12.4142135,7.99999996 L18,7.99999996 L18,2.99999996 Z" id="Shape" fill="#000000"></path>
    </g>
</svg>