<?xml version="1.0" encoding="UTF-8"?>
<svg width="24px" height="24px" viewBox="0 0 24 24" version="1.1" xmlns="http://www.w3.org/2000/svg" xmlns:xlink="http://www.w3.org/1999/xlink">
    <title>feather-icon/frown</title>
    <g id="feather-icon/frown" stroke="none" stroke-width="1" fill="none" fill-rule="evenodd">
        <rect id="Bounding-Box" fill-opacity="0" fill="#FFFFFF" x="0" y="0" width="24" height="24"></rect>
        <path d="M12,0.999999954 C18.0751323,0.999999954 23,5.92486773 23,12 C23,18.0751323 18.0751323,23 12,23 C5.92486773,23 0.999999954,18.0751323 0.999999954,12 C0.999999954,5.92486773 5.92486773,0.999999954 12,0.999999954 Z M12,2.99999996 C7.02943723,2.99999996 2.99999996,7.02943723 2.99999996,12 C2.99999996,16.9705628 7.02943723,21 12,21 C16.9705628,21 21,16.9705628 21,12 C21,7.02943723 16.9705628,2.99999996 12,2.99999996 Z M12,13 C13.3247669,13 14.5068925,13.4503336 15.5256717,14.1912639 C16.1309689,14.6314801 16.5571182,15.0761576 16.8,15.4 C17.1313709,15.8418278 17.0418278,16.4686292 16.6,16.8 C16.1581722,17.1313709 15.5313709,17.0418278 15.2,16.6 C15.0678818,16.4238424 14.7752811,16.11852 14.3493283,15.8087361 C13.6493575,15.2996664 12.8627331,15 12,15 C11.1372669,15 10.3506425,15.2996664 9.65067169,15.8087361 C9.22471886,16.11852 8.9321182,16.4238424 8.79999999,16.6 C8.46862914,17.0418278 7.84182778,17.1313709 7.39999998,16.8 C6.95817218,16.4686292 6.86862913,15.8418278 7.19999998,15.4 C7.44288177,15.0761576 7.86903111,14.6314801 8.47432829,14.1912639 C9.49310752,13.4503336 10.6752331,13 12,13 Z M8.99999998,7.99999998 L9.12662111,8.00672771 C9.6239598,8.06449282 10.01,8.48716415 10.01,8.99999998 C10.01,9.55228474 9.56228474,9.99999998 9.00999999,9.99999998 L9.00999999,9.99999998 L8.99999998,9.99999998 C8.44771524,9.99999998 7.99999998,9.55228474 7.99999998,8.99999998 C7.99999998,8.44771524 8.44771524,7.99999998 8.99999998,7.99999998 L8.99999998,7.99999998 Z M15,7.99999998 L15.1266211,8.00672771 C15.6239598,8.06449282 16.01,8.48716415 16.01,8.99999998 C16.01,9.55228474 15.5622848,9.99999998 15.01,9.99999998 L15.01,9.99999998 L15,9.99999998 C14.4477153,9.99999998 14,9.55228474 14,8.99999998 C14,8.44771524 14.4477153,7.99999998 15,7.99999998 L15,7.99999998 Z" id="Shape" fill="#000000"></path>
    </g>
</svg>