<?xml version="1.0" encoding="UTF-8"?>
<svg width="24px" height="24px" viewBox="0 0 24 24" version="1.1" xmlns="http://www.w3.org/2000/svg" xmlns:xlink="http://www.w3.org/1999/xlink">
    <title>feather-icon/gift</title>
    <g id="feather-icon/gift" stroke="none" stroke-width="1" fill="none" fill-rule="evenodd">
        <rect id="Bounding-Box" fill-opacity="0" fill="#FFFFFF" x="0" y="0" width="24" height="24"></rect>
        <path d="M16.5,0.999999954 C18.4329967,0.999999954 20,2.56700334 20,4.49999995 C20,5.037207 19.8789706,5.54614609 19.6626914,6.0010375 L22,5.99999998 C22.5522848,5.99999998 23,6.44771523 23,6.99999998 L23,12 C23,12.5522848 22.5522848,13 22,13 L21,13 L21,22 C21,22.5128359 20.6139598,22.9355072 20.1166211,22.9932723 L20,23 L3.99999996,23 C3.44771521,23 2.99999996,22.5522848 2.99999996,22 L2.99999996,22 L2.99999995,13 L1.99999995,13 C1.44771521,13 0.999999954,12.5522848 0.999999954,12 L0.999999954,6.99999998 C0.999999954,6.44771523 1.44771521,5.99999998 1.99999995,5.99999998 L4.33730864,6.0010375 C4.12102944,5.54614609 3.99999997,5.037207 3.99999997,4.49999995 C3.99999997,2.56700334 5.56700335,0.999999954 7.49999997,0.999999954 C9.46085568,0.999999954 10.9214191,2.16845072 11.9387159,4.01808122 L11.9978355,4.13544276 C12.0186976,4.0961829 12.0398462,4.05705921 12.0612841,4.01808122 C13.0785809,2.16845072 14.5391443,0.999999954 16.5,0.999999954 Z M11,13 L4.99999995,13 L4.99999996,21 L11,21 L11,13 Z M19,13 L13,13 L13,21 L19,21 L19,13 Z M11,7.99999995 L2.99999996,7.99999998 L2.99999996,11 L11,11 L11,7.99999995 Z M21,7.99999998 L13,7.99999995 L13,11 L21,11 L21,7.99999998 Z M7.49999998,2.99999996 C6.67157285,2.99999996 5.99999998,3.67157284 5.99999998,4.49999996 C5.99999998,5.3284271 6.67157285,5.99999996 7.49999998,5.99999996 L10.6542551,5.99999996 L10.5131761,5.65256629 C10.4141746,5.42301547 10.3052538,5.19822738 10.1862841,4.98191872 C9.48483085,3.7065492 8.6016443,2.99999996 7.49999998,2.99999996 Z M16.5,2.99999996 C15.3983557,2.99999996 14.5151692,3.7065492 13.8137159,4.98191872 C13.6947462,5.19822738 13.5858254,5.42301547 13.4868233,5.65256629 L13.345743,5.99999996 L16.5,5.99999996 C17.3284271,5.99999996 18,5.3284271 18,4.49999996 C18,3.67157284 17.3284271,2.99999996 16.5,2.99999996 Z" id="Shape" fill="#000000"></path>
    </g>
</svg>