<?xml version="1.0" encoding="UTF-8"?>
<svg width="24px" height="24px" viewBox="0 0 24 24" version="1.1" xmlns="http://www.w3.org/2000/svg" xmlns:xlink="http://www.w3.org/1999/xlink">
    <title>feather-icon/git-commit</title>
    <g id="feather-icon/git-commit" stroke="none" stroke-width="1" fill="none" fill-rule="evenodd">
        <rect id="Bounding-Box" fill-opacity="0" fill="#FFFFFF" x="0" y="0" width="24" height="24"></rect>
        <path d="M12,6.99999998 C14.4210081,6.99999998 16.4401315,8.72067264 16.9011564,11.0058041 L17.01,11 L22.96,11 C23.5122848,11 23.96,11.4477152 23.96,12 C23.96,12.5522848 23.5122848,13 22.96,13 L22.96,13 L17.01,13 C16.9729113,13 16.9362942,12.9979809 16.9002525,12.9940466 C16.4401315,15.2793274 14.4210081,17 12,17 C9.57934468,17 7.56045688,15.2798288 7.09904515,12.9951948 L6.99999998,13 L1.04999995,13 C0.497715202,13 0.04999995,12.5522848 0.04999995,12 C0.04999995,11.4477152 0.497715202,11 1.04999995,11 L1.04999995,11 L6.99999998,11 C7.03400766,11 7.06761885,11.0016976 7.10075344,11.0050126 C7.56045688,8.72017124 9.57934468,6.99999998 12,6.99999998 Z M12,8.99999999 C10.3431457,8.99999999 8.99999999,10.3431457 8.99999999,12 C8.99999999,13.6568543 10.3431457,15 12,15 C13.6568543,15 15,13.6568543 15,12 C15,10.3431457 13.6568543,8.99999999 12,8.99999999 Z" id="Shape" fill="#000000"></path>
    </g>
</svg>