<?xml version="1.0" encoding="UTF-8"?>
<svg width="24px" height="24px" viewBox="0 0 24 24" version="1.1" xmlns="http://www.w3.org/2000/svg" xmlns:xlink="http://www.w3.org/1999/xlink">
    <title>feather-icon/git-pull-request</title>
    <g id="feather-icon/git-pull-request" stroke="none" stroke-width="1" fill="none" fill-rule="evenodd">
        <rect id="Bounding-Box" fill-opacity="0" fill="#FFFFFF" x="0" y="0" width="24" height="24"></rect>
        <path d="M16,4.99999997 C17.6568543,4.99999997 19,6.34314573 19,7.99999997 L19,7.99999997 L19.0007614,14.1262135 C20.7256023,14.5705211 22,16.1364348 22,18 C22,20.209139 20.209139,22 18,22 C15.790861,22 14,20.209139 14,18 C14,16.1360729 15.2748927,14.5699129 17.0002435,14.1259548 L17,7.99999997 C17,7.44771523 16.5522848,6.99999997 16,6.99999997 L16,6.99999997 L13,6.99999997 C12.4477153,6.99999997 12,6.55228473 12,5.99999997 C12,5.44771522 12.4477153,4.99999997 13,4.99999997 L13,4.99999997 Z M5.99999996,1.99999996 C8.20913898,1.99999996 9.99999996,3.79086097 9.99999996,5.99999996 C9.99999996,7.86356523 8.72560221,9.42947892 7.00076131,9.87378644 L6.99999997,21 C6.99999997,21.5522848 6.55228473,22 5.99999997,22 C5.44771522,22 4.99999997,21.5522848 4.99999997,21 L4.99999997,21 L5.00024343,9.87404513 C3.27489269,9.43008703 1.99999996,7.86392709 1.99999996,5.99999996 C1.99999996,3.79086097 3.79086097,1.99999996 5.99999996,1.99999996 Z M18,16 C16.8954305,16 16,16.8954305 16,18 C16,19.1045695 16.8954305,20 18,20 C19.1045695,20 20,19.1045695 20,18 C20,16.8954305 19.1045695,16 18,16 Z M5.99999997,3.99999997 C4.89543047,3.99999997 3.99999997,4.89543047 3.99999997,5.99999997 C3.99999997,7.10456948 4.89543047,7.99999997 5.99999997,7.99999997 C7.10456948,7.99999997 7.99999997,7.10456948 7.99999997,5.99999997 C7.99999997,4.89543047 7.10456948,3.99999997 5.99999997,3.99999997 Z" id="Shape" fill="#000000"></path>
    </g>
</svg>