<?xml version="1.0" encoding="UTF-8"?>
<svg width="24px" height="24px" viewBox="0 0 24 24" version="1.1" xmlns="http://www.w3.org/2000/svg" xmlns:xlink="http://www.w3.org/1999/xlink">
    <title>feather-icon/git-merge</title>
    <g id="feather-icon/git-merge" stroke="none" stroke-width="1" fill="none" fill-rule="evenodd">
        <rect id="Bounding-Box" fill-opacity="0" fill="#FFFFFF" x="0" y="0" width="24" height="24"></rect>
        <path d="M5.99999996,1.99999996 C8.20913898,1.99999996 9.99999996,3.79086097 9.99999996,5.99999996 C9.99999996,7.84691979 8.74826648,9.40148157 7.04687195,9.86161286 C7.44502122,13.5915387 10.4084612,16.5549787 14.1389177,16.9541992 C14.5985184,15.2517335 16.1530802,14 18,14 C20.209139,14 22,15.790861 22,18 C22,20.209139 20.209139,22 18,22 C16.1220182,22 14.546311,20.7058085 14.1161038,18.9606507 C11.2089201,18.7068955 8.65835591,17.2082338 6.99999997,15.0009749 L6.99999997,15.0009749 L6.99999997,21 C6.99999997,21.5522848 6.55228473,22 5.99999997,22 C5.44771522,22 4.99999997,21.5522848 4.99999997,21 L4.99999997,21 L5.00024343,9.87404513 C3.27489269,9.43008703 1.99999996,7.86392709 1.99999996,5.99999996 C1.99999996,3.79086097 3.79086097,1.99999996 5.99999996,1.99999996 Z M18,16 C16.8954305,16 16,16.8954305 16,18 C16,19.1045695 16.8954305,20 18,20 C19.1045695,20 20,19.1045695 20,18 C20,16.8954305 19.1045695,16 18,16 Z M5.99999997,3.99999997 C4.89543047,3.99999997 3.99999997,4.89543047 3.99999997,5.99999997 C3.99999997,7.10456948 4.89543047,7.99999997 5.99999997,7.99999997 C7.10456948,7.99999997 7.99999997,7.10456948 7.99999997,5.99999997 C7.99999997,4.89543047 7.10456948,3.99999997 5.99999997,3.99999997 Z" id="Shape" fill="#000000"></path>
    </g>
</svg>