<?xml version="1.0" encoding="UTF-8"?>
<svg width="24px" height="24px" viewBox="0 0 24 24" version="1.1" xmlns="http://www.w3.org/2000/svg" xmlns:xlink="http://www.w3.org/1999/xlink">
    <title>feather-icon/github</title>
    <g id="feather-icon/github" stroke="none" stroke-width="1" fill="none" fill-rule="evenodd">
        <rect id="Bounding-Box" fill="#D8D8D8" opacity="0" x="0" y="0" width="24" height="24"></rect>
        <path d="M15.8209669,1.40284677 C17.6673287,0.231592782 19.0450875,-0.139448544 19.9849234,-0.0030249726 C20.0672424,0.0089241857 20.1370916,0.0242959632 20.194365,0.0412838418 C20.4793858,0.125823911 20.7120136,0.332798264 20.8291324,0.606051042 C21.3636282,1.85309689 21.4626961,3.23745563 21.1210721,4.53861932 C22.0104843,5.66887918 22.4997335,7.06998107 22.5,8.51999999 C22.5,13.0566444 20.5228625,15.3336742 16.9605046,16.2046917 L16.7094009,16.2631898 L16.8034149,16.5226683 C16.9460071,16.958867 17.0177058,17.4122945 17.0124422,17.8613004 L17,18.13 L17,22 C17,22.5522848 16.5522848,23 16,23 C15.4871642,23 15.0644929,22.6139599 15.0067277,22.1166212 L15,22 L15.00308,18.0515746 C15.0515945,17.4348741 14.8570032,16.8262633 14.4653677,16.353636 L14.265697,16.128196 C13.798802,15.5260222 14.1625242,14.6138441 14.9492211,14.5261549 C18.7180589,14.1060616 20.5,12.6076942 20.5000001,8.5201838 C20.4997906,7.38066025 20.061462,6.28483871 19.2757353,5.45952202 C19.0118621,5.18235311 18.9293121,4.77889529 19.0631162,4.42035914 C19.3505677,3.65011547 19.3962586,2.81614184 19.2027941,2.0275639 C19.1325853,2.04343039 19.0555833,2.06314484 18.9716158,2.08731668 C18.3272446,2.27281267 17.5241981,2.66217092 16.5568049,3.31064329 C16.3163417,3.47183289 16.017826,3.52090671 15.7384156,3.44518056 C13.6177244,2.87042817 11.3822756,2.87042817 9.26158444,3.44518056 C8.98217404,3.52090671 8.68365829,3.47183289 8.44319512,3.31064329 C7.4758019,2.66217092 6.67275539,2.27281267 6.0283842,2.08731668 C5.94441667,2.06314484 5.86741473,2.04343039 5.79720589,2.0275639 C5.60374139,2.81614184 5.64943231,3.65011547 5.93688379,4.42035914 C6.07069046,4.77890221 5.98813457,5.18236798 5.72425055,5.45953685 C4.93267104,6.29096724 4.49386888,7.3967069 4.499923,8.54999999 C4.499923,12.599183 6.26851734,14.0863041 10.0632567,14.5576252 C10.8429186,14.6544622 11.1978489,15.5600382 10.7343209,16.1581484 L10.5366744,16.3815893 C10.1880956,16.8027727 9.99567473,17.336108 9.99359622,17.9299008 L9.99999999,18.13 L9.99999999,22 C9.99999999,22.5522848 9.55228474,23 8.99999999,23 C8.48716415,23 8.06449282,22.6139599 8.00672771,22.1166212 L7.99999998,22 L8.00004841,20.2617319 C5.87173844,20.6088144 4.48961359,19.9559792 3.21806782,18.4614685 L3.05965456,18.2702824 L2.49772973,17.5684435 C2.20917269,17.2269587 2.01253382,17.0607836 1.82677301,16.9916652 L1.64595694,16.9353309 C1.17747764,16.7586681 0.905476493,16.2549882 1.02985745,15.7574644 C1.16380618,15.2216695 1.70674067,14.8959088 2.24253558,15.0298575 C2.94377892,15.2051683 3.4345571,15.5819336 4.00679939,16.255579 L4.16510457,16.4467328 L4.73891291,17.1630055 C5.63512111,18.2226994 6.4250308,18.5774221 8.00245705,18.2293551 L8.00246418,18.2001592 C7.95592236,17.5384194 8.06095016,16.8827801 8.3006521,16.2796141 C4.55974819,15.4211519 2.49992456,13.1665372 2.49993684,8.55526133 C2.49224403,7.09314636 2.98203878,5.67831258 3.87892432,4.53860559 C3.53730461,3.23744589 3.63637373,1.85309251 4.17086763,0.606051042 C4.28798638,0.332798264 4.52061422,0.125823911 4.80563502,0.0412838418 C4.86290844,0.0242959632 4.93275759,0.0089241857 5.01507656,-0.0030249726 C5.95491249,-0.139448544 7.33267131,0.231592782 9.17903311,1.40284677 C11.3626161,0.884539426 13.6373839,0.884539426 15.8209669,1.40284677 Z" id="Shape" fill="#000000"></path>
    </g>
</svg>