<?xml version="1.0" encoding="UTF-8"?>
<svg width="24px" height="24px" viewBox="0 0 24 24" version="1.1" xmlns="http://www.w3.org/2000/svg" xmlns:xlink="http://www.w3.org/1999/xlink">
    <title>feather-icon/gitlab</title>
    <g id="feather-icon/gitlab" stroke="none" stroke-width="1" fill="none" fill-rule="evenodd">
        <rect id="Bounding-Box" fill-opacity="0" fill="#FFFFFF" x="0" y="0" width="24" height="24"></rect>
        <path d="M15.3235887,8.66999999 L17.5573221,1.79928981 C17.6373364,1.59239907 17.764708,1.4071313 17.9255814,1.26165075 C18.471753,0.762769897 19.308247,0.762769897 19.8544186,1.26165075 L19.9735885,1.38640279 C20.0973633,1.53280245 20.1895828,1.70088279 20.241062,1.87099979 L22.677416,9.36999515 L23.9601152,13.1703949 C24.1873679,13.9507412 23.8757165,14.7877477 23.2379007,15.1989331 L12.5879007,22.9389332 C12.2373645,23.193689 11.7626355,23.193689 11.4120993,22.9389332 L0.757537868,15.1955983 C0.115982941,14.7237789 -0.149226824,13.8927883 0.0983388015,13.1428501 L1.31893797,9.36099982 L3.777322,1.79928981 C3.85733632,1.59239907 3.98470791,1.4071313 4.14558136,1.26165075 C4.69175295,0.762769897 5.52824699,0.762769897 6.09498435,1.28097511 C6.26870721,1.44888958 6.39671296,1.65835354 6.46081925,1.87025376 L8.67595687,8.66999999 L15.3235887,8.66999999 Z M18.8868279,4.1748601 L17.001062,9.97900016 C16.867193,10.3910314 16.4832328,10.67 16.05,10.67 L7.94999998,10.67 C7.5170563,10.67 7.13328337,10.3913974 6.9991807,9.97974619 L5.10756406,4.17259267 L3.22166111,9.97714989 L2.035562,13.6520433 L12.000068,20.8938533 L22.0037053,13.6252848 L20.7789381,9.99900016 L18.8868279,4.1748601 Z" id="Shape" fill="#000000"></path>
    </g>
</svg>