<?xml version="1.0" encoding="UTF-8"?>
<svg width="24px" height="24px" viewBox="0 0 24 24" version="1.1" xmlns="http://www.w3.org/2000/svg" xmlns:xlink="http://www.w3.org/1999/xlink">
    <title>feather-icon/hard-drive</title>
    <g id="feather-icon/hard-drive" stroke="none" stroke-width="1" fill="none" fill-rule="evenodd">
        <rect id="Bounding-Box" fill-opacity="0" fill="#FFFFFF" x="0" y="0" width="24" height="24"></rect>
        <path d="M16.7605307,3.0000001 C17.8989466,3.00060419 18.9389357,3.64551359 19.4441675,4.66226734 L22.8941675,11.5522674 C22.9090481,11.58202 22.9189676,11.6042607 22.9280819,11.6269119 L22.8941675,11.5522674 C22.9637636,11.6912578 23,11.8445588 23,12.0000001 L23,18.0000001 C23,19.6568543 21.6568543,21.0000001 20,21.0000001 L3.99999995,21.0000001 C2.34314571,21.0000001 0.999999954,19.6568543 0.999999954,18.0000001 L0.999999954,12.0000001 C0.999999954,11.8717974 1.0246494,11.7450505 1.07233433,11.6265876 C1.08103229,11.6042607 1.09095182,11.58202 1.10164111,11.5602253 L1.10583247,11.5522674 L4.55446933,4.66500011 C5.06106435,3.64551359 6.10105337,3.00060419 7.23946934,3.0000001 L16.7605307,3.0000001 Z M21,12.9990001 L2.99999995,12.9990001 L2.99999996,18 C2.99999996,18.5522848 3.44771521,19 3.99999996,19 L20,19 C20.5522848,19 21,18.5522848 21,18 L21,12.9990001 Z M5.29289319,15.2928932 C5.68341748,14.9023689 6.31658247,14.9023689 6.70710676,15.2928932 C7.09763105,15.6834175 7.09763105,16.3165825 6.70710676,16.7071068 C6.31658247,17.0976311 5.68341748,17.0976311 5.29289319,16.7071068 C4.9023689,16.3165825 4.9023689,15.6834175 5.29289319,15.2928932 Z M9.29289321,15.2928932 C9.6834175,14.9023689 10.3165825,14.9023689 10.7071068,15.2928932 C11.0976311,15.6834175 11.0976311,16.3165825 10.7071068,16.7071068 C10.3165825,17.0976311 9.6834175,17.0976311 9.29289321,16.7071068 C8.90236891,16.3165825 8.90236891,15.6834175 9.29289321,15.2928932 Z M16.76,4.99999997 L7.23999998,4.99999997 L7.11545212,5.00790175 C6.78620061,5.04954747 6.49548138,5.25323339 6.34416746,5.5577326 L3.61899995,10.9990001 L20.381,10.9990001 L17.6544694,5.55499983 C17.4856044,5.21517099 17.1389414,5.00020119 16.76,4.99999997 Z" id="Shape" fill="#000000"></path>
    </g>
</svg>