<?xml version="1.0" encoding="UTF-8"?>
<svg width="24px" height="24px" viewBox="0 0 24 24" version="1.1" xmlns="http://www.w3.org/2000/svg" xmlns:xlink="http://www.w3.org/1999/xlink">
    <title>feather-icon/hash</title>
    <g id="feather-icon/hash" stroke="none" stroke-width="1" fill="none" fill-rule="evenodd">
        <rect id="Bounding-Box" fill-opacity="0" fill="#FFFFFF" x="0" y="0" width="24" height="24"></rect>
        <path d="M15.9937807,1.99992416 L16.1104315,2.00611622 C16.6593384,2.06710587 17.0548734,2.56152466 16.9938838,3.11043149 L16.9938838,3.11043149 L16.45,7.99992416 L20,7.99999998 C20.5128359,7.99999998 20.9355071,8.38604018 20.9932722,8.88337886 L21,8.99999998 C21,9.55228474 20.5522848,9.99999998 20,9.99999998 L20,9.99999998 L16.227,9.99992416 L15.783,13.9999242 L20,14 C20.5128359,14 20.9355071,14.3860402 20.9932722,14.8833789 L21,15 C21,15.5522848 20.5522848,16 20,16 L20,16 L15.561,15.9999242 L14.9938837,21.1104316 C14.9372505,21.6201308 14.5068952,21.9975859 14.0062193,22.0000758 L13.8895685,21.9938838 C13.3406616,21.9328941 12.9451266,21.4384753 13.0061163,20.8895685 L13.0061163,20.8895685 L13.549,15.9999242 L9.56099996,15.9999242 L8.99388372,21.1104316 C8.93725048,21.6201308 8.50689517,21.9975859 8.00621925,22.0000758 L7.88956846,21.9938838 C7.34066162,21.9328941 6.9451266,21.4384753 7.00611624,20.8895685 L7.00611624,20.8895685 L7.54899996,15.9999242 L3.99999996,16 C3.48716413,16 3.0644928,15.6139598 3.00672769,15.1166211 L2.99999996,15 C2.99999996,14.4477153 3.44771521,14 3.99999996,14 L3.99999996,14 L7.77099996,13.9999242 L8.21599996,9.99992416 L3.99999996,9.99999998 C3.48716413,9.99999998 3.0644928,9.6139598 3.00672769,9.11662111 L2.99999996,8.99999998 C2.99999996,8.44771524 3.44771521,7.99999998 3.99999996,7.99999998 L3.99999996,7.99999998 L8.43799996,7.99992416 L9.00611625,2.88956844 C9.0627495,2.37986923 9.4931048,2.00241409 9.99378072,1.99992416 L10.1104315,2.00611622 C10.6593384,2.06710587 11.0548734,2.56152466 10.9938837,3.11043149 L10.9938837,3.11043149 L10.45,7.99992416 L14.438,7.99992416 L15.0061163,2.88956844 C15.0627495,2.37986923 15.4931048,2.00241409 15.9937807,1.99992416 Z M13.771,13.9999242 L14.216,9.99992416 L10.227,9.99992416 L9.78299996,13.9999242 L13.771,13.9999242 Z" id="Shape" fill="#000000"></path>
    </g>
</svg>