<?xml version="1.0" encoding="UTF-8"?>
<svg width="24px" height="24px" viewBox="0 0 24 24" version="1.1" xmlns="http://www.w3.org/2000/svg" xmlns:xlink="http://www.w3.org/1999/xlink">
    <title>feather-icon/headphones</title>
    <g id="feather-icon/headphones" stroke="none" stroke-width="1" fill="none" fill-rule="evenodd">
        <rect id="Bounding-Box" fill-opacity="0" fill="#FFFFFF" x="0" y="0" width="24" height="24"></rect>
        <path d="M22,19 C22,20.6568543 20.6568543,22 19,22 L18,22 C16.3431458,22 15,20.6568543 15,19 L15,16 C15,14.3431458 16.3431458,13 18,13 L20,12.9990001 L20,12.0000001 C20,7.66508582 16.5521622,4.13545723 12.2491793,4.00380692 L12,4.00000009 C7.58172199,4.00000009 3.99999996,7.58172208 3.99999996,12.0000001 L3.99999996,12.0000001 L3.99899996,12.9990001 L5.99999996,13 C7.65685423,13 8.99999996,14.3431458 8.99999996,16 L8.99999996,19 C8.99999996,20.6568543 7.65685423,22 5.99999996,22 L4.99999996,22 C3.34314571,22 1.99999996,20.6568543 1.99999996,19 L1.99999996,12.0000001 C1.99999996,6.47715258 6.47715249,2.00000009 12,2.00000009 C17.5228475,2.00000009 22,6.47715258 22,12.0000001 L22,12.0000001 L22,19 Z M20,15 L18,15 C17.4477153,15 17,15.4477153 17,16 L17,19 C17,19.5522848 17.4477153,20 18,20 L19,20 C19.5522848,20 20,19.5522848 20,19 L20,15 Z M5.99999997,15 L3.99999997,15 L3.99999997,19 C3.99999997,19.5522848 4.44771522,20 4.99999997,20 L5.99999997,20 C6.55228473,20 6.99999997,19.5522848 6.99999997,19 L6.99999997,16 C6.99999997,15.4477153 6.55228473,15 5.99999997,15 Z" id="Shape" fill="#000000"></path>
    </g>
</svg>