<?xml version="1.0" encoding="UTF-8"?>
<svg width="24px" height="24px" viewBox="0 0 24 24" version="1.1" xmlns="http://www.w3.org/2000/svg" xmlns:xlink="http://www.w3.org/1999/xlink">
    <title>feather-icon/help-circle</title>
    <g id="feather-icon/help-circle" stroke="none" stroke-width="1" fill="none" fill-rule="evenodd">
        <rect id="Bounding-Box" fill-opacity="0" fill="#FFFFFF" x="0" y="0" width="24" height="24"></rect>
        <path d="M12,0.999999954 C18.0751323,0.999999954 23,5.92486773 23,12 C23,18.0751323 18.0751323,23 12,23 C5.92486773,23 0.999999954,18.0751323 0.999999954,12 C0.999999954,5.92486773 5.92486773,0.999999954 12,0.999999954 Z M12,2.99999996 C7.02943723,2.99999996 2.99999996,7.02943723 2.99999996,12 C2.99999996,16.9705628 7.02943723,21 12,21 C16.9705628,21 21,16.9705628 21,12 C21,7.02943723 16.9705628,2.99999996 12,2.99999996 Z M11.2928932,16.2928932 C11.6834175,15.9023689 12.3165825,15.9023689 12.7071068,16.2928932 C13.0976311,16.6834175 13.0976311,17.3165825 12.7071068,17.7071068 C12.3165825,18.0976311 11.6834175,18.0976311 11.2928932,17.7071068 C10.9023689,17.3165825 10.9023689,16.6834175 11.2928932,16.2928932 Z M8.14666554,8.66815646 C8.79391471,6.8282157 10.6738437,5.72336488 12.596234,6.05310592 C14.5186231,6.38284676 15.9229036,8.05102528 15.9200123,9.99999999 C15.9200123,11.2797252 15.1618143,12.2906429 13.9747015,13.0820506 C13.3257819,13.5146632 12.6882585,13.7980066 12.2362274,13.9486834 C11.7122841,14.123331 11.1459642,13.8401708 10.9713166,13.3162275 C10.796669,12.7922841 11.0798292,12.2259642 11.6037726,12.0513166 L11.6037726,12.0513166 L11.7134483,12.0112277 L11.9826124,11.8986883 C12.2857157,11.7639759 12.5884455,11.6025202 12.8653019,11.4179494 C13.5531912,10.9593571 13.9200034,10.4702747 13.9200045,9.9985125 C13.9214551,9.02327936 13.2193138,8.18918877 12.2581187,8.02431825 C11.2969235,7.85944773 10.356959,8.41187314 10.0333344,9.33184352 L10.0333344,9.33184352 L9.98828797,9.43962369 C9.76875753,9.88961143 9.24193217,10.1135157 8.75815646,9.94333443 C8.23716723,9.76006231 7.96339342,9.18914569 8.14666554,8.66815646 Z" id="Shape" fill="#000000"></path>
    </g>
</svg>