<?xml version="1.0" encoding="UTF-8"?>
<svg width="24px" height="24px" viewBox="0 0 24 24" version="1.1" xmlns="http://www.w3.org/2000/svg" xmlns:xlink="http://www.w3.org/1999/xlink">
    <title>feather-icon/hexagon</title>
    <g id="feather-icon/hexagon" stroke="none" stroke-width="1" fill="none" fill-rule="evenodd">
        <rect id="Bounding-Box" fill-opacity="0" fill="#FFFFFF" x="0" y="0" width="24" height="24"></rect>
        <path d="M3.49999996,5.40397427 L10.5,1.40397455 C11.4282032,0.868076165 12.5717968,0.868076165 13.4961389,1.40175681 L20.5,5.40397427 C21.4272516,5.93932278 21.9989013,6.92827669 22,7.99999998 L22,16.0010257 C21.9989013,17.0717233 21.4272516,18.0606772 20.496139,18.5982432 L13.5,22.5960254 C12.5717968,23.1319238 11.4282032,23.1319238 10.5038611,22.5982432 L3.49999996,18.5960257 C2.57274837,18.0606772 2.00109871,17.0717233 1.99999996,16 L1.99999996,7.99897428 C2.00109871,6.92827669 2.57274837,5.93932278 3.49999996,5.40397427 Z M4.4001652,7.20190604 C4.15040023,7.38907392 4.00032434,7.68421325 3.99999944,7.99999998 L3.99999944,15.9989743 C4.00036552,16.3558735 4.1909154,16.6855248 4.49613891,16.8617569 L11.4999994,20.8639746 C11.8094011,21.0426074 12.1905989,21.0426074 12.5038611,20.8617569 L19.4999994,16.8639743 C19.8090846,16.6855248 19.9996345,16.3558735 19.9999994,16 L19.9999994,8.00102569 C19.9996345,7.6441265 19.8090846,7.31447519 19.5038611,7.13824312 L12.4999994,3.13602537 C12.1905989,2.95739257 11.8094011,2.95739257 11.4961389,3.13824311 L4.49840221,7.13694981 L4.4001652,7.20190604 Z" id="Shape" fill="#000000"></path>
    </g>
</svg>