<?xml version="1.0" encoding="UTF-8"?>
<svg width="24px" height="24px" viewBox="0 0 24 24" version="1.1" xmlns="http://www.w3.org/2000/svg" xmlns:xlink="http://www.w3.org/1999/xlink">
    <title>feather-icon/home</title>
    <g id="feather-icon/home" stroke="none" stroke-width="1" fill="none" fill-rule="evenodd">
        <rect id="Bounding-Box" fill-opacity="0" fill="#FFFFFF" x="0" y="0" width="24" height="24"></rect>
        <path d="M12.6139406,1.21064774 L21.6139407,8.21064777 C21.8575272,8.40010397 22,8.69140955 22,8.99999995 L22,20 C22,21.6568543 20.6568543,23 19,23 L15.017,22.999 L15,23 C14.9942681,23 14.9885475,22.9999518 14.9828385,22.9998557 L9.01699996,22.999 L8.99999998,23 C8.99426809,23 8.98854746,22.9999518 8.98283848,22.9998557 L4.99999996,23 C3.34314571,23 1.99999996,21.6568543 1.99999996,20 L1.99999996,8.99999995 C1.99999996,8.69140955 2.1424728,8.40010397 2.38605935,8.21064777 L11.3860594,1.21064774 C11.7471699,0.929784026 12.2528301,0.929784026 12.6139406,1.21064774 Z M12,3.26686155 L3.99999997,9.4890838 L3.99999997,20 C3.99999997,20.5522848 4.44771522,21 4.99999997,21 L7.99999996,21 L7.99999998,12 C7.99999998,11.4871642 8.38604018,11.0644928 8.88337886,11.0067277 L8.99999998,11 L15,11 C15.5522848,11 16,11.4477152 16,12 L16,12 L16,21 L19,21 C19.5522848,21 20,20.5522848 20,20 L20,9.4890838 L12,3.26686155 Z M14,13 L9.99999998,13 L9.99999996,21 L14,21 L14,13 Z" id="Shape" fill="#000000"></path>
    </g>
</svg>