<?xml version="1.0" encoding="UTF-8"?>
<svg width="24px" height="24px" viewBox="0 0 24 24" version="1.1" xmlns="http://www.w3.org/2000/svg" xmlns:xlink="http://www.w3.org/1999/xlink">
    <title>feather-icon/image</title>
    <g id="feather-icon/image" stroke="none" stroke-width="1" fill="none" fill-rule="evenodd">
        <rect id="Bounding-Box" fill-opacity="0" fill="#FFFFFF" x="0" y="0" width="24" height="24"></rect>
        <path d="M19,1.99999996 C20.6568543,1.99999996 22,3.34314571 22,4.99999996 L22,19 C22,20.6568543 20.6568543,22 19,22 L4.99999996,22 L4.9419598,21.9983247 C4.94162939,21.9983056 4.94129898,21.9982864 4.94096858,21.9982669 L4.99999996,22 C3.34314571,22 1.99999996,20.6568543 1.99999996,19 L1.99999996,4.99999996 C1.99999996,3.34314571 3.34314571,1.99999996 4.99999996,1.99999996 L19,1.99999996 Z M16,11.4142136 L7.41399996,20 L19,20 C19.5522848,20 20,19.5522848 20,19 L20,15.415 L16,11.4142136 Z M19,3.99999997 L4.99999997,3.99999997 C4.44771522,3.99999997 3.99999997,4.44771522 3.99999997,4.99999997 L3.99999997,19 C3.99999997,19.4289102 4.27002782,19.794752 4.6493566,19.9367985 L15.2928932,9.29289321 C15.6834175,8.90236891 16.3165825,8.90236891 16.7071068,9.29289321 L16.7071068,9.29289321 L20,12.585 L20,4.99999997 C20,4.44771522 19.5522848,3.99999997 19,3.99999997 Z M8.49999997,5.99999998 C9.88071187,5.99999998 11,7.11928811 11,8.49999998 C11,9.88071187 9.88071187,11 8.49999997,11 C7.11928811,11 5.99999997,9.88071187 5.99999997,8.49999998 C5.99999997,7.11928811 7.11928811,5.99999998 8.49999997,5.99999998 Z M8.49999998,7.99999998 C8.22385761,7.99999998 7.99999998,8.22385761 7.99999998,8.49999998 C7.99999998,8.77614236 8.22385761,8.99999998 8.49999998,8.99999998 C8.77614236,8.99999998 8.99999998,8.77614236 8.99999998,8.49999998 C8.99999998,8.22385761 8.77614236,7.99999998 8.49999998,7.99999998 Z" id="Shape" fill="#000000"></path>
    </g>
</svg>