<?xml version="1.0" encoding="UTF-8"?>
<svg width="24px" height="24px" viewBox="0 0 24 24" version="1.1" xmlns="http://www.w3.org/2000/svg" xmlns:xlink="http://www.w3.org/1999/xlink">
    <title>feather-icon/italic</title>
    <g id="feather-icon/italic" stroke="none" stroke-width="1" fill="none" fill-rule="evenodd">
        <rect id="Bounding-Box" fill-opacity="0" fill="#FFFFFF" x="0" y="0" width="24" height="24"></rect>
        <path d="M4.99999997,21 C4.44771522,21 3.99999997,20.5522848 3.99999997,20 C3.99999997,19.4477153 4.44771522,19 4.99999997,19 L4.99999997,19 L8.30599997,19 L13.556,4.99999996 L9.99999999,4.99999996 C9.48716415,4.99999996 9.06449283,4.61395978 9.00672772,4.11662109 L8.99999999,3.99999996 C8.99999999,3.44771521 9.44771524,2.99999996 9.99999999,2.99999996 L9.99999999,2.99999996 L19,2.99999996 C19.5522848,2.99999996 20,3.44771521 20,3.99999996 C20,4.55228472 19.5522848,4.99999996 19,4.99999996 L19,4.99999996 L15.693,4.99999996 L10.443,19 L14,19 C14.5128358,19 14.9355071,19.3860402 14.9932722,19.8833789 L15,20 C15,20.5522848 14.5522848,21 14,21 L14,21 Z" id="Shape" fill="#000000"></path>
    </g>
</svg>