<?xml version="1.0" encoding="UTF-8"?>
<svg width="24px" height="24px" viewBox="0 0 24 24" version="1.1" xmlns="http://www.w3.org/2000/svg" xmlns:xlink="http://www.w3.org/1999/xlink">
    <title>feather-icon/key</title>
    <g id="feather-icon/key" stroke="none" stroke-width="1" fill="none" fill-rule="evenodd">
        <rect id="Bounding-Box" fill-opacity="0" fill="#FFFFFF" x="0" y="0" width="24" height="24"></rect>
        <path d="M19.7071068,3.29289318 L22.7071068,6.2928932 C23.0976311,6.68341749 23.0976311,7.31658247 22.7071068,7.70710676 L19.2071068,11.2071068 C18.8165825,11.5976311 18.1834175,11.5976311 17.7928932,11.2071068 L15.595,9.00999999 L12.8865144,11.8469608 C13.949146,13.3950471 14.2998697,15.3460949 13.8093172,17.1933547 C13.2106289,19.4478184 11.4498184,21.2086289 9.1953547,21.8073172 C6.94089102,22.4060055 4.53848199,21.7507665 2.89271176,20.0827118 C0.429392384,17.5322491 0.464621316,13.4781607 2.97189102,10.970891 C5.24267016,8.70011191 8.7822315,8.45703097 11.3244461,10.2613403 L14.7928932,6.7928932 C14.9042034,6.68158304 15.0352258,6.60199934 15.1747235,6.55414209 L18.2769197,3.30923604 C18.6645976,2.90342112 19.3102568,2.89604312 19.7071068,3.29289318 Z M4.38610458,12.3851046 C2.65030248,14.1209067 2.62591322,16.9275832 4.32382863,18.6856469 C5.45804372,19.8351637 7.12124997,20.2887908 8.68203252,19.8743143 C10.2428151,19.4598378 11.4618377,18.2408151 11.8763142,16.6800325 C12.2518252,15.2659813 11.9152361,13.7639748 10.9878156,12.6486408 L10.8277957,12.4664135 L10.7664616,12.3936744 L10.6942882,12.3302882 L10.5202348,12.1706512 C8.74862163,10.6282676 6.06591307,10.7052961 4.38610458,12.3851046 Z M12.2945554,11.1067754 L12.2842358,12.4773794 L12.8865144,11.8469608 L12.7022773,11.5920246 L12.5049128,11.3451208 L12.2945554,11.1067754 Z M19.0163472,5.43056067 L16.9782358,7.56402223 L18.5,9.08578643 L20.5857865,6.99999998 L19.0163472,5.43056067 Z" id="Shape" fill="#000000"></path>
    </g>
</svg>