<?xml version="1.0" encoding="UTF-8"?>
<svg width="24px" height="24px" viewBox="0 0 24 24" version="1.1" xmlns="http://www.w3.org/2000/svg" xmlns:xlink="http://www.w3.org/1999/xlink">
    <title>feather-icon/layers</title>
    <g id="feather-icon/layers" stroke="none" stroke-width="1" fill="none" fill-rule="evenodd">
        <rect id="Bounding-Box" fill-opacity="0" fill="#FFFFFF" x="0" y="0" width="24" height="24"></rect>
        <path d="M21.5527864,16.1055728 C22.0467649,15.8585836 22.647438,16.0588079 22.8944272,16.5527864 C23.1414165,17.0467649 22.9411921,17.647438 22.4472136,17.8944272 L22.4472136,17.8944272 L12.4472136,22.8944272 C12.1656861,23.035191 11.8343139,23.035191 11.5527864,22.8944272 L11.5527864,22.8944272 L1.55278636,17.8944272 C1.05880786,17.647438 0.858583514,17.0467649 1.10557276,16.5527864 C1.35256201,16.0588079 1.95323506,15.8585836 2.44721356,16.1055728 L2.44721356,16.1055728 L12,20.881966 Z M21.5527864,11.1055728 C22.0467649,10.8585836 22.647438,11.0588079 22.8944272,11.5527864 C23.1414165,12.0467649 22.9411921,12.6474379 22.4472136,12.8944272 L22.4472136,12.8944272 L12.4472136,17.8944272 C12.1656861,18.035191 11.8343139,18.035191 11.5527864,17.8944272 L11.5527864,17.8944272 L1.55278636,12.8944272 C1.05880786,12.6474379 0.858583514,12.0467649 1.10557276,11.5527864 C1.35256201,11.0588079 1.95323506,10.8585836 2.44721356,11.1055728 L2.44721356,11.1055728 L12,15.881966 Z M12.4472136,1.10557276 L22.4472136,6.10557278 C23.1842622,6.47409706 23.1842622,7.5259029 22.4472136,7.89442717 L12.4472136,12.8944272 C12.1656861,13.0351909 11.8343139,13.0351909 11.5527864,12.8944272 L1.55278636,7.89442717 C0.815737819,7.5259029 0.815737819,6.47409706 1.55278636,6.10557278 L11.5527864,1.10557276 C11.8343139,0.964809018 12.1656861,0.964809018 12.4472136,1.10557276 Z M12,3.11803395 L4.23606795,6.99999998 L12,10.881966 L19.7639321,6.99999998 L12,3.11803395 Z" id="Shape" fill="#000000"></path>
    </g>
</svg>