<?xml version="1.0" encoding="UTF-8"?>
<svg width="24px" height="24px" viewBox="0 0 24 24" version="1.1" xmlns="http://www.w3.org/2000/svg" xmlns:xlink="http://www.w3.org/1999/xlink">
    <title>feather-icon/life-buoy</title>
    <g id="feather-icon/life-buoy" stroke="none" stroke-width="1" fill="none" fill-rule="evenodd">
        <rect id="Bounding-Box" fill-opacity="0" fill="#FFFFFF" x="0" y="0" width="24" height="24"></rect>
        <path d="M12,0.999999954 C18.0751323,0.999999954 23,5.92486773 23,12 C23,18.0751323 18.0751323,23 12,23 C5.92486773,23 0.999999954,18.0751323 0.999999954,12 C0.999999954,5.92486773 5.92486773,0.999999954 12,0.999999954 Z M9.24255218,16.1715651 L6.38282431,19.0323074 C7.92241639,20.2636898 9.87522095,21 12,21 C14.124779,21 16.0775836,20.2636898 17.6171756,19.0323074 L14.7574478,16.1715651 C13.9670032,16.6951083 13.0191072,17 12,17 C10.9808928,17 10.0329968,16.6951083 9.24255218,16.1715651 Z M19.0323074,6.38282431 L16.1715651,9.24255218 C16.6951083,10.0329968 17,10.9808928 17,12 C17,13.0191072 16.6951083,13.9670032 16.1715651,14.7574478 L19.0323074,17.6171756 C20.2636898,16.0775836 21,14.124779 21,12 C21,9.87522095 20.2636898,7.92241639 19.0323074,6.38282431 Z M2.99999996,12 C2.99999996,14.124779 3.73631016,16.0775836 4.96769254,17.6171756 L7.82843488,14.7574478 C7.30489164,13.9670032 6.99999998,13.0191072 6.99999998,12 C6.99999998,10.9808928 7.30489164,10.0329968 7.82843488,9.24255218 L4.96769254,6.38282431 C3.73631016,7.92241639 2.99999996,9.87522095 2.99999996,12 Z M12,8.99999999 C10.3431457,8.99999999 8.99999999,10.3431457 8.99999999,12 C8.99999999,13.6568543 10.3431457,15 12,15 C13.6568543,15 15,13.6568543 15,12 C15,10.3431457 13.6568543,8.99999999 12,8.99999999 Z M12,2.99999996 C9.87522095,2.99999996 7.92241639,3.73631016 6.38282431,4.96769254 L9.24255218,7.82843488 C10.0329968,7.30489164 10.9808928,6.99999998 12,6.99999998 C13.0191072,6.99999998 13.9670032,7.30489164 14.7574478,7.82843488 L17.6171756,4.96769254 C16.0775836,3.73631016 14.124779,2.99999996 12,2.99999996 Z" id="Shape" fill="#000000"></path>
    </g>
</svg>