<?xml version="1.0" encoding="UTF-8"?>
<svg width="24px" height="24px" viewBox="0 0 24 24" version="1.1" xmlns="http://www.w3.org/2000/svg" xmlns:xlink="http://www.w3.org/1999/xlink">
    <title>feather-icon/link-2</title>
    <g id="feather-icon/link-2" stroke="none" stroke-width="1" fill="none" fill-rule="evenodd">
        <rect id="Bounding-Box" fill-opacity="0" fill="#FFFFFF" x="0" y="0" width="24" height="24"></rect>
        <path d="M18,5.99999998 C19.591299,5.99999998 21.1174225,6.63214102 22.2426407,7.7573593 C23.367859,8.88257757 24,10.4087011 24,12 C24,15.238397 21.4344252,17.8775718 18.2249383,17.9958616 L18,18 L15,18 C14.4477153,18 14,17.5522848 14,17 C14,16.4871642 14.3860402,16.0644929 14.8833789,16.0067277 L15,16 L18,16 C20.209139,16 22,14.209139 22,12 C22,10.939134 21.5785727,9.92171838 20.8284272,9.17157286 C20.1318635,8.47500917 19.2048475,8.06188103 18.2265818,8.00641662 L18,7.99999998 L15,7.99999998 C14.4477153,7.99999998 14,7.55228473 14,6.99999998 C14,6.48716414 14.3860402,6.06449281 14.8833789,6.00672771 L15,5.99999998 L18,5.99999998 Z M8.99999995,5.99999998 C9.55228474,5.99999998 9.99999995,6.44771523 9.99999995,6.99999998 C9.99999995,7.51283582 9.6139598,7.93550714 9.11662111,7.99327225 L8.99999995,7.99999998 L5.99999995,7.99999998 C3.79086097,7.99999998 1.99999995,9.79086099 1.99999995,12 C1.99999995,13.060866 2.42142732,14.0782816 3.17157284,14.8284271 C3.86813653,15.5249908 4.79515254,15.938119 5.77341818,15.9935834 L5.99999995,16 L8.99999995,16 C9.55228474,16 9.99999995,16.4477153 9.99999995,17 C9.99999995,17.5128359 9.6139598,17.9355072 9.11662111,17.9932723 L8.99999995,18 L5.99999995,18 C4.40870103,18 2.88257755,17.367859 1.75735927,16.2426407 C0.632140995,15.1174224 -4.99999899e-08,13.5912989 -4.99999899e-08,12 C-4.99999899e-08,8.76160304 2.56557485,6.12242821 5.77506171,6.00413845 L5.99999995,5.99999998 L8.99999995,5.99999998 Z M16,11 C16.5522848,11 17,11.4477152 17,12 C17,12.5522848 16.5522848,13 16,13 L16,13 L7.99999998,13 C7.44771523,13 6.99999998,12.5522848 6.99999998,12 C6.99999998,11.4477152 7.44771523,11 7.99999998,11 L7.99999998,11 Z" id="Shape" fill="#000000"></path>
    </g>
</svg>