<?xml version="1.0" encoding="UTF-8"?>
<svg width="24px" height="24px" viewBox="0 0 24 24" version="1.1" xmlns="http://www.w3.org/2000/svg" xmlns:xlink="http://www.w3.org/1999/xlink">
    <title>feather-icon/linkedin</title>
    <g id="feather-icon/linkedin" stroke="none" stroke-width="1" fill="none" fill-rule="evenodd">
        <rect id="Bounding-Box" fill-opacity="0" fill="#FFFFFF" x="0" y="0" width="24" height="24"></rect>
        <path d="M16,6.99999998 C19.8659933,6.99999998 23,10.1340067 23,14 L23,21 C23,21.5522848 22.5522848,22 22,22 L18,22 C17.4477153,22 17,21.5522848 17,21 L17,14 C17,13.4477153 16.5522848,13 16,13 C15.4477153,13 15,13.4477153 15,14 L15,21 C15,21.5522848 14.5522848,22 14,22 L9.99999999,22 C9.44771524,22 8.99999999,21.5522848 8.99999999,21 L8.99999999,14 C8.99999999,10.1340067 12.1340068,6.99999998 16,6.99999998 Z M5.99999995,7.99999998 C6.55228473,7.99999998 6.99999995,8.44771524 6.99999995,8.99999998 L6.99999995,21 C6.99999995,21.5522848 6.55228473,22 5.99999995,22 L1.99999995,22 C1.44771521,22 0.999999954,21.5522848 0.999999954,21 L0.999999954,8.99999998 C0.999999954,8.44771524 1.44771521,7.99999998 1.99999995,7.99999998 L5.99999995,7.99999998 Z M16,8.99999999 C13.2385763,8.99999999 11,11.2385762 11,14 L11,20 L13,20 L13,14 C13,12.3431458 14.3431458,11 16,11 C17.6568543,11 19,12.3431458 19,14 L19,20 L21,20 L21,14 C21,11.2385762 18.7614238,8.99999999 16,8.99999999 Z M4.99999996,9.99999999 L2.99999996,9.99999999 L2.99999996,20 L4.99999996,20 L4.99999996,9.99999999 Z M3.99999995,0.999999954 C5.65685422,0.999999954 6.99999995,2.34314571 6.99999995,3.99999995 C6.99999995,5.65685422 5.65685422,6.99999995 3.99999995,6.99999995 C2.34314571,6.99999995 0.999999954,5.65685422 0.999999954,3.99999995 C0.999999954,2.34314571 2.34314571,0.999999954 3.99999995,0.999999954 Z M3.99999996,2.99999996 C3.44771521,2.99999996 2.99999996,3.44771521 2.99999996,3.99999996 C2.99999996,4.55228472 3.44771521,4.99999996 3.99999996,4.99999996 C4.55228472,4.99999996 4.99999996,4.55228472 4.99999996,3.99999996 C4.99999996,3.44771521 4.55228472,2.99999996 3.99999996,2.99999996 Z" id="Shape" fill="#000000"></path>
    </g>
</svg>