<?xml version="1.0" encoding="UTF-8"?>
<svg width="24px" height="24px" viewBox="0 0 24 24" version="1.1" xmlns="http://www.w3.org/2000/svg" xmlns:xlink="http://www.w3.org/1999/xlink">
    <title>feather-icon/list</title>
    <g id="feather-icon/list" stroke="none" stroke-width="1" fill="none" fill-rule="evenodd">
        <rect id="Bounding-Box" fill-opacity="0" fill="#FFFFFF" x="0" y="0" width="24" height="24"></rect>
        <path d="M21,17 C21.5522848,17 22,17.4477153 22,18 C22,18.5522848 21.5522848,19 21,19 L21,19 L7.99999998,19 C7.44771523,19 6.99999998,18.5522848 6.99999998,18 C6.99999998,17.4477153 7.44771523,17 7.99999998,17 L7.99999998,17 Z M2.29289318,17.2928932 C2.68341747,16.9023689 3.31658245,16.9023689 3.70710675,17.2928932 C4.09763104,17.6834175 4.09763104,18.3165825 3.70710675,18.7071068 C3.31658245,19.0976311 2.68341747,19.0976311 2.29289318,18.7071068 C1.90236888,18.3165825 1.90236888,17.6834175 2.29289318,17.2928932 Z M21,11 C21.5522848,11 22,11.4477152 22,12 C22,12.5522848 21.5522848,13 21,13 L21,13 L7.99999998,13 C7.44771523,13 6.99999998,12.5522848 6.99999998,12 C6.99999998,11.4477152 7.44771523,11 7.99999998,11 L7.99999998,11 Z M2.29289318,11.2928932 C2.68341747,10.9023689 3.31658245,10.9023689 3.70710675,11.2928932 C4.09763104,11.6834175 4.09763104,12.3165825 3.70710675,12.7071068 C3.31658245,13.0976311 2.68341747,13.0976311 2.29289318,12.7071068 C1.90236888,12.3165825 1.90236888,11.6834175 2.29289318,11.2928932 Z M21,4.99999997 C21.5522848,4.99999997 22,5.44771522 22,5.99999997 C22,6.55228473 21.5522848,6.99999997 21,6.99999997 L21,6.99999997 L7.99999998,6.99999997 C7.44771523,6.99999997 6.99999998,6.55228473 6.99999998,5.99999997 C6.99999998,5.44771522 7.44771523,4.99999997 7.99999998,4.99999997 L7.99999998,4.99999997 Z M2.29289318,5.29289319 C2.68341747,4.9023689 3.31658245,4.9023689 3.70710675,5.29289319 C4.09763104,5.68341748 4.09763104,6.31658247 3.70710675,6.70710676 C3.31658245,7.09763105 2.68341747,7.09763105 2.29289318,6.70710676 C1.90236888,6.31658247 1.90236888,5.68341748 2.29289318,5.29289319 Z" id="Shape" fill="#000000"></path>
    </g>
</svg>