<?xml version="1.0" encoding="UTF-8"?>
<svg width="24px" height="24px" viewBox="0 0 24 24" version="1.1" xmlns="http://www.w3.org/2000/svg" xmlns:xlink="http://www.w3.org/1999/xlink">
    <title>feather-icon/loader</title>
    <g id="feather-icon/loader" stroke="none" stroke-width="1" fill="none" fill-rule="evenodd">
        <rect id="Bounding-Box" fill-opacity="0" fill="#FFFFFF" x="0" y="0" width="24" height="24"></rect>
        <path d="M12,17 C12.5522848,17 13,17.4477153 13,18 L13,18 L13,22 C13,22.5522848 12.5522848,23 12,23 C11.4477152,23 11,22.5522848 11,22 L11,22 L11,18 C11,17.4477153 11.4477152,17 12,17 Z M15.5328932,15.5328932 C15.9234175,15.1423689 16.5565825,15.1423689 16.9471068,15.5328932 L16.9471068,15.5328932 L19.7771068,18.3628932 C20.1676311,18.7534175 20.1676311,19.3865825 19.7771068,19.7771068 C19.3865825,20.1676311 18.7534175,20.1676311 18.3628932,19.7771068 L18.3628932,19.7771068 L15.5328932,16.9471068 C15.1423689,16.5565825 15.1423689,15.9234175 15.5328932,15.5328932 Z M7.0528932,15.5328932 C7.44341749,15.1423689 8.07658247,15.1423689 8.46710677,15.5328932 C8.85763106,15.9234175 8.85763106,16.5565825 8.46710677,16.9471068 L8.46710677,16.9471068 L5.63710675,19.7771068 C5.24658246,20.1676311 4.61341748,20.1676311 4.22289319,19.7771068 C3.83236889,19.3865825 3.83236889,18.7534175 4.22289319,18.3628932 L4.22289319,18.3628932 Z M5.99999995,11 C6.55228473,11 6.99999995,11.4477152 6.99999995,12 C6.99999995,12.5522848 6.55228473,13 5.99999995,13 L5.99999995,13 L1.99999995,13 C1.44771521,13 0.999999954,12.5522848 0.999999954,12 C0.999999954,11.4477152 1.44771521,11 1.99999995,11 L1.99999995,11 Z M22,11 C22.5522848,11 23,11.4477152 23,12 C23,12.5522848 22.5522848,13 22,13 L22,13 L18,13 C17.4477153,13 17,12.5522848 17,12 C17,11.4477152 17.4477153,11 18,11 L18,11 Z M4.22289319,4.22289319 C4.61341748,3.83236889 5.24658246,3.83236889 5.63710675,4.22289319 L5.63710675,4.22289319 L8.46710677,7.0528932 C8.85763106,7.44341749 8.85763106,8.07658247 8.46710677,8.46710677 C8.07658247,8.85763106 7.44341749,8.85763106 7.0528932,8.46710677 L7.0528932,8.46710677 L4.22289319,5.63710675 C3.83236889,5.24658246 3.83236889,4.61341748 4.22289319,4.22289319 Z M18.3628932,4.22289319 C18.7534175,3.83236889 19.3865825,3.83236889 19.7771068,4.22289319 C20.1676311,4.61341748 20.1676311,5.24658246 19.7771068,5.63710675 L19.7771068,5.63710675 L16.9471068,8.46710677 C16.5565825,8.85763106 15.9234175,8.85763106 15.5328932,8.46710677 C15.1423689,8.07658247 15.1423689,7.44341749 15.5328932,7.0528932 L15.5328932,7.0528932 Z M12,0.999999954 C12.5522848,0.999999954 13,1.44771521 13,1.99999995 L13,1.99999995 L13,5.99999995 C13,6.55228473 12.5522848,6.99999995 12,6.99999995 C11.4477152,6.99999995 11,6.55228473 11,5.99999995 L11,5.99999995 L11,1.99999995 C11,1.44771521 11.4477152,0.999999954 12,0.999999954 Z" id="Shape" fill="#000000"></path>
    </g>
</svg>