<?xml version="1.0" encoding="UTF-8"?>
<svg width="24px" height="24px" viewBox="0 0 24 24" version="1.1" xmlns="http://www.w3.org/2000/svg" xmlns:xlink="http://www.w3.org/1999/xlink">
    <title>feather-icon/log-in</title>
    <g id="feather-icon/log-in" stroke="none" stroke-width="1" fill="none" fill-rule="evenodd">
        <rect id="Bounding-Box" fill-opacity="0" fill="#FFFFFF" x="0" y="0" width="24" height="24"></rect>
        <path d="M19,1.99999996 C20.6568543,1.99999996 22,3.34314571 22,4.99999996 L22,4.99999996 L22,19 C22,20.6568543 20.6568543,22 19,22 L19,22 L15,22 C14.4477153,22 14,21.5522848 14,21 C14,20.4477153 14.4477153,20 15,20 L15,20 L19,20 C19.5522848,20 20,19.5522848 20,19 L20,19 L20,4.99999996 C20,4.44771522 19.5522848,3.99999996 19,3.99999996 L19,3.99999996 L15,3.99999996 C14.4477153,3.99999996 14,3.55228471 14,2.99999996 C14,2.44771521 14.4477153,1.99999996 15,1.99999996 L15,1.99999996 Z M9.29289321,6.2928932 C9.6834175,5.9023689 10.3165825,5.9023689 10.7071068,6.2928932 L10.7071068,6.2928932 L15.7071068,11.2928932 C15.7355731,11.3213595 15.7623311,11.3515341 15.787214,11.3832499 C15.7927155,11.3901576 15.7982466,11.397397 15.8036654,11.4046934 C15.8215099,11.4288693 15.8382813,11.453725 15.8539325,11.4793398 C15.8613931,11.4913869 15.8685012,11.5036056 15.8753288,11.5159379 C15.886206,11.5357061 15.8966233,11.5561086 15.9063462,11.5769008 C15.914321,11.5939015 15.9218036,11.6112043 15.9287745,11.628664 C15.9366842,11.6484208 15.9438775,11.6682023 15.9504533,11.6882636 C15.9552713,11.7031487 15.9599023,11.7185367 15.9641549,11.734007 C15.9701663,11.7555635 15.9753602,11.7772539 15.9798348,11.7992059 C15.9832978,11.8166247 15.9863719,11.834051 15.9889822,11.8515331 C15.9962388,11.8996379 16,11.9493797 16,12 L15.996298,11.9137692 C15.9978436,11.9317345 15.9989053,11.9497336 15.9994829,11.9677454 L16,12 C16,12.0112225 15.9998151,12.0224019 15.9994482,12.0335352 C15.9988773,12.050591 15.9978551,12.0679231 15.9963841,12.0852242 C15.994564,12.1070574 15.992094,12.1281144 15.9889806,12.1489612 C15.9863719,12.165949 15.9832978,12.1833753 15.9797599,12.2007258 C15.9753602,12.2227461 15.9701663,12.2444365 15.964279,12.2658396 C15.9599023,12.2814633 15.9552713,12.2968513 15.9502619,12.3121425 C15.9438775,12.3317977 15.9366842,12.3515792 15.928896,12.3710585 C15.9218036,12.3887957 15.914321,12.4060985 15.9063267,12.4232215 C15.8966233,12.4438914 15.886206,12.4642939 15.8751242,12.4842769 C15.8685012,12.4963944 15.8613931,12.5086131 15.8540046,12.5207088 C15.8382813,12.546275 15.8215099,12.5711307 15.8036865,12.5951593 C15.7746871,12.6343256 15.7425008,12.6717127 15.7071068,12.7071068 L15.787214,12.6167501 C15.7849288,12.6196628 15.7826279,12.6225624 15.7803112,12.625449 L15.7071068,12.7071068 L10.7071068,17.7071068 C10.3165825,18.0976311 9.6834175,18.0976311 9.29289321,17.7071068 C8.90236891,17.3165825 8.90236891,16.6834175 9.29289321,16.2928932 L9.29289321,16.2928932 L12.585,13 L2.99999996,13 C2.48716412,13 2.0644928,12.6139598 2.00672769,12.1166211 L1.99999996,12 C1.99999996,11.4477152 2.44771521,11 2.99999996,11 L2.99999996,11 L12.585,11 L9.29289321,7.70710676 C8.93240924,7.3466228 8.90467971,6.77939174 9.2097046,6.38710053 Z" id="Shape" fill="#000000"></path>
    </g>
</svg>