<?xml version="1.0" encoding="UTF-8"?>
<svg width="24px" height="24px" viewBox="0 0 24 24" version="1.1" xmlns="http://www.w3.org/2000/svg" xmlns:xlink="http://www.w3.org/1999/xlink">
    <title>feather-icon/log-out</title>
    <g id="feather-icon/log-out" stroke="none" stroke-width="1" fill="none" fill-rule="evenodd">
        <rect id="Bounding-Box" fill-opacity="0" fill="#FFFFFF" x="0" y="0" width="24" height="24"></rect>
        <path d="M8.99999996,1.99999996 C9.55228474,1.99999996 9.99999996,2.44771521 9.99999996,2.99999996 C9.99999996,3.55228471 9.55228474,3.99999996 8.99999996,3.99999996 L8.99999996,3.99999996 L4.99999996,3.99999996 C4.44771522,3.99999996 3.99999996,4.44771522 3.99999996,4.99999996 L3.99999996,4.99999996 L3.99999996,19 C3.99999996,19.5522848 4.44771522,20 4.99999996,20 L4.99999996,20 L8.99999996,20 C9.55228474,20 9.99999996,20.4477153 9.99999996,21 C9.99999996,21.5522848 9.55228474,22 8.99999996,22 L8.99999996,22 L4.99999996,22 C3.34314571,22 1.99999996,20.6568543 1.99999996,19 L1.99999996,19 L1.99999996,4.99999996 C1.99999996,3.34314571 3.34314571,1.99999996 4.99999996,1.99999996 L4.99999996,1.99999996 Z M15.2928932,6.2928932 C15.6834175,5.9023689 16.3165825,5.9023689 16.7071068,6.2928932 L16.7071068,6.2928932 L21.7071068,11.2928932 C21.7355731,11.3213595 21.7623312,11.3515341 21.787214,11.3832499 C21.7927156,11.3901576 21.7982466,11.397397 21.8036655,11.4046934 C21.8215099,11.4288693 21.8382813,11.453725 21.8539326,11.4793398 C21.8613931,11.4913869 21.8685012,11.5036056 21.8753289,11.5159379 C21.8862061,11.5357061 21.8966234,11.5561086 21.9063462,11.5769008 C21.914321,11.5939015 21.9218036,11.6112043 21.9287745,11.628664 C21.9366843,11.6484208 21.9438775,11.6682023 21.9504533,11.6882636 C21.9552713,11.7031487 21.9599023,11.7185367 21.9641549,11.734007 C21.9701664,11.7555635 21.9753602,11.7772539 21.9798348,11.7992059 C21.9832979,11.8166247 21.986372,11.834051 21.9889822,11.8515331 C21.9962388,11.8996379 22,11.9493797 22,12 L21.996298,11.9137692 C21.9978436,11.9317345 21.9989053,11.9497336 21.999483,11.9677454 L22,12 C22,12.0112225 21.9998151,12.0224019 21.9994483,12.0335352 C21.9988773,12.050591 21.9978551,12.0679231 21.9963841,12.0852242 C21.994564,12.1070574 21.9920941,12.1281144 21.9889806,12.1489612 C21.986372,12.165949 21.9832979,12.1833753 21.97976,12.2007258 C21.9753602,12.2227461 21.9701664,12.2444365 21.964279,12.2658396 C21.9599023,12.2814633 21.9552713,12.2968513 21.950262,12.3121425 C21.9438775,12.3317977 21.9366843,12.3515792 21.928896,12.3710585 C21.9218036,12.3887957 21.914321,12.4060985 21.9063267,12.4232215 C21.8966234,12.4438914 21.8862061,12.4642939 21.8751242,12.4842769 C21.8685012,12.4963944 21.8613931,12.5086131 21.8540046,12.5207088 C21.8382813,12.546275 21.8215099,12.5711307 21.8036865,12.5951593 C21.7746871,12.6343256 21.7425009,12.6717127 21.7071068,12.7071068 L21.787214,12.6167501 C21.7849289,12.6196628 21.7826279,12.6225624 21.7803112,12.625449 L21.7071068,12.7071068 L16.7071068,17.7071068 C16.3165825,18.0976311 15.6834175,18.0976311 15.2928932,17.7071068 C14.9023689,17.3165825 14.9023689,16.6834175 15.2928932,16.2928932 L15.2928932,16.2928932 L18.585,13 L8.99999998,13 C8.48716415,13 8.06449282,12.6139598 8.00672771,12.1166211 L7.99999998,12 C7.99999998,11.4477152 8.44771524,11 8.99999998,11 L8.99999998,11 L18.585,11 L15.2928932,7.70710676 C14.9324093,7.3466228 14.9046797,6.77939174 15.2097046,6.38710053 Z" id="Shape" fill="#000000"></path>
    </g>
</svg>