<?xml version="1.0" encoding="UTF-8"?>
<svg width="24px" height="24px" viewBox="0 0 24 24" version="1.1" xmlns="http://www.w3.org/2000/svg" xmlns:xlink="http://www.w3.org/1999/xlink">
    <title>feather-icon/map-pin</title>
    <g id="feather-icon/map-pin" stroke="none" stroke-width="1" fill="none" fill-rule="evenodd">
        <rect id="Bounding-Box" fill-opacity="0" fill="#FFFFFF" x="0" y="0" width="24" height="24"></rect>
        <path d="M12,8.41103738e-08 C17.5228475,8.41103738e-08 22,4.47715257 22,10.0000001 C22,13.3716047 20.1975985,16.6760076 17.2259527,19.8127448 C16.2070021,20.8883038 15.118253,21.8681779 14.0291768,22.7354053 L13.6565722,23.0275579 C13.5960541,23.0742598 13.5363542,23.1199595 13.4775129,23.1646464 L12.9722093,23.539195 L12.5547002,23.8320505 C12.2561229,24.031102 11.8771884,24.0532188 11.560754,23.898401 L11.4452998,23.8320505 L11.0277907,23.539195 L10.5224871,23.1646464 C10.3459631,23.0305857 10.1617123,22.8874096 9.97082321,22.7354053 C8.88174697,21.8681779 7.79299788,20.8883038 6.77404729,19.8127448 C3.80240154,16.6760076 1.99999996,13.3716047 1.99999996,10.0000001 C1.99999996,4.47715257 6.47715249,8.41103738e-08 12,8.41103738e-08 Z M12,2.00000009 C7.58172199,2.00000009 3.99999997,5.58172208 3.99999997,10.0000001 C3.99999997,12.7533955 5.5725984,15.6364927 8.22595267,18.4372555 C9.17575209,19.4398216 10.196378,20.3583849 11.2166768,21.170845 C11.4951711,21.392609 11.7576885,21.5936105 12,21.772617 L12.2488902,21.5863245 C12.4190983,21.4573025 12.5976604,21.3186877 12.7833232,21.170845 C13.803622,20.3583849 14.8242479,19.4398216 15.7740473,18.4372555 C18.4274016,15.6364927 20,12.7533955 20,10.0000001 C20,5.58172208 16.418278,2.00000009 12,2.00000009 Z M12,5.99999998 C14.209139,5.99999998 16,7.79086098 16,9.99999998 C16,12.209139 14.209139,14 12,14 C9.79086099,14 7.99999998,12.209139 7.99999998,9.99999998 C7.99999998,7.79086098 9.79086099,5.99999998 12,5.99999998 Z M12,7.99999998 C10.8954305,7.99999998 9.99999999,8.89543049 9.99999999,9.99999998 C9.99999999,11.1045695 10.8954305,12 12,12 C13.1045695,12 14,11.1045695 14,9.99999998 C14,8.89543049 13.1045695,7.99999998 12,7.99999998 Z" id="Shape" fill="#000000"></path>
    </g>
</svg>