<?xml version="1.0" encoding="UTF-8"?>
<svg width="24px" height="24px" viewBox="0 0 24 24" version="1.1" xmlns="http://www.w3.org/2000/svg" xmlns:xlink="http://www.w3.org/1999/xlink">
    <title>feather-icon/map</title>
    <g id="feather-icon/map" stroke="none" stroke-width="1" fill="none" fill-rule="evenodd">
        <rect id="Bounding-Box" fill-opacity="0" fill="#FFFFFF" x="0" y="0" width="24" height="24"></rect>
        <path d="M23.9999999,1.99999996 L23.9999999,18 C23.9999999,18.3588569 23.807714,18.6902003 23.496139,18.8682432 L16.496139,22.8682432 L16.4712655,22.8822141 C16.4500414,22.8935754 16.4283596,22.9041933 16.4062548,22.9140328 L16.496139,22.8682432 C16.4551591,22.8916602 16.41291,22.9119674 16.3697252,22.9291555 C16.3406577,22.9410127 16.3105864,22.9513706 16.279906,22.9602981 C16.2734921,22.961911 16.2674692,22.9636028 16.2614342,22.965237 C16.233994,22.9729037 16.2057021,22.979258 16.1769855,22.9843866 C16.1617133,22.9869674 16.1463698,22.9893575 16.1309875,22.9913887 C16.0879989,22.9971146 16.0443364,23 16,23 L16.0809613,22.9967186 C16.0575676,22.9986177 16.0341169,22.9996931 16.0106543,22.9999434 L16,23 C15.9888734,23 15.9777892,22.9998183 15.9667503,22.9994576 C15.9412711,22.9986196 15.9151488,22.9967434 15.8891079,22.9938401 C15.8686511,22.9916675 15.8482212,22.9887694 15.8279996,22.9852638 C15.8125655,22.9824195 15.7969874,22.9793206 15.7814704,22.9758464 C15.7020466,22.9583475 15.626173,22.9311921 15.5551027,22.8958281 C15.5547374,22.8954007 15.5537616,22.8949148 15.5527864,22.8944272 L8.03146929,19.1337687 L1.49613889,22.8682432 C0.829482125,23.2491899 -5.00000041e-08,22.7678227 -5.00000041e-08,22 L-5.00000041e-08,5.99999997 C-5.00000041e-08,5.64114313 0.192286015,5.30979969 0.503861014,5.13175683 L7.50386104,1.13175681 L7.52873446,1.11778585 C7.54995858,1.10642451 7.57164042,1.09580669 7.59374517,1.08596718 L7.50386104,1.13175681 C7.54484087,1.10833977 7.58709003,1.08803256 7.63027478,1.07084446 C7.65934229,1.05898721 7.6894136,1.04862931 7.72009401,1.03970183 C7.72650793,1.038089 7.73253077,1.03639722 7.73856577,1.03476296 C7.76600596,1.02709624 7.79429793,1.02074188 7.82301452,1.01561331 C7.83828674,1.0130326 7.85363023,1.0106425 7.8690125,1.00861135 C7.91200111,1.00288529 7.95566359,0.999999954 7.99999998,0.999999954 L7.91803611,1.00336331 C7.94209661,1.00138573 7.96621794,1.00027962 7.99035129,1.00004635 L7.99999998,0.999999954 C8.01156259,0.999999954 8.02307937,1.00019619 8.03454716,1.00058553 C8.06006841,1.00147727 8.08551889,1.00333107 8.11089209,1.00615991 C8.13131532,1.00832766 8.15176213,1.01122769 8.17200037,1.01473608 C8.18743452,1.01758051 8.20301261,1.02067937 8.21852964,1.02415362 C8.29795341,1.04165239 8.37382699,1.06880784 8.44489731,1.10417179 C8.44526264,1.10459928 8.4462384,1.10508517 8.44721358,1.10557276 L15.9685307,4.86623133 L22.5038611,1.13175681 C23.1705179,0.750810087 23.9999999,1.23217729 23.9999999,1.99999996 Z M8.99999995,3.61752231 L8.99999995,17.3815223 L14.9999999,20.3815223 L14.9999999,6.61752231 L8.99999995,3.61752231 Z M6.99999995,3.72252231 L1.99999996,6.58032251 L1.99999996,20.2768204 L6.99999995,17.4185223 L6.99999995,3.72252231 Z M22,3.72317964 L16.9999999,6.57952231 L16.9999999,20.2755223 L22,17.4196775 L22,3.72317964 Z" id="Shape" fill="#000000"></path>
    </g>
</svg>