<?xml version="1.0" encoding="UTF-8"?>
<svg width="24px" height="24px" viewBox="0 0 24 24" version="1.1" xmlns="http://www.w3.org/2000/svg" xmlns:xlink="http://www.w3.org/1999/xlink">
    <title>feather-icon/maximize</title>
    <g id="feather-icon/maximize" stroke="none" stroke-width="1" fill="none" fill-rule="evenodd">
        <rect id="Bounding-Box" fill-opacity="0" fill="#FFFFFF" x="0" y="0" width="24" height="24"></rect>
        <path d="M21,15 C21.5128359,15 21.9355072,15.3860402 21.9932723,15.8833789 L22,16 L22,19 C22,20.5976809 20.7510801,21.9036609 19.1762728,21.9949073 L19,22 L16,22 C15.4477153,22 15,21.5522848 15,21 C15,20.4871642 15.3860402,20.0644929 15.8833789,20.0067278 L16,20 L19,20 C19.5128359,20 19.9355072,19.6139598 19.9932723,19.1166212 L20,19 L20,16 C20,15.4477153 20.4477153,15 21,15 Z M2.99999996,15 C3.5128358,15 3.93550713,15.3860402 3.99327224,15.8833789 L3.99999996,16 L3.99999996,19 C3.99999996,19.5128359 4.38604016,19.9355072 4.88337884,19.9932723 L4.99999996,20 L7.99999996,20 C8.55228474,20 8.99999996,20.4477153 8.99999996,21 C8.99999996,21.5128359 8.6139598,21.9355072 8.11662111,21.9932723 L7.99999996,22 L4.99999996,22 C3.40231908,22 2.09633908,20.7510801 2.00509265,19.1762728 L1.99999996,19 L1.99999996,16 C1.99999996,15.4477153 2.44771521,15 2.99999996,15 Z M4.99999996,1.99999996 L7.99999996,1.99999996 C8.55228474,1.99999996 8.99999996,2.44771521 8.99999996,2.99999996 C8.99999996,3.5128358 8.6139598,3.93550713 8.11662111,3.99327224 L7.99999996,3.99999996 L4.99999996,3.99999996 C4.48716413,3.99999996 4.06449281,4.38604016 4.0067277,4.88337884 L3.99999996,4.99999996 L3.99999996,7.99999996 C3.99999996,8.55228474 3.55228471,8.99999996 2.99999996,8.99999996 C2.48716412,8.99999996 2.0644928,8.6139598 2.00672769,8.11662111 L1.99999996,7.99999996 L1.99999996,4.99999996 C1.99999996,3.40231908 3.24891993,2.09633908 4.82372718,2.00509265 L4.99999996,1.99999996 L7.99999996,1.99999996 L4.99999996,1.99999996 Z M16,1.99999996 L19,1.99999996 C20.5976809,1.99999996 21.9036609,3.24891993 21.9949073,4.82372718 L22,4.99999996 L22,7.99999996 C22,8.55228474 21.5522848,8.99999996 21,8.99999996 C20.4871642,8.99999996 20.0644929,8.6139598 20.0067278,8.11662111 L20,7.99999996 L20,4.99999996 C20,4.48716413 19.6139598,4.06449281 19.1166212,4.0067277 L19,3.99999996 L16,3.99999996 C15.4477153,3.99999996 15,3.55228471 15,2.99999996 C15,2.48716412 15.3860402,2.0644928 15.8833789,2.00672769 L16,1.99999996 L19,1.99999996 L16,1.99999996 Z" id="Shape" fill="#000000"></path>
    </g>
</svg>