<?xml version="1.0" encoding="UTF-8"?>
<svg width="24px" height="24px" viewBox="0 0 24 24" version="1.1" xmlns="http://www.w3.org/2000/svg" xmlns:xlink="http://www.w3.org/1999/xlink">
    <title>feather-icon/maximize-2</title>
    <g id="feather-icon/maximize-2" stroke="none" stroke-width="1" fill="none" fill-rule="evenodd">
        <rect id="Bounding-Box" fill-opacity="0" fill="#FFFFFF" x="0" y="0" width="24" height="24"></rect>
        <path d="M9.29289321,13.2928932 C9.6834175,12.9023689 10.3165825,12.9023689 10.7071068,13.2928932 C11.0976311,13.6834175 11.0976311,14.3165825 10.7071068,14.7071068 L10.7071068,14.7071068 L5.41399996,20 L8.99999996,20 C9.51283583,20 9.93550712,20.3860402 9.99327223,20.8833789 L9.99999996,21 C9.99999996,21.5522848 9.55228474,22 8.99999996,22 L8.99999996,22 L2.99999996,22 C2.98877742,22 2.97759807,21.9998151 2.96646477,21.9994483 C2.94940899,21.9988773 2.93207687,21.9978551 2.91477573,21.9963841 C2.89294254,21.994564 2.87188551,21.9920941 2.85103874,21.9889807 C2.83405095,21.986372 2.8166247,21.9832979 2.7992742,21.97976 C2.77725388,21.9753602 2.75556348,21.9701664 2.73416035,21.964279 C2.71853668,21.9599023 2.70314862,21.9552713 2.68785744,21.950262 C2.66820228,21.9438775 2.64842076,21.9366843 2.62894144,21.928896 C2.61120431,21.9218036 2.59390147,21.914321 2.57677841,21.9063267 C2.55610856,21.8966234 2.53570601,21.8862061 2.51572301,21.8751242 C2.50360552,21.8685012 2.49138685,21.8613931 2.47929121,21.8540046 C2.45372501,21.8382813 2.42886927,21.8215099 2.40484066,21.8036865 C2.36567438,21.7746871 2.32828723,21.7425009 2.29289318,21.7071068 L2.38324988,21.7872141 C2.3198182,21.7374483 2.26255167,21.6801818 2.21278592,21.6167501 C2.20728444,21.6098424 2.2017534,21.6026031 2.19633454,21.5953067 C2.17849005,21.5711307 2.16171866,21.546275 2.14606739,21.5206602 C2.13860688,21.5086131 2.13149879,21.4963945 2.12467113,21.4840621 C2.11379388,21.464294 2.1033766,21.4438914 2.09365374,21.4230992 C2.08567901,21.4060985 2.07819638,21.3887957 2.07122545,21.3713361 C2.06331569,21.3515792 2.05612244,21.3317977 2.04954664,21.3117364 C2.04472867,21.2968514 2.04009769,21.2814633 2.0358451,21.265993 C2.02983358,21.2444365 2.02463975,21.2227461 2.02016511,21.2007941 C2.01670213,21.1833753 2.01362804,21.165949 2.01101776,21.1484669 C2.00376115,21.1003621 1.99999996,21.0506203 1.99999996,21 L2.00396637,21.0892501 C2.00189494,21.0659949 2.00063485,21.0426811 2.00018611,21.0193545 L1.99999996,21 L1.99999996,15 C1.99999996,14.4477153 2.44771521,14 2.99999996,14 C3.55228471,14 3.99999996,14.4477153 3.99999996,15 L3.99999996,15 L3.99899996,18.585 Z M21,1.99999996 C21.0064615,1.99999996 21.0129086,2.00006124 21.0193409,2.00018326 C21.0426811,2.00063485 21.0659949,2.00189494 21.0892501,2.00396637 C21.1096949,2.00574792 21.1294205,2.00810094 21.1489612,2.0110193 C21.165949,2.01362804 21.1833753,2.01670213 21.2007258,2.02024003 C21.2227461,2.02463975 21.2444365,2.02983358 21.2658396,2.03572092 C21.2814633,2.04009769 21.2968514,2.04472867 21.3121426,2.04973804 C21.3317977,2.05612244 21.3515792,2.06331569 21.3710585,2.07110392 C21.3887957,2.07819638 21.4060985,2.08567901 21.4232216,2.09367332 C21.4438914,2.1033766 21.464294,2.11379388 21.484277,2.12487573 C21.4963945,2.13149879 21.5086131,2.13860688 21.5207088,2.14599541 C21.546275,2.16171866 21.5711307,2.17849005 21.5951593,2.19631346 C21.6343256,2.22531291 21.6717128,2.25749913 21.7071068,2.29289318 L21.6167501,2.21278592 C21.6801818,2.26255167 21.7374483,2.3198182 21.7872141,2.38324988 C21.7927156,2.39015755 21.7982466,2.39739692 21.8036655,2.40469335 C21.8215099,2.42886927 21.8382813,2.45372501 21.8539326,2.47933977 C21.8613931,2.49138685 21.8685012,2.50360552 21.8753289,2.51593786 C21.8862061,2.53570601 21.8966234,2.55610856 21.9063462,2.57690081 C21.914321,2.59390147 21.9218036,2.61120431 21.9287745,2.62866394 C21.9366843,2.64842076 21.9438775,2.66820228 21.9504533,2.68826355 C21.9552713,2.70314862 21.9599023,2.71853668 21.9641549,2.734007 C21.9701664,2.75556348 21.9753602,2.77725388 21.9798349,2.79920586 C21.9832979,2.8166247 21.986372,2.83405095 21.9889822,2.8515331 C21.9962388,2.89963786 22,2.94937967 22,2.99999996 L21.9963841,2.91477573 C21.9978551,2.93207687 21.9988773,2.94940899 21.9994507,2.96675319 L22,2.99999996 L22,8.99999996 C22,9.55228474 21.5522848,9.99999996 21,9.99999996 C20.4477153,9.99999996 20,9.55228474 20,8.99999996 L20,8.99999996 L20,5.41399996 L14.7071068,10.7071068 C14.3466228,11.0675907 13.7793918,11.0953203 13.3871006,10.7902954 L13.2928932,10.7071068 C12.9023689,10.3165825 12.9023689,9.6834175 13.2928932,9.29289321 L13.2928932,9.29289321 L18.585,3.99899996 L15,3.99999996 C14.4871642,3.99999996 14.0644928,3.61395977 14.0067277,3.11662108 L14,2.99999996 C14,2.44771521 14.4477153,1.99999996 15,1.99999996 L15,1.99999996 Z" id="Shape" fill="#000000"></path>
    </g>
</svg>