<?xml version="1.0" encoding="UTF-8"?>
<svg width="24px" height="24px" viewBox="0 0 24 24" version="1.1" xmlns="http://www.w3.org/2000/svg" xmlns:xlink="http://www.w3.org/1999/xlink">
    <title>feather-icon/meh</title>
    <g id="feather-icon/meh" stroke="none" stroke-width="1" fill="none" fill-rule="evenodd">
        <rect id="Bounding-Box" fill-opacity="0" fill="#FFFFFF" x="0" y="0" width="24" height="24"></rect>
        <path d="M12,0.999999954 C18.0751323,0.999999954 23,5.92486773 23,12 C23,18.0751323 18.0751323,23 12,23 C5.92486773,23 0.999999954,18.0751323 0.999999954,12 C0.999999954,5.92486773 5.92486773,0.999999954 12,0.999999954 Z M12,2.99999996 C7.02943723,2.99999996 2.99999996,7.02943723 2.99999996,12 C2.99999996,16.9705628 7.02943723,21 12,21 C16.9705628,21 21,16.9705628 21,12 C21,7.02943723 16.9705628,2.99999996 12,2.99999996 Z M16,14 C16.5522848,14 17,14.4477153 17,15 C17,15.5522848 16.5522848,16 16,16 L16,16 L7.99999998,16 C7.44771523,16 6.99999998,15.5522848 6.99999998,15 C6.99999998,14.4477153 7.44771523,14 7.99999998,14 L7.99999998,14 Z M8.99999998,7.99999998 L9.12662111,8.00672771 C9.6239598,8.06449282 10.01,8.48716415 10.01,8.99999998 C10.01,9.55228474 9.56228474,9.99999998 9.00999999,9.99999998 L9.00999999,9.99999998 L8.99999998,9.99999998 C8.44771524,9.99999998 7.99999998,9.55228474 7.99999998,8.99999998 C7.99999998,8.44771524 8.44771524,7.99999998 8.99999998,7.99999998 L8.99999998,7.99999998 Z M15,7.99999998 L15.1266211,8.00672771 C15.6239598,8.06449282 16.01,8.48716415 16.01,8.99999998 C16.01,9.55228474 15.5622848,9.99999998 15.01,9.99999998 L15.01,9.99999998 L15,9.99999998 C14.4477153,9.99999998 14,9.55228474 14,8.99999998 C14,8.44771524 14.4477153,7.99999998 15,7.99999998 L15,7.99999998 Z" id="Shape" fill="#000000"></path>
    </g>
</svg>