<?xml version="1.0" encoding="UTF-8"?>
<svg width="24px" height="24px" viewBox="0 0 24 24" version="1.1" xmlns="http://www.w3.org/2000/svg" xmlns:xlink="http://www.w3.org/1999/xlink">
    <title>feather-icon/message-square</title>
    <g id="feather-icon/message-square" stroke="none" stroke-width="1" fill="none" fill-rule="evenodd">
        <rect id="Bounding-Box" fill-opacity="0" fill="#FFFFFF" x="0" y="0" width="24" height="24"></rect>
        <path d="M7.41421354,18 L3.70710675,21.7071068 C3.07714188,22.3370717 1.99999996,21.8909049 1.99999996,21 L1.99999996,4.99999996 C1.99999996,3.34314571 3.34314571,1.99999996 4.99999996,1.99999996 L19,1.99999996 C20.6568543,1.99999996 22,3.34314571 22,4.99999996 L22,15 C22,16.6568543 20.6568543,18 19,18 L7.41421354,18 Z M3.99999997,18.5857865 L6.2928932,16.2928932 C6.48042957,16.1053569 6.73478349,16 6.99999997,16 L19,16 C19.5522848,16 20,15.5522848 20,15 L20,4.99999997 C20,4.44771522 19.5522848,3.99999997 19,3.99999997 L4.99999997,3.99999997 C4.44771522,3.99999997 3.99999997,4.44771522 3.99999997,4.99999997 L3.99999997,18.5857865 Z" id="Shape" fill="#000000"></path>
    </g>
</svg>