<?xml version="1.0" encoding="UTF-8"?>
<svg width="24px" height="24px" viewBox="0 0 24 24" version="1.1" xmlns="http://www.w3.org/2000/svg" xmlns:xlink="http://www.w3.org/1999/xlink">
    <title>feather-icon/message-circle</title>
    <g id="feather-icon/message-circle" stroke="none" stroke-width="1" fill="none" fill-rule="evenodd">
        <rect id="Bounding-Box" fill-opacity="0" fill="#FFFFFF" x="0" y="0" width="24" height="24"></rect>
        <path d="M3.66809219,14.9985849 C3.22460847,13.8873805 2.99686994,12.699371 3.00000004,11.499613 C3.00139213,7.90201052 5.034869,4.61383517 8.24914663,3.00740193 C9.56783024,2.34133175 11.0252097,1.99615478 12.5,1.99990936 L13,1.99990936 L13.3221165,2.01995289 C18.0212906,2.41073543 21.7372587,6.21053131 22.0000874,11 L22.0000874,11.4974143 C22.0038452,12.9747903 21.6586683,14.4321698 20.9945046,15.7470588 C19.3861648,18.965131 16.0979895,20.9986079 12.5026073,20.9999966 C11.1675361,21.0034775 9.8487824,20.7219326 8.63394862,20.1761097 L3.31622773,21.9486833 C2.5344697,22.2092694 1.79073065,21.4655303 2.05131666,20.6837723 L3.82388991,15.3660525 L3.66809219,14.9985849 Z M12.4974143,3.99991918 C11.3350243,3.99696256 10.1883735,4.26854415 9.14705874,4.79450457 C6.60647539,6.06424652 5.00109892,8.66017443 4.99999657,11.5026073 C4.99696597,12.664973 5.26853975,13.8116178 5.79259801,14.8491467 C5.91280829,15.0871386 5.93299856,15.3632819 5.84868327,15.6162278 L4.5811388,19.4188612 L8.38377222,18.1513167 C8.63671808,18.0670014 8.91286141,18.0871917 9.15085335,18.207402 C10.1883822,18.7314603 11.335027,19.003034 12.4996131,19.0000001 C15.3398256,18.9989011 17.9357535,17.3935246 19.207402,14.8491467 C19.7314558,13.8116265 20.0030374,12.6649757 20.0000285,11.5 L20.0015472,11.055092 C19.7965462,7.33967603 16.896206,4.35499925 13.2179277,4.01846284 L12.9715777,3.99991918 L12.4974143,3.99991918 Z" id="Shape" fill="#000000"></path>
    </g>
</svg>