<?xml version="1.0" encoding="UTF-8"?>
<svg width="24px" height="24px" viewBox="0 0 24 24" version="1.1" xmlns="http://www.w3.org/2000/svg" xmlns:xlink="http://www.w3.org/1999/xlink">
    <title>feather-icon/mic-off</title>
    <g id="feather-icon/mic-off" stroke="none" stroke-width="1" fill="none" fill-rule="evenodd">
        <rect id="Bounding-Box" fill-opacity="0" fill="#FFFFFF" x="0" y="0" width="24" height="24"></rect>
        <path d="M7.99999998,24 C7.44771523,24 6.99999998,23.5522848 6.99999998,23 C6.99999998,22.4477153 7.44771523,22 7.99999998,22 L7.99999998,22 L10.9999999,21.9997562 L11.0002111,19.9889224 C10.3061763,19.9015435 9.61656846,19.7220244 8.94916527,19.4467206 C6.02298297,18.2396704 4.09226634,15.425886 4.00301708,12.2862806 L3.99999997,12 L3.99999997,9.99999999 C3.99999997,9.44771524 4.44771522,8.99999999 4.99999997,8.99999999 C5.51283581,8.99999999 5.93550714,9.38604018 5.99327224,9.88337887 L5.99999997,9.99999999 L5.99997321,12.007316 C5.98207866,14.4532116 7.45068625,16.6651227 9.71182712,17.5978433 C10.3605151,17.8654271 11.037172,18.0123602 11.7127783,18.0445917 C11.8032673,18.0147028 11.8999166,18 12,18 C12.1000833,18 12.1967327,18.0147028 12.2879059,18.0420663 C13.4355883,17.9890369 14.556469,17.6045158 15.5060478,16.9204325 L14.0293652,15.4445653 C12.9640631,16.0717051 11.6468955,16.1804921 10.4697416,15.6930768 C9.0409204,15.1014555 8.08714754,13.7427396 8.0056669,12.2100288 L7.99999998,12 L7.99999995,9.41475622 L0.29289317,1.70710674 C-0.0675907931,1.34662278 -0.0953203287,0.779391717 0.209704563,0.387100508 L0.29289317,0.29289317 C0.683417463,-0.0976311233 1.31658244,-0.0976311233 1.70710674,0.29289317 L1.70710674,0.29289317 L17.4967104,16.0818027 C17.5691031,16.1232853 17.6374481,16.1745737 17.6998269,16.2356875 C17.7665319,16.3010398 17.8221434,16.3734431 17.8666374,16.4505517 L23.7071068,22.2928933 C24.0976311,22.6834176 24.0976311,23.3165825 23.7071068,23.7071068 C23.3165825,24.0976311 22.6834176,24.0976311 22.2928933,23.7071068 L22.2928933,23.7071068 L16.9339992,18.3486559 C15.7815881,19.2521346 14.4182531,19.8094262 13.0007731,19.9883904 L12.9999999,21.9997562 L16,22 C16.5128359,22 16.9355071,22.3860402 16.9932722,22.8833789 L17,23 C17,23.5522848 16.5522848,24 16,24 L16,24 Z M19,8.99999999 C19.5128359,8.99999999 19.9355072,9.38604018 19.9932723,9.88337887 L20,9.99999999 L20,12.000871 C19.9995891,12.472231 19.9575207,12.9426325 19.8742854,13.4065853 C19.77676,13.9501911 19.2570205,14.3118107 18.7134147,14.2142853 C18.1698089,14.11676 17.8081893,13.5970205 17.9057147,13.0534147 C17.9473323,12.8214382 17.9752277,12.5873123 17.9892915,12.3525149 L18,12 L18,9.99999999 C18,9.44771524 18.4477153,8.99999999 19,8.99999999 Z M9.99999995,11.4147562 L9.99999998,11.9991204 C10.0007106,12.8074982 10.4879864,13.5359625 11.2348702,13.845219 C11.6492487,14.0167976 12.0983272,14.0406181 12.5137295,13.9302636 L9.99999995,11.4147562 Z M12.4019963,0.0172361951 C14.3784515,0.216878132 15.8978235,1.83286062 15.9950557,3.79574893 L16.0000016,3.99999997 L16.0000016,9.33999999 C16.0000016,9.89228474 15.5522863,10.34 15.0000016,10.34 C14.4871657,10.34 14.0644944,9.9539598 14.0067293,9.45662111 L14.0000015,9.33999999 L14.0000021,3.99899597 C14.0010337,2.97148899 13.2233036,2.11037368 12.2009989,2.00711058 C11.2324998,1.90928238 10.3430527,2.52178915 10.0782559,3.44271968 L10.0102003,3.71194494 C9.85462255,4.18784214 9.36358437,4.48205224 8.86100499,4.38000047 C8.31976565,4.27009857 7.97009757,3.7422443 8.07999948,3.20100496 C8.48893688,1.18709074 10.357387,-0.189289998 12.4019963,0.0172361951 Z" id="Shape" fill="#000000"></path>
    </g>
</svg>