<?xml version="1.0" encoding="UTF-8"?>
<svg width="24px" height="24px" viewBox="0 0 24 24" version="1.1" xmlns="http://www.w3.org/2000/svg" xmlns:xlink="http://www.w3.org/1999/xlink">
    <title>feather-icon/mic</title>
    <g id="feather-icon/mic" stroke="none" stroke-width="1" fill="none" fill-rule="evenodd">
        <rect id="Bounding-Box" fill-opacity="0" fill="#FFFFFF" x="0" y="0" width="24" height="24"></rect>
        <path d="M7.99999998,24 C7.44771523,24 6.99999998,23.5522848 6.99999998,23 C6.99999998,22.4477153 7.44771523,22 7.99999998,22 L7.99999998,22 L11,21.9999999 L11.0000487,19.9381123 C7.13435345,19.456091 4.12517258,16.2160131 4.00380679,12.2491793 L3.99999997,12 L3.99999997,9.99999999 C3.99999997,9.44771524 4.44771522,8.99999999 4.99999997,8.99999999 C5.55228472,8.99999999 5.99999997,9.44771524 5.99999997,9.99999999 L5.99999997,9.99999999 L5.99999997,12 C5.99999997,15.3137085 8.68629153,18 12,18 C15.3137085,18 18,15.3137085 18,12 L18,12 L18,9.99999999 C18,9.44771524 18.4477153,8.99999999 19,8.99999999 C19.5522848,8.99999999 20,9.44771524 20,9.99999999 L20,9.99999999 L20,12 C20,16.0792885 16.9468042,19.445465 13.000955,19.9379871 L13,21.9999999 L16,22 C16.5128359,22 16.9355071,22.3860402 16.9932722,22.8833789 L17,23 C17,23.5522848 16.5522848,24 16,24 L16,24 Z M12,-4.99998993e-08 C14.209139,-4.99998993e-08 16,1.79086096 16,3.99999995 L16,12 C16,14.209139 14.209139,16 12,16 C9.79086099,16 7.99999998,14.209139 7.99999998,12 L7.99999998,3.99999995 C7.99999998,1.79086096 9.79086099,-4.99998993e-08 12,-4.99998993e-08 Z M12,1.99999996 C10.8954305,1.99999996 9.99999999,2.89543046 9.99999999,3.99999996 L9.99999999,12 C9.99999999,13.1045695 10.8954305,14 12,14 C13.1045695,14 14,13.1045695 14,12 L14,3.99999996 C14,2.89543046 13.1045695,1.99999996 12,1.99999996 Z" id="Shape" fill="#000000"></path>
    </g>
</svg>