<?xml version="1.0" encoding="UTF-8"?>
<svg width="24px" height="24px" viewBox="0 0 24 24" version="1.1" xmlns="http://www.w3.org/2000/svg" xmlns:xlink="http://www.w3.org/1999/xlink">
    <title>feather-icon/minimize-2</title>
    <g id="feather-icon/minimize-2" stroke="none" stroke-width="1" fill="none" fill-rule="evenodd">
        <rect id="Bounding-Box" fill-opacity="0" fill="#FFFFFF" x="0" y="0" width="24" height="24"></rect>
        <path d="M9.99999996,13 C10.0064614,13 10.0129086,13.0000613 10.0193409,13.0001833 C10.042681,13.0006349 10.0659949,13.001895 10.0892501,13.0039664 C10.1096949,13.005748 10.1294204,13.008101 10.1489612,13.0110193 C10.165949,13.0136281 10.1833753,13.0167022 10.2007258,13.0202401 C10.2227461,13.0246398 10.2444364,13.0298336 10.2658396,13.035721 C10.2814633,13.0400977 10.2968513,13.0447287 10.3121425,13.0497381 C10.3317977,13.0561225 10.3515792,13.0633157 10.3710585,13.071104 C10.3887956,13.0781964 10.4060985,13.0856791 10.4232215,13.0936734 C10.4438914,13.1033766 10.4642939,13.1137939 10.4842769,13.1248758 C10.4963944,13.1314988 10.5086131,13.1386069 10.5207087,13.1459955 C10.5462749,13.1617187 10.5711307,13.1784901 10.5951593,13.1963135 C10.6343256,13.225313 10.6717127,13.2574992 10.7071068,13.2928932 L10.6167501,13.212786 C10.6801817,13.2625517 10.7374483,13.3198183 10.787214,13.3832499 C10.7927155,13.3901576 10.7982466,13.397397 10.8036654,13.4046934 C10.8215099,13.4288693 10.8382813,13.4537251 10.8539325,13.4793398 C10.8613931,13.4913869 10.8685012,13.5036056 10.8753288,13.5159379 C10.886206,13.5357061 10.8966233,13.5561086 10.9063462,13.5769009 C10.9143209,13.5939015 10.9218036,13.6112044 10.9287745,13.628664 C10.9366842,13.6484208 10.9438775,13.6682023 10.9504533,13.6882636 C10.9552713,13.7031487 10.9599023,13.7185367 10.9641549,13.734007 C10.9701663,13.7555635 10.9753602,13.7772539 10.9798348,13.7992059 C10.9832978,13.8166247 10.9863719,13.834051 10.9889822,13.8515331 C10.9962388,13.8996379 11,13.9493797 11,14 L10.9962979,13.9137692 C10.9978436,13.9317345 10.9989053,13.9497336 10.9994829,13.9677454 L11,14 L11,20 C11,20.5522848 10.5522847,21 9.99999996,21 C9.44771524,21 8.99999996,20.5522848 8.99999996,20 L8.99999996,20 L8.99999996,16.414 L3.70710675,21.7071068 C3.34662278,22.0675908 2.77939173,22.0953203 2.38710052,21.7902954 L2.29289318,21.7071068 C1.90236888,21.3165825 1.90236888,20.6834175 2.29289318,20.2928933 L2.29289318,20.2928933 L7.58399996,15 L3.99999996,15 C3.48716413,15 3.0644928,14.6139598 3.00672769,14.1166211 L2.99999996,14 C2.99999996,13.4477153 3.44771521,13 3.99999996,13 L3.99999996,13 Z M20.2928933,2.29289318 C20.6834175,1.90236888 21.3165825,1.90236888 21.7071068,2.29289318 C22.0976311,2.68341747 22.0976311,3.31658245 21.7071068,3.70710675 L21.7071068,3.70710675 L16.414,8.99999996 L20,8.99999996 C20.5128359,8.99999996 20.9355072,9.38604018 20.9932723,9.88337884 L21,9.99999996 C21,10.5522847 20.5522848,11 20,11 L20,11 L14,11 C13.9888734,11 13.9777892,10.9998182 13.9667503,10.9994576 C13.9497336,10.9989053 13.9317345,10.9978436 13.9137692,10.9962979 C13.892114,10.9944665 13.8714753,10.9920328 13.8510388,10.9889806 C13.834051,10.9863719 13.8166247,10.9832978 13.7992742,10.9797599 C13.7772539,10.9753602 13.7555635,10.9701663 13.7341604,10.964279 C13.7185367,10.9599023 13.7031487,10.9552713 13.6878575,10.9502619 C13.6682023,10.9438775 13.6484208,10.9366842 13.6289415,10.928896 C13.6112044,10.9218036 13.5939015,10.9143209 13.5767785,10.9063266 C13.5561086,10.8966233 13.5357061,10.886206 13.5157231,10.8751242 C13.5036056,10.8685012 13.4913869,10.8613931 13.4792913,10.8540045 C13.4537251,10.8382813 13.4288693,10.8215099 13.4048407,10.8036865 C13.3656744,10.774687 13.3282873,10.7425008 13.2928932,10.7071068 L13.3832499,10.787214 C13.3198183,10.7374483 13.2625517,10.6801817 13.212786,10.6167501 C13.2072845,10.6098424 13.2017534,10.602603 13.1963346,10.5953066 C13.1784901,10.5711307 13.1617187,10.5462749 13.1460674,10.5206602 C13.1386069,10.5086131 13.1314988,10.4963944 13.1246712,10.4840621 C13.1137939,10.4642939 13.1033766,10.4438914 13.0936538,10.4230991 C13.0856791,10.4060985 13.0781964,10.3887956 13.0712255,10.371336 C13.0633157,10.3515792 13.0561225,10.3317977 13.0495467,10.3117364 C13.0447287,10.2968513 13.0400977,10.2814633 13.0358451,10.265993 C13.0298336,10.2444364 13.0246398,10.2227461 13.0201652,10.2007941 C13.0167022,10.1833753 13.0136281,10.165949 13.0110178,10.1484669 C13.0037612,10.1003621 13,10.0506202 13,9.99999996 L13.0039664,10.0892501 C13.001895,10.0659949 13.0006349,10.042681 13.0001862,10.0193545 L13,9.99999996 L13,3.99999996 C13,3.44771521 13.4477153,2.99999996 14,2.99999996 C14.5522848,2.99999996 15,3.44771521 15,3.99999996 L15,3.99999996 L15,7.58399996 Z" id="Shape" fill="#000000"></path>
    </g>
</svg>