<?xml version="1.0" encoding="UTF-8"?>
<svg width="24px" height="24px" viewBox="0 0 24 24" version="1.1" xmlns="http://www.w3.org/2000/svg" xmlns:xlink="http://www.w3.org/1999/xlink">
    <title>feather-icon/minimize</title>
    <g id="feather-icon/minimize" stroke="none" stroke-width="1" fill="none" fill-rule="evenodd">
        <rect id="Bounding-Box" fill-opacity="0" fill="#FFFFFF" x="0" y="0" width="24" height="24"></rect>
        <path d="M18,15 L21,15 C21.5522848,15 22,15.4477153 22,16 C22,16.5128359 21.6139598,16.9355072 21.1166212,16.9932723 L21,17 L18,17 C17.4871642,17 17.0644929,17.3860402 17.0067278,17.8833789 L17,18 L17,21 C17,21.5522848 16.5522848,22 16,22 C15.4871642,22 15.0644929,21.6139598 15.0067277,21.1166212 L15,21 L15,18 C15,16.4023191 16.24892,15.0963391 17.8237272,15.0050927 L18,15 L21,15 L18,15 Z M2.99999996,15 L5.99999996,15 C7.59768087,15 8.90366087,16.24892 8.99490729,17.8237272 L8.99999996,18 L8.99999996,21 C8.99999996,21.5522848 8.55228474,22 7.99999996,22 C7.48716414,22 7.06449282,21.6139598 7.00672771,21.1166212 L6.99999996,21 L6.99999996,18 C6.99999996,17.4871642 6.61395979,17.0644929 6.1166211,17.0067278 L5.99999996,17 L2.99999996,17 C2.44771521,17 1.99999996,16.5522848 1.99999996,16 C1.99999996,15.4871642 2.38604015,15.0644929 2.88337884,15.0067277 L2.99999996,15 L5.99999996,15 L2.99999996,15 Z M7.99999996,1.99999996 C8.51283582,1.99999996 8.93550715,2.38604015 8.99327226,2.88337884 L8.99999996,2.99999996 L8.99999996,5.99999996 C8.99999996,7.59768087 7.75108002,8.90366087 6.17627276,8.99490729 L5.99999996,8.99999996 L2.99999996,8.99999996 C2.44771521,8.99999996 1.99999996,8.55228474 1.99999996,7.99999996 C1.99999996,7.48716414 2.38604015,7.06449282 2.88337884,7.00672771 L2.99999996,6.99999996 L5.99999996,6.99999996 C6.51283582,6.99999996 6.93550714,6.61395979 6.99327225,6.1166211 L6.99999996,5.99999996 L6.99999996,2.99999996 C6.99999996,2.44771521 7.44771523,1.99999996 7.99999996,1.99999996 Z M16,1.99999996 C16.5128359,1.99999996 16.9355072,2.38604015 16.9932723,2.88337884 L17,2.99999996 L17,5.99999996 C17,6.51283582 17.3860402,6.93550714 17.8833789,6.99327225 L18,6.99999996 L21,6.99999996 C21.5522848,6.99999996 22,7.44771523 22,7.99999996 C22,8.51283582 21.6139598,8.93550715 21.1166212,8.99327226 L21,8.99999996 L18,8.99999996 C16.4023191,8.99999996 15.0963391,7.75108002 15.0050927,6.17627276 L15,5.99999996 L15,2.99999996 C15,2.44771521 15.4477153,1.99999996 16,1.99999996 Z" id="Shape" fill="#000000"></path>
    </g>
</svg>