<?xml version="1.0" encoding="UTF-8"?>
<svg width="24px" height="24px" viewBox="0 0 24 24" version="1.1" xmlns="http://www.w3.org/2000/svg" xmlns:xlink="http://www.w3.org/1999/xlink">
    <title>feather-icon/more-horizontal</title>
    <g id="feather-icon/more-horizontal" stroke="none" stroke-width="1" fill="none" fill-rule="evenodd">
        <rect id="Bounding-Box" fill-opacity="0" fill="#FFFFFF" x="0" y="0" width="24" height="24"></rect>
        <path d="M12,9.99999999 C13.1045695,9.99999999 14,10.8954305 14,12 C14,13.1045695 13.1045695,14 12,14 C10.8954305,14 9.99999999,13.1045695 9.99999999,12 C9.99999999,10.8954305 10.8954305,9.99999999 12,9.99999999 Z M19,9.99999999 C20.1045695,9.99999999 21,10.8954305 21,12 C21,13.1045695 20.1045695,14 19,14 C17.8954305,14 17,13.1045695 17,12 C17,10.8954305 17.8954305,9.99999999 19,9.99999999 Z M4.99999996,9.99999999 C6.10456948,9.99999999 6.99999996,10.8954305 6.99999996,12 C6.99999996,13.1045695 6.10456948,14 4.99999996,14 C3.89543047,14 2.99999996,13.1045695 2.99999996,12 C2.99999996,10.8954305 3.89543047,9.99999999 4.99999996,9.99999999 Z" id="Shape" fill="#000000"></path>
    </g>
</svg>