<?xml version="1.0" encoding="UTF-8"?>
<svg width="24px" height="24px" viewBox="0 0 24 24" version="1.1" xmlns="http://www.w3.org/2000/svg" xmlns:xlink="http://www.w3.org/1999/xlink">
    <title>feather-icon/mouse-pointer</title>
    <g id="feather-icon/mouse-pointer" stroke="none" stroke-width="1" fill="none" fill-rule="evenodd">
        <rect id="Bounding-Box" fill-opacity="0" fill="#FFFFFF" x="0" y="0" width="24" height="24"></rect>
        <path d="M3.38457672,2.07690694 L20.3545768,9.14690697 C21.2054077,9.50137807 21.1643546,10.7204461 20.2916041,11.0168742 L14.4231516,13.0091516 L19.7071068,18.2928932 C20.0675908,18.6533772 20.0953203,19.2206083 19.7902954,19.6128995 L19.7071068,19.7071068 C19.3165825,20.0976311 18.6834175,20.0976311 18.2928932,19.7071068 L18.2928932,19.7071068 L13.0091516,14.4231516 L11.0168742,20.2916041 C10.7204461,21.1643546 9.50137807,21.2054077 9.14690697,20.3545768 L2.07690694,3.38457672 C1.7335248,2.56036245 2.56036245,1.7335248 3.38457672,2.07690694 Z M4.85695413,4.85695413 L9.97473357,17.1410725 L11.6331258,12.2583959 C11.7330699,11.9641381 11.9641381,11.7330699 12.2583959,11.6331258 L17.1410725,9.97473357 L4.85695413,4.85695413 Z" id="Shape" fill="#000000"></path>
    </g>
</svg>