<?xml version="1.0" encoding="UTF-8"?>
<svg width="24px" height="24px" viewBox="0 0 24 24" version="1.1" xmlns="http://www.w3.org/2000/svg" xmlns:xlink="http://www.w3.org/1999/xlink">
    <title>feather-icon/move</title>
    <g id="feather-icon/move" stroke="none" stroke-width="1" fill="none" fill-rule="evenodd">
        <rect id="Bounding-Box" fill-opacity="0" fill="#FFFFFF" x="0" y="0" width="24" height="24"></rect>
        <path d="M12,0.999999954 C12.0064615,0.999999954 12.0129086,1.00006124 12.0193409,1.00018325 C12.042681,1.00063485 12.0659949,1.00189493 12.0892501,1.00396636 C12.1096949,1.00574792 12.1294204,1.00810093 12.1489612,1.0110193 C12.165949,1.01362803 12.1833753,1.01670212 12.2007258,1.02024003 C12.2227461,1.02463975 12.2444365,1.02983358 12.2658396,1.03572092 C12.2814633,1.04009769 12.2968513,1.04472867 12.3121425,1.04973804 C12.3317977,1.05612244 12.3515792,1.06331569 12.3710585,1.07110392 C12.3887957,1.07819638 12.4060985,1.085679 12.4232215,1.09367332 C12.4438914,1.1033766 12.4642939,1.11379387 12.4842769,1.12487572 C12.4963944,1.13149878 12.5086131,1.13860688 12.5207088,1.14599541 C12.546275,1.16171866 12.5711307,1.17849005 12.5951593,1.19631346 C12.6343256,1.22531291 12.6717127,1.25749912 12.7071068,1.29289317 L12.6167501,1.21278592 C12.6196628,1.21507108 12.6225624,1.21737206 12.625449,1.21968872 L12.7071068,1.29289317 L15.7071068,4.29289319 C16.0976311,4.68341748 16.0976311,5.31658246 15.7071068,5.70710675 C15.3165825,6.09763105 14.6834175,6.09763105 14.2928932,5.70710675 L14.2928932,5.70710675 L13,4.41399995 L13,11 L19.585,11 L18.2928932,9.70710677 C17.9324093,9.34662281 17.9046797,8.77939175 18.2097046,8.38710054 L18.2928932,8.2928932 C18.6834175,7.90236891 19.3165825,7.90236891 19.7071068,8.2928932 L19.7071068,8.2928932 L22.7071068,11.2928932 C22.7355731,11.3213595 22.7623311,11.3515341 22.787214,11.3832499 C22.7927156,11.3901576 22.7982466,11.397397 22.8036655,11.4046934 C22.8215099,11.4288693 22.8382813,11.453725 22.8539325,11.4793398 C22.8613931,11.4913869 22.8685012,11.5036056 22.8753289,11.5159379 C22.8862061,11.5357061 22.8966233,11.5561086 22.9063462,11.5769008 C22.914321,11.5939015 22.9218036,11.6112043 22.9287746,11.628664 C22.9366842,11.6484208 22.9438775,11.6682023 22.9504533,11.6882636 C22.9552713,11.7031487 22.9599023,11.7185367 22.9641549,11.734007 C22.9701663,11.7555635 22.9753602,11.7772539 22.9798348,11.7992059 C22.9832979,11.8166247 22.986372,11.834051 22.9889822,11.8515331 C22.9962388,11.8996379 23,11.9493797 23,12 L22.9960336,11.9107499 C22.9981344,11.9343349 22.9994007,11.9579802 22.9998325,11.9816379 L23,12 C23,12.0064615 22.9999387,12.0129086 22.9998167,12.0193409 C22.9993652,12.042681 22.9981051,12.0659949 22.9960336,12.0892501 C22.994252,12.1096949 22.991899,12.1294204 22.9889806,12.1489612 C22.986372,12.165949 22.9832979,12.1833753 22.97976,12.2007258 C22.9753602,12.2227461 22.9701663,12.2444365 22.964279,12.2658396 C22.9599023,12.2814633 22.9552713,12.2968513 22.950262,12.3121425 C22.9438775,12.3317977 22.9366842,12.3515792 22.928896,12.3710585 C22.9218036,12.3887957 22.914321,12.4060985 22.9063267,12.4232215 C22.8966233,12.4438914 22.8862061,12.4642939 22.8751242,12.4842769 C22.8685012,12.4963944 22.8613931,12.5086131 22.8540046,12.5207088 C22.8382813,12.546275 22.8215099,12.5711307 22.8036865,12.5951593 C22.7746871,12.6343256 22.7425009,12.6717127 22.7071068,12.7071068 L22.787214,12.6167501 C22.7849289,12.6196628 22.7826279,12.6225624 22.7803112,12.625449 L22.7071068,12.7071068 L19.7071068,15.7071068 C19.3165825,16.0976311 18.6834175,16.0976311 18.2928932,15.7071068 C17.902369,15.3165825 17.902369,14.6834175 18.2928932,14.2928932 L18.2928932,14.2928932 L19.585,13 L13,13 L13,19.585 L14.2928932,18.2928932 C14.6533772,17.9324093 15.2206082,17.9046797 15.6128995,18.2097046 L15.7071068,18.2928932 C16.0976311,18.6834175 16.0976311,19.3165825 15.7071068,19.7071068 L15.7071068,19.7071068 L12.7071068,22.7071068 C12.6786405,22.7355731 12.6484659,22.7623311 12.6167501,22.787214 C12.6098424,22.7927156 12.602603,22.7982466 12.5953066,22.8036655 C12.5711307,22.8215099 12.546275,22.8382813 12.5206602,22.8539325 C12.5086131,22.8613931 12.4963944,22.8685012 12.4840621,22.8753289 C12.4642939,22.8862061 12.4438914,22.8966233 12.4230991,22.9063462 C12.4060985,22.914321 12.3887957,22.9218036 12.371336,22.9287746 C12.3515792,22.9366842 12.3317977,22.9438775 12.3117364,22.9504533 C12.2968513,22.9552713 12.2814633,22.9599023 12.265993,22.9641549 C12.2444365,22.9701663 12.2227461,22.9753602 12.2007941,22.9798348 C12.1833753,22.9832979 12.165949,22.986372 12.1484669,22.9889822 C12.1003621,22.9962388 12.0506203,23 12,23 L12.0892501,22.9960336 C12.0659949,22.9981051 12.042681,22.9993652 12.0193545,22.9998139 L12,23 C11.9932566,23 11.9865288,22.9999332 11.9798172,22.9998003 C11.957319,22.9993652 11.9340051,22.9981051 11.9107499,22.9960336 C11.890153,22.9942338 11.8705042,22.9918877 11.8510388,22.9889806 C11.834051,22.986372 11.8166247,22.9832979 11.7992742,22.97976 C11.7772539,22.9753602 11.7555635,22.9701663 11.7341604,22.964279 C11.7185367,22.9599023 11.7031487,22.9552713 11.6878575,22.950262 C11.6682023,22.9438775 11.6484208,22.9366842 11.6289415,22.928896 C11.6112043,22.9218036 11.5939015,22.914321 11.5767785,22.9063267 C11.5561086,22.8966233 11.5357061,22.8862061 11.515723,22.8751242 C11.5036056,22.8685012 11.4913869,22.8613931 11.4792912,22.8540046 C11.453725,22.8382813 11.4288693,22.8215099 11.4048407,22.8036865 C11.3656744,22.7746871 11.3282873,22.7425009 11.2928932,22.7071068 L11.3832499,22.787214 C11.3515341,22.7623311 11.3213595,22.7355731 11.2928932,22.7071068 L8.2928932,19.7071068 C7.90236891,19.3165825 7.90236891,18.6834175 8.2928932,18.2928932 C8.6834175,17.902369 9.31658248,17.902369 9.70710677,18.2928932 L9.70710677,18.2928932 L11,19.585 L11,13 L4.41399995,13 L5.70710675,14.2928932 C6.06759072,14.6533772 6.09532025,15.2206082 5.79029536,15.6128995 L5.70710675,15.7071068 C5.31658246,16.0976311 4.68341748,16.0976311 4.29289319,15.7071068 L4.29289319,15.7071068 L1.29289317,12.7071068 L1.29289317,12.7071068 L1.21968872,12.625449 C1.21737206,12.6225624 1.21507108,12.6196628 1.21278592,12.6167501 C1.20728444,12.6098424 1.2017534,12.602603 1.19633453,12.5953066 C1.17849005,12.5711307 1.16171866,12.546275 1.14606739,12.5206602 C1.13860688,12.5086131 1.13149878,12.4963944 1.12467113,12.4840621 C1.11379387,12.4642939 1.1033766,12.4438914 1.09365373,12.4230991 C1.085679,12.4060985 1.07819638,12.3887957 1.07122545,12.371336 C1.06331569,12.3515792 1.05612244,12.3317977 1.04954664,12.3117364 C1.04472867,12.2968513 1.04009769,12.2814633 1.0358451,12.265993 C1.02983358,12.2444365 1.02463975,12.2227461 1.02016511,12.2007941 C1.01670212,12.1833753 1.01362803,12.165949 1.01101776,12.1484669 C1.00376114,12.1003621 0.999999954,12.0506203 0.999999954,12 L1.00396636,12.0892501 C1.00189493,12.0659949 1.00063485,12.042681 1.0001861,12.0193545 L0.999999954,12 C0.999999954,11.9935938 1.00006019,11.9872016 1.00018014,11.980824 C1.00059927,11.9579802 1.00186556,11.9343349 1.00396636,11.9107499 C1.00576607,11.890153 1.00811218,11.8705042 1.0110193,11.8510388 C1.01362803,11.834051 1.01670212,11.8166247 1.02024003,11.7992742 C1.02463975,11.7772539 1.02983358,11.7555635 1.03572092,11.7341604 C1.04009769,11.7185367 1.04472867,11.7031487 1.04973804,11.6878575 C1.05612244,11.6682023 1.06331569,11.6484208 1.07110392,11.6289415 C1.07819638,11.6112043 1.085679,11.5939015 1.09367332,11.5767785 C1.1033766,11.5561086 1.11379387,11.5357061 1.12487572,11.515723 C1.13149878,11.5036056 1.13860688,11.4913869 1.14599541,11.4792912 C1.16171866,11.453725 1.17849005,11.4288693 1.19631346,11.4048407 C1.22531291,11.3656744 1.25749912,11.3282873 1.29289317,11.2928932 L1.21278592,11.3832499 C1.23766879,11.3515341 1.26442686,11.3213595 1.29289317,11.2928932 L4.29289319,8.2928932 C4.68341748,7.90236891 5.31658246,7.90236891 5.70710675,8.2928932 C6.09763105,8.6834175 6.09763105,9.31658248 5.70710675,9.70710677 L5.70710675,9.70710677 L4.41399995,11 L11,11 L11,4.41399995 L9.70710677,5.70710675 C9.34662281,6.06759072 8.77939175,6.09532025 8.38710054,5.79029536 L8.2928932,5.70710675 C7.90236891,5.31658246 7.90236891,4.68341748 8.2928932,4.29289319 L8.2928932,4.29289319 L11.2928932,1.29289317 L11.2928932,1.29289317 L11.374551,1.21968872 C11.3774376,1.21737206 11.3803372,1.21507108 11.3832499,1.21278592 C11.3901576,1.20728444 11.397397,1.2017534 11.4046934,1.19633453 C11.4288693,1.17849005 11.453725,1.16171866 11.4793398,1.14606739 C11.4913869,1.13860688 11.5036056,1.13149878 11.5159379,1.12467113 C11.5357061,1.11379387 11.5561086,1.1033766 11.5769008,1.09365373 C11.5939015,1.085679 11.6112043,1.07819638 11.628664,1.07122545 C11.6484208,1.06331569 11.6682023,1.05612244 11.6882636,1.04954664 C11.7031487,1.04472867 11.7185367,1.04009769 11.734007,1.0358451 C11.7555635,1.02983358 11.7772539,1.02463975 11.7992059,1.02016511 C11.8166247,1.01670212 11.834051,1.01362803 11.8515331,1.01101776 C11.8996379,1.00376114 11.9493797,0.999999954 12,0.999999954 L11.9107499,1.00396636 C11.9343349,1.00186556 11.9579802,1.00059927 11.9816379,1.0001675 Z" id="Shape" fill="#000000"></path>
    </g>
</svg>