<?xml version="1.0" encoding="UTF-8"?>
<svg width="24px" height="24px" viewBox="0 0 24 24" version="1.1" xmlns="http://www.w3.org/2000/svg" xmlns:xlink="http://www.w3.org/1999/xlink">
    <title>feather-icon/music</title>
    <g id="feather-icon/music" stroke="none" stroke-width="1" fill="none" fill-rule="evenodd">
        <rect id="Bounding-Box" fill-opacity="0" fill="#FFFFFF" x="0" y="0" width="24" height="24"></rect>
        <path d="M22,16 C22,18.209139 20.209139,20 18,20 C15.790861,20 14,18.209139 14,16 C14,13.790861 15.790861,12 18,12 C18.7290322,12 19.4125119,12.1950335 20.0011092,12.5357707 L20,4.18046039 L9.99999998,5.84712706 L9.99999998,18 C9.99999998,18.0085019 9.99989388,18.0169791 9.99968294,18.0254302 L9.99999996,18 C9.99999996,20.209139 8.20913898,22 5.99999996,22 C3.79086097,22 1.99999996,20.209139 1.99999996,18 C1.99999996,15.790861 3.79086097,14 5.99999996,14 C6.72903216,14 7.41251185,14.1950335 8.00110919,14.5357707 L7.99999998,4.99999997 C7.99999998,4.51116082 8.35341303,4.0939707 8.835601,4.01360604 L8.835601,4.01360604 L20.835601,2.01360603 C21.4451328,1.91201742 22,2.38206052 22,2.99999996 L22,2.99999996 L22,16 L22,16 Z M5.99999997,16 C4.89543047,16 3.99999997,16.8954305 3.99999997,18 C3.99999997,19.1045695 4.89543047,20 5.99999997,20 C7.10456948,20 7.99999997,19.1045695 7.99999997,18 C7.99999997,16.8954305 7.10456948,16 5.99999997,16 Z M18,14 C16.8954305,14 16,14.8954305 16,16 C16,17.1045695 16.8954305,18 18,18 C19.1045695,18 20,17.1045695 20,16 C20,14.8954305 19.1045695,14 18,14 Z" id="Shape" fill="#000000"></path>
    </g>
</svg>