<?xml version="1.0" encoding="UTF-8"?>
<svg width="24px" height="24px" viewBox="0 0 24 24" version="1.1" xmlns="http://www.w3.org/2000/svg" xmlns:xlink="http://www.w3.org/1999/xlink">
    <title>feather-icon/package</title>
    <g id="feather-icon/package" stroke="none" stroke-width="1" fill="none" fill-rule="evenodd">
        <rect id="Bounding-Box" fill-opacity="0" fill="#FFFFFF" x="0" y="0" width="24" height="24"></rect>
        <path d="M13.4961389,1.40175681 L20.5,5.40397427 C20.8744952,5.62018899 21.1909859,5.91039415 21.4353116,6.25015949 C21.4958724,6.31091825 21.5502486,6.38086419 21.5956073,6.45927642 C21.6345646,6.52662241 21.6647919,6.59662102 21.6866392,6.66796151 C21.8890973,7.07505704 21.9995177,7.52955419 22,7.99999998 L22,16.0010257 C21.9989013,17.0717233 21.4272516,18.0606772 20.496139,18.5982432 L13.5,22.5960254 C13.1776822,22.7821157 12.8293921,22.9035863 12.4733293,22.9605301 C12.3331483,23.0367659 12.1716231,23.08 12,23.08 C11.8287836,23.08 11.6676173,23.0369705 11.5267251,22.9611356 C11.1717381,22.9043519 10.8246003,22.783426 10.5038611,22.5982432 L3.49999996,18.5960257 C2.57274837,18.0606772 2.00109871,17.0717233 1.99999996,16 L1.99999996,7.99897428 C2.00048307,7.52819606 2.11127074,7.07322134 2.31409107,6.66566053 C2.33606133,6.59464976 2.3659841,6.52567388 2.4043927,6.45927642 C2.44975144,6.38086419 2.50412765,6.31091825 2.56545245,6.2499911 C2.80901402,5.91039415 3.12550475,5.62018899 3.49999996,5.40397427 L6.75457577,3.54310648 C6.90151424,3.37852811 7.09603273,3.27091168 7.30456306,3.22927019 L10.5,1.40397455 C11.4282032,0.868076165 12.5717968,0.868076165 13.4961389,1.40175681 Z M3.99899996,8.53677311 L3.99999944,15.9989743 C4.00036552,16.3558735 4.1909154,16.6855248 4.49613891,16.8617569 L11,20.5787731 L11,12.5857731 L3.99899996,8.53677311 Z M19.999,8.53677311 L13,12.5857731 L13,20.5767731 L19.4999994,16.8639743 C19.8090846,16.6855248 19.9996345,16.3558735 19.9999994,16 L19.999,8.53677311 Z M7.54999996,5.39277311 L5.03899996,6.82777311 L12,10.8547417 L14.506,9.40377311 L7.54999996,5.39277311 Z M11.4961389,3.13824311 L9.56099996,4.24377311 L16.505,8.24777311 L18.96,6.82777311 L12.4999994,3.13602537 C12.1905989,2.95739257 11.8094011,2.95739257 11.4961389,3.13824311 Z" id="Shape" fill="#000000"></path>
    </g>
</svg>