<?xml version="1.0" encoding="UTF-8"?>
<svg width="24px" height="24px" viewBox="0 0 24 24" version="1.1" xmlns="http://www.w3.org/2000/svg" xmlns:xlink="http://www.w3.org/1999/xlink">
    <title>feather-icon/paperclip</title>
    <g id="feather-icon/paperclip" stroke="none" stroke-width="1" fill="none" fill-rule="evenodd">
        <rect id="Bounding-Box" fill-opacity="0" fill="#FFFFFF" x="0" y="0" width="24" height="24"></rect>
        <path d="M20.7328933,10.3428932 L11.5428932,19.5328933 C9.58896874,21.4868177 6.42103123,21.4868177 4.46710675,19.5328933 C2.51318227,17.5789688 2.51318227,14.4110313 4.46710675,12.4571068 L13.6571068,3.26710674 C14.8295483,2.09466523 16.7304517,2.09466524 17.9028932,3.26710679 C19.0753347,4.43954833 19.0753348,6.34045165 17.9028932,7.51289321 L8.70327782,16.7025088 C8.31193457,17.0938519 7.67806539,17.0938519 7.28710676,16.7028932 C6.89614813,16.3119346 6.89614813,15.6780654 7.28710676,15.2871068 L15.77669,6.80752332 C16.1674443,6.41722922 16.1678175,5.78406435 15.7775234,5.39330999 C15.3872293,5.00255564 14.7540644,5.00218253 14.36331,5.39247663 L5.87331,13.8724767 C4.70088598,15.0449004 4.70088598,16.9450996 5.87289319,18.1171068 C7.04490041,19.289114 8.94509956,19.289114 10.1171068,18.1171068 L19.3167222,8.92749117 C21.2705969,6.97361661 21.2705969,3.80638334 19.3171068,1.85289322 C17.3636166,-0.100596903 14.1963834,-0.100596926 12.2428932,1.85289317 L3.05289318,11.0428932 C0.317920115,13.7778663 0.317920115,18.2121338 3.05289318,20.9471068 C5.78786625,23.6820799 10.2221337,23.6820799 12.9571068,20.9471068 L22.1471068,11.7571068 C22.5376311,11.3665825 22.5376311,10.7334175 22.1471068,10.3428932 C21.7565825,9.95236892 21.1234175,9.95236892 20.7328933,10.3428932 Z" id="Shape" fill="#000000"></path>
    </g>
</svg>