<?xml version="1.0" encoding="UTF-8"?>
<svg width="24px" height="24px" viewBox="0 0 24 24" version="1.1" xmlns="http://www.w3.org/2000/svg" xmlns:xlink="http://www.w3.org/1999/xlink">
    <title>feather-icon/pause</title>
    <g id="feather-icon/pause" stroke="none" stroke-width="1" fill="none" fill-rule="evenodd">
        <rect id="Bounding-Box" fill-opacity="0" fill="#FFFFFF" x="0" y="0" width="24" height="24"></rect>
        <path d="M9.99999997,2.99999996 C10.5522847,2.99999996 11,3.44771521 11,3.99999996 L11,20 C11,20.5522848 10.5522847,21 9.99999997,21 L5.99999997,21 C5.44771522,21 4.99999997,20.5522848 4.99999997,20 L4.99999997,3.99999996 C4.99999997,3.44771521 5.44771522,2.99999996 5.99999997,2.99999996 L9.99999997,2.99999996 Z M18,2.99999996 C18.5522848,2.99999996 19,3.44771521 19,3.99999996 L19,20 C19,20.5522848 18.5522848,21 18,21 L14,21 C13.4477153,21 13,20.5522848 13,20 L13,3.99999996 C13,3.44771521 13.4477153,2.99999996 14,2.99999996 L18,2.99999996 Z M8.99999998,4.99999997 L6.99999998,4.99999997 L6.99999998,19 L8.99999998,19 L8.99999998,4.99999997 Z M17,4.99999997 L15,4.99999997 L15,19 L17,19 L17,4.99999997 Z" id="Shape" fill="#000000"></path>
    </g>
</svg>