<?xml version="1.0" encoding="UTF-8"?>
<svg width="24px" height="24px" viewBox="0 0 24 24" version="1.1" xmlns="http://www.w3.org/2000/svg" xmlns:xlink="http://www.w3.org/1999/xlink">
    <title>feather-icon/pause-circle</title>
    <g id="feather-icon/pause-circle" stroke="none" stroke-width="1" fill="none" fill-rule="evenodd">
        <rect id="Bounding-Box" fill-opacity="0" fill="#FFFFFF" x="0" y="0" width="24" height="24"></rect>
        <path d="M12,0.999999954 C18.0751323,0.999999954 23,5.92486773 23,12 C23,18.0751323 18.0751323,23 12,23 C5.92486773,23 0.999999954,18.0751323 0.999999954,12 C0.999999954,5.92486773 5.92486773,0.999999954 12,0.999999954 Z M12,2.99999996 C7.02943723,2.99999996 2.99999996,7.02943723 2.99999996,12 C2.99999996,16.9705628 7.02943723,21 12,21 C16.9705628,21 21,16.9705628 21,12 C21,7.02943723 16.9705628,2.99999996 12,2.99999996 Z M9.99999999,7.99999998 C10.5522847,7.99999998 11,8.44771524 11,8.99999998 L11,8.99999998 L11,15 C11,15.5522848 10.5522847,16 9.99999999,16 C9.44771524,16 8.99999999,15.5522848 8.99999999,15 L8.99999999,15 L8.99999999,8.99999998 C8.99999999,8.44771524 9.44771524,7.99999998 9.99999999,7.99999998 Z M14,7.99999998 C14.5522848,7.99999998 15,8.44771524 15,8.99999998 L15,8.99999998 L15,15 C15,15.5522848 14.5522848,16 14,16 C13.4477153,16 13,15.5522848 13,15 L13,15 L13,8.99999998 C13,8.44771524 13.4477153,7.99999998 14,7.99999998 Z" id="Shape" fill="#000000"></path>
    </g>
</svg>