<?xml version="1.0" encoding="UTF-8"?>
<svg width="24px" height="24px" viewBox="0 0 24 24" version="1.1" xmlns="http://www.w3.org/2000/svg" xmlns:xlink="http://www.w3.org/1999/xlink">
    <title>feather-icon/pen-tool</title>
    <g id="feather-icon/pen-tool" stroke="none" stroke-width="1" fill="none" fill-rule="evenodd">
        <rect id="Bounding-Box" fill-opacity="0" fill="#FFFFFF" x="0" y="0" width="24" height="24"></rect>
        <path d="M2.04019152,1.00015567 L2.05903134,1.00173305 C2.06608832,1.00214781 2.07314174,1.00263701 2.08019032,1.00320066 C2.10549399,1.00490631 2.13089737,1.00802864 2.15642489,1.01215875 C2.17086024,1.01451318 2.18521319,1.01709605 2.19951499,1.01999393 C2.2111674,1.02246423 2.2228946,1.02508253 2.23464049,1.02791775 L16.7346406,4.52791776 C17.1131562,4.61928361 17.4042157,4.92205899 17.4805807,5.30388384 L18.632642,11.0696471 C18.9919034,10.9279986 19.4166275,11.002414 19.7071068,11.2928932 L22.7071068,14.2928932 C23.0976311,14.6834175 23.0976311,15.3165825 22.7071068,15.7071068 L15.7071068,22.7071068 C15.3165825,23.0976311 14.6834175,23.0976311 14.2928932,22.7071068 L11.2928932,19.7071068 C11.0026822,19.4168958 10.9281362,18.9926876 11.0692553,18.6336374 L5.30388384,17.4805807 C4.92205899,17.4042157 4.61928361,17.1131562 4.52791776,16.7346406 L1.02791775,2.23464049 L1.02344805,2.21586031 C1.01833257,2.19261382 1.01405409,2.16922019 1.01061262,2.14572756 L1.02791775,2.23464049 C1.01554984,2.18340202 1.00730959,2.13251942 1.00293112,2.08225857 C1.00227274,2.06903098 1.00140844,2.0550362 1.00083688,2.04103169 C0.989407559,1.80044464 1.0661139,1.57677357 1.20077372,1.3986793 C1.2286307,1.36183559 1.25931869,1.32646766 1.29289317,1.29289317 L1.23152541,1.36000225 C1.24646932,1.34211749 1.26202189,1.32475385 1.27814949,1.30794497 L1.29289317,1.29289317 C1.29672811,1.28905824 1.30058644,1.28526096 1.30446772,1.28150134 C1.32522724,1.26136206 1.34746007,1.24160456 1.37053007,1.222848 C1.37952154,1.21557065 1.38862671,1.20843614 1.39782465,1.20148166 C1.42036141,1.18434208 1.44364721,1.16818142 1.46760584,1.15301096 C1.47609198,1.14790367 1.48425818,1.14292772 1.49247884,1.13807944 C1.6242341,1.05951982 1.77543717,1.01067696 1.93623168,1.00095299 C1.94163418,1.00167812 1.94729963,1.00136496 1.95296692,1.00109976 C1.98189138,0.998834792 2.01092165,0.998843472 2.04019152,1.00015567 Z M19,13.4142136 L13.4142136,19 L15,20.5857865 L20.5857865,15 L19,13.4142136 Z M5.21971691,3.80526307 L9.7072712,8.29204247 C10.0987325,8.10482951 10.5371241,7.99999998 11,7.99999998 C12.6568543,7.99999998 14,9.34314574 14,11 C14,12.6568543 12.6568543,14 11,14 C9.34314574,14 7.99999998,12.6568543 7.99999998,11 C7.99999998,10.5367348 8.10500591,10.0979951 8.29251501,9.70628359 L3.80571691,5.21926307 L6.32225507,15.6446471 L12.6713253,16.9144612 L16.9144612,12.6713253 L15.6446471,6.32225507 L5.21971691,3.80526307 Z M11,9.99999999 C10.4477152,9.99999999 9.99999999,10.4477152 9.99999999,11 C9.99999999,11.5522847 10.4477152,12 11,12 C11.5522847,12 12,11.5522847 12,11 C12,10.4477152 11.5522847,9.99999999 11,9.99999999 Z" id="Shape" fill="#000000"></path>
    </g>
</svg>