<?xml version="1.0" encoding="UTF-8"?>
<svg width="24px" height="24px" viewBox="0 0 24 24" version="1.1" xmlns="http://www.w3.org/2000/svg" xmlns:xlink="http://www.w3.org/1999/xlink">
    <title>feather-icon/percent</title>
    <g id="feather-icon/percent" stroke="none" stroke-width="1" fill="none" fill-rule="evenodd">
        <rect id="Bounding-Box" fill-opacity="0" fill="#FFFFFF" x="0" y="0" width="24" height="24"></rect>
        <path d="M17.5,14 C19.4329967,14 21,15.5670034 21,17.5 C21,19.4329967 19.4329967,21 17.5,21 C15.5670034,21 14,19.4329967 14,17.5 C14,15.5670034 15.5670034,14 17.5,14 Z M18.2928932,4.29289319 C18.6834175,3.90236889 19.3165825,3.90236889 19.7071068,4.29289319 C20.0976311,4.68341748 20.0976311,5.31658246 19.7071068,5.70710675 L19.7071068,5.70710675 L5.70710675,19.7071068 C5.31658246,20.0976311 4.68341748,20.0976311 4.29289319,19.7071068 C3.90236889,19.3165825 3.90236889,18.6834175 4.29289319,18.2928932 L4.29289319,18.2928932 Z M17.5,16 C16.6715729,16 16,16.6715729 16,17.5 C16,18.3284272 16.6715729,19 17.5,19 C18.3284272,19 19,18.3284272 19,17.5 C19,16.6715729 18.3284272,16 17.5,16 Z M6.49999996,2.99999996 C8.43299661,2.99999996 9.99999996,4.56700334 9.99999996,6.49999996 C9.99999996,8.43299661 8.43299661,9.99999996 6.49999996,9.99999996 C4.56700334,9.99999996 2.99999996,8.43299661 2.99999996,6.49999996 C2.99999996,4.56700334 4.56700334,2.99999996 6.49999996,2.99999996 Z M6.49999997,4.99999997 C5.67157285,4.99999997 4.99999997,5.67157285 4.99999997,6.49999997 C4.99999997,7.32842711 5.67157285,7.99999997 6.49999997,7.99999997 C7.32842711,7.99999997 7.99999997,7.32842711 7.99999997,6.49999997 C7.99999997,5.67157285 7.32842711,4.99999997 6.49999997,4.99999997 Z" id="Shape" fill="#000000"></path>
    </g>
</svg>