<?xml version="1.0" encoding="UTF-8"?>
<svg width="24px" height="24px" viewBox="0 0 24 24" version="1.1" xmlns="http://www.w3.org/2000/svg" xmlns:xlink="http://www.w3.org/1999/xlink">
    <title>feather-icon/phone-call</title>
    <g id="feather-icon/phone-call" stroke="none" stroke-width="1" fill="none" fill-rule="evenodd">
        <rect id="Bounding-Box" fill-opacity="0" fill="#FFFFFF" x="0" y="0" width="24" height="24"></rect>
        <path d="M7.10561095,0.999901635 L7.28490123,1.0037664 C8.70979989,1.07676124 9.89813669,2.15075646 10.1014144,3.58924248 C10.2181758,4.4745374 10.4347136,5.34378192 10.7460523,6.17813909 C11.1581548,7.27445164 10.8945749,8.5103485 10.0671068,9.34710677 L9.3500142,10.0641993 C10.5258702,11.9088481 12.0911572,13.4741344 13.9358065,14.6499895 L14.6568609,13.9289477 C15.4896515,13.1054251 16.7255484,12.8418452 17.8196049,13.2531028 C18.6562181,13.5652864 19.5254626,13.7818242 20.4196923,13.899805 C21.8677026,14.1040839 22.9480838,15.3189966 22.99904,16.7412027 L23.0000166,19.9159411 C23.0034205,20.7606587 22.6505638,21.5676786 22.0281086,22.1387384 C21.4056535,22.7097982 20.5712877,22.9919732 19.7119777,22.9141485 C16.4793206,22.5628939 13.3741258,21.458265 10.6536785,19.6940138 C8.11360038,18.0799425 5.96005752,15.9263996 4.35072009,13.3936996 C2.57530036,10.6530796 1.47042053,7.53278383 1.12405823,4.27000041 C1.04826804,3.43130891 1.32846624,2.59937904 1.8962069,1.97743199 C2.46389785,1.35553939 3.2668227,1.00084272 4.10999997,0.999901635 L7.10561095,0.999901635 Z M7.1197437,2.99980597 L4.11111682,2.99980597 C3.8303063,3.00021464 3.56258113,3.11848378 3.37332458,3.32581005 C3.18407769,3.53312573 3.09067829,3.81043569 3.1144087,4.07440039 C3.42606539,7.00920524 4.42465568,9.8293283 6.03401376,12.3136785 C7.49061473,14.6059442 9.43405584,16.5493853 11.7341012,18.0109804 C14.1998725,19.6100242 17.0063472,20.6083877 19.9100083,20.924059 C20.1904402,20.9494031 20.4685622,20.8553447 20.6760472,20.6649915 C20.8835323,20.4746382 21.0011512,20.2056316 21,19.92 L21.0003077,16.895195 C21.0129027,16.3875913 20.6430891,15.9511251 20.1492425,15.8814144 C19.1144046,15.7449298 18.0983282,15.4918147 17.1181391,15.1260523 C16.7527016,14.9886848 16.340736,15.0765448 16.0671068,15.3471068 L14.7971068,16.6171068 C14.4787938,16.9354198 13.9870293,17.0018074 13.5957055,16.7792945 C10.935688,15.2667668 8.73323317,13.064312 7.22070547,10.4042945 C6.99819259,10.0129707 7.06458019,9.52120621 7.3828932,9.20289321 L8.64894768,7.93686087 C8.92345522,7.659264 9.01131518,7.24729838 8.87310274,6.87960482 C8.50818533,5.9016718 8.25507022,4.88559544 8.11984163,3.85995154 C8.04959096,3.3629275 7.62174193,2.99496261 7.1197437,2.99980597 Z M19.9238226,8.49453164 L19.9541205,8.62611551 L19.9814939,8.75850617 C20.2258298,10.0108403 18.4266683,10.4248629 18.0552927,9.28285053 L18.0185062,9.14149381 L19,8.94999999 L19.976,8.73599999 L19.928857,8.51639603 L18.9518999,8.72983198 L17.9799772,8.96513231 L17.9749428,8.94326792 C17.6935364,7.65519044 19.6135888,7.21309174 19.9238226,8.49453164 Z M23,8.93999999 L23.991,8.81299999 L23.9937461,8.82833639 C24.1365903,10.0995731 22.3042819,10.3623675 22.030647,9.19271537 L22.006254,9.05166359 L23,8.93999999 Z M23.9308208,8.40145222 L23.9573367,8.54214022 L22.9653815,8.66872992 L21.9754444,8.81023771 L21.9734264,8.79531962 C21.8114898,7.52638707 23.6396128,7.23606257 23.9308208,8.40145222 Z" id="Shape" fill="#000000"></path>
    </g>
</svg>