<?xml version="1.0" encoding="UTF-8"?>
<svg width="24px" height="24px" viewBox="0 0 24 24" version="1.1" xmlns="http://www.w3.org/2000/svg" xmlns:xlink="http://www.w3.org/1999/xlink">
    <title>feather-icon/phone-outgoing</title>
    <g id="feather-icon/phone-outgoing" stroke="none" stroke-width="1" fill="none" fill-rule="evenodd">
        <rect id="Bounding-Box" fill-opacity="0" fill="#FFFFFF" x="0" y="0" width="24" height="24"></rect>
        <path d="M7.10561095,0.999901635 L7.28490123,1.0037664 C8.70979989,1.07676124 9.89813669,2.15075646 10.1014144,3.58924248 C10.2181758,4.4745374 10.4347136,5.34378192 10.7460523,6.17813909 C11.1581548,7.27445164 10.8945749,8.5103485 10.0671068,9.34710677 L9.3500142,10.0641993 C10.5258702,11.9088481 12.0911572,13.4741344 13.9358065,14.6499895 L14.6568609,13.9289477 C15.4896515,13.1054251 16.7255484,12.8418452 17.8196049,13.2531028 C18.6562181,13.5652864 19.5254626,13.7818242 20.4196923,13.899805 C21.8677026,14.1040839 22.9480838,15.3189966 22.99904,16.7412027 L23.000041,19.9159411 C23.0034205,20.7606587 22.6505638,21.5676786 22.0281086,22.1387384 C21.4056535,22.7097982 20.5712877,22.9919732 19.7119777,22.9141485 C16.4793206,22.5628939 13.3741258,21.458265 10.6536785,19.6940138 C8.11360038,18.0799425 5.96005752,15.9263996 4.35072009,13.3936996 C2.57530036,10.6530796 1.47042053,7.53278383 1.12405823,4.27000041 C1.04826804,3.43130891 1.32846624,2.59937904 1.8962069,1.97743199 C2.46389785,1.35553939 3.2668227,1.00084272 4.10999997,0.999901635 L7.10561095,0.999901635 Z M7.1197437,2.99980597 L4.11111682,2.99980597 C3.8303063,3.00021464 3.56258113,3.11848378 3.37332458,3.32581005 C3.18407769,3.53312573 3.09067829,3.81043569 3.1144087,4.07440039 C3.42606539,7.00920524 4.42465568,9.8293283 6.03401376,12.3136785 C7.49061473,14.6059442 9.43405584,16.5493853 11.7341012,18.0109804 C14.1998725,19.6100242 17.0063472,20.6083877 19.9100083,20.924059 C20.1904402,20.9494031 20.4685622,20.8553447 20.6760472,20.6649915 C20.8835323,20.4746382 21.0011512,20.2056316 21,19.92 L21.0003077,16.895195 C21.0129027,16.3875913 20.6430891,15.9511251 20.1492425,15.8814144 C19.1144046,15.7449298 18.0983282,15.4918147 17.1181391,15.1260523 C16.7527016,14.9886848 16.340736,15.0765448 16.0671068,15.3471068 L14.7971068,16.6171068 C14.4787938,16.9354198 13.9870293,17.0018074 13.5957055,16.7792945 C10.935688,15.2667668 8.73323317,13.064312 7.22070547,10.4042945 C6.99819259,10.0129707 7.06458019,9.52120621 7.3828932,9.20289321 L8.64894768,7.93686087 C8.92345522,7.659264 9.01131518,7.24729838 8.87310274,6.87960482 C8.50818533,5.9016718 8.25507022,4.88559544 8.11984163,3.85995154 C8.04959096,3.3629275 7.62174193,2.99496261 7.1197437,2.99980597 Z M23,-5.00001773e-08 C23.0064615,-5.00001773e-08 23.0129086,6.12325799e-05 23.0193409,0.000183248223 C23.0424569,0.000622746592 23.0658831,0.00188497199 23.0892501,0.00396635835 C23.1096949,0.00574791333 23.1294205,0.00810092731 23.1489612,0.0110192928 C23.1659491,0.0136280307 23.1833753,0.0167021207 23.2007258,0.0202400211 C23.2227461,0.0246397453 23.2444365,0.029833576 23.2658396,0.0357209166 C23.2817412,0.0401740783 23.2974042,0.0448951698 23.3129665,0.0500083672 C23.3310532,0.0559002551 23.3491487,0.062445275 23.3669929,0.0694887423 C23.3868351,0.077310102 23.4067675,0.0859118564 23.4264596,0.0951921652 C23.4450905,0.104044249 23.4628464,0.113106851 23.4802859,0.122674311 C23.4935696,0.129861072 23.5071697,0.137727136 23.5206178,0.145939824 C23.5416934,0.158919183 23.5622148,0.172526241 23.5821867,0.186850849 C23.6256994,0.217951817 23.6676421,0.253428422 23.7071068,0.29289317 L23.6215925,0.21660914 C23.6830987,0.265477435 23.7387179,0.321436351 23.7872141,0.383249869 C23.7927156,0.390157546 23.7982466,0.397396911 23.8036655,0.404693337 C23.8215099,0.428869258 23.8382813,0.453724999 23.8539326,0.479339765 C23.8613931,0.491386846 23.8685012,0.503605511 23.8753289,0.515937855 C23.8862061,0.535706006 23.8966234,0.556108555 23.9063462,0.576900803 C23.914321,0.593901457 23.9218036,0.611204303 23.9287746,0.628663928 C23.9366843,0.648420748 23.9438775,0.668202275 23.9504533,0.68826354 C23.9552713,0.703148612 23.9599023,0.718536677 23.9641549,0.734006987 C23.9701664,0.755563475 23.9753602,0.777253872 23.9798349,0.799205851 C23.9832979,0.816624691 23.986372,0.834050944 23.9889822,0.851533088 C23.9962388,0.899637855 24,0.949379667 24,0.99999995 L23.9963841,0.914775725 C23.9978551,0.932076861 23.9988773,0.949408981 23.9994507,0.966753178 L24,0.99999995 L24,6.99999995 C24,7.55228473 23.5522848,7.99999995 23,7.99999995 C22.4477153,7.99999995 22,7.55228473 22,6.99999995 L22,6.99999995 L21.9998725,3.41399995 L16.7071068,8.70710677 C16.3466228,9.06759073 15.7793918,9.09532027 15.3871006,8.79029537 L15.2928932,8.70710677 C14.9023689,8.31658247 14.9023689,7.68341749 15.2928932,7.2928932 L15.2928932,7.2928932 L20.5858725,1.99899995 L17,1.99999995 C16.4871642,1.99999995 16.0644929,1.61395977 16.0067277,1.11662108 L16,0.99999995 C16,0.447715202 16.4477153,-5.00001773e-08 17,-5.00001773e-08 L17,-5.00001773e-08 Z" id="Shape" fill="#000000"></path>
    </g>
</svg>