<?xml version="1.0" encoding="UTF-8"?>
<svg width="24px" height="24px" viewBox="0 0 24 24" version="1.1" xmlns="http://www.w3.org/2000/svg" xmlns:xlink="http://www.w3.org/1999/xlink">
    <title>feather-icon/phone-incoming</title>
    <g id="feather-icon/phone-incoming" stroke="none" stroke-width="1" fill="none" fill-rule="evenodd">
        <rect id="Bounding-Box" fill-opacity="0" fill="#FFFFFF" x="0" y="0" width="24" height="24"></rect>
        <path d="M7.10561095,0.999901635 L7.28490123,1.0037664 C8.70979989,1.07676124 9.89813669,2.15075646 10.1014144,3.58924248 C10.2181758,4.4745374 10.4347136,5.34378192 10.7460523,6.17813909 C11.1581548,7.27445164 10.8945749,8.5103485 10.0671068,9.34710677 L9.3500142,10.0641993 C10.5258702,11.9088481 12.0911572,13.4741344 13.9358065,14.6499895 L14.6568609,13.9289477 C15.4896515,13.1054251 16.7255484,12.8418452 17.8196049,13.2531028 C18.6562181,13.5652864 19.5254626,13.7818242 20.4196923,13.899805 C21.8677026,14.1040839 22.9480838,15.3189966 22.99904,16.7412027 L23.000041,19.9159411 C23.0034205,20.7606587 22.6505638,21.5676786 22.0281086,22.1387384 C21.4056535,22.7097982 20.5712877,22.9919732 19.7119777,22.9141485 C16.4793206,22.5628939 13.3741258,21.458265 10.6536785,19.6940138 C8.11360038,18.0799425 5.96005752,15.9263996 4.35072009,13.3936996 C2.57530036,10.6530796 1.47042053,7.53278383 1.12405823,4.27000041 C1.04826804,3.43130891 1.32846624,2.59937904 1.8962069,1.97743199 C2.46389785,1.35553939 3.2668227,1.00084272 4.10999997,0.999901635 L7.10561095,0.999901635 Z M7.1197437,2.99980597 L4.11111682,2.99980597 C3.8303063,3.00021464 3.56258113,3.11848378 3.37332458,3.32581005 C3.18407769,3.53312573 3.09067829,3.81043569 3.1144087,4.07440039 C3.42606539,7.00920524 4.42465568,9.8293283 6.03401376,12.3136785 C7.49061473,14.6059442 9.43405584,16.5493853 11.7341012,18.0109804 C14.1998725,19.6100242 17.0063472,20.6083877 19.9100083,20.924059 C20.1904402,20.9494031 20.4685622,20.8553447 20.6760472,20.6649915 C20.8835323,20.4746382 21.0011512,20.2056316 21,19.92 L21.0003077,16.895195 C21.0129027,16.3875913 20.6430891,15.9511251 20.1492425,15.8814144 C19.1144046,15.7449298 18.0983282,15.4918147 17.1181391,15.1260523 C16.7527016,14.9886848 16.340736,15.0765448 16.0671068,15.3471068 L14.7971068,16.6171068 C14.4787938,16.9354198 13.9870293,17.0018074 13.5957055,16.7792945 C10.935688,15.2667668 8.73323317,13.064312 7.22070547,10.4042945 C6.99819259,10.0129707 7.06458019,9.52120621 7.3828932,9.20289321 L8.64894768,7.93686087 C8.92345522,7.659264 9.01131518,7.24729838 8.87310274,6.87960482 C8.50818533,5.9016718 8.25507022,4.88559544 8.11984163,3.85995154 C8.04959096,3.3629275 7.62174193,2.99496261 7.1197437,2.99980597 Z M22.2928933,0.29289317 C22.6834176,-0.0976311233 23.3165825,-0.0976311233 23.7071068,0.29289317 C24.0976311,0.683417463 24.0976311,1.31658244 23.7071068,1.70710674 L23.7071068,1.70710674 L18.4138725,6.99999995 L22,6.99999995 C22.5128359,6.99999995 22.9355072,7.38604017 22.9932723,7.88337883 L23,7.99999995 C23,8.55228474 22.5522848,8.99999995 22,8.99999995 L22,8.99999995 L16,8.99999995 C15.9888734,8.99999995 15.9777892,8.99981823 15.9667503,8.9994576 C15.9496288,8.99888824 15.9322977,8.99786992 15.9149976,8.99640285 C15.8934218,8.99462011 15.8721228,8.99212945 15.8510388,8.98898061 C15.8338932,8.98634407 15.8165462,8.9832818 15.7992743,8.97975992 C15.7772539,8.97536016 15.7555635,8.97016633 15.7341604,8.96427899 C15.7185367,8.95990225 15.7031487,8.95527127 15.6878575,8.9502619 C15.6682023,8.94387747 15.6484208,8.93668422 15.6289415,8.92889599 C15.6112044,8.92180356 15.5939015,8.91432094 15.5767785,8.90632663 C15.5580453,8.89752894 15.5395102,8.88814063 15.5213179,8.87820349 C15.5064512,8.87018661 15.4912297,8.86136481 15.4762,8.85210851 C15.4543017,8.83849315 15.4335467,8.8245831 15.4133605,8.80993685 C15.371341,8.77953719 15.3309641,8.74517768 15.2928932,8.70710677 L15.3831528,8.78713782 C15.3197598,8.73738982 15.2625263,8.68014936 15.212786,8.61675005 C15.2072845,8.60984239 15.2017535,8.60260303 15.1963346,8.5953066 C15.1784901,8.57113066 15.1617187,8.54627492 15.1460674,8.52066015 C15.1395888,8.51022054 15.1333931,8.49963985 15.1274081,8.48897275 C15.1137611,8.46453481 15.1008899,8.43916939 15.0890956,8.4132109 C15.0849721,8.40417641 15.0810682,8.39521264 15.0773018,8.38620493 C15.0667085,8.36091991 15.0571136,8.33508479 15.04858,8.30877163 C15.0441173,8.29481379 15.0398163,8.28043923 15.0358452,8.26599295 C15.0298336,8.24443644 15.0246398,8.22274604 15.0201652,8.20079406 C15.0167022,8.18337525 15.0136281,8.16594899 15.0110178,8.14846685 C15.0037612,8.10036205 15,8.05062024 15,7.99999995 L15.0039664,8.08925005 C15.001895,8.06599487 15.0006349,8.04268103 15.0001862,8.01935448 L15,7.99999995 L15,1.99999995 C15,1.44771521 15.4477153,0.999999954 16,0.999999954 C16.5522848,0.999999954 17,1.44771521 17,1.99999995 L17,1.99999995 L16.9998725,5.58499995 Z" id="Shape" fill="#000000"></path>
    </g>
</svg>