<?xml version="1.0" encoding="UTF-8"?>
<svg width="24px" height="24px" viewBox="0 0 24 24" version="1.1" xmlns="http://www.w3.org/2000/svg" xmlns:xlink="http://www.w3.org/1999/xlink">
    <title>feather-icon/play-circle</title>
    <g id="feather-icon/play-circle" stroke="none" stroke-width="1" fill="none" fill-rule="evenodd">
        <rect id="Bounding-Box" fill-opacity="0" fill="#FFFFFF" x="0" y="0" width="24" height="24"></rect>
        <path d="M12,0.999999954 C18.0751323,0.999999954 23,5.92486773 23,12 C23,18.0751323 18.0751323,23 12,23 C5.92486773,23 0.999999954,18.0751323 0.999999954,12 C0.999999954,5.92486773 5.92486773,0.999999954 12,0.999999954 Z M12,2.99999996 C7.02943723,2.99999996 2.99999996,7.02943723 2.99999996,12 C2.99999996,16.9705628 7.02943723,21 12,21 C16.9705628,21 21,16.9705628 21,12 C21,7.02943723 16.9705628,2.99999996 12,2.99999996 Z M10.5547002,7.16794969 L16.5547002,11.1679497 C17.1484333,11.5637718 17.1484333,12.4362282 16.5547002,12.8320503 L10.5547002,16.8320503 C9.89014546,17.2750868 8.99999999,16.7986954 8.99999999,16 L8.99999999,7.99999998 C8.99999999,7.2013046 9.89014546,6.7249132 10.5547002,7.16794969 Z M11,9.86851708 L11,14.1314829 L14.1972244,12 L11,9.86851708 Z" id="Shape" fill="#000000"></path>
    </g>
</svg>