<?xml version="1.0" encoding="UTF-8"?>
<svg width="24px" height="24px" viewBox="0 0 24 24" version="1.1" xmlns="http://www.w3.org/2000/svg" xmlns:xlink="http://www.w3.org/1999/xlink">
    <title>feather-icon/plus-square</title>
    <g id="feather-icon/plus-square" stroke="none" stroke-width="1" fill="none" fill-rule="evenodd">
        <rect id="Bounding-Box" fill-opacity="0" fill="#FFFFFF" x="0" y="0" width="24" height="24"></rect>
        <path d="M19,1.99999996 C20.6568543,1.99999996 22,3.34314571 22,4.99999996 L22,19 C22,20.6568543 20.6568543,22 19,22 L4.99999996,22 C3.34314571,22 1.99999996,20.6568543 1.99999996,19 L1.99999996,4.99999996 C1.99999996,3.34314571 3.34314571,1.99999996 4.99999996,1.99999996 L19,1.99999996 Z M19,3.99999997 L4.99999997,3.99999997 C4.44771522,3.99999997 3.99999997,4.44771522 3.99999997,4.99999997 L3.99999997,19 C3.99999997,19.5522848 4.44771522,20 4.99999997,20 L19,20 C19.5522848,20 20,19.5522848 20,19 L20,4.99999997 C20,4.44771522 19.5522848,3.99999997 19,3.99999997 Z M12,6.99999998 C12.5522848,6.99999998 13,7.44771523 13,7.99999998 L13,7.99999998 L13,11 L16,11 C16.5128359,11 16.9355071,11.3860402 16.9932722,11.8833789 L17,12 C17,12.5522848 16.5522848,13 16,13 L16,13 L13,13 L13,16 C13,16.5128359 12.6139598,16.9355071 12.1166211,16.9932722 L12,17 C11.4477152,17 11,16.5522848 11,16 L11,16 L11,13 L7.99999998,13 C7.48716414,13 7.06449282,12.6139598 7.00672771,12.1166211 L6.99999998,12 C6.99999998,11.4477152 7.44771523,11 7.99999998,11 L7.99999998,11 L11,11 L11,7.99999998 C11,7.48716414 11.3860402,7.06449282 11.8833789,7.00672771 Z" id="Shape" fill="#000000"></path>
    </g>
</svg>