<?xml version="1.0" encoding="UTF-8"?>
<svg width="24px" height="24px" viewBox="0 0 24 24" version="1.1" xmlns="http://www.w3.org/2000/svg" xmlns:xlink="http://www.w3.org/1999/xlink">
    <title>feather-icon/plus</title>
    <g id="feather-icon/plus" stroke="none" stroke-width="1" fill="none" fill-rule="evenodd">
        <rect id="Bounding-Box" fill-opacity="0" fill="#FFFFFF" x="0" y="0" width="24" height="24"></rect>
        <path d="M12,3.99999997 C12.5522848,3.99999997 13,4.44771522 13,4.99999997 L13,4.99999997 L13,11 L19,11 C19.5128359,11 19.9355071,11.3860402 19.9932722,11.8833789 L20,12 C20,12.5522848 19.5522848,13 19,13 L19,13 L13,13 L13,19 C13,19.5128359 12.6139598,19.9355071 12.1166211,19.9932722 L12,20 C11.4477152,20 11,19.5522848 11,19 L11,19 L11,13 L4.99999997,13 C4.48716413,13 4.06449281,12.6139598 4.0067277,12.1166211 L3.99999997,12 C3.99999997,11.4477152 4.44771522,11 4.99999997,11 L4.99999997,11 L11,11 L11,4.99999997 C11,4.48716413 11.3860402,4.06449281 11.8833789,4.0067277 Z" id="Shape" fill="#000000"></path>
    </g>
</svg>