<?xml version="1.0" encoding="UTF-8"?>
<svg width="24px" height="24px" viewBox="0 0 24 24" version="1.1" xmlns="http://www.w3.org/2000/svg" xmlns:xlink="http://www.w3.org/1999/xlink">
    <title>feather-icon/plus-circle</title>
    <g id="feather-icon/plus-circle" stroke="none" stroke-width="1" fill="none" fill-rule="evenodd">
        <rect id="Bounding-Box" fill-opacity="0" fill="#FFFFFF" x="0" y="0" width="24" height="24"></rect>
        <path d="M12,0.999999954 C18.0751323,0.999999954 23,5.92486773 23,12 C23,18.0751323 18.0751323,23 12,23 C5.92486773,23 0.999999954,18.0751323 0.999999954,12 C0.999999954,5.92486773 5.92486773,0.999999954 12,0.999999954 Z M12,2.99999996 C7.02943723,2.99999996 2.99999996,7.02943723 2.99999996,12 C2.99999996,16.9705628 7.02943723,21 12,21 C16.9705628,21 21,16.9705628 21,12 C21,7.02943723 16.9705628,2.99999996 12,2.99999996 Z M12,6.99999998 C12.5522848,6.99999998 13,7.44771523 13,7.99999998 L13,7.99999998 L13,11 L16,11 C16.5128359,11 16.9355071,11.3860402 16.9932722,11.8833789 L17,12 C17,12.5522848 16.5522848,13 16,13 L16,13 L13,13 L13,16 C13,16.5128359 12.6139598,16.9355071 12.1166211,16.9932722 L12,17 C11.4477152,17 11,16.5522848 11,16 L11,16 L11,13 L7.99999998,13 C7.48716414,13 7.06449282,12.6139598 7.00672771,12.1166211 L6.99999998,12 C6.99999998,11.4477152 7.44771523,11 7.99999998,11 L7.99999998,11 L11,11 L11,7.99999998 C11,7.48716414 11.3860402,7.06449282 11.8833789,7.00672771 Z" id="Shape" fill="#000000"></path>
    </g>
</svg>