<?xml version="1.0" encoding="UTF-8"?>
<svg width="24px" height="24px" viewBox="0 0 24 24" version="1.1" xmlns="http://www.w3.org/2000/svg" xmlns:xlink="http://www.w3.org/1999/xlink">
    <title>feather-icon/pocket</title>
    <g id="feather-icon/pocket" stroke="none" stroke-width="1" fill="none" fill-rule="evenodd">
        <rect id="Bounding-Box" fill-opacity="0" fill="#FFFFFF" x="0" y="0" width="24" height="24"></rect>
        <path d="M20,1.99999996 C21.6568543,1.99999996 23,3.34314571 23,4.99999996 L23,11 C23,17.0751323 18.0751323,22 12,22 C9.0826186,22 6.28472555,20.8410748 4.22182537,18.7781746 C2.1589252,16.7152744 0.999999954,13.9173814 0.999999954,11 L0.999999954,4.99999996 C0.999999954,3.34314571 2.34314571,1.99999996 3.99999995,1.99999996 L20,1.99999996 Z M20,3.99999997 L3.99999996,3.99999997 C3.44771521,3.99999997 2.99999996,4.44771522 2.99999996,4.99999997 L2.99999996,11 C2.99999996,13.3869484 3.94821153,15.6761336 5.63603894,17.3639611 C7.32386636,19.0517885 9.61305158,20 12,20 C16.9705628,20 21,15.9705628 21,11 L21,4.99999997 C21,4.44771522 20.5522848,3.99999997 20,3.99999997 Z M7.2928932,9.29289321 C7.68341749,8.90236891 8.31658247,8.90236891 8.70710677,9.29289321 L8.70710677,9.29289321 L12,12.5857864 L15.2928932,9.29289321 C15.6834175,8.90236891 16.3165825,8.90236891 16.7071068,9.29289321 C17.0976311,9.6834175 17.0976311,10.3165825 16.7071068,10.7071068 L16.7071068,10.7071068 L12.7071068,14.7071068 C12.3165825,15.0976311 11.6834175,15.0976311 11.2928932,14.7071068 L11.2928932,14.7071068 L7.2928932,10.7071068 C6.90236891,10.3165825 6.90236891,9.6834175 7.2928932,9.29289321 Z" id="Shape" fill="#000000"></path>
    </g>
</svg>