<?xml version="1.0" encoding="UTF-8"?>
<svg width="24px" height="24px" viewBox="0 0 24 24" version="1.1" xmlns="http://www.w3.org/2000/svg" xmlns:xlink="http://www.w3.org/1999/xlink">
    <title>feather-icon/power</title>
    <g id="feather-icon/power" stroke="none" stroke-width="1" fill="none" fill-rule="evenodd">
        <rect id="Bounding-Box" fill-opacity="0" fill="#FFFFFF" x="0" y="0" width="24" height="24"></rect>
        <path d="M4.92277775,5.93300865 C5.31323827,5.5424206 5.94640325,5.54231723 6.3369913,5.93277775 C6.72757935,6.32323828 6.72768273,6.95640325 6.3372222,7.3469913 C3.2137784,10.4714552 3.2143297,15.5363002 6.3384536,18.660084 C9.46257751,21.7838679 14.5274225,21.7838679 17.6515464,18.660084 C20.7756703,15.5363002 20.7762216,10.4714552 17.6527778,7.3469913 C17.2623173,6.95640325 17.2624207,6.32323828 17.6530087,5.93277775 C18.0435968,5.54231723 18.6767617,5.5424206 19.0672223,5.93300865 C22.971527,9.83858853 22.9708379,16.1696447 19.065683,20.0743746 C15.1605281,23.9791044 8.82947188,23.9791044 4.924317,20.0743746 C1.01916213,16.1696447 1.018473,9.83858853 4.92277775,5.93300865 Z M12,0.999999954 C12.5522848,0.999999954 13,1.44771521 13,1.99999995 L13,1.99999995 L13,12 C13,12.5522848 12.5522848,13 12,13 C11.4477152,13 11,12.5522848 11,12 L11,12 L11,1.99999995 C11,1.44771521 11.4477152,0.999999954 12,0.999999954 Z" id="Shape" fill="#000000"></path>
    </g>
</svg>