<svg id="feather-icon_printer" data-name="feather-icon/printer" xmlns="http://www.w3.org/2000/svg" width="20" height="22.041" viewBox="0 0 20 22.041">
  <rect id="Bounding_Box" data-name="Bounding Box" width="20" height="22.041" fill="rgba(255,255,255,0)"/>
  <path id="Shape" d="M4.166,20.2a.88.88,0,0,1-.833-.918V16.531H2.5A2.636,2.636,0,0,1,0,13.776V9.184A2.636,2.636,0,0,1,2.5,6.429h.833V.918A.879.879,0,0,1,4.167,0h10A.878.878,0,0,1,15,.918v5.51h.833a2.636,2.636,0,0,1,2.5,2.755v4.592a2.636,2.636,0,0,1-2.5,2.755H15v2.755a.88.88,0,0,1-.834.918ZM5,18.367h8.333v-5.51H5v2.718c0,.012,0,.025,0,.038s0,.025,0,.037Zm10.834-3.673a.879.879,0,0,0,.833-.918V9.184a.878.878,0,0,0-.833-.918H2.5a.879.879,0,0,0-.833.918v4.592a.879.879,0,0,0,.833.918h.833V11.938a.88.88,0,0,1,.833-.918h10a.88.88,0,0,1,.834.918v2.756Zm-2.5-8.265V1.837H5V6.429Z" transform="translate(0.833 0.918)"/>
</svg>
