<?xml version="1.0" encoding="UTF-8"?>
<svg width="24px" height="24px" viewBox="0 0 24 24" version="1.1" xmlns="http://www.w3.org/2000/svg" xmlns:xlink="http://www.w3.org/1999/xlink">
    <title>feather-icon/refresh-ccw</title>
    <g id="feather-icon/refresh-ccw" stroke="none" stroke-width="1" fill="none" fill-rule="evenodd">
        <rect id="Bounding-Box" fill-opacity="0" fill="#FFFFFF" x="0" y="0" width="24" height="24"></rect>
        <path d="M23,13 L23.0490996,13.0012051 C23.0678492,13.0021247 23.0865749,13.0035691 23.1052526,13.0055375 C23.1253232,13.0075818 23.1447577,13.010208 23.1640067,13.0133839 C23.1816375,13.0164023 23.1993771,13.0198281 23.2170283,13.0237353 C23.2362237,13.0278534 23.255676,13.0327751 23.274892,13.0382572 C23.294719,13.0440164 23.3142602,13.0502393 23.3336285,13.0570742 C23.3450058,13.0610278 23.3565598,13.0653567 23.3680101,13.069891 C23.3895797,13.0784385 23.411036,13.08779 23.4322026,13.0979253 C23.5069438,13.1345845 23.5698765,13.1748393 23.6275354,13.2213678 C23.6399711,13.2313033 23.6521798,13.2416578 23.6641878,13.2523501 C23.6856229,13.271483 23.7061347,13.2913512 23.7257697,13.312059 C23.7261927,13.312506 23.7274744,13.3138625 23.7287531,13.3152234 L23.7367215,13.3237953 C23.7587504,13.347783 23.779623,13.3728496 23.7992509,13.3989067 L23.7287531,13.3152234 C23.7631596,13.3518395 23.794273,13.3903624 23.8221045,13.4304268 C23.8357201,13.4500939 23.8490143,13.4708015 23.8615475,13.492012 C23.871224,13.5082803 23.8802618,13.5246255 23.8888053,13.5411543 C23.896573,13.5562624 23.9041649,13.5719112 23.9113545,13.5877811 C23.9205351,13.608031 23.928839,13.6281557 23.9364562,13.648473 C23.9419728,13.6631261 23.9471912,13.678088 23.9520594,13.6932071 C23.958837,13.7144256 23.9648484,13.7355243 23.9701517,13.7567583 C23.9748835,13.7754328 23.9790951,13.7946489 23.9827457,13.8140629 C23.9859795,13.8315656 23.9887685,13.848907 23.9910993,13.8662951 C23.9969768,13.9099387 24,13.9546163 24,14 L23.9984976,13.9447919 C23.9991228,13.9562043 23.9995531,13.9676242 23.9997889,13.9790463 L24,14 L24,20 C24,20.5522848 23.5522848,21 23,21 C22.4477153,21 22,20.5522848 22,20 L22,20 L22,16.3101765 L19.067284,19.0669296 C16.639996,21.4954343 13.1365131,22.5088204 9.78760252,21.7510871 C6.43869189,20.9933538 3.71270795,18.5704722 2.56728391,15.3335962 C2.3830438,14.8129485 2.65575603,14.2415241 3.17640373,14.057284 C3.69705143,13.8730438 4.26847591,14.1457561 4.45271602,14.6664038 C5.36905525,17.2559045 7.5498424,19.1942098 10.2289709,19.8003965 C12.8124162,20.3849336 15.5108444,19.6519748 17.4615942,17.8373153 L17.6752234,17.631247 L20.476,14.9991765 L17,15 C16.4871642,15 16.0644929,14.6139598 16.0067277,14.1166211 L16,14 C16,13.4477153 16.4477153,13 17,13 L17,13 L23,13 L23,13 Z M0.99999995,11 L0.947901127,10.9986433 C0.932865592,10.9978609 0.917846308,10.9967409 0.902855619,10.9952838 C0.875736727,10.9927063 0.849704189,10.9891257 0.824010828,10.984564 C0.810684904,10.9820844 0.797306336,10.9794229 0.78397794,10.9764869 C0.753116172,10.9698258 0.722353972,10.9614788 0.692217437,10.9517401 C0.687035798,10.9499809 0.681769794,10.9482351 0.676516053,10.9464444 C0.562776628,10.9076502 0.458332578,10.8489029 0.367268855,10.7744108 C0.359329531,10.7680216 0.351130306,10.7610902 0.343020304,10.7540067 C0.320492598,10.7342653 0.29911816,10.7138842 0.278676657,10.6926003 C0.276373552,10.6902026 0.273804397,10.6874983 0.271246888,10.6847766 L0.258360119,10.6708099 C0.237123427,10.6473453 0.216984739,10.6228683 0.198025111,10.59746 L0.271246888,10.6847766 C0.237636127,10.6490073 0.207167941,10.6114185 0.179831736,10.5723505 C0.166251528,10.5528697 0.153069029,10.5325033 0.140624305,10.5116457 C0.129816435,10.4936212 0.119957567,10.475847 0.110683733,10.4578558 C0.103156678,10.4431802 0.095707025,10.4278062 0.0886455098,10.4122189 C0.0796411405,10.392359 0.0714867124,10.372633 0.0639924637,10.3527213 C0.0576602606,10.3359517 0.0517847744,10.318995 0.0463594841,10.3018382 C0.0405176251,10.2832306 0.0351244706,10.2642058 0.030306812,10.2450702 C0.0251041078,10.2246051 0.0206826568,10.2043868 0.0168827245,10.1839502 C0.0138478327,10.1673527 0.0111674077,10.1506016 0.00891438521,10.1338069 C0.00302321096,10.0900613 -4.99999819e-08,10.0453837 -4.99999819e-08,9.99999996 L0.00249038149,10.070975 C0.00107997552,10.0509854 0.000268263304,10.0309651 5.43418718e-05,10.0109429 L-4.99999819e-08,9.99999996 L-4.99999819e-08,3.99999996 C-4.99999819e-08,3.44771521 0.447715202,2.99999996 0.99999995,2.99999996 C1.55228471,2.99999996 1.99999995,3.44771521 1.99999995,3.99999996 L1.99999995,3.99999996 L1.99999995,7.68717646 L4.93271602,4.9330704 C7.36000398,2.50456565 10.8634869,1.49117959 14.2123975,2.24891291 C17.5613081,3.00664622 20.287292,5.4295278 21.4327161,8.66640375 C21.6169562,9.18705145 21.344244,9.75847593 20.8235963,9.94271604 C20.3029486,10.1269562 19.7315241,9.85424392 19.547284,9.33359622 C18.6309447,6.74409546 16.4501576,4.8057902 13.7710291,4.19960355 C11.1875838,3.61506642 8.48915559,4.34802523 6.53840584,6.16268474 L6.32477656,6.36875304 L3.52399995,8.99917646 L6.99999995,8.99999996 C7.51283582,8.99999996 7.93550711,9.38604018 7.99327222,9.88337884 L7.99999995,9.99999996 C7.99999995,10.5522847 7.55228473,11 6.99999995,11 L6.99999995,11 L0.99999995,11 L0.99999995,11 Z" id="Shape" fill="#000000"></path>
    </g>
</svg>