<?xml version="1.0" encoding="UTF-8"?>
<svg width="24px" height="24px" viewBox="0 0 24 24" version="1.1" xmlns="http://www.w3.org/2000/svg" xmlns:xlink="http://www.w3.org/1999/xlink">
    <title>feather-icon/repeat</title>
    <g id="feather-icon/repeat" stroke="none" stroke-width="1" fill="none" fill-rule="evenodd">
        <rect id="Bounding-Box" fill-opacity="0" fill="#FFFFFF" x="0" y="0" width="24" height="24"></rect>
        <path d="M21,12 C21.5522848,12 22,12.4477153 22,13 L22,13 L22,15 C22,17.7614238 19.7614238,20 17,20 L17,20 L5.41399996,19.9999999 L7.70710676,22.2928933 C8.06759073,22.6533772 8.09532026,23.2206083 7.79029537,23.6128995 L7.70710676,23.7071068 C7.31658247,24.0976311 6.68341749,24.0976311 6.2928932,23.7071068 L6.2928932,23.7071068 L2.29289318,19.7071068 L2.29289318,19.7071068 L2.21968873,19.625449 C2.21737206,19.6225625 2.21507109,19.6196628 2.21278592,19.6167501 C2.20728444,19.6098424 2.2017534,19.6026031 2.19633454,19.5953066 C2.17849005,19.5711307 2.16171866,19.546275 2.14606739,19.5206602 C2.13762498,19.5070057 2.12961448,19.4931447 2.12196391,19.4791394 C2.11206727,19.4609003 2.10256861,19.4421635 2.09365374,19.4230992 C2.08567901,19.4060985 2.07819638,19.3887957 2.07122545,19.3713361 C2.06331569,19.3515792 2.05612244,19.3317977 2.04954664,19.3117364 C2.04472867,19.2968514 2.04009769,19.2814633 2.0358451,19.265993 C2.02983358,19.2444365 2.02463975,19.2227461 2.02016511,19.2007941 C2.01670213,19.1833753 2.01362804,19.165949 2.01101776,19.1484669 C2.00376115,19.1003621 1.99999996,19.0506203 1.99999996,19 L2.00396637,19.0892501 C2.00189494,19.0659949 2.00063485,19.0426811 2.00018611,19.0193545 L1.99999996,19 C1.99999996,18.9935938 2.0000602,18.9872016 2.00018014,18.980824 C2.00059927,18.9579803 2.00186556,18.9343349 2.00396637,18.91075 C2.00576608,18.890153 2.00811219,18.8705042 2.0110193,18.8510388 C2.01362804,18.834051 2.01670213,18.8166248 2.02024003,18.7992743 C2.02463975,18.7772539 2.02983358,18.7555635 2.03572092,18.7341604 C2.04009769,18.7185368 2.04472867,18.7031487 2.04973804,18.6878575 C2.05612244,18.6682023 2.06331569,18.6484208 2.07110392,18.6289415 C2.07819638,18.6112044 2.08567901,18.5939015 2.09367332,18.5767785 C2.1033766,18.5561086 2.11379388,18.5357061 2.12487573,18.5157231 C2.13149879,18.5036056 2.13860688,18.4913869 2.14599541,18.4792913 C2.16516416,18.4480862 2.18592851,18.4179625 2.20823673,18.3890926 C2.23402602,18.3556568 2.26225799,18.3235284 2.29289318,18.2928932 L2.21278592,18.3832499 C2.2376688,18.3515341 2.26442687,18.3213595 2.29289318,18.2928932 L6.2928932,14.2928932 C6.68341749,13.9023689 7.31658247,13.9023689 7.70710676,14.2928932 C8.09763106,14.6834175 8.09763106,15.3165825 7.70710676,15.7071068 L7.70710676,15.7071068 L5.41399996,17.9999999 L17,18 C18.5976809,18 19.9036608,16.7510801 19.9949073,15.1762728 L20,15 L20,13 C20,12.4477153 20.4477153,12 21,12 Z M16.2928932,0.29289317 C16.6834175,-0.0976311233 17.3165825,-0.0976311233 17.7071068,0.29289317 L17.7071068,0.29289317 L21.7071068,4.29289319 C21.7355731,4.3213595 21.7623311,4.35153405 21.787214,4.38324989 C21.7927156,4.39015756 21.7982466,4.39739693 21.8036655,4.40469335 C21.8215099,4.42886927 21.8382813,4.45372502 21.8539325,4.47933978 C21.8613931,4.49138686 21.8685012,4.50360553 21.8753289,4.51593787 C21.8862061,4.53570602 21.8966233,4.55610857 21.9063462,4.57690082 C21.914321,4.59390147 21.9218036,4.61120432 21.9287745,4.62866394 C21.9366842,4.64842076 21.9438775,4.66820229 21.9504533,4.68826356 C21.9552713,4.70314863 21.9599023,4.71853669 21.9641549,4.734007 C21.9701663,4.75556349 21.9753602,4.77725389 21.9798348,4.79920587 C21.9832979,4.81662471 21.986372,4.83405096 21.9889822,4.8515331 C21.9962388,4.89963787 22,4.94937968 22,4.99999997 L21.996298,4.91376918 C21.9978436,4.93173448 21.9989053,4.9497336 21.999483,4.96774535 L22,4.99999997 C22,5.0112225 21.9998151,5.02240186 21.9994482,5.03353516 C21.9988773,5.05059094 21.9978551,5.06792306 21.9963841,5.0852242 C21.994564,5.10705739 21.992094,5.12811441 21.9889806,5.14896118 C21.986372,5.16594898 21.9832979,5.18337523 21.97976,5.20072573 C21.9753602,5.22274605 21.9701663,5.24443644 21.964279,5.26583958 C21.9599023,5.28146325 21.9552713,5.29685131 21.950262,5.3121425 C21.9438775,5.33179764 21.9366842,5.35157917 21.928896,5.37105849 C21.9218036,5.38879562 21.914321,5.40609847 21.9063267,5.42322152 C21.8966233,5.44389137 21.8862061,5.46429391 21.8751242,5.48427692 C21.8685012,5.49639441 21.8613931,5.50861308 21.8540046,5.52070873 C21.8382813,5.54627492 21.8215099,5.57113066 21.8036865,5.59515927 C21.7746871,5.63432555 21.7425009,5.6717127 21.7071068,5.70710675 L21.787214,5.61675005 C21.7849289,5.61966273 21.7826279,5.62256241 21.7803112,5.62544896 L21.7071068,5.70710675 L17.7071068,9.70710677 C17.3165825,10.0976311 16.6834175,10.0976311 16.2928932,9.70710677 C15.9023689,9.31658248 15.9023689,8.6834175 16.2928932,8.2928932 L16.2928932,8.2928932 L18.585,5.99999995 L6.99999996,5.99999997 C5.40231909,5.99999997 4.09633908,7.24891994 4.00509265,8.82372718 L3.99999996,8.99999997 L3.99999996,11 C3.99999996,11.5522847 3.55228471,12 2.99999996,12 C2.44771521,12 1.99999996,11.5522847 1.99999996,11 L1.99999996,11 L1.99999996,8.99999997 C1.99999996,6.23857623 4.23857622,3.99999997 6.99999996,3.99999997 L6.99999996,3.99999997 L18.585,3.99999995 L16.2928932,1.70710674 C15.9324093,1.34662278 15.9046797,0.779391717 16.2097046,0.387100508 Z" id="Shape" fill="#000000"></path>
    </g>
</svg>