<?xml version="1.0" encoding="UTF-8"?>
<svg width="24px" height="24px" viewBox="0 0 24 24" version="1.1" xmlns="http://www.w3.org/2000/svg" xmlns:xlink="http://www.w3.org/1999/xlink">
    <title>feather-icon/rewind</title>
    <g id="feather-icon/rewind" stroke="none" stroke-width="1" fill="none" fill-rule="evenodd">
        <rect id="Bounding-Box" fill-opacity="0" fill="#FFFFFF" x="0" y="0" width="24" height="24"></rect>
        <path d="M12,4.99999997 L12,19 C12,19.8321482 11.0429174,20.3002418 10.3860594,19.7893522 L1.38605934,12.7893522 C0.871313491,12.3889943 0.871313491,11.6110057 1.38605934,11.2106478 L10.3860594,4.21064775 C11.0429174,3.69975819 12,4.16785179 12,4.99999997 Z M23,4.99999997 L23,19 C23,19.8321482 22.0429174,20.3002418 21.3860594,19.7893522 L12.3860594,12.7893522 C11.8713135,12.3889943 11.8713135,11.6110057 12.3860594,11.2106478 L21.3860594,4.21064775 C22.0429174,3.69975819 23,4.16785179 23,4.99999997 Z M9.99999999,7.04463934 L3.628822,12 L9.99999999,16.9553607 L9.99999999,7.04463934 Z M21,7.04463934 L14.628822,12 L21,16.9553607 L21,7.04463934 Z" id="Shape" fill="#000000"></path>
    </g>
</svg>