<?xml version="1.0" encoding="UTF-8"?>
<svg width="24px" height="24px" viewBox="0 0 24 24" version="1.1" xmlns="http://www.w3.org/2000/svg" xmlns:xlink="http://www.w3.org/1999/xlink">
    <title>feather-icon/rotate-ccw</title>
    <g id="feather-icon/rotate-ccw" stroke="none" stroke-width="1" fill="none" fill-rule="evenodd">
        <rect id="Bounding-Box" fill-opacity="0" fill="#FFFFFF" x="0" y="0" width="24" height="24"></rect>
        <path d="M0.99999995,11 L0.947901127,10.9986433 C0.932865592,10.9978609 0.917846308,10.9967409 0.902855619,10.9952838 C0.875736727,10.9927063 0.849704189,10.9891257 0.824010828,10.984564 C0.810347156,10.9820244 0.796632934,10.9792887 0.782971682,10.9762647 C0.763776255,10.9721466 0.744324003,10.9672249 0.725108026,10.9617428 C0.70562417,10.9560814 0.686421123,10.9499775 0.667384568,10.9432827 C0.556941852,10.9044429 0.455182599,10.8465229 0.366233164,10.7735624 C0.333387424,10.7467234 0.301502221,10.7169749 0.271246888,10.6847766 L0.349820315,10.7598047 C0.323393004,10.7371691 0.298160449,10.7131786 0.274230282,10.687941 C0.268847575,10.6822232 0.266464276,10.6796605 0.264096988,10.6770887 C0.240797825,10.6517917 0.21870978,10.6251801 0.198025111,10.59746 C0.191476733,10.5887401 0.185232004,10.5800894 0.179143251,10.5713653 C0.165808161,10.5521842 0.152859654,10.5321524 0.140624305,10.5116457 C0.129816435,10.4936212 0.119957567,10.475847 0.110683733,10.4578558 C0.103156678,10.4431802 0.095707025,10.4278062 0.0886455098,10.4122189 C0.0796411405,10.392359 0.0714867124,10.372633 0.0639924637,10.3527213 C0.0576602606,10.3359517 0.0517847744,10.318995 0.0463594841,10.3018382 C0.0405176251,10.2832306 0.0351244706,10.2642058 0.030306812,10.2450702 C0.0251041078,10.2246051 0.0206826568,10.2043868 0.0168827245,10.1839502 C0.0138478327,10.1673527 0.0111674077,10.1506016 0.00891438521,10.1338069 C0.00302321096,10.0900613 -4.99999819e-08,10.0453837 -4.99999819e-08,9.99999996 L0.00249038149,10.070975 C0.00107997552,10.0509854 0.000268263304,10.0309651 5.43418718e-05,10.0109429 L-4.99999819e-08,9.99999996 L-4.99999819e-08,3.99999996 C-4.99999819e-08,3.44771521 0.447715202,2.99999996 0.99999995,2.99999996 C1.55228471,2.99999996 1.99999995,3.44771521 1.99999995,3.99999996 L1.99999995,3.99999996 L1.99999995,7.6880926 L4.93349134,4.93229555 C8.01389003,1.85710171 12.7189886,1.13507962 16.5694235,3.11506195 L16.8366406,3.25758863 C20.7345721,5.4124074 22.7375706,9.88539393 21.7492919,14.2282523 C20.7610133,18.5711107 17.0197038,21.736899 12.5731749,21.9928181 C8.12664601,22.2487372 4.04683178,19.5330923 2.56682466,15.3322956 C2.38330288,14.8113943 2.65680305,14.2403465 3.17770439,14.0568247 C3.69860572,13.8733029 4.26965349,14.1468031 4.45317527,14.6677044 C5.63718096,18.0283418 8.90103235,20.2008577 12.4582555,19.9961224 C16.0154786,19.7913871 19.0085262,17.2587565 19.7991491,13.7844698 C20.589772,10.3101831 18.9873732,6.73179388 15.869028,5.00793887 C12.7506828,3.28408386 8.86813731,3.83033642 6.32477656,6.36875304 L6.32477656,6.36875304 L3.52399995,8.9990926 L6.99999995,8.99999996 C7.51283582,8.99999996 7.93550711,9.38604018 7.99327222,9.88337884 L7.99999995,9.99999996 C7.99999995,10.5522847 7.55228473,11 6.99999995,11 L6.99999995,11 L0.99999995,11 L0.99999995,11 Z" id="Shape" fill="#000000"></path>
    </g>
</svg>