<?xml version="1.0" encoding="UTF-8"?>
<svg width="24px" height="24px" viewBox="0 0 24 24" version="1.1" xmlns="http://www.w3.org/2000/svg" xmlns:xlink="http://www.w3.org/1999/xlink">
    <title>feather-icon/rotate-cw</title>
    <g id="feather-icon/rotate-cw" stroke="none" stroke-width="1" fill="none" fill-rule="evenodd">
        <rect id="Bounding-Box" fill-opacity="0" fill="#FFFFFF" x="0" y="0" width="24" height="24"></rect>
        <path d="M17,11 C16.4477153,11 16,10.5522847 16,9.99999996 C16,9.44771524 16.4477153,8.99999996 17,8.99999996 L17,8.99999996 L20.4792497,8.99945491 L17.6626699,6.34688338 C15.2118915,3.89455626 11.4704654,3.30698121 8.39583721,4.86180613 L8.14120367,4.99634009 C5.02079485,6.71690317 3.41451809,10.2938559 4.20165832,13.7691543 C4.98879855,17.2444527 7.97957412,19.7801927 11.5368176,19.9882961 C15.0940612,20.1963995 18.3601115,18.0266919 19.5471144,14.6668834 C19.7310896,14.1461421 20.3023753,13.8731392 20.8231166,14.0571144 C21.343858,14.2410896 21.6168609,14.8123752 21.4328857,15.3331166 C19.9491321,19.5328772 15.8665692,22.2450117 11.4200147,21.9848825 C6.97346034,21.7247533 3.23499088,18.5550782 2.25106559,14.2109552 C1.2671403,9.86683226 3.27498626,5.3956413 7.17549728,3.24493745 C11.0760083,1.09423359 15.9287605,1.78255741 19.0555609,4.91198465 L19.0555609,4.91198465 L21.9992497,7.68345491 L22,3.99999996 C22,3.48716413 22.3860402,3.0644928 22.8833789,3.00672769 L23,2.99999996 C23.5522848,2.99999996 24,3.44771521 24,3.99999996 L24,3.99999996 L24,9.99999996 C24,10.004046 23.999976,10.0080864 23.9999281,10.0121211 C23.9996939,10.0323752 23.9988366,10.0527283 23.9973605,10.0730484 C23.9959088,10.0932871 23.9938607,10.1132227 23.9912361,10.1329762 C23.9889272,10.1500064 23.9862024,10.1670828 23.9830329,10.1840957 C23.9788436,10.206858 23.9739397,10.2289107 23.9683213,10.2506762 C23.9649439,10.2635793 23.961187,10.2770111 23.9571433,10.290377 C23.9498564,10.3145314 23.9418309,10.3377937 23.9329898,10.36065 C23.9281045,10.3732942 23.9228817,10.3860353 23.9173836,10.3986882 C23.9067094,10.4231691 23.8950993,10.4471499 23.8825839,10.4705742 C23.8766677,10.4817654 23.8705089,10.492789 23.8641241,10.5037197 C23.8518316,10.5246422 23.8388741,10.5450741 23.8252147,10.5649867 C23.7966477,10.6067329 23.7641416,10.6471975 23.7280154,10.6855609 L23.794022,10.6079732 C23.7810909,10.624836 23.7676347,10.641275 23.7536779,10.6572657 L23.7280154,10.6855609 C23.7235346,10.6903191 23.7190182,10.6950237 23.714467,10.6996746 C23.7048754,10.7094675 23.694911,10.7192315 23.6847468,10.7287852 C23.5940376,10.8142067 23.4909997,10.8795435 23.3814143,10.9246703 C23.364167,10.9318048 23.3469134,10.9383707 23.3294389,10.9444654 C23.3148376,10.9494783 23.2999207,10.9542795 23.2849177,10.9587228 C23.2621258,10.9655876 23.2390027,10.9715574 23.2155717,10.9767055 C23.1987736,10.9802865 23.1814867,10.983618 23.1641359,10.9864917 C23.1106441,10.9954203 23.0558569,11 23,11 L23.1040519,10.9945888 C23.0820947,10.996876 23.0600722,10.9984392 23.0380232,10.9992771 L23,11 Z" id="Shape" fill="#000000"></path>
    </g>
</svg>