<?xml version="1.0" encoding="UTF-8"?>
<svg width="24px" height="24px" viewBox="0 0 24 24" version="1.1" xmlns="http://www.w3.org/2000/svg" xmlns:xlink="http://www.w3.org/1999/xlink">
    <title>feather-icon/scissors</title>
    <g id="feather-icon/scissors" stroke="none" stroke-width="1" fill="none" fill-rule="evenodd">
        <rect id="Bounding-Box" fill-opacity="0" fill="#FFFFFF" x="0" y="0" width="24" height="24"></rect>
        <path d="M5.99999996,1.99999996 C8.20913898,1.99999996 9.99999996,3.79086097 9.99999996,5.99999996 C9.99999996,6.7414004 9.79829273,7.4356896 9.44676162,8.03098419 L12,10.585 L19.2928932,3.29289318 C19.6533772,2.93240922 20.2206083,2.90467968 20.6128995,3.20970458 L20.7071068,3.29289318 C21.0976311,3.68341748 21.0976311,4.31658246 20.7071068,4.70710675 L20.7071068,4.70710675 L9.44676162,15.9690158 C9.79829273,16.5643104 9.99999996,17.2585996 9.99999996,18 C9.99999996,20.209139 8.20913898,22 5.99999996,22 C3.79086097,22 1.99999996,20.209139 1.99999996,18 C1.99999996,15.790861 3.79086097,14 5.99999996,14 C6.7414004,14 7.4356896,14.2017072 8.03098419,14.5532384 L10.585,12 L8.03098419,9.44676162 C7.4356896,9.79829273 6.7414004,9.99999996 5.99999996,9.99999996 C3.79086097,9.99999996 1.99999996,8.20913898 1.99999996,5.99999996 C1.99999996,3.79086097 3.79086097,1.99999996 5.99999996,1.99999996 Z M13.7622536,13.7735334 C14.1524243,13.3826559 14.785589,13.3820829 15.1764666,13.7722536 L15.1764666,13.7722536 L20.7064666,19.2922536 C21.0973442,19.6824243 21.0979172,20.3155891 20.7077464,20.7064666 C20.3175757,21.0973442 19.684411,21.0979172 19.2935335,20.7077464 L19.2935335,20.7077464 L13.7635334,15.1877464 C13.3726559,14.7975757 13.3720829,14.164411 13.7622536,13.7735334 Z M5.99999997,16 C4.89543047,16 3.99999997,16.8954305 3.99999997,18 C3.99999997,19.1045695 4.89543047,20 5.99999997,20 C7.10456948,20 7.99999997,19.1045695 7.99999997,18 C7.99999997,17.4575599 7.78405188,16.9655572 7.43343592,16.6052721 L7.4128932,16.5871068 C7.40625271,16.5804663 7.39972513,16.5737557 7.39331046,16.5669772 C7.0344428,16.2159481 6.54244007,16 5.99999997,16 Z M5.99999997,3.99999997 C4.89543047,3.99999997 3.99999997,4.89543047 3.99999997,5.99999997 C3.99999997,7.10456948 4.89543047,7.99999997 5.99999997,7.99999997 C6.54244007,7.99999997 7.0344428,7.78405188 7.39472792,7.43343592 L7.4128932,7.4128932 C7.41953369,7.40625271 7.42624434,7.39972513 7.43302277,7.39331046 C7.78405188,7.0344428 7.99999997,6.54244007 7.99999997,5.99999997 C7.99999997,4.89543047 7.10456948,3.99999997 5.99999997,3.99999997 Z" id="Shape" fill="#000000"></path>
    </g>
</svg>