<?xml version="1.0" encoding="UTF-8"?>
<svg width="24px" height="24px" viewBox="0 0 24 24" version="1.1" xmlns="http://www.w3.org/2000/svg" xmlns:xlink="http://www.w3.org/1999/xlink">
    <title>feather-icon/send</title>
    <g id="feather-icon/send" stroke="none" stroke-width="1" fill="none" fill-rule="evenodd">
        <rect id="Bounding-Box" fill-opacity="0" fill="#FFFFFF" x="0" y="0" width="24" height="24"></rect>
        <path d="M22.6918745,1.27797355 L22.7071068,1.29289317 C22.7125397,1.298326 22.7178969,1.30380578 22.7231786,1.30933122 C22.7405887,1.32752654 22.7574872,1.34655501 22.7736607,1.36619294 C22.7809274,1.37513647 22.7879275,1.38396494 22.7947571,1.39288207 C22.8409788,1.45275708 22.8805829,1.51802665 22.9124153,1.58734896 C22.9139742,1.59351585 22.9164814,1.59920462 22.918933,1.60491156 C23.0064488,1.802262 23.0299468,2.03174276 22.9640405,2.26634382 C22.959482,2.28297677 22.9544265,2.29964046 22.9489268,2.31618891 C22.9470936,2.32100449 22.9454941,2.3256769 22.9438584,2.33035038 L15.9438584,22.3303505 C15.6446647,23.1851895 14.4540223,23.2337645 14.0861885,22.4061385 L10.2423955,13.7576045 L1.59386149,9.91381154 C0.766235463,9.54597775 0.814810541,8.35533527 1.66964953,8.05614163 L21.6696496,1.0561416 L21.6878575,1.04973804 C21.7041345,1.04440573 21.7205212,1.03950217 21.7370001,1.03502736 L21.6696496,1.0561416 C21.7178539,1.03927009 21.7659444,1.0262514 21.8136931,1.01685764 C21.8194642,1.01631943 21.8255021,1.01523594 21.8315476,1.0142082 C22.1612606,0.954811294 22.4731006,1.06809275 22.6918745,1.27797355 Z M19.6089698,5.80447408 L12.1919698,13.2214741 L14.8893953,19.2889249 L19.6089698,5.80447408 Z M18.1929698,4.39147408 L4.71107505,9.11060471 L10.7779698,11.8064741 L18.1929698,4.39147408 Z" id="Shape" fill="#000000"></path>
    </g>
</svg>