<?xml version="1.0" encoding="UTF-8"?>
<svg width="24px" height="24px" viewBox="0 0 24 24" version="1.1" xmlns="http://www.w3.org/2000/svg" xmlns:xlink="http://www.w3.org/1999/xlink">
    <title>feather-icon/server</title>
    <g id="feather-icon/server" stroke="none" stroke-width="1" fill="none" fill-rule="evenodd">
        <rect id="Bounding-Box" fill-opacity="0" fill="#FFFFFF" x="0" y="0" width="24" height="24"></rect>
        <path d="M20,13 C21.6568543,13 23,14.3431458 23,16 L23,20 C23,21.6568543 21.6568543,23 20,23 L3.99999995,23 C2.34314571,23 0.999999954,21.6568543 0.999999954,20 L0.999999954,16 C0.999999954,14.3431458 2.34314571,13 3.99999995,13 L20,13 Z M20,15 L3.99999996,15 C3.44771521,15 2.99999996,15.4477153 2.99999996,16 L2.99999996,20 C2.99999996,20.5522848 3.44771521,21 3.99999996,21 L20,21 C20.5522848,21 21,20.5522848 21,20 L21,16 C21,15.4477153 20.5522848,15 20,15 Z M5.29289319,17.2928932 C5.68341748,16.9023689 6.31658247,16.9023689 6.70710676,17.2928932 C7.09763105,17.6834175 7.09763105,18.3165825 6.70710676,18.7071068 C6.31658247,19.0976311 5.68341748,19.0976311 5.29289319,18.7071068 C4.9023689,18.3165825 4.9023689,17.6834175 5.29289319,17.2928932 Z M20,0.999999954 C21.6568543,0.999999954 23,2.34314571 23,3.99999995 L23,7.99999995 C23,9.65685424 21.6568543,11 20,11 L3.99999995,11 C2.34314571,11 0.999999954,9.65685424 0.999999954,7.99999995 L0.999999954,3.99999995 C0.999999954,2.34314571 2.34314571,0.999999954 3.99999995,0.999999954 L20,0.999999954 Z M20,2.99999996 L3.99999996,2.99999996 C3.44771521,2.99999996 2.99999996,3.44771521 2.99999996,3.99999996 L2.99999996,7.99999996 C2.99999996,8.55228474 3.44771521,8.99999996 3.99999996,8.99999996 L20,8.99999996 C20.5522848,8.99999996 21,8.55228474 21,7.99999996 L21,3.99999996 C21,3.44771521 20.5522848,2.99999996 20,2.99999996 Z M5.29289319,5.29289319 C5.68341748,4.9023689 6.31658247,4.9023689 6.70710676,5.29289319 C7.09763105,5.68341748 7.09763105,6.31658247 6.70710676,6.70710676 C6.31658247,7.09763105 5.68341748,7.09763105 5.29289319,6.70710676 C4.9023689,6.31658247 4.9023689,5.68341748 5.29289319,5.29289319 Z" id="Shape" fill="#000000"></path>
    </g>
</svg>