<?xml version="1.0" encoding="UTF-8"?>
<svg width="24px" height="24px" viewBox="0 0 24 24" version="1.1" xmlns="http://www.w3.org/2000/svg" xmlns:xlink="http://www.w3.org/1999/xlink">
    <title>feather-icon/settings</title>
    <g id="feather-icon/settings" stroke="none" stroke-width="1" fill="none" fill-rule="evenodd">
        <rect id="Bounding-Box" fill-opacity="0" fill="#FFFFFF" x="0" y="0" width="24" height="24"></rect>
        <path d="M12,-5.00000752e-08 C13.6568543,-5.00000752e-08 15,1.34314571 15,2.99999995 L15,3.08601165 C15.0010253,3.34508311 15.1558067,3.57880294 15.4037654,3.68513738 C15.6468614,3.79242538 15.9307827,3.74094515 16.1128932,3.56289318 L16.3172635,3.3676359 C16.8626928,2.8893988 17.5651246,2.62342665 18.295,2.62342665 C19.0912278,2.62342665 19.8547953,2.93995549 20.4167134,3.50249996 C20.9800445,4.06520474 21.2965734,4.82877223 21.2965734,5.62499997 C21.2965734,6.42122772 20.9800445,7.18479521 20.4171068,7.74710676 L20.3648626,7.79926494 C20.1790548,7.98921729 20.1275746,8.27313855 20.2348626,8.51623464 C20.2631401,8.58030645 20.2845309,8.64699385 20.2987986,8.71517467 C20.4176633,8.89040604 20.6163373,8.99914117 20.83,8.99999995 L21,8.99999995 C22.6568543,8.99999995 24,10.3431457 24,11.9999999 C24,13.6568543 22.6568543,14.9999999 21,14.9999999 L20.9139883,14.9999999 C20.6549169,15.0010253 20.4211971,15.1558067 20.3148626,15.4037654 C20.2075746,15.6468614 20.2590548,15.9307827 20.4371068,16.1128932 L20.6323641,16.3172635 C21.1106012,16.8626928 21.3765734,17.5651246 21.3765734,18.295 C21.3765734,19.0912278 21.0600445,19.8547953 20.4975,20.4167134 C19.9347953,20.9800445 19.1712278,21.2965734 18.375,21.2965734 C17.5787723,21.2965734 16.8152048,20.9800445 16.2528932,20.4171068 L16.2007351,20.3648626 C16.0107827,20.1790548 15.7268614,20.1275746 15.4739315,20.2391399 C15.2358067,20.3411971 15.0810253,20.5749169 15.08,20.83 L15.08,20.9999999 C15.08,22.6568543 13.7368543,23.9999999 12.08,23.9999999 C10.4231457,23.9999999 9.07999999,22.6568543 9.07999999,20.9999999 L9.08027344,20.9333846 C9.07403211,20.666558 8.90531384,20.4306648 8.59623464,20.3148626 C8.35313855,20.2075746 8.06921729,20.2590548 7.88710676,20.4371068 L7.68273649,20.6323641 C7.13730715,21.1106012 6.43487541,21.3765734 5.70499997,21.3765734 C4.90877223,21.3765734 4.14520474,21.0600445 3.58328662,20.4975 C3.01995549,19.9347953 2.70342665,19.1712278 2.70342665,18.375 C2.70342665,17.5787723 3.01995549,16.8152048 3.58289318,16.2528932 L3.63513738,16.2007351 C3.82094515,16.0107827 3.87242538,15.7268614 3.76086014,15.4739315 C3.65880294,15.2358067 3.42508311,15.0810253 3.16999996,15.08 L2.99999995,15.08 C1.34314571,15.08 -4.99999899e-08,13.7368543 -4.99999899e-08,12.08 C-4.99999899e-08,10.4231457 1.34314571,9.07999999 2.99999995,9.07999999 L3.06661538,9.08027344 C3.33344202,9.07403211 3.56933516,8.90531384 3.68513738,8.59623464 C3.79242538,8.35313855 3.74094515,8.06921729 3.56289318,7.88710676 L3.3676359,7.68273649 C2.8893988,7.13730715 2.62342665,6.43487541 2.62342665,5.70499997 C2.62342665,4.90877223 2.93995549,4.14520474 3.50249996,3.58328662 C4.06520474,3.01995549 4.82877223,2.70342665 5.62499997,2.70342665 C6.42122772,2.70342665 7.18479521,3.01995549 7.74710676,3.58289318 L7.79926494,3.63513738 C7.98921729,3.82094515 8.27313855,3.87242538 8.51623464,3.76513738 L8.61416378,3.72791573 L8.71517467,3.70120142 L8.79705743,3.63541839 C8.92365452,3.51569568 8.9992843,3.34805221 8.99999995,3.16999996 L8.99999995,2.99999995 C8.99999995,1.34314571 10.3431457,-5.00000752e-08 12,-5.00000752e-08 Z M12,1.99999996 C11.4477152,1.99999996 11,2.44771521 11,2.99999996 L11,3.17398827 C10.9957795,4.23020267 10.3647479,5.18306043 9.39393143,5.5991398 C9.30943132,5.63535546 9.22053527,5.65966351 9.12978592,5.67154206 C8.18471779,6.00283802 7.1246298,5.77295714 6.3928932,5.05710675 L6.33249998,4.99671331 C6.14493172,4.80893627 5.89040922,4.70342666 5.62499997,4.70342666 C5.35959072,4.70342666 5.10506823,4.80893627 4.91671331,4.99749997 C4.72893627,5.18506823 4.62342666,5.43959072 4.62342666,5.70499997 C4.62342666,5.97040922 4.72893627,6.22493172 4.91710675,6.4128932 L4.98486256,6.48073502 C5.69504129,7.20675482 5.92389313,8.26948713 5.6088213,9.16784882 L5.46625805,9.52187364 C5.04927382,10.4450623 4.1358506,11.055794 3.08999996,11.08 L2.99999996,11.08 C2.44771521,11.08 1.99999996,11.5277152 1.99999996,12.08 C1.99999996,12.6322848 2.44771521,13.08 2.99999996,13.08 L3.17398827,13.080008 C4.23020267,13.0842205 5.18306043,13.7152521 5.59486256,14.6762347 C6.03226747,15.6673187 5.82238654,16.8248439 5.05710675,17.6071068 L4.99671331,17.6675 C4.80893627,17.8550683 4.70342666,18.1095908 4.70342666,18.375 C4.70342666,18.6404093 4.80893627,18.8949318 4.99749997,19.0832867 C5.18506823,19.2710637 5.43959072,19.3765733 5.70499997,19.3765733 C5.97040922,19.3765733 6.22493172,19.2710637 6.4128932,19.0828932 L6.48073502,19.0151374 C7.20675482,18.3049587 8.26948713,18.0761069 9.16784882,18.3911787 L9.52187364,18.533742 C10.4450623,18.9507262 11.055794,19.8641494 11.08,20.91 L11.08,21 C11.08,21.5522848 11.5277152,22 12.08,22 C12.6322848,22 13.08,21.5522848 13.08,21 L13.080008,20.8260117 C13.0842205,19.7697973 13.7152521,18.8169396 14.6762347,18.4051374 C15.6673187,17.9677325 16.8248439,18.1776135 17.6071068,18.9428932 L17.6675,19.0032867 C17.8550683,19.1910637 18.1095908,19.2965733 18.375,19.2965733 C18.6404093,19.2965733 18.8949318,19.1910637 19.0832867,19.0025 C19.2710637,18.8149318 19.3765733,18.5604093 19.3765733,18.295 C19.3765733,18.0295908 19.2710637,17.7750683 19.0828932,17.5871068 L19.0151374,17.519265 C18.2576135,16.7448439 18.0477325,15.5873187 18.4808602,14.6060686 C18.8969396,13.6352521 19.8497973,13.0042205 20.91,13 L21,13 C21.5522848,13 22,12.5522848 22,12 C22,11.4477152 21.5522848,11 21,11 L20.8260117,11 C19.7697973,10.9957795 18.8169396,10.3647479 18.4008602,9.39393143 C18.3767164,9.33759802 18.3578649,9.27931087 18.3444603,9.21982333 L18.3284579,9.12978592 L18.2728979,8.951346 C18.0277954,8.05348941 18.2717835,7.07889626 18.9428932,6.3928932 L19.0032867,6.33249998 C19.1910637,6.14493172 19.2965733,5.89040922 19.2965733,5.62499997 C19.2965733,5.35959072 19.1910637,5.10506823 19.0025,4.91671331 C18.8149318,4.72893627 18.5604093,4.62342666 18.295,4.62342666 C18.0295908,4.62342666 17.7750683,4.72893627 17.5871068,4.91710675 L17.519265,4.98486256 C16.7448439,5.74238654 15.5873187,5.95226747 14.6060686,5.5191398 C13.6352521,5.10306043 13.0042205,4.15020267 13,3.08999996 L13,2.99999996 C13,2.44771521 12.5522848,1.99999996 12,1.99999996 Z M12,7.99999998 C14.209139,7.99999998 16,9.79086099 16,12 C16,14.209139 14.209139,16 12,16 C9.79086099,16 7.99999998,14.209139 7.99999998,12 C7.99999998,9.79086099 9.79086099,7.99999998 12,7.99999998 Z M12,9.99999999 C10.8954305,9.99999999 9.99999999,10.8954305 9.99999999,12 C9.99999999,13.1045695 10.8954305,14 12,14 C13.1045695,14 14,13.1045695 14,12 C14,10.8954305 13.1045695,9.99999999 12,9.99999999 Z" id="Shape" fill="#000000"></path>
    </g>
</svg>