<?xml version="1.0" encoding="UTF-8"?>
<svg width="24px" height="24px" viewBox="0 0 24 24" version="1.1" xmlns="http://www.w3.org/2000/svg" xmlns:xlink="http://www.w3.org/1999/xlink">
    <title>feather-icon/share-2</title>
    <g id="feather-icon/share-2" stroke="none" stroke-width="1" fill="none" fill-rule="evenodd">
        <rect id="Bounding-Box" fill-opacity="0" fill="#FFFFFF" x="0" y="0" width="24" height="24"></rect>
        <path d="M18,0.999999954 C20.209139,0.999999954 22,2.79086096 22,4.99999995 C22,7.20913898 20.209139,8.99999995 18,8.99999995 C16.8888376,8.99999995 15.8834967,8.54692413 15.1586408,7.81543597 L9.85031283,10.912214 C9.94782934,11.2580744 9.99999996,11.6229446 9.99999996,12 C9.99999996,12.3766935 9.94792943,12.7412252 9.85059346,13.0867902 L15.1616199,16.1815608 C15.88625,15.451836 16.890359,15 18,15 C20.209139,15 22,16.790861 22,19 C22,21.209139 20.209139,23 18,23 C15.790861,23 14,21.209139 14,19 C14,18.6214972 14.0525719,18.2552733 14.1508122,17.9082318 L8.84135918,14.815436 C8.1165033,15.5469242 7.1111624,16 5.99999996,16 C3.79086097,16 1.99999996,14.209139 1.99999996,12 C1.99999996,9.79086099 3.79086097,7.99999998 5.99999996,7.99999998 C7.1111624,7.99999998 8.1165033,8.45307581 8.84135918,9.18456398 L14.1496871,6.08778596 C14.0521706,5.74192554 14,5.3770553 14,4.99999995 C14,2.79086096 15.790861,0.999999954 18,0.999999954 Z M18,17 C17.3045793,17 16.6920566,17.3549287 16.3336984,17.8935195 L16.2840082,17.9934777 C16.2641466,18.0275619 16.2425799,18.0600351 16.2194793,18.0908521 L16.1858851,18.1568505 C16.0666023,18.4130634 16,18.6987538 16,19 C16,20.1045695 16.8954305,21 18,21 C19.1045695,21 20,20.1045695 20,19 C20,17.8954305 19.1045695,17 18,17 Z M5.99999997,9.99999999 C4.89543047,9.99999999 3.99999997,10.8954305 3.99999997,12 C3.99999997,13.1045695 4.89543047,14 5.99999997,14 C6.72904904,14 7.36698886,13.6099149 7.71648642,13.0270779 L7.72599176,13.0065223 L7.72599176,13.0065223 L7.75014795,12.9687351 C7.90934688,12.6817347 7.99999997,12.3514539 7.99999997,12 C7.99999997,11.6456415 7.90784229,11.3128076 7.74618684,11.0241581 L7.72631296,10.9940285 C7.72309375,10.9885122 7.7199333,10.9829777 7.71683142,10.9774259 C7.36989306,10.3918632 6.7307088,9.99999999 5.99999997,9.99999999 Z M18,2.99999996 C16.8954305,2.99999996 16,3.89543047 16,4.99999996 C16,5.3514539 16.0906531,5.68173467 16.249852,5.96873503 L16.273687,6.00597148 C16.2769063,6.01148782 16.2800667,6.01702226 16.2831686,6.02257408 C16.6301069,6.60813676 17.2692912,6.99999996 18,6.99999996 C19.1045695,6.99999996 20,6.10456948 20,4.99999996 C20,3.89543047 19.1045695,2.99999996 18,2.99999996 Z" id="Shape" fill="#000000"></path>
    </g>
</svg>