<?xml version="1.0" encoding="UTF-8"?>
<svg width="24px" height="24px" viewBox="0 0 24 24" version="1.1" xmlns="http://www.w3.org/2000/svg" xmlns:xlink="http://www.w3.org/1999/xlink">
    <title>feather-icon/shield-off</title>
    <g id="feather-icon/shield-off" stroke="none" stroke-width="1" fill="none" fill-rule="evenodd">
        <rect id="Bounding-Box" fill-opacity="0" fill="#FFFFFF" x="0" y="0" width="24" height="24"></rect>
        <path d="M0.29289317,0.29289317 C0.683417463,-0.0976311233 1.31658244,-0.0976311233 1.70710674,0.29289317 L1.70710674,0.29289317 L23.7071068,22.2928933 C24.0976311,22.6834176 24.0976311,23.3165825 23.7071068,23.7071068 C23.3165825,24.0976311 22.6834176,24.0976311 22.2928933,23.7071068 L22.2928933,23.7071068 L17.6396096,19.054898 C16.1207682,20.584728 14.3768861,21.8764909 12.4666757,22.8844286 C12.1814764,23.0349162 11.84121,23.038639 11.5527864,22.8944272 C11.4604935,22.8482808 11.3473172,22.7889258 11.2155427,22.716613 L11.2155427,22.716613 L10.7667103,22.4610518 L10.2200011,22.1292483 C9.23988409,21.5166752 8.25994002,20.8062158 7.34149537,20.0025767 C4.64575964,17.643808 2.99999996,14.9694485 2.99999996,12 L2.99999996,12 L2.99999996,4.99999997 C2.99999996,4.83298207 3.04150591,4.67301403 3.11633818,4.53184236 L0.29289317,1.70710674 C-0.0976311233,1.31658244 -0.0976311233,0.683417463 0.29289317,0.29289317 Z M4.99999995,6.41499995 L4.99999996,12 C4.99999996,14.2805515 6.35424031,16.4811921 8.65850459,18.4974233 C9.49005995,19.2250343 10.3851159,19.8739498 11.2799989,20.4332517 C11.5365354,20.593587 11.7774838,20.7366834 11.998466,20.8619096 L11.998466,20.8619096 L12.4513864,20.598616 C13.8274818,19.7734558 15.0953951,18.779731 16.2256226,17.6404355 L4.99999995,6.41499995 Z M11.6501764,1.06318435 C11.8762316,0.978771357 12.1251857,0.978944122 12.3511234,1.06367078 L12.3511234,1.06367078 L20.3511235,4.06367079 C20.7414272,4.21003469 21,4.58315541 21,4.99999995 L21,4.99999995 L21,12.0065872 C20.9948627,12.7831685 20.8752673,13.5547516 20.6450508,14.2964423 C20.4813302,14.8239023 19.9210177,15.1187713 19.3935577,14.9550508 C18.8660978,14.7913302 18.5712287,14.2310177 18.7349493,13.7035577 C18.9068831,13.1496368 18.9962012,12.5733912 19,12 L19,12 L19,5.69300044 L11.999259,3.06772257 L9.18982354,4.11681558 C8.67243456,4.31001779 8.09638659,4.04721249 7.90318437,3.52982351 C7.70998216,3.01243454 7.97278746,2.43638656 8.49017644,2.24318435 L8.49017644,2.24318435 Z" id="Shape" fill="#000000"></path>
    </g>
</svg>