<?xml version="1.0" encoding="UTF-8"?>
<svg width="24px" height="24px" viewBox="0 0 24 24" version="1.1" xmlns="http://www.w3.org/2000/svg" xmlns:xlink="http://www.w3.org/1999/xlink">
    <title>feather-icon/shield</title>
    <g id="feather-icon/shield" stroke="none" stroke-width="1" fill="none" fill-rule="evenodd">
        <rect id="Bounding-Box" fill-opacity="0" fill="#FFFFFF" x="0" y="0" width="24" height="24"></rect>
        <path d="M11.6488766,1.06367078 C11.8752617,0.978776347 12.1247383,0.978776347 12.3511234,1.06367078 L20.3511235,4.06367079 C20.7414272,4.21003469 21,4.58315541 21,4.99999995 L21,12 C21,14.9694485 19.3542404,17.643808 16.6585046,20.0025767 C15.74006,20.8062158 14.7601159,21.5166752 13.7799989,22.1292483 C13.3859476,22.3755304 13.0480062,22.5719873 12.7844573,22.716613 L12.4472136,22.8944272 C12.1656861,23.035191 11.8343139,23.035191 11.5527864,22.8944272 L11.2155427,22.716613 C11.0837683,22.6443001 10.9333957,22.5590295 10.7667103,22.4610518 L10.2200011,22.1292483 C9.23988409,21.5166752 8.25994002,20.8062158 7.34149537,20.0025767 C4.64575964,17.643808 2.99999996,14.9694485 2.99999996,12 L2.99999996,4.99999995 C2.99999996,4.58315541 3.2585728,4.21003469 3.64887652,4.06367079 L11.6488766,1.06367078 Z M12,3.06800043 L4.99999997,5.69300044 L4.99999997,12 C4.99999997,14.2805515 6.35424031,16.4811921 8.65850459,18.4974233 C9.49005995,19.2250343 10.3851159,19.8739498 11.2799989,20.4332517 C11.5371291,20.5939581 11.7785991,20.7373457 12,20.8627788 C12.2214009,20.7373457 12.4628709,20.5939581 12.7200011,20.4332517 C13.6148841,19.8739498 14.50994,19.2250343 15.3414954,18.4974233 C17.6457597,16.4811921 19,14.2805515 19,12 L19,5.69300044 L12,3.06800043 Z" id="Shape" fill="#000000"></path>
    </g>
</svg>