<?xml version="1.0" encoding="UTF-8"?>
<svg width="24px" height="24px" viewBox="0 0 24 24" version="1.1" xmlns="http://www.w3.org/2000/svg" xmlns:xlink="http://www.w3.org/1999/xlink">
    <title>feather-icon/shopping-cart</title>
    <g id="feather-icon/shopping-cart" stroke="none" stroke-width="1" fill="none" fill-rule="evenodd">
        <rect id="Bounding-Box" fill-opacity="0" fill="#FFFFFF" x="0" y="0" width="24" height="24"></rect>
        <path d="M8.99999998,19 C10.1045695,19 11,19.8954305 11,21 C11,22.1045695 10.1045695,23 8.99999998,23 C7.89543048,23 6.99999998,22.1045695 6.99999998,21 C6.99999998,19.8954305 7.89543048,19 8.99999998,19 Z M20,19 C21.1045695,19 22,19.8954305 22,21 C22,22.1045695 21.1045695,23 20,23 C18.8954305,23 18,22.1045695 18,21 C18,19.8954305 18.8954305,19 20,19 Z M4.99999995,-4.99998674e-08 C5.476627,-4.99998674e-08 5.8870111,0.336385165 5.98055248,0.803742993 L5.98055248,0.803742993 L6.8204303,4.99999995 L23,4.99999995 C23.6273967,4.99999995 24.0998261,5.57103708 23.9822976,6.18732728 L23.9822976,6.18732728 L22.3808398,14.5848164 C22.0977343,16.0101638 20.8337639,17.02766 19.4,17 L19.4,17 L9.69916027,16.9998164 C8.24623617,17.02766 6.98226571,16.0101638 6.69944748,14.586257 L6.69944748,14.586257 L4.18031613,1.99999995 L0.99999995,1.99999995 C0.447715202,1.99999995 -4.99999899e-08,1.55228471 -4.99999899e-08,0.99999995 C-4.99999899e-08,0.447715202 0.447715202,-4.99998674e-08 0.99999995,-4.99998674e-08 L0.99999995,-4.99998674e-08 Z M21.7912754,6.99999998 L7.22072887,6.99999998 L8.66083971,14.1951836 C8.75520819,14.6702994 9.17653168,15.0094648 9.67999999,15 L9.67999999,15 L19.4191603,15.0001836 C19.9034683,15.0094648 20.3247918,14.6702994 20.4177025,14.2026727 L20.4177025,14.2026727 L21.7912754,6.99999998 Z" id="Shape" fill="#000000"></path>
    </g>
</svg>