<?xml version="1.0" encoding="UTF-8"?>
<svg width="24px" height="24px" viewBox="0 0 24 24" version="1.1" xmlns="http://www.w3.org/2000/svg" xmlns:xlink="http://www.w3.org/1999/xlink">
    <title>feather-icon/shuffle</title>
    <g id="feather-icon/shuffle" stroke="none" stroke-width="1" fill="none" fill-rule="evenodd">
        <rect id="Bounding-Box" fill-opacity="0" fill="#FFFFFF" x="0" y="0" width="24" height="24"></rect>
        <path d="M14.2928932,14.2928932 C14.6834175,13.9023689 15.3165825,13.9023689 15.7071068,14.2928932 L15.7071068,14.2928932 L20,18.585 L20,16 C20,15.4871642 20.3860402,15.0644929 20.8833789,15.0067277 L21,15 C21.5522848,15 22,15.4477153 22,16 L22,16 L22,21 C22,21.0112225 21.9998151,21.0224019 21.9994483,21.0335352 C21.9988773,21.050591 21.9978551,21.0679231 21.9963841,21.0852243 C21.994564,21.1070574 21.9920941,21.1281145 21.9889807,21.1489612 C21.986372,21.165949 21.9832979,21.1833753 21.97976,21.2007258 C21.9753602,21.2227461 21.9701664,21.2444365 21.964279,21.2658396 C21.9599023,21.2814633 21.9552713,21.2968514 21.950262,21.3121426 C21.9438775,21.3317977 21.9366843,21.3515792 21.9288961,21.3710585 C21.9218036,21.3887957 21.914321,21.4060985 21.9063267,21.4232216 C21.8966234,21.4438914 21.8862061,21.464294 21.8751242,21.484277 C21.8685012,21.4963945 21.8613931,21.5086131 21.8540046,21.5207088 C21.8382813,21.546275 21.8215099,21.5711307 21.8036865,21.5951593 C21.7746871,21.6343256 21.7425009,21.6717128 21.7071068,21.7071068 L21.7872141,21.6167501 C21.7374483,21.6801818 21.6801818,21.7374483 21.6167501,21.7872141 C21.6098424,21.7927156 21.6026031,21.7982466 21.5953067,21.8036655 C21.5711307,21.8215099 21.546275,21.8382813 21.5206602,21.8539326 C21.5086131,21.8613931 21.4963945,21.8685012 21.4840621,21.8753289 C21.464294,21.8862061 21.4438914,21.8966234 21.4230992,21.9063462 C21.4060985,21.914321 21.3887957,21.9218036 21.3713361,21.9287745 C21.3515792,21.9366843 21.3317977,21.9438775 21.3117364,21.9504533 C21.2968514,21.9552713 21.2814633,21.9599023 21.265993,21.9641549 C21.2444365,21.9701664 21.2227461,21.9753602 21.2007941,21.9798349 C21.1833753,21.9832979 21.165949,21.986372 21.1484669,21.9889822 C21.1003621,21.9962388 21.0506203,22 21,22 L21.0852243,21.9963841 C21.0679231,21.9978551 21.050591,21.9988773 21.0332468,21.9994507 L21,22 L16,22 C15.4477153,22 15,21.5522848 15,21 C15,20.4477153 15.4477153,20 16,20 L16,20 L18.585,20 L14.2928932,15.7071068 C13.9324093,15.3466228 13.9046797,14.7793918 14.2097046,14.3871006 Z M21,1.99999996 C21.0064615,1.99999996 21.0129086,2.00006124 21.0193409,2.00018326 C21.0426811,2.00063485 21.0659949,2.00189494 21.0892501,2.00396637 C21.1096949,2.00574792 21.1294205,2.00810094 21.1489612,2.0110193 C21.165949,2.01362804 21.1833753,2.01670213 21.2007258,2.02024003 C21.2227461,2.02463975 21.2444365,2.02983358 21.2658396,2.03572092 C21.2814633,2.04009769 21.2968514,2.04472867 21.3121426,2.04973804 C21.3317977,2.05612244 21.3515792,2.06331569 21.3710585,2.07110392 C21.3887957,2.07819638 21.4060985,2.08567901 21.4232216,2.09367332 C21.4438914,2.1033766 21.464294,2.11379388 21.484277,2.12487573 C21.4963945,2.13149879 21.5086131,2.13860688 21.5207088,2.14599541 C21.546275,2.16171866 21.5711307,2.17849005 21.5951593,2.19631346 C21.6343256,2.22531291 21.6717128,2.25749913 21.7071068,2.29289318 L21.6167501,2.21278592 C21.6801818,2.26255167 21.7374483,2.3198182 21.7872141,2.38324988 C21.7927156,2.39015755 21.7982466,2.39739692 21.8036655,2.40469335 C21.8215099,2.42886927 21.8382813,2.45372501 21.8539326,2.47933977 C21.8613931,2.49138685 21.8685012,2.50360552 21.8753289,2.51593786 C21.8862061,2.53570601 21.8966234,2.55610856 21.9063462,2.57690081 C21.914321,2.59390147 21.9218036,2.61120431 21.9287745,2.62866394 C21.9366843,2.64842076 21.9438775,2.66820228 21.9504533,2.68826355 C21.9552713,2.70314862 21.9599023,2.71853668 21.9641549,2.734007 C21.9701664,2.75556348 21.9753602,2.77725388 21.9798349,2.79920586 C21.9832979,2.8166247 21.986372,2.83405095 21.9889822,2.8515331 C21.9962388,2.89963786 22,2.94937967 22,2.99999996 L21.9963841,2.91477573 C21.9978551,2.93207687 21.9988773,2.94940899 21.9994507,2.96675319 L22,2.99999996 L22,7.99999996 C22,8.55228474 21.5522848,8.99999996 21,8.99999996 C20.4477153,8.99999996 20,8.55228474 20,7.99999996 L20,7.99999996 L20,5.41399996 L4.70710675,20.7071068 C4.34662279,21.0675908 3.77939173,21.0953203 3.38710052,20.7902954 L3.29289318,20.7071068 C2.90236889,20.3165825 2.90236889,19.6834175 3.29289318,19.2928932 L3.29289318,19.2928932 L18.585,3.99899996 L16,3.99999996 C15.4871642,3.99999996 15.0644929,3.61395977 15.0067277,3.11662108 L15,2.99999996 C15,2.44771521 15.4477153,1.99999996 16,1.99999996 L16,1.99999996 Z M3.29289318,3.29289318 C3.68341748,2.90236889 4.31658246,2.90236889 4.70710675,3.29289318 L4.70710675,3.29289318 L9.70710677,8.2928932 C10.0976311,8.6834175 10.0976311,9.31658248 9.70710677,9.70710677 C9.31658248,10.0976311 8.6834175,10.0976311 8.2928932,9.70710677 L8.2928932,9.70710677 L3.29289318,4.70710675 C2.90236889,4.31658246 2.90236889,3.68341748 3.29289318,3.29289318 Z" id="Shape" fill="#000000"></path>
    </g>
</svg>