<?xml version="1.0" encoding="UTF-8"?>
<svg width="24px" height="24px" viewBox="0 0 24 24" version="1.1" xmlns="http://www.w3.org/2000/svg" xmlns:xlink="http://www.w3.org/1999/xlink">
    <title>feather-icon/slack</title>
    <g id="feather-icon/slack" stroke="none" stroke-width="1" fill="none" fill-rule="evenodd">
        <rect id="Bounding-Box" fill-opacity="0" fill="#FFFFFF" x="0" y="0" width="24" height="24"></rect>
        <path d="M9.49999998,13 C10.8822847,13 12,14.1177153 12,15.5 L12,20.5 C12,21.8822848 10.8822847,23 9.49999998,23 C8.11771523,23 6.99999998,21.8822848 6.99999998,20.5 L6.99999998,15.5 C6.99999998,14.1177153 8.11771523,13 9.49999998,13 Z M15.5,18 C16.8822848,18 18,19.1177153 18,20.5 C18,21.8822848 16.8822848,23 15.5,23 C14.1177153,23 13,21.8822848 13,20.5 L13,19 C13,18.4477153 13.4477153,18 14,18 L15.5,18 Z M9.49999999,15 C9.22228474,15 8.99999999,15.2222848 8.99999999,15.5 L8.99999999,20.5 C8.99999999,20.7777153 9.22228474,21 9.49999999,21 C9.77771524,21 9.99999999,20.7777153 9.99999999,20.5 L9.99999999,15.5 C9.99999999,15.2222848 9.77771524,15 9.49999999,15 Z M15.5,20 L15,20 L15,20.5 C15,20.7777153 15.2222848,21 15.5,21 C15.7777153,21 16,20.7777153 16,20.5 C16,20.2222848 15.7777153,20 15.5,20 Z M4.99999995,13 C5.55228472,13 5.99999995,13.4477153 5.99999995,14 L5.99999995,15.5 C5.99999995,16.8822848 4.88228472,18 3.49999995,18 C2.11771521,18 0.999999954,16.8822848 0.999999954,15.5 C0.999999954,14.1177153 2.11771521,13 3.49999995,13 L4.99999995,13 Z M20.5,12 C21.8822848,12 23,13.1177153 23,14.5 C23,15.8822848 21.8822848,17 20.5,17 L15.5,17 C14.1177153,17 13,15.8822848 13,14.5 C13,13.1177153 14.1177153,12 15.5,12 L20.5,12 Z M3.99999996,15 L3.49999996,15 C3.22228471,15 2.99999996,15.2222848 2.99999996,15.5 C2.99999996,15.7777153 3.22228471,16 3.49999996,16 C3.77771522,16 3.99999996,15.7777153 3.99999996,15.5 L3.99999996,15 Z M20.5,14 L15.5,14 C15.2222848,14 15,14.2222848 15,14.5 C15,14.7777153 15.2222848,15 15.5,15 L20.5,15 C20.7777153,15 21,14.7777153 21,14.5 C21,14.2222848 20.7777153,14 20.5,14 Z M8.49999995,6.99999998 C9.88228474,6.99999998 11,8.11771523 11,9.49999998 C11,10.8822847 9.88228474,12 8.49999995,12 L3.49999995,12 C2.11771521,12 0.999999954,10.8822847 0.999999954,9.49999998 C0.999999954,8.11771523 2.11771521,6.99999998 3.49999995,6.99999998 L8.49999995,6.99999998 Z M14.5,0.999999954 C15.8822848,0.999999954 17,2.11771521 17,3.49999995 L17,8.49999995 C17,9.88228474 15.8822848,11 14.5,11 C13.1177153,11 12,9.88228474 12,8.49999995 L12,3.49999995 C12,2.11771521 13.1177153,0.999999954 14.5,0.999999954 Z M20.5,5.99999998 C21.8822848,5.99999998 23,7.11771523 23,8.49999998 C23,9.88228474 21.8822848,11 20.5,11 L19,11 C18.4477153,11 18,10.5522847 18,9.99999998 L18,8.49999998 C18,7.11771523 19.1177153,5.99999998 20.5,5.99999998 Z M8.49999996,8.99999999 L3.49999996,8.99999999 C3.22228471,8.99999999 2.99999996,9.22228474 2.99999996,9.49999999 C2.99999996,9.77771524 3.22228471,9.99999999 3.49999996,9.99999999 L8.49999996,9.99999999 C8.77771524,9.99999999 8.99999996,9.77771524 8.99999996,9.49999999 C8.99999996,9.22228474 8.77771524,8.99999999 8.49999996,8.99999999 Z M14.5,2.99999996 C14.2222848,2.99999996 14,3.22228471 14,3.49999996 L14,8.49999996 C14,8.77771524 14.2222848,8.99999996 14.5,8.99999996 C14.7777153,8.99999996 15,8.77771524 15,8.49999996 L15,3.49999996 C15,3.22228471 14.7777153,2.99999996 14.5,2.99999996 Z M20.5,7.99999998 C20.2222848,7.99999998 20,8.22228473 20,8.49999998 L20,8.99999998 L20.5,8.99999998 C20.7777153,8.99999998 21,8.77771524 21,8.49999998 C21,8.22228473 20.7777153,7.99999998 20.5,7.99999998 Z M8.49999998,0.999999954 C9.88228474,0.999999954 11,2.11771521 11,3.49999995 L11,4.99999995 C11,5.55228472 10.5522847,5.99999995 9.99999998,5.99999995 L8.49999998,5.99999995 C7.11771523,5.99999995 5.99999998,4.88228472 5.99999998,3.49999995 C5.99999998,2.11771521 7.11771523,0.999999954 8.49999998,0.999999954 Z M8.49999998,2.99999996 C8.22228473,2.99999996 7.99999998,3.22228471 7.99999998,3.49999996 C7.99999998,3.77771522 8.22228473,3.99999996 8.49999998,3.99999996 L8.99999998,3.99999996 L8.99999998,3.49999996 C8.99999998,3.22228471 8.77771524,2.99999996 8.49999998,2.99999996 Z" id="Shape" fill="#000000"></path>
    </g>
</svg>