<?xml version="1.0" encoding="UTF-8"?>
<svg width="24px" height="24px" viewBox="0 0 24 24" version="1.1" xmlns="http://www.w3.org/2000/svg" xmlns:xlink="http://www.w3.org/1999/xlink">
    <title>feather-icon/slash</title>
    <g id="feather-icon/slash" stroke="none" stroke-width="1" fill="none" fill-rule="evenodd">
        <rect id="Bounding-Box" fill-opacity="0" fill="#FFFFFF" x="0" y="0" width="24" height="24"></rect>
        <path d="M12,0.999999954 C18.0751323,0.999999954 23,5.92486773 23,12 C23,18.0751323 18.0751323,23 12,23 C5.92486773,23 0.999999954,18.0751323 0.999999954,12 C0.999999954,5.92486773 5.92486773,0.999999954 12,0.999999954 Z M2.99999996,12 C2.99999996,16.9705628 7.02943723,21 12,21 C14.124779,21 16.0775836,20.2636898 17.6171756,19.0323074 L4.96769254,6.38282431 C3.73631016,7.92241639 2.99999996,9.87522095 2.99999996,12 Z M12,2.99999996 C9.87522095,2.99999996 7.92241639,3.73631016 6.38282431,4.96769254 L19.0323074,17.6171756 C20.2636898,16.0775836 21,14.124779 21,12 C21,7.02943723 16.9705628,2.99999996 12,2.99999996 Z" id="Shape" fill="#000000"></path>
    </g>
</svg>