<?xml version="1.0" encoding="UTF-8"?>
<svg width="24px" height="24px" viewBox="0 0 24 24" version="1.1" xmlns="http://www.w3.org/2000/svg" xmlns:xlink="http://www.w3.org/1999/xlink">
    <title>feather-icon/smile</title>
    <g id="feather-icon/smile" stroke="none" stroke-width="1" fill="none" fill-rule="evenodd">
        <rect id="Bounding-Box" fill-opacity="0" fill="#FFFFFF" x="0" y="0" width="24" height="24"></rect>
        <path d="M12,0.999999954 C18.0751323,0.999999954 23,5.92486773 23,12 C23,18.0751323 18.0751323,23 12,23 C5.92486773,23 0.999999954,18.0751323 0.999999954,12 C0.999999954,5.92486773 5.92486773,0.999999954 12,0.999999954 Z M12,2.99999996 C7.02943723,2.99999996 2.99999996,7.02943723 2.99999996,12 C2.99999996,16.9705628 7.02943723,21 12,21 C16.9705628,21 21,16.9705628 21,12 C21,7.02943723 16.9705628,2.99999996 12,2.99999996 Z M15.2814959,13.3043246 C15.6267073,12.946887 16.192159,12.8941192 16.6,13.2 C17.0418278,13.5313709 17.1313709,14.1581722 16.8,14.6 C16.5571182,14.9238424 16.1309689,15.36852 15.5256717,15.8087361 C14.5068925,16.5496665 13.3247669,17 12,17 C10.6752331,17 9.49310752,16.5496665 8.47432829,15.8087361 C7.86903111,15.36852 7.44288177,14.9238424 7.19999998,14.6 C6.86862913,14.1581722 6.95817218,13.5313709 7.39999998,13.2 C7.84182778,12.8686292 8.46862914,12.9581722 8.79999999,13.4 C8.9321182,13.5761576 9.22471886,13.88148 9.65067169,14.1912639 C10.3506425,14.7003336 11.1372669,15 12,15 C12.8627331,15 13.6493575,14.7003336 14.3493283,14.1912639 C14.6687929,13.958926 14.913247,13.7290977 15.0712448,13.5543881 L15.0712448,13.5543881 Z M8.99999998,7.99999998 L9.12662111,8.00672771 C9.6239598,8.06449282 10.01,8.48716415 10.01,8.99999998 C10.01,9.55228474 9.56228474,9.99999998 9.00999999,9.99999998 L9.00999999,9.99999998 L8.99999998,9.99999998 C8.44771524,9.99999998 7.99999998,9.55228474 7.99999998,8.99999998 C7.99999998,8.44771524 8.44771524,7.99999998 8.99999998,7.99999998 L8.99999998,7.99999998 Z M15,7.99999998 L15.1266211,8.00672771 C15.6239598,8.06449282 16.01,8.48716415 16.01,8.99999998 C16.01,9.55228474 15.5622848,9.99999998 15.01,9.99999998 L15.01,9.99999998 L15,9.99999998 C14.4477153,9.99999998 14,9.55228474 14,8.99999998 C14,8.44771524 14.4477153,7.99999998 15,7.99999998 L15,7.99999998 Z" id="Shape" fill="#000000"></path>
    </g>
</svg>