<?xml version="1.0" encoding="UTF-8"?>
<svg width="24px" height="24px" viewBox="0 0 24 24" version="1.1" xmlns="http://www.w3.org/2000/svg" xmlns:xlink="http://www.w3.org/1999/xlink">
    <title>feather-icon/star half</title>
    <g id="feather-icon/star-half" stroke="none" stroke-width="1" fill="none" fill-rule="evenodd">
        <rect id="Bounding-Box" fill-opacity="0" fill="#FFFFFF" x="0" y="0" width="24" height="24"></rect>
        <path d="M12.0004983,1.00000008 C12.356977,1.00017307 12.7133751,1.18596505 12.8967074,1.55737604 L15.7542614,7.34646608 L22.1446283,8.28051392 C22.9645429,8.40035673 23.2913264,9.408198 22.6977328,9.9863581 L18.0745218,14.4893656 L19.1656086,20.8509567 C19.3057272,21.6679189 18.4481783,22.290882 17.7145487,21.9050735 L12,18.8998497 L6.28545125,21.9050735 C6.15206406,21.9752205 6.01458036,22.0120197 5.87974147,22.0203683 L5.77921354,22.0213717 C5.21355915,21.9976963 4.72611795,21.4822457 4.83439135,20.8509567 L5.92547819,14.4893656 L1.30226716,9.9863581 C0.708673625,9.408198 1.03545707,8.40035673 1.85537175,8.28051392 L8.24573862,7.34646608 L11.1032926,1.55737604 C11.1434603,1.47600071 11.1919359,1.4035358 11.2468998,1.33998132 C11.2524324,1.33358543 11.2579596,1.32735782 11.2635491,1.32121823 C11.2860194,1.29653202 11.3095627,1.27320962 11.3340014,1.25131749 C11.3440251,1.24233893 11.3541699,1.23362535 11.3644564,1.22515101 C11.3834537,1.20949834 11.4029873,1.19462462 11.4229563,1.18057122 C11.442116,1.16708991 11.4616012,1.15440879 11.4814397,1.14247709 C11.4951926,1.13421448 11.5086973,1.12653604 11.5223481,1.11919655 C11.5402606,1.10954471 11.559214,1.10011542 11.5784072,1.09132129 C11.5968635,1.0828788 11.6149531,1.07525038 11.6332223,1.06817301 C11.6493011,1.06193457 11.6660037,1.05596421 11.6828332,1.05044649 C11.704375,1.04339155 11.7258086,1.03715846 11.7474022,1.03164564 C11.761552,1.02803062 11.7759381,1.02468985 11.7903824,1.02166568 C11.8130197,1.01692683 11.8357703,1.0129697 11.8586167,1.00978816 C11.8758902,1.00738213 11.8932514,1.00541659 11.9106472,1.00389608 C11.9338793,1.00186449 11.9572158,1.00062585 11.9805658,1.00018387 C11.987172,1.00005846 11.9938352,0.999996842 12.0004983,1.00000008 Z M12,4.25925431 L12,16.77 C12.1598799,16.77 12.3197598,16.8083089 12.4654513,16.8849265 L16.8518192,19.1916734 L16.0143914,14.3090433 C15.9587309,13.9845141 16.0663935,13.6533829 16.3022672,13.4236419 L19.8515884,9.9666031 L14.9453718,9.24948606 C14.6200176,9.20193067 14.3388324,8.9974714 14.1932927,8.7026239 L12,4.25925431 Z" id="Shape" fill="#000000"></path>
    </g>
</svg>