<?xml version="1.0" encoding="UTF-8"?>
<svg width="24px" height="24px" viewBox="0 0 24 24" version="1.1" xmlns="http://www.w3.org/2000/svg" xmlns:xlink="http://www.w3.org/1999/xlink">
    <title>feather-icon/sun</title>
    <g id="feather-icon/sun" stroke="none" stroke-width="1" fill="none" fill-rule="evenodd">
        <rect id="Bounding-Box" fill-opacity="0" fill="#FFFFFF" x="0" y="0" width="24" height="24"></rect>
        <path d="M12,20 C12.5522848,20 13,20.4477153 13,21 L13,21 L13,23 C13,23.5522848 12.5522848,24 12,24 C11.4477152,24 11,23.5522848 11,23 L11,23 L11,21 C11,20.4477153 11.4477152,20 12,20 Z M17.6528932,17.6528932 C18.0434175,17.2623689 18.6765825,17.2623689 19.0671068,17.6528932 L19.0671068,17.6528932 L20.4871068,19.0728932 C20.8776311,19.4634175 20.8776311,20.0965825 20.4871068,20.4871068 C20.0965825,20.8776311 19.4634175,20.8776311 19.0728932,20.4871068 L19.0728932,20.4871068 L17.6528932,19.0671068 C17.2623689,18.6765825 17.2623689,18.0434175 17.6528932,17.6528932 Z M4.93289319,17.6528932 C5.32341748,17.2623689 5.95658246,17.2623689 6.34710676,17.6528932 C6.73763105,18.0434175 6.73763105,18.6765825 6.34710676,19.0671068 L6.34710676,19.0671068 L4.92710675,20.4871068 C4.53658246,20.8776311 3.90341748,20.8776311 3.51289318,20.4871068 C3.12236889,20.0965825 3.12236889,19.4634175 3.51289318,19.0728932 L3.51289318,19.0728932 Z M12,5.99999997 C15.3137085,5.99999997 18,8.68629149 18,12 C18,15.3137085 15.3137085,18 12,18 C8.68629149,18 5.99999997,15.3137085 5.99999997,12 C5.99999997,8.68629149 8.68629149,5.99999997 12,5.99999997 Z M12,7.99999998 C9.79086099,7.99999998 7.99999998,9.79086099 7.99999998,12 C7.99999998,14.209139 9.79086099,16 12,16 C14.209139,16 16,14.209139 16,12 C16,9.79086099 14.209139,7.99999998 12,7.99999998 Z M2.99999995,11 C3.55228471,11 3.99999995,11.4477152 3.99999995,12 C3.99999995,12.5522848 3.55228471,13 2.99999995,13 L2.99999995,13 L0.99999995,13 C0.447715202,13 -5.00000321e-08,12.5522848 -5.00000321e-08,12 C-5.00000321e-08,11.4477152 0.447715202,11 0.99999995,11 L0.99999995,11 Z M23,11 C23.5522848,11 24,11.4477152 24,12 C24,12.5522848 23.5522848,13 23,13 L23,13 L21,13 C20.4477153,13 20,12.5522848 20,12 C20,11.4477152 20.4477153,11 21,11 L21,11 Z M3.51289318,3.51289318 C3.90341748,3.12236889 4.53658246,3.12236889 4.92710675,3.51289318 L4.92710675,3.51289318 L6.34710676,4.93289319 C6.73763105,5.32341748 6.73763105,5.95658246 6.34710676,6.34710676 C5.95658246,6.73763105 5.32341748,6.73763105 4.93289319,6.34710676 L4.93289319,6.34710676 L3.51289318,4.92710675 C3.12236889,4.53658246 3.12236889,3.90341748 3.51289318,3.51289318 Z M19.0728932,3.51289318 C19.4634175,3.12236889 20.0965825,3.12236889 20.4871068,3.51289318 C20.8776311,3.90341748 20.8776311,4.53658246 20.4871068,4.92710675 L20.4871068,4.92710675 L19.0671068,6.34710676 C18.6765825,6.73763105 18.0434175,6.73763105 17.6528932,6.34710676 C17.2623689,5.95658246 17.2623689,5.32341748 17.6528932,4.93289319 L17.6528932,4.93289319 Z M12,-5.0000089e-08 C12.5522848,-5.0000089e-08 13,0.447715202 13,0.99999995 L13,0.99999995 L13,2.99999995 C13,3.55228471 12.5522848,3.99999995 12,3.99999995 C11.4477152,3.99999995 11,3.55228471 11,2.99999995 L11,2.99999995 L11,0.99999995 C11,0.447715202 11.4477152,-5.0000089e-08 12,-5.0000089e-08 Z" id="Shape" fill="#000000"></path>
    </g>
</svg>