<?xml version="1.0" encoding="UTF-8"?>
<svg width="24px" height="24px" viewBox="0 0 24 24" version="1.1" xmlns="http://www.w3.org/2000/svg" xmlns:xlink="http://www.w3.org/1999/xlink">
    <title>feather-icon/sunrise</title>
    <g id="feather-icon/sunrise" stroke="none" stroke-width="1" fill="none" fill-rule="evenodd">
        <rect id="Bounding-Box" fill-opacity="0" fill="#FFFFFF" x="0" y="0" width="24" height="24"></rect>
        <path d="M22.9999999,21 C23.5522848,21 23.9999999,21.4477153 23.9999999,22 C23.9999999,22.5522848 23.5522848,23 22.9999999,23 L22.9999999,23 L0.99999995,23 C0.447715202,23 -5.00000183e-08,22.5522848 -5.00000183e-08,22 C-5.00000183e-08,21.4477153 0.447715202,21 0.99999995,21 L0.99999995,21 Z M12,12 C15.3137085,12 18,14.6862915 18,18 C18,18.5522848 17.5522848,19 17,19 C16.4477153,19 16,18.5522848 16,18 C16,15.790861 14.209139,14 12,14 C9.79086099,14 7.99999997,15.790861 7.99999997,18 C7.99999997,18.5522848 7.55228473,19 6.99999997,19 C6.44771523,19 5.99999997,18.5522848 5.99999997,18 C5.99999997,14.6862915 8.68629149,12 12,12 Z M2.99999995,17 C3.55228471,17 3.99999995,17.4477153 3.99999995,18 C3.99999995,18.5522848 3.55228471,19 2.99999995,19 L2.99999995,19 L0.99999995,19 C0.447715202,19 -5.00000321e-08,18.5522848 -5.00000321e-08,18 C-5.00000321e-08,17.4477153 0.447715202,17 0.99999995,17 L0.99999995,17 Z M23,17 C23.5522848,17 24,17.4477153 24,18 C24,18.5522848 23.5522848,19 23,19 L23,19 L21,19 C20.4477153,19 20,18.5522848 20,18 C20,17.4477153 20.4477153,17 21,17 L21,17 Z M3.51289318,9.51289321 C3.90341748,9.12236892 4.53658246,9.12236892 4.92710675,9.51289321 L4.92710675,9.51289321 L6.34710676,10.9328932 C6.73763105,11.3234175 6.73763105,11.9565825 6.34710676,12.3471068 C5.95658246,12.7376311 5.32341748,12.7376311 4.93289319,12.3471068 L4.93289319,12.3471068 L3.51289318,10.9271068 C3.12236889,10.5365825 3.12236889,9.9034175 3.51289318,9.51289321 Z M19.0728932,9.51289321 C19.4634175,9.12236892 20.0965825,9.12236892 20.4871068,9.51289321 C20.8776311,9.9034175 20.8776311,10.5365825 20.4871068,10.9271068 L20.4871068,10.9271068 L19.0671068,12.3471068 C18.6765825,12.7376311 18.0434175,12.7376311 17.6528932,12.3471068 C17.2623689,11.9565825 17.2623689,11.3234175 17.6528932,10.9328932 L17.6528932,10.9328932 Z M12,0.999999954 C12.0064615,0.999999954 12.0129086,1.00006124 12.0193409,1.00018325 C12.042681,1.00063485 12.0659949,1.00189493 12.0892501,1.00396636 C12.1096949,1.00574792 12.1294204,1.00810093 12.1489612,1.0110193 C12.165949,1.01362803 12.1833753,1.01670212 12.2007258,1.02024003 C12.2227461,1.02463975 12.2444365,1.02983358 12.2658396,1.03572092 C12.2814633,1.04009769 12.2968513,1.04472867 12.3121425,1.04973804 C12.3317977,1.05612244 12.3515792,1.06331569 12.3710585,1.07110392 C12.3887957,1.07819638 12.4060985,1.085679 12.4232215,1.09367332 C12.4438914,1.1033766 12.4642939,1.11379387 12.4842769,1.12487572 C12.4963944,1.13149878 12.5086131,1.13860688 12.5207088,1.14599541 C12.546275,1.16171866 12.5711307,1.17849005 12.5951593,1.19631346 C12.6343256,1.22531291 12.6717127,1.25749912 12.7071068,1.29289317 L12.6167501,1.21278592 C12.6196628,1.21507108 12.6225624,1.21737206 12.625449,1.21968872 L12.7071068,1.29289317 L16.7071068,5.29289319 C17.0976311,5.68341748 17.0976311,6.31658247 16.7071068,6.70710676 C16.3165825,7.09763105 15.6834175,7.09763105 15.2928932,6.70710676 L15.2928932,6.70710676 L12.9999999,4.41399995 L13,8.99999995 C13,9.51283583 12.6139598,9.93550712 12.1166211,9.99327222 L12,9.99999995 C11.4477152,9.99999995 11,9.55228474 11,8.99999995 L11,8.99999995 L10.9999999,4.41399995 L8.70710677,6.70710676 C8.3466228,7.06759072 7.77939175,7.09532026 7.38710054,6.79029537 L7.2928932,6.70710676 C6.90236891,6.31658247 6.90236891,5.68341748 7.2928932,5.29289319 L7.2928932,5.29289319 L11.2928932,1.29289317 L11.2928932,1.29289317 L11.374551,1.21968872 C11.3774376,1.21737206 11.3803372,1.21507108 11.3832499,1.21278592 C11.3901576,1.20728444 11.397397,1.2017534 11.4046934,1.19633453 C11.4288693,1.17849005 11.453725,1.16171866 11.4793398,1.14606739 C11.4913869,1.13860688 11.5036056,1.13149878 11.5159379,1.12467113 C11.5357061,1.11379387 11.5561086,1.1033766 11.5769008,1.09365373 C11.5939015,1.085679 11.6112043,1.07819638 11.628664,1.07122545 C11.6484208,1.06331569 11.6682023,1.05612244 11.6882636,1.04954664 C11.7031487,1.04472867 11.7185367,1.04009769 11.734007,1.0358451 C11.7555635,1.02983358 11.7772539,1.02463975 11.7992059,1.02016511 C11.8166247,1.01670212 11.834051,1.01362803 11.8515331,1.01101776 C11.8996379,1.00376114 11.9493797,0.999999954 12,0.999999954 L11.9107499,1.00396636 C11.9343349,1.00186556 11.9579802,1.00059927 11.9816379,1.0001675 Z" id="Shape" fill="#000000"></path>
    </g>
</svg>