<?xml version="1.0" encoding="UTF-8"?>
<svg width="24px" height="24px" viewBox="0 0 24 24" version="1.1" xmlns="http://www.w3.org/2000/svg" xmlns:xlink="http://www.w3.org/1999/xlink">
    <title>feather-icon/sunset</title>
    <g id="feather-icon/sunset" stroke="none" stroke-width="1" fill="none" fill-rule="evenodd">
        <rect id="Bounding-Box" fill-opacity="0" fill="#FFFFFF" x="0" y="0" width="24" height="24"></rect>
        <path d="M22.9999999,21 C23.5522848,21 23.9999999,21.4477153 23.9999999,22 C23.9999999,22.5522848 23.5522848,23 22.9999999,23 L22.9999999,23 L0.99999995,23 C0.447715202,23 -5.00000006e-08,22.5522848 -5.00000006e-08,22 C-5.00000006e-08,21.4477153 0.447715202,21 0.99999995,21 L0.99999995,21 Z M12,12 C15.3137085,12 18,14.6862915 18,18 C18,18.5522848 17.5522848,19 17,19 C16.4477153,19 16,18.5522848 16,18 C16,15.790861 14.209139,14 12,14 C9.79086099,14 7.99999998,15.790861 7.99999998,18 C7.99999998,18.5522848 7.55228473,19 6.99999998,19 C6.44771523,19 5.99999998,18.5522848 5.99999998,18 C5.99999998,14.6862915 8.68629149,12 12,12 Z M2.99999995,17 C3.55228471,17 3.99999995,17.4477153 3.99999995,18 C3.99999995,18.5522848 3.55228471,19 2.99999995,19 L2.99999995,19 L0.99999995,19 C0.447715202,19 -5.00000006e-08,18.5522848 -5.00000006e-08,18 C-5.00000006e-08,17.4477153 0.447715202,17 0.99999995,17 L0.99999995,17 Z M23,17 C23.5522848,17 24,17.4477153 24,18 C24,18.5522848 23.5522848,19 23,19 L23,19 L21,19 C20.4477153,19 20,18.5522848 20,18 C20,17.4477153 20.4477153,17 21,17 L21,17 Z M3.51289318,9.51289321 C3.90341748,9.12236892 4.53658246,9.12236892 4.92710675,9.51289321 L4.92710675,9.51289321 L6.34710676,10.9328932 C6.73763105,11.3234175 6.73763105,11.9565825 6.34710676,12.3471068 C5.95658246,12.7376311 5.32341748,12.7376311 4.93289319,12.3471068 L4.93289319,12.3471068 L3.51289318,10.9271068 C3.12236889,10.5365825 3.12236889,9.9034175 3.51289318,9.51289321 Z M19.0728932,9.51289321 C19.4634175,9.12236892 20.0965825,9.12236892 20.4871068,9.51289321 C20.8776311,9.9034175 20.8776311,10.5365825 20.4871068,10.9271068 L20.4871068,10.9271068 L19.0671068,12.3471068 C18.6765825,12.7376311 18.0434175,12.7376311 17.6528932,12.3471068 C17.2623689,11.9565825 17.2623689,11.3234175 17.6528932,10.9328932 L17.6528932,10.9328932 Z M12,0.999999954 C12.5522848,0.999999954 13,1.44771521 13,1.99999995 L13,1.99999995 L12.9999999,6.58499995 L15.2928932,4.29289319 C15.6533772,3.93240922 16.2206083,3.90467969 16.6128995,4.20970458 L16.7071068,4.29289319 C17.0976311,4.68341748 17.0976311,5.31658246 16.7071068,5.70710675 L16.7071068,5.70710675 L12.7071068,9.70710675 C12.6786405,9.73557306 12.6484659,9.76233113 12.6167501,9.787214 C12.6098424,9.79271551 12.602603,9.79824655 12.5953066,9.80366541 C12.5711307,9.82150987 12.546275,9.83828126 12.5206602,9.85393253 C12.5086131,9.86139307 12.4963944,9.86850116 12.4840621,9.87532882 C12.4642939,9.88620604 12.4438914,9.89662332 12.4230991,9.90634618 C12.4060985,9.91432094 12.3887957,9.92180357 12.371336,9.9287745 C12.3515792,9.93668422 12.3317977,9.94387747 12.3117364,9.95045328 C12.2968513,9.95527128 12.2814633,9.95990226 12.265993,9.96415485 C12.2444365,9.97016633 12.2227461,9.97536016 12.2007941,9.9798348 C12.1833753,9.98329782 12.165949,9.98637191 12.1484669,9.98898219 C12.1003621,9.99623877 12.0506203,9.99999995 12,9.99999995 L12.0852242,9.99638403 C12.0679231,9.99785503 12.050591,9.99887723 12.0332468,9.9994506 L12,9.99999995 C11.9888734,9.99999995 11.9777892,9.99981823 11.9667503,9.9994576 C11.9497336,9.99890526 11.9317345,9.9978436 11.9137692,9.99629793 C11.892114,9.99446653 11.8714753,9.99203276 11.8510388,9.98898061 C11.834051,9.98637191 11.8166247,9.98329782 11.7992742,9.97975992 C11.7772539,9.97536016 11.7555635,9.97016633 11.7341604,9.96427899 C11.7185367,9.95990226 11.7031487,9.95527128 11.6878575,9.95026191 C11.6682023,9.94387747 11.6484208,9.93668422 11.6289415,9.928896 C11.6112043,9.92180357 11.5939015,9.91432094 11.5767785,9.90632663 C11.5561086,9.89662332 11.5357061,9.88620604 11.515723,9.87512419 C11.5036056,9.86850116 11.4913869,9.86139307 11.4792912,9.85400454 C11.453725,9.83828126 11.4288693,9.82150987 11.4048407,9.80368646 C11.3656744,9.77468704 11.3282873,9.74250082 11.2928932,9.70710677 L11.3832499,9.787214 C11.3515341,9.76233113 11.3213595,9.73557306 11.2928932,9.70710675 L7.2928932,5.70710675 C6.90236891,5.31658246 6.90236891,4.68341748 7.2928932,4.29289319 C7.68341749,3.90236889 8.31658247,3.90236889 8.70710677,4.29289319 L8.70710677,4.29289319 L10.9999999,6.58499995 L11,1.99999995 C11,1.48716412 11.3860402,1.06449279 11.8833789,1.00672769 Z" id="Shape" fill="#000000"></path>
    </g>
</svg>