<?xml version="1.0" encoding="UTF-8"?>
<svg width="24px" height="24px" viewBox="0 0 24 24" version="1.1" xmlns="http://www.w3.org/2000/svg" xmlns:xlink="http://www.w3.org/1999/xlink">
    <title>feather-icon/tablet</title>
    <g id="feather-icon/tablet" stroke="none" stroke-width="1" fill="none" fill-rule="evenodd">
        <rect id="Bounding-Box" fill-opacity="0" fill="#FFFFFF" x="0" y="0" width="24" height="24"></rect>
        <path d="M18,1.00000005 C19.6568543,1.00000005 21,2.34314571 21,4.00000005 L21,20 C21,21.6568543 19.6568543,23 18,23 L6.00000004,23 C4.34314572,23 3.00000004,21.6568543 3.00000004,20 L3.00000004,4.00000005 C3.00000004,2.34314571 4.34314572,1.00000005 6.00000004,1.00000005 L18,1.00000005 Z M18,3.00000004 L6.00000003,3.00000004 C5.44771522,3.00000004 5.00000003,3.44771521 5.00000003,4.00000004 L5.00000003,20 C5.00000003,20.5522848 5.44771522,21 6.00000003,21 L18,21 C18.5522848,21 19,20.5522848 19,20 L19,4.00000004 C19,3.44771521 18.5522848,3.00000004 18,3.00000004 Z M11.2928932,17.2928932 C11.6834175,16.9023689 12.3165825,16.9023689 12.7071068,17.2928932 C13.0976311,17.6834175 13.0976311,18.3165825 12.7071068,18.7071068 C12.3165825,19.0976311 11.6834175,19.0976311 11.2928932,18.7071068 C10.9023689,18.3165825 10.9023689,17.6834175 11.2928932,17.2928932 Z" id="Shape" fill="#000000"></path>
    </g>
</svg>