<?xml version="1.0" encoding="UTF-8"?>
<svg width="24px" height="24px" viewBox="0 0 24 24" version="1.1" xmlns="http://www.w3.org/2000/svg" xmlns:xlink="http://www.w3.org/1999/xlink">
    <title>feather-icon/tag</title>
    <g id="feather-icon/tag" stroke="none" stroke-width="1" fill="none" fill-rule="evenodd">
        <rect id="Bounding-Box" fill-opacity="0" fill="#FFFFFF" x="0" y="0" width="24" height="24"></rect>
        <path d="M12,0.999999954 C12.2652165,0.999999954 12.5195704,1.10535679 12.7071068,1.29289317 L21.2992073,9.88499999 C22.4623781,11.0551124 22.4623781,12.9448876 21.2971068,14.1171068 L14.1275,21.2867134 C13.5647952,21.8500445 12.8012277,22.1665734 12.005,22.1665734 C11.2087723,22.1665734 10.4452048,21.8500445 9.88330516,21.2875185 L1.29330512,12.7075185 C1.10551676,12.5199487 0.999999954,12.2654183 0.999999954,12 L0.999999954,1.99999995 C0.999999954,1.44771521 1.44771521,0.999999954 1.99999995,0.999999954 L12,0.999999954 Z M11.5857864,2.99999996 L2.99999996,2.99999996 L2.99999996,11.5854453 L11.2975,19.8732867 C11.4850683,20.0610637 11.7395908,20.1665733 12.005,20.1665733 C12.2704092,20.1665733 12.5249317,20.0610637 12.7128932,19.8728933 L19.8807927,12.705 C20.2685163,12.3149625 20.2685163,11.6850375 19.8828933,11.2971068 L11.5857864,2.99999996 Z M6.2928932,6.2928932 C6.68341749,5.9023689 7.31658247,5.9023689 7.70710676,6.2928932 C8.09763106,6.68341749 8.09763106,7.31658247 7.70710676,7.70710676 C7.31658247,8.09763106 6.68341749,8.09763106 6.2928932,7.70710676 C5.9023689,7.31658247 5.9023689,6.68341749 6.2928932,6.2928932 Z" id="Shape" fill="#000000"></path>
    </g>
</svg>