<?xml version="1.0" encoding="UTF-8"?>
<svg width="24px" height="24px" viewBox="0 0 24 24" version="1.1" xmlns="http://www.w3.org/2000/svg" xmlns:xlink="http://www.w3.org/1999/xlink">
    <title>feather-icon/target</title>
    <g id="feather-icon/target" stroke="none" stroke-width="1" fill="none" fill-rule="evenodd">
        <rect id="Bounding-Box" fill-opacity="0" fill="#FFFFFF" x="0" y="0" width="24" height="24"></rect>
        <path d="M12,0.999999954 C18.0751323,0.999999954 23,5.92486773 23,12 C23,18.0751323 18.0751323,23 12,23 C5.92486773,23 0.999999954,18.0751323 0.999999954,12 C0.999999954,5.92486773 5.92486773,0.999999954 12,0.999999954 Z M12,2.99999996 C7.02943723,2.99999996 2.99999996,7.02943723 2.99999996,12 C2.99999996,16.9705628 7.02943723,21 12,21 C16.9705628,21 21,16.9705628 21,12 C21,7.02943723 16.9705628,2.99999996 12,2.99999996 Z M12,4.99999997 C15.8659933,4.99999997 19,8.13400674 19,12 C19,15.8659933 15.8659933,19 12,19 C8.13400674,19 4.99999997,15.8659933 4.99999997,12 C4.99999997,8.13400674 8.13400674,4.99999997 12,4.99999997 Z M12,6.99999998 C9.23857624,6.99999998 6.99999998,9.23857624 6.99999998,12 C6.99999998,14.7614238 9.23857624,17 12,17 C14.7614238,17 17,14.7614238 17,12 C17,9.23857624 14.7614238,6.99999998 12,6.99999998 Z M12,8.99999999 C13.6568543,8.99999999 15,10.3431457 15,12 C15,13.6568543 13.6568543,15 12,15 C10.3431457,15 8.99999999,13.6568543 8.99999999,12 C8.99999999,10.3431457 10.3431457,8.99999999 12,8.99999999 Z M12,11 C11.4477152,11 11,11.4477152 11,12 C11,12.5522848 11.4477152,13 12,13 C12.5522848,13 13,12.5522848 13,12 C13,11.4477152 12.5522848,11 12,11 Z" id="Shape" fill="#000000"></path>
    </g>
</svg>