<?xml version="1.0" encoding="UTF-8"?>
<svg width="24px" height="24px" viewBox="0 0 24 24" version="1.1" xmlns="http://www.w3.org/2000/svg" xmlns:xlink="http://www.w3.org/1999/xlink">
    <title>feather-icon/terminal</title>
    <g id="feather-icon/terminal" stroke="none" stroke-width="1" fill="none" fill-rule="evenodd">
        <rect id="Bounding-Box" fill-opacity="0" fill="#FFFFFF" x="0" y="0" width="24" height="24"></rect>
        <path d="M20,18 C20.5522848,18 21,18.4477153 21,19 C21,19.5522848 20.5522848,20 20,20 L20,20 L12,20 C11.4477152,20 11,19.5522848 11,19 C11,18.4477153 11.4477152,18 12,18 L12,18 Z M3.29289318,4.29289319 C3.68341748,3.90236889 4.31658246,3.90236889 4.70710675,4.29289319 L4.70710675,4.29289319 L10.7071068,10.2928932 C11.0976311,10.6834175 11.0976311,11.3165825 10.7071068,11.7071068 L10.7071068,11.7071068 L4.70710675,17.7071068 C4.31658246,18.0976311 3.68341748,18.0976311 3.29289318,17.7071068 C2.90236889,17.3165825 2.90236889,16.6834175 3.29289318,16.2928932 L3.29289318,16.2928932 L8.58578642,11 L3.29289318,5.70710675 C2.90236889,5.31658246 2.90236889,4.68341748 3.29289318,4.29289319 Z" id="Shape" fill="#000000"></path>
    </g>
</svg>