<?xml version="1.0" encoding="UTF-8"?>
<svg width="24px" height="24px" viewBox="0 0 24 24" version="1.1" xmlns="http://www.w3.org/2000/svg" xmlns:xlink="http://www.w3.org/1999/xlink">
    <title>feather-icon/thermometer</title>
    <g id="feather-icon/thermometer" stroke="none" stroke-width="1" fill="none" fill-rule="evenodd">
        <rect id="Bounding-Box" fill-opacity="0" fill="#FFFFFF" x="0" y="0" width="24" height="24"></rect>
        <path d="M7.99999998,3.49999995 C7.99999998,1.56700333 9.56700337,-5.00000006e-08 11.5,-5.00000006e-08 C13.4329966,-5.00000006e-08 15,1.56700333 15,3.49999995 L15,14.2587994 C16.6982778,15.6584563 17.4123655,17.9580505 16.763186,20.0981767 C16.0599558,22.4164896 13.9226241,24.0016574 11.5,24.0016574 C9.07737594,24.0016574 6.94004422,22.4164896 6.23681404,20.0981767 C5.61081947,18.0344836 6.25245477,15.8225097 7.82182495,14.412158 L7.99999998,14.2587994 L7.99999998,3.49999995 Z M11.5,1.99999996 C10.6715729,1.99999996 9.99999999,2.67157284 9.99999999,3.49999996 L9.99999999,14.76 C9.99999999,15.0939889 9.83326042,15.4059301 9.55555555,15.5914794 C8.27368879,16.4479627 7.70318973,18.0423342 8.15069984,19.5176242 C8.59820996,20.9929142 9.95833014,22.0016574 11.5,22.0016574 C13.0416699,22.0016574 14.40179,20.9929142 14.8493002,19.5176242 C15.2968103,18.0423342 14.7263112,16.4479627 13.4444445,15.5914794 C13.1667396,15.4059301 13,15.0939889 13,14.76 L13,3.49999996 C13,2.67157284 12.3284271,1.99999996 11.5,1.99999996 Z" id="Shape" fill="#000000"></path>
    </g>
</svg>