<?xml version="1.0" encoding="UTF-8"?>
<svg width="24px" height="24px" viewBox="0 0 24 24" version="1.1" xmlns="http://www.w3.org/2000/svg" xmlns:xlink="http://www.w3.org/1999/xlink">
    <title>feather-icon/thumbs-up</title>
    <g id="feather-icon/thumbs-up" stroke="none" stroke-width="1" fill="none" fill-rule="evenodd">
        <rect id="Bounding-Box" fill-opacity="0" fill="#FFFFFF" x="0" y="0" width="24" height="24"></rect>
        <path d="M11,0.999999954 C13.209139,0.999999954 15,2.79086096 15,4.99999995 L15,8.00001133 L19.6486763,8.0000641 C20.5288039,7.99009713 21.3689061,8.36714391 21.9464641,9.03133561 C22.5240221,9.69552731 22.7807603,10.5798471 22.6484478,11.451562 L21.2686957,20.4499361 C21.0443958,21.9289955 19.7647132,23.0167838 18.28,23.0003184 L6.99999995,23.0003184 C6.44771523,23.0003184 5.99999995,22.5524145 5.99999995,22.0001297 L5.99999995,18.464 L4.96476379,22.2631174 C4.84611072,22.6981787 4.45095103,23 3.99999995,23 C2.34314571,23 0.999999954,21.6568543 0.999999954,20 L0.999999954,13 C0.999999954,11.3431457 2.34314571,9.99999995 3.99999995,9.99999995 L6.34999998,9.99999995 L10.0861884,1.59386149 C10.2466898,1.23273348 10.6048113,0.999999954 11,0.999999954 Z M11.6080478,3.0941069 L7.99999998,11.2122144 L7.99999998,21.0002555 L18.2911743,21.0002555 C18.7899054,21.0057655 19.2165334,20.6431123 19.2915523,20.148438 L20.6713238,11.1499359 C20.7153518,10.8598635 20.6297724,10.5650903 20.437253,10.343693 C20.2447337,10.1222958 19.9646996,9.99661355 19.66,9.99999999 L14,9.99999999 C13.4477153,9.99999999 13,9.55228474 13,8.99999999 L13,4.99999997 C13,4.10743496 12.4153102,3.35143157 11.6080478,3.0941069 Z M5.69074959,12 L3.99999996,12 C3.44771521,12 2.99999996,12.4477153 2.99999996,13 L2.99999996,20 C2.99999996,20.2853447 3.11951299,20.5427756 3.31121318,20.7249668 L5.69074959,12 Z" id="Shape" fill="#000000"></path>
    </g>
</svg>