<?xml version="1.0" encoding="UTF-8"?>
<svg width="24px" height="24px" viewBox="0 0 24 24" version="1.1" xmlns="http://www.w3.org/2000/svg" xmlns:xlink="http://www.w3.org/1999/xlink">
    <title>feather-icon/thumbs-down</title>
    <g id="feather-icon/thumbs-down" stroke="none" stroke-width="1" fill="none" fill-rule="evenodd">
        <rect id="Bounding-Box" fill-opacity="0" fill="#FFFFFF" x="0" y="0" width="24" height="24"></rect>
        <path d="M17,0.999870294 C17.5522848,0.999870294 18,1.44758555 18,1.9998703 L18,4.63899997 L18.6982321,1.76406104 C18.8055399,1.3220896 19.1975769,1.00819849 19.6523176,1.0001563 C21.3309455,0.970469382 22.7659324,2.2022178 22.9909756,3.86595718 L23,3.99999997 L23,11 L22.9909756,11.1340428 C22.7742674,12.7361622 21.4355811,13.9376974 19.8535697,13.9981329 L17.649,13.999 L13.9138116,22.4061385 C13.7533102,22.7672665 13.3951887,23 13,23 C10.790861,23 8.99999999,21.209139 8.99999999,19 L8.99999999,15.9999887 L4.3513237,15.9999359 C3.47119614,16.0099029 2.63109393,15.6328561 2.05353593,14.9686644 C1.47597793,14.3044727 1.21923966,13.4201529 1.3515522,12.548438 L2.73130427,3.55006386 C2.95560423,2.07100449 4.23528679,0.983216155 5.71999997,0.999870294 L17,0.999870294 Z M16,2.9997445 L5.70882565,2.9997445 C5.21009463,2.99423454 4.78346664,3.35688772 4.70844772,3.85156196 L3.32867623,12.8500641 C3.28464822,13.1401365 3.37022764,13.4349097 3.56274698,13.656307 C3.75526631,13.8777042 4.03530038,14.0033864 4.33999997,14 L9.99999999,14 C10.5522847,14 11,14.4477153 11,15 L11,19 C11,19.892565 11.5846898,20.6485684 12.3919522,20.9058931 L16,12.7877856 L16,2.9997445 Z M20.4076389,3.20025251 L18.2710995,12.0000739 L19.6876825,12.0001563 C20.3326215,12.0115622 20.8866873,11.5524785 21,10.9232314 L21,4.07676861 C20.9328965,3.70412959 20.7112213,3.39116667 20.4076389,3.20025251 Z" id="Shape" fill="#000000"></path>
    </g>
</svg>