<?xml version="1.0" encoding="UTF-8"?>
<svg width="24px" height="24px" viewBox="0 0 24 24" version="1.1" xmlns="http://www.w3.org/2000/svg" xmlns:xlink="http://www.w3.org/1999/xlink">
    <title>feather-icon/toggle-right</title>
    <g id="feather-icon/toggle-right" stroke="none" stroke-width="1" fill="none" fill-rule="evenodd">
        <rect id="Bounding-Box" fill-opacity="0" fill="#FFFFFF" x="0" y="0" width="24" height="24"></rect>
        <path d="M15.9999999,3.99999997 C20.418278,3.99999997 23.9999999,7.58172198 23.9999999,12 C23.9999999,16.418278 20.418278,20 15.9999999,20 L7.99999995,20 C3.58172197,20 -5.00000183e-08,16.418278 -5.00000183e-08,12 C-5.00000183e-08,7.58172198 3.58172197,3.99999997 7.99999995,3.99999997 L15.9999999,3.99999997 Z M16,5.99999998 L7.99999996,5.99999998 C4.68629147,5.99999998 1.99999996,8.68629149 1.99999996,12 C1.99999996,15.3137085 4.68629147,18 7.99999996,18 L16,18 C19.3137085,18 22,15.3137085 22,12 C22,8.68629149 19.3137085,5.99999998 16,5.99999998 Z M16,7.99999998 C18.209139,7.99999998 20,9.79086099 20,12 C20,14.209139 18.209139,16 16,16 C13.790861,16 12,14.209139 12,12 C12,9.79086099 13.790861,7.99999998 16,7.99999998 Z M16,9.99999999 C14.8954305,9.99999999 14,10.8954305 14,12 C14,13.1045695 14.8954305,14 16,14 C17.1045695,14 18,13.1045695 18,12 C18,10.8954305 17.1045695,9.99999999 16,9.99999999 Z" id="Shape" fill="#000000"></path>
    </g>
</svg>