<?xml version="1.0" encoding="UTF-8"?>
<svg width="24px" height="24px" viewBox="0 0 24 24" version="1.1" xmlns="http://www.w3.org/2000/svg" xmlns:xlink="http://www.w3.org/1999/xlink">
    <title>feather-icon/toggle-left</title>
    <g id="feather-icon/toggle-left" stroke="none" stroke-width="1" fill="none" fill-rule="evenodd">
        <rect id="Bounding-Box" fill-opacity="0" fill="#FFFFFF" x="0" y="0" width="24" height="24"></rect>
        <path d="M15.9999999,3.99999997 C20.418278,3.99999997 23.9999999,7.58172198 23.9999999,12 C23.9999999,16.418278 20.418278,20 15.9999999,20 L7.99999995,20 C3.58172197,20 -5.00000183e-08,16.418278 -5.00000183e-08,12 C-5.00000183e-08,7.58172198 3.58172197,3.99999997 7.99999995,3.99999997 L15.9999999,3.99999997 Z M16,5.99999998 L7.99999996,5.99999998 C4.68629147,5.99999998 1.99999996,8.68629149 1.99999996,12 C1.99999996,15.3137085 4.68629147,18 7.99999996,18 L16,18 C19.3137085,18 22,15.3137085 22,12 C22,8.68629149 19.3137085,5.99999998 16,5.99999998 Z M7.99999997,7.99999998 C10.209139,7.99999998 12,9.79086099 12,12 C12,14.209139 10.209139,16 7.99999997,16 C5.79086097,16 3.99999997,14.209139 3.99999997,12 C3.99999997,9.79086099 5.79086097,7.99999998 7.99999997,7.99999998 Z M7.99999997,9.99999999 C6.89543048,9.99999999 5.99999997,10.8954305 5.99999997,12 C5.99999997,13.1045695 6.89543048,14 7.99999997,14 C9.10456949,14 9.99999997,13.1045695 9.99999997,12 C9.99999997,10.8954305 9.10456949,9.99999999 7.99999997,9.99999999 Z" id="Shape" fill="#000000"></path>
    </g>
</svg>