<?xml version="1.0" encoding="UTF-8"?>
<svg width="24px" height="24px" viewBox="0 0 24 24" version="1.1" xmlns="http://www.w3.org/2000/svg" xmlns:xlink="http://www.w3.org/1999/xlink">
    <title>feather-icon/tool</title>
    <g id="feather-icon/tool" stroke="none" stroke-width="1" fill="none" fill-rule="evenodd">
        <rect id="Bounding-Box" fill-opacity="0" fill="#FFFFFF" x="0" y="0" width="24" height="24"></rect>
        <path d="M9.27884838,9.96578795 C8.56546786,7.53531281 9.21942685,4.87380268 11.0466148,3.04661475 C13.1068477,0.986381788 16.2277989,0.417737218 18.882273,1.61893958 C19.5190312,1.90708535 19.6713178,2.74289574 19.1771068,3.23710674 L15.4141429,6.99999998 L17,8.58585714 L20.7628933,4.82289319 C21.2571043,4.32868219 22.0929146,4.48096879 22.3810604,5.11772701 C23.5822628,7.77220109 23.0136182,10.8931523 20.9533853,12.9533852 C19.0609406,14.8458299 16.2735151,15.479747 13.7747366,14.639477 L7.32710676,21.0871068 C6.10815534,22.3060582 4.1318446,22.3060582 2.91289318,21.0871068 C1.69394176,19.8681554 1.69394176,17.8918447 2.91289318,16.6728932 L9.36052302,10.2252634 L9.27884838,9.96578795 Z M16.5580432,3.02774321 C15.0724631,2.86000617 13.5566029,3.36505376 12.4608284,4.46082832 C10.9892334,5.93242329 10.5830587,8.16167413 11.4410604,10.057727 C11.6126607,10.4369376 11.5314258,10.8827878 11.2371068,11.1771068 L4.32710675,18.0871068 C3.88920391,18.5250096 3.88920391,19.2349904 4.32710675,19.6728933 C4.76500958,20.1107961 5.47499036,20.1107961 5.91289319,19.6728933 L12.8228932,12.7628932 C13.1172122,12.4685742 13.5630624,12.3873393 13.942273,12.5589396 C15.8383259,13.4169413 18.0675767,13.0107666 19.5391717,11.5391716 C20.6349512,10.4433921 21.1399984,8.92752312 20.9722545,7.44193652 L18.4,10.0141428 C17.622313,10.7764286 16.377687,10.7764286 15.5928932,10.0071068 L13.9858572,8.39999999 C13.2235714,7.62231296 13.2235714,6.377687 13.9928932,5.59289319 L16.5580432,3.02774321 Z" id="Shape" fill="#000000"></path>
    </g>
</svg>