<?xml version="1.0" encoding="UTF-8"?>
<svg width="24px" height="24px" viewBox="0 0 24 24" version="1.1" xmlns="http://www.w3.org/2000/svg" xmlns:xlink="http://www.w3.org/1999/xlink">
    <title>feather-icon/trending-down</title>
    <g id="feather-icon/trending-down" stroke="none" stroke-width="1" fill="none" fill-rule="evenodd">
        <rect id="Bounding-Box" fill-opacity="0" fill="#FFFFFF" x="0" y="0" width="24" height="24"></rect>
        <path d="M0.29289317,5.29289319 C0.683417463,4.9023689 1.31658244,4.9023689 1.70710674,5.29289319 L1.70710674,5.29289319 L8.49999995,12.0857864 L12.7928932,7.7928932 C13.1834175,7.40236891 13.8165825,7.40236891 14.2071068,7.7928932 L14.2071068,7.7928932 L21.9999999,15.585 L22,12 C22,11.4871642 22.3860402,11.0644928 22.8833789,11.0067277 L23,11 C23.5522848,11 24,11.4477152 24,12 L24,12 L24,18 C24,18.0112225 23.9998152,18.0224019 23.9994483,18.0335352 C23.9988773,18.050591 23.9978551,18.0679231 23.9963841,18.0852243 C23.9945641,18.1070574 23.9920941,18.1281144 23.9889807,18.1489612 C23.986372,18.165949 23.9832979,18.1833753 23.97976,18.2007258 C23.9753602,18.2227461 23.9701664,18.2444365 23.9642791,18.2658396 C23.9599023,18.2814633 23.9552713,18.2968514 23.950262,18.3121426 C23.9438775,18.3317977 23.9366843,18.3515792 23.9288961,18.3710585 C23.9218036,18.3887957 23.914321,18.4060985 23.9063267,18.4232216 C23.8966234,18.4438914 23.8862061,18.464294 23.8751243,18.484277 C23.8685012,18.4963945 23.8613931,18.5086131 23.8540046,18.5207088 C23.8382813,18.546275 23.8215099,18.5711307 23.8036865,18.5951593 C23.7746871,18.6343256 23.7425009,18.6717128 23.7071068,18.7071068 L23.7872141,18.6167501 C23.7374483,18.6801818 23.6801818,18.7374483 23.6167501,18.787214 C23.6098425,18.7927155 23.6026031,18.7982466 23.5953067,18.8036655 C23.5711307,18.8215099 23.546275,18.8382813 23.5206602,18.8539326 C23.5086132,18.8613931 23.4963945,18.8685012 23.4840621,18.8753289 C23.464294,18.8862061 23.4438914,18.8966234 23.4230992,18.9063462 C23.4060985,18.914321 23.3887957,18.9218036 23.3713361,18.9287745 C23.3515792,18.9366843 23.3317977,18.9438775 23.3117364,18.9504533 C23.2968514,18.9552713 23.2814633,18.9599023 23.265993,18.9641549 C23.2444365,18.9701664 23.2227461,18.9753602 23.2007941,18.9798348 C23.1833753,18.9832979 23.1659491,18.9863719 23.1484669,18.9889822 C23.1003621,18.9962388 23.0506203,19 23,19 L23.0852243,18.9963841 C23.0679231,18.9978551 23.050591,18.9988773 23.0332468,18.9994506 L23,19 L17,19 C16.4477153,19 16,18.5522848 16,18 C16,17.4477153 16.4477153,17 17,17 L17,17 L20.585,17 L13.5,9.91421355 L9.20710677,14.2071068 C8.81658248,14.5976311 8.18341749,14.5976311 7.7928932,14.2071068 L7.7928932,14.2071068 L0.29289317,6.70710676 C-0.0976311233,6.31658247 -0.0976311233,5.68341748 0.29289317,5.29289319 Z" id="Shape" fill="#000000"></path>
    </g>
</svg>