<?xml version="1.0" encoding="UTF-8"?>
<svg width="24px" height="24px" viewBox="0 0 24 24" version="1.1" xmlns="http://www.w3.org/2000/svg" xmlns:xlink="http://www.w3.org/1999/xlink">
    <title>feather-icon/trending-up</title>
    <g id="feather-icon/trending-up" stroke="none" stroke-width="1" fill="none" fill-rule="evenodd">
        <rect id="Bounding-Box" fill-opacity="0" fill="#FFFFFF" x="0" y="0" width="24" height="24"></rect>
        <path d="M23,4.99999997 C23.0064615,4.99999997 23.0129086,5.00006125 23.0193409,5.00018327 C23.0426811,5.00063486 23.0659949,5.00189495 23.0892501,5.00396638 C23.1096949,5.00574793 23.1294205,5.00810095 23.1489612,5.01101931 C23.1659491,5.01362805 23.1833753,5.01670214 23.2007258,5.02024004 C23.2227461,5.02463977 23.2444365,5.0298336 23.2658396,5.03572094 C23.2814633,5.04009771 23.2968514,5.04472869 23.3121426,5.04973806 C23.3317977,5.05612246 23.3515792,5.06331571 23.3710586,5.07110393 C23.3887957,5.0781964 23.4060985,5.08567902 23.4232216,5.09367333 C23.4438914,5.10337661 23.464294,5.11379389 23.484277,5.12487574 C23.4963945,5.1314988 23.5086132,5.13860689 23.5207088,5.14599543 C23.546275,5.16171867 23.5711307,5.17849006 23.5951593,5.19631348 C23.6343256,5.22531292 23.6717128,5.25749914 23.7071068,5.29289319 L23.6167501,5.21278594 C23.6801818,5.26255168 23.7374483,5.31981822 23.7872141,5.38324989 C23.7927156,5.39015757 23.7982466,5.39739693 23.8036655,5.40469336 C23.8215099,5.42886928 23.8382813,5.45372502 23.8539326,5.47933979 C23.8613931,5.49138687 23.8685012,5.50360553 23.8753289,5.51593788 C23.8862061,5.53570603 23.8966234,5.55610858 23.9063462,5.57690082 C23.914321,5.59390148 23.9218036,5.61120432 23.9287746,5.62866395 C23.9366843,5.64842077 23.9438775,5.6682023 23.9504533,5.68826356 C23.9552713,5.70314863 23.9599023,5.7185367 23.9641549,5.73400701 C23.9701664,5.7555635 23.9753602,5.77725389 23.9798349,5.79920587 C23.9832979,5.81662471 23.986372,5.83405096 23.9889822,5.85153311 C23.9962388,5.89963788 24,5.94937969 24,5.99999997 L23.9963841,5.91477575 C23.9978551,5.93207688 23.9988773,5.949409 23.9994507,5.9667532 L24,5.99999997 L24,12 C24,12.5522848 23.5522848,13 23,13 C22.4477153,13 22,12.5522848 22,12 L22,12 L21.9999999,8.41399997 L14.2071068,16.2071068 C13.8466228,16.5675908 13.2793918,16.5953203 12.8871006,16.2902954 L12.7928932,16.2071068 L8.49999995,11.9142136 L1.70710674,18.7071068 C1.31658244,19.0976311 0.683417463,19.0976311 0.29289317,18.7071068 C-0.0976311233,18.3165825 -0.0976311233,17.6834175 0.29289317,17.2928932 L0.29289317,17.2928932 L7.7928932,9.79289321 C8.18341749,9.40236892 8.81658248,9.40236892 9.20710677,9.79289321 L9.20710677,9.79289321 L13.4999999,14.0857864 L20.585,6.99899997 L17,6.99999997 C16.4871642,6.99999997 16.0644929,6.61395979 16.0067277,6.1166211 L16,5.99999997 C16,5.44771522 16.4477153,4.99999997 17,4.99999997 L17,4.99999997 Z" id="Shape" fill="#000000"></path>
    </g>
</svg>