<?xml version="1.0" encoding="UTF-8"?>
<svg width="24px" height="24px" viewBox="0 0 24 24" version="1.1" xmlns="http://www.w3.org/2000/svg" xmlns:xlink="http://www.w3.org/1999/xlink">
    <title>feather-icon/triangle</title>
    <g id="feather-icon/triangle" stroke="none" stroke-width="1" fill="none" fill-rule="evenodd">
        <rect id="Bounding-Box" fill-opacity="0" fill="#FFFFFF" x="0" y="0" width="24" height="24"></rect>
        <path d="M12,1.89725595 C13.0486293,1.89725595 14.0211515,2.44479394 14.5678674,3.34612888 L23.0459906,17.4999396 C23.5790281,18.4230391 23.5822107,19.55966 23.0543508,20.48573 C22.5264909,21.4117999 21.5468725,21.9882243 20.47,22 L3.51900943,22 C2.45312746,21.9882243 1.47350909,21.4117999 0.945649204,20.48573 C0.417789322,19.55966 0.420971863,18.4230391 0.962132532,17.4861289 L9.43499999,3.34137197 C9.97884849,2.44479394 10.9513707,1.89725595 12,1.89725595 Z M12,3.89725596 C11.6504569,3.89725596 11.3262828,4.07976862 11.1478674,4.37387105 L2.68599049,18.5000604 C2.5083113,18.8077602 2.50725046,19.1866339 2.68320375,19.4953239 C2.85915705,19.8040139 3.1856965,19.9961553 3.52999996,20.0000604 L20.4590095,20.0000604 C20.8143035,19.9961553 21.140843,19.8040139 21.3167962,19.4953239 C21.4927495,19.1866339 21.4916887,18.8077602 21.3221326,18.5138711 L12.855,4.37862797 C12.6737172,4.07976862 12.3495431,3.89725596 12,3.89725596 Z" id="Shape" fill="#000000"></path>
    </g>
</svg>