<?xml version="1.0" encoding="UTF-8"?>
<svg width="24px" height="24px" viewBox="0 0 24 24" version="1.1" xmlns="http://www.w3.org/2000/svg" xmlns:xlink="http://www.w3.org/1999/xlink">
    <title>feather-icon/truck</title>
    <g id="feather-icon/truck" stroke="none" stroke-width="1" fill="none" fill-rule="evenodd">
        <rect id="Bounding-Box" fill-opacity="0" fill="#FFFFFF" x="0" y="0" width="24" height="24"></rect>
        <path d="M15.9999999,1.99999996 C16.5522848,1.99999996 16.9999999,2.44771521 16.9999999,2.99999996 L16.9989999,6.99999996 L20,6.99999998 C20.2652165,6.99999998 20.5195704,7.10535682 20.7071068,7.2928932 L23.7071068,10.2928932 C23.8946432,10.4804296 24,10.7347835 24,11 L24,16 C24,16.5522848 23.5522848,17 23,17 L21.6631686,16.9999667 C21.8791486,17.4546029 22,17.9631883 22,18.5 C22,20.4329967 20.4329967,22 18.5,22 C16.5670034,22 15,20.4329967 15,18.5 C15,17.9631883 15.1208514,17.4546029 15.3368314,16.9999667 L8.66316857,16.9999667 C8.87914854,17.4546029 8.99999996,17.9631883 8.99999996,18.5 C8.99999996,20.4329967 7.43299661,22 5.49999996,22 C3.56700334,22 1.99999996,20.4329967 1.99999996,18.5 C1.99999996,17.9631883 2.12085138,17.4546029 2.33683135,16.9999667 L0.99999995,17 C0.447715202,17 -5.00000343e-08,16.5522848 -5.00000343e-08,16 L-5.00000343e-08,2.99999996 C-5.00000343e-08,2.44771521 0.447715202,1.99999996 0.99999995,1.99999996 L15.9999999,1.99999996 Z M5.49999997,17 C4.67157284,17 3.99999997,17.6715729 3.99999997,18.5 C3.99999997,19.3284272 4.67157284,20 5.49999997,20 C6.3284271,20 6.99999997,19.3284272 6.99999997,18.5 C6.99999997,17.6715729 6.3284271,17 5.49999997,17 Z M18.5,17 C17.6715729,17 17,17.6715729 17,18.5 C17,19.3284272 17.6715729,20 18.5,20 C19.3284272,20 20,19.3284272 20,18.5 C20,17.6715729 19.3284272,17 18.5,17 Z M15,3.99999997 L1.99999996,3.99999997 L1.99999996,15 L15,15 L15,3.99999997 Z M19.5857865,8.99999999 L17,8.99999999 L17,15 L22,15 L22,11.4142136 L19.5857865,8.99999999 Z" id="Shape" fill="#000000"></path>
    </g>
</svg>