<?xml version="1.0" encoding="UTF-8"?>
<svg width="24px" height="24px" viewBox="0 0 24 24" version="1.1" xmlns="http://www.w3.org/2000/svg" xmlns:xlink="http://www.w3.org/1999/xlink">
    <title>feather-icon/tv</title>
    <g id="feather-icon/tv" stroke="none" stroke-width="1" fill="none" fill-rule="evenodd">
        <rect id="Bounding-Box" fill-opacity="0" fill="#FFFFFF" x="0" y="0" width="24" height="24"></rect>
        <path d="M6.2928932,1.29289317 C6.68341749,0.902368881 7.31658247,0.902368881 7.70710676,1.29289317 L7.70710676,1.29289317 L12,5.58578641 L16.2928932,1.29289317 C16.6834175,0.902368881 17.3165825,0.902368881 17.7071068,1.29289317 C18.0976311,1.68341747 18.0976311,2.31658245 17.7071068,2.70710674 L17.7071068,2.70710674 L14.414,5.99999995 L20,5.99999997 C21.6568543,5.99999997 23,7.34314573 23,8.99999997 L23,20 C23,21.6568543 21.6568543,23 20,23 L3.99999995,23 C2.34314571,23 0.999999954,21.6568543 0.999999954,20 L0.999999954,8.99999997 C0.999999954,7.34314573 2.34314571,5.99999997 3.99999995,5.99999997 L9.58499995,5.99999995 L6.2928932,2.70710674 C5.93240923,2.34662278 5.9046797,1.77939172 6.20970459,1.38710051 Z M20,7.99999998 L3.99999996,7.99999998 C3.44771521,7.99999998 2.99999996,8.44771524 2.99999996,8.99999998 L2.99999996,20 C2.99999996,20.5522848 3.44771521,21 3.99999996,21 L20,21 C20.5522848,21 21,20.5522848 21,20 L21,8.99999998 C21,8.44771524 20.5522848,7.99999998 20,7.99999998 Z" id="Shape" fill="#000000"></path>
    </g>
</svg>