<?xml version="1.0" encoding="UTF-8"?>
<svg width="24px" height="24px" viewBox="0 0 24 24" version="1.1" xmlns="http://www.w3.org/2000/svg" xmlns:xlink="http://www.w3.org/1999/xlink">
    <title>feather-icon/twitch</title>
    <g id="feather-icon/twitch" stroke="none" stroke-width="1" fill="none" fill-rule="evenodd">
        <rect id="Bounding-Box" fill-opacity="0" fill="#FFFFFF" x="0" y="0" width="24" height="24"></rect>
        <path d="M6.99999996,19 L2.99999996,19 C2.44771521,19 1.99999996,18.5522848 1.99999996,18 L1.99999996,1.99999995 C1.99999996,1.44771521 2.44771521,0.999999954 2.99999996,0.999999954 L21,0.999999954 C21.5522848,0.999999954 22,1.44771521 22,1.99999995 L22,14 C22,14.2652165 21.8946432,14.5195704 21.7071068,14.7071068 L17.7071068,18.7071068 C17.5195704,18.8946432 17.2652165,19 17,19 L12.4142136,19 L8.70710677,22.7071068 C8.0771419,23.3370717 6.99999996,22.8909049 6.99999996,22 L6.99999996,19 Z M20,2.99999996 L3.99999997,2.99999996 L3.99999997,17 L7.99999997,17 C8.55228474,17 8.99999997,17.4477153 8.99999997,18 L8.99999997,19.5857865 L11.2928932,17.2928932 C11.4804296,17.1053569 11.7347835,17 12,17 L16.5857865,17 L20,13.5857864 L20,2.99999996 Z" id="Shape" fill="#000000"></path>
    </g>
</svg>