<svg xmlns="http://www.w3.org/2000/svg" width="20.004" height="20" viewBox="0 0 20.004 20">
  <g id="feather-icon_twitter" data-name="feather-icon/twitter" transform="translate(0.002)">
    <rect id="Bounding_Box" data-name="Bounding Box" width="20" height="20" fill="rgba(255,255,255,0)"/>
    <path id="Shape" d="M6.894,16.644A13.387,13.387,0,0,1,.431,14.9a.834.834,0,0,1,.4-1.562H.869c.118,0,.237.007.354.007a8.925,8.925,0,0,0,3.708-.813,8.043,8.043,0,0,1-3.59-4.4A9.651,9.651,0,0,1,1.329,2.55a8.74,8.74,0,0,1,.412-1.214A.833.833,0,0,1,3.184,1.2,8.049,8.049,0,0,0,8.914,4.574l.255.023,0-.2A4.567,4.567,0,0,1,16.78,1.162a8.239,8.239,0,0,0,1.909-1,.827.827,0,0,1,.478-.155.852.852,0,0,1,.663.326.811.811,0,0,1,.149.707,7.28,7.28,0,0,1-1.662,3.145c.012.138.019.276.019.408a13.328,13.328,0,0,1-.922,4.987A11.157,11.157,0,0,1,6.894,16.644ZM2.839,3.378a7.847,7.847,0,0,0,.086,4.238,6.928,6.928,0,0,0,4.081,4.131.833.833,0,0,1,.13,1.451,10.505,10.505,0,0,1-3.025,1.414,10.962,10.962,0,0,0,2.786.367,9.566,9.566,0,0,0,6.869-2.807,10.5,10.5,0,0,0,2.9-7.576,2.817,2.817,0,0,0-.052-.538.834.834,0,0,1,.233-.75,5.6,5.6,0,0,0,.515-.583l-.285.1-.288.091a.831.831,0,0,1-.868-.25,2.9,2.9,0,0,0-5.088,1.953V5.45a.829.829,0,0,1-.812.833c-.084,0-.169,0-.253,0A9.659,9.659,0,0,1,6,5.525,9.669,9.669,0,0,1,2.839,3.378Z" transform="translate(-0.002 1.658)" fill="#7f7f7f"/>
  </g>
</svg>
