<?xml version="1.0" encoding="UTF-8"?>
<svg width="24px" height="24px" viewBox="0 0 24 24" version="1.1" xmlns="http://www.w3.org/2000/svg" xmlns:xlink="http://www.w3.org/1999/xlink">
    <title>feather-icon/type</title>
    <g id="feather-icon/type" stroke="none" stroke-width="1" fill="none" fill-rule="evenodd">
        <rect id="Bounding-Box" fill-opacity="0" fill="#FFFFFF" x="0" y="0" width="24" height="24"></rect>
        <path d="M8.99999998,21 C8.44771524,21 7.99999998,20.5522848 7.99999998,20 C7.99999998,19.4477153 8.44771524,19 8.99999998,19 L8.99999998,19 L11,19 L11,4.99999996 L4.99999996,4.99999996 L4.99999996,6.99999996 C4.99999996,7.55228473 4.55228472,7.99999996 3.99999996,7.99999996 C3.44771521,7.99999996 2.99999996,7.55228473 2.99999996,6.99999996 L2.99999996,6.99999996 L2.99999996,3.99999996 C2.99999996,3.44771521 3.44771521,2.99999996 3.99999996,2.99999996 L3.99999996,2.99999996 L20,2.99999996 C20.5522848,2.99999996 21,3.44771521 21,3.99999996 L21,3.99999996 L21,6.99999996 C21,7.55228473 20.5522848,7.99999996 20,7.99999996 C19.4477153,7.99999996 19,7.55228473 19,6.99999996 L19,6.99999996 L19,4.99999996 L13,4.99999996 L13,19 L15,19 C15.5128359,19 15.9355071,19.3860402 15.9932723,19.8833789 L16,20 C16,20.5522848 15.5522848,21 15,21 L15,21 Z" id="Shape" fill="#000000"></path>
    </g>
</svg>