<?xml version="1.0" encoding="UTF-8"?>
<svg width="24px" height="24px" viewBox="0 0 24 24" version="1.1" xmlns="http://www.w3.org/2000/svg" xmlns:xlink="http://www.w3.org/1999/xlink">
    <title>feather-icon/umbrella</title>
    <g id="feather-icon/umbrella" stroke="none" stroke-width="1" fill="none" fill-rule="evenodd">
        <rect id="Bounding-Box" fill-opacity="0" fill="#FFFFFF" x="0" y="0" width="24" height="24"></rect>
        <path d="M12,0.999999954 C18.2114838,0.999999954 23.4052437,5.72159982 23.9954752,11.9049774 C24.051522,12.492135 23.5898266,13 23,13 L14.173,12.999 L18.7592566,18.3492087 C18.9146079,18.5304518 19,18.7612888 19,19 C19,21.209139 17.209139,23 15,23 C12.790861,23 11,21.209139 11,19 L11,12.999 L0.999999954,13 C0.410173437,13 -0.0515220267,12.492135 0.0045248369,11.9049774 C0.59475633,5.72159982 5.78851619,0.999999954 12,0.999999954 Z M13,14.7032574 L13,19 C13,20.1045695 13.8954305,21 15,21 C15.9897352,21 16.8115564,20.2810747 16.9717369,19.3369505 L13,14.7032574 Z M12,2.99999996 C7.19283681,2.99999996 3.11654002,6.39076098 2.16062094,11 L21.8393791,11 L21.7795675,10.7302901 C20.7233242,6.25909359 16.7129051,2.99999996 12,2.99999996 Z" id="Shape" fill="#000000"></path>
    </g>
</svg>