<?xml version="1.0" encoding="UTF-8"?>
<svg width="24px" height="24px" viewBox="0 0 24 24" version="1.1" xmlns="http://www.w3.org/2000/svg" xmlns:xlink="http://www.w3.org/1999/xlink">
    <title>feather-icon/unlock</title>
    <g id="feather-icon/unlock" stroke="none" stroke-width="1" fill="none" fill-rule="evenodd">
        <rect id="Bounding-Box" fill-opacity="0" fill="#FFFFFF" x="0" y="0" width="24" height="24"></rect>
        <path d="M11.3970052,1.02535182 C14.4639192,0.715562532 17.2665944,2.78013363 17.8800005,5.80100497 C17.9899024,6.34224431 17.6402344,6.87009858 17.098995,6.98000048 C16.5577557,7.08990239 16.0299014,6.74023431 15.9199995,6.19899498 C15.5110621,4.18508075 13.642612,2.80870002 11.5980026,3.01522621 C9.55339351,3.22175238 7.99793368,4.94398262 7.99999484,6.99999998 L7.99999484,6.99999998 L7.99899996,9.99963186 L19,9.99999999 C20.6568543,9.99999999 22,11.3431457 22,13 L22,20 C22,21.6568543 20.6568543,23 19,23 L4.99999996,23 C3.34314571,23 1.99999996,21.6568543 1.99999996,20 L1.99999996,13 C1.99999996,11.3431457 3.34314571,9.99999999 4.99999996,9.99999999 L5.99899996,9.99963186 L5.99999484,7.00100398 C5.99698036,3.9955484 8.21489268,1.46462025 11.1683875,1.0528212 Z M19,12 L4.99999997,12 C4.44771522,12 3.99999997,12.4477153 3.99999997,13 L3.99999997,20 C3.99999997,20.5522848 4.44771522,21 4.99999997,21 L19,21 C19.5522848,21 20,20.5522848 20,20 L20,13 C20,12.4477153 19.5522848,12 19,12 Z" id="Shape" fill="#000000"></path>
    </g>
</svg>