<?xml version="1.0" encoding="UTF-8"?>
<svg width="24px" height="24px" viewBox="0 0 24 24" version="1.1" xmlns="http://www.w3.org/2000/svg" xmlns:xlink="http://www.w3.org/1999/xlink">
    <title>feather-icon/upload-cloud</title>
    <g id="feather-icon/upload-cloud" stroke="none" stroke-width="1" fill="none" fill-rule="evenodd">
        <rect id="Bounding-Box" fill-opacity="0" fill="#FFFFFF" x="0" y="0" width="24" height="24"></rect>
        <path d="M12.0850857,11.0035689 C12.095645,11.0044586 12.1061577,11.0055124 12.1166211,11.0067277 L12.1484669,11.0110178 C12.166888,11.0137683 12.185247,11.0170337 12.2035208,11.0208141 C12.2121561,11.0225104 12.2207446,11.0244057 12.2292908,11.0264107 L12.2583,11.0337634 C12.2787573,11.0392117 12.2990754,11.0453193 12.3192208,11.0520863 C12.3354992,11.0575201 12.3511976,11.0632597 12.3667063,11.0693757 C12.3855721,11.0768053 12.4045951,11.0849726 12.423401,11.0937572 C12.4452036,11.1039951 12.4667113,11.1150337 12.4877497,11.1268107 L12.4877715,11.1267352 L12.5114029,11.1403808 C12.5155088,11.1428275 12.5196009,11.1453062 12.5236789,11.1478169 C12.5434998,11.1601191 12.5630943,11.1731571 12.5821867,11.1868509 C12.6256994,11.2179519 12.667642,11.2534285 12.7071068,11.2928932 L12.6215925,11.2166092 C12.6228806,11.2176326 12.6241661,11.2186591 12.625449,11.2196888 L12.7071068,11.2928932 L16.7071068,15.2928932 C17.0976311,15.6834175 17.0976311,16.3165825 16.7071068,16.7071068 C16.5569051,16.8573085 16.3708099,16.9497402 16.1764315,16.9844022 L16.0590314,16.9982669 L16.0590314,16.9982669 L15.9409686,16.9982669 C15.705064,16.9844022 15.4731352,16.8873488 15.2928932,16.7071068 L15.2928932,16.7071068 L12.999539,14.414207 L13,21 C13,21.5128359 12.6139598,21.9355072 12.1166211,21.9932723 L12,22 C11.4477152,22 11,21.5522848 11,21 L11,21 L10.999539,14.414207 L8.70710677,16.7071068 C8.55690512,16.8573085 8.37080987,16.9497402 8.17643149,16.9844022 L8.05903137,16.9982669 L8.05903137,16.9982669 L7.9409686,16.9982669 C7.70506394,16.9844022 7.47313518,16.8873488 7.2928932,16.7071068 C6.90236891,16.3165825 6.90236891,15.6834175 7.2928932,15.2928932 L7.2928932,15.2928932 L11.2928932,11.2928932 L11.2928932,11.2928932 L11.374551,11.2196888 C11.3758339,11.2186591 11.3771194,11.2176326 11.3784075,11.2166092 C11.3917355,11.20595 11.4048869,11.1960229 11.4182204,11.1864634 C11.4328725,11.1760499 11.448244,11.1656569 11.4639118,11.155688 L11.4763211,11.1478169 C11.4803991,11.1453062 11.4844912,11.1428275 11.4885971,11.1403808 L11.5122503,11.1268107 C11.5332887,11.1150337 11.5547964,11.1039951 11.5767381,11.0937299 C11.5954049,11.0849726 11.6144279,11.0768053 11.6336374,11.0692553 C11.6430356,11.0655339 11.6528524,11.0618406 11.6627412,11.0582986 L11.6807792,11.0520863 C11.7009246,11.0453193 11.7212427,11.0392117 11.7417,11.0337634 C11.7509949,11.0311957 11.7608238,11.0287299 11.7707092,11.0264107 L11.7964792,11.0208141 C11.814753,11.0170337 11.833112,11.0137683 11.8515331,11.0110178 C11.9001341,11.0037238 11.9496322,11 12,11 L11.9147758,11.003616 C11.9321496,11.0021388 11.9495547,11.0011142 11.9669718,11.0005422 L12,11 C12.0111266,11 12.0222108,11.0001817 12.0332497,11.0005423 L12.0590314,11.0017331 L12.0590314,11.0017331 Z M1.01325584,6.84348524 C2.73486542,3.53957415 6.31413915,1.63792216 10.0156454,2.06055629 C13.4556974,2.45333784 16.3403557,4.77818341 17.4792612,8.00000011 L17.4792612,8.00000011 L18.0006603,8.0000002 C20.7428747,8.0018107 23.1349095,9.86254379 23.8113088,12.520029 C24.4877082,15.1775141 23.2763257,17.9554109 20.8686603,19.2680002 C20.3837541,19.532357 19.7763566,19.3535664 19.5119998,18.8686603 C19.2476431,18.3837541 19.4264337,17.7763566 19.9113398,17.5119998 C21.5164501,16.6369403 22.3240384,14.7850091 21.8731055,13.0133523 C21.4221726,11.2416955 19.8274828,10.0012068 18,9.99999999 L18,9.99999999 L16.74,9.99999999 C16.2841199,9.99999999 15.8859437,9.6916751 15.7718336,9.25030724 C15.0465296,6.44489515 12.6677109,4.37636099 9.78876161,4.04764556 C6.90981231,3.71893013 4.12593274,5.19799278 2.78690307,7.76770141 C1.44787339,10.33741 1.83052757,13.4664974 3.74933351,15.6378073 C4.11505247,16.0516528 4.0760382,16.6836146 3.66219271,17.0493336 C3.24834722,17.4150525 2.61638537,17.3760383 2.25066641,16.9621928 C-0.216369798,14.1705086 -0.708353748,10.1473963 1.01325584,6.84348524 Z" id="Shape" fill="#000000"></path>
    </g>
</svg>