<?xml version="1.0" encoding="UTF-8"?>
<svg width="24px" height="24px" viewBox="0 0 24 24" version="1.1" xmlns="http://www.w3.org/2000/svg" xmlns:xlink="http://www.w3.org/1999/xlink">
    <title>feather-icon/user-check</title>
    <g id="feather-icon/user-check" stroke="none" stroke-width="1" fill="none" fill-rule="evenodd">
        <rect id="Bounding-Box" fill-opacity="0" fill="#FFFFFF" x="0" y="0" width="24" height="24"></rect>
        <path d="M11.9999999,14 C14.7614238,14 16.9999999,16.2385763 16.9999999,19 L16.9999999,19 L16.9999999,21 C16.9999999,21.5522848 16.5522848,22 15.9999999,22 C15.4477153,22 14.9999999,21.5522848 14.9999999,21 L14.9999999,21 L14.9999999,19 C14.9999999,17.3431458 13.6568543,16 11.9999999,16 L11.9999999,16 L4.99999995,16 C3.34314571,16 1.99999995,17.3431458 1.99999995,19 L1.99999995,19 L1.99999995,21 C1.99999995,21.5522848 1.55228471,22 0.99999995,22 C0.447715202,22 -5.00000006e-08,21.5522848 -5.00000006e-08,21 L-5.00000006e-08,21 L-5.00000006e-08,19 C-5.00000006e-08,16.2385763 2.23857621,14 4.99999995,14 L4.99999995,14 Z M22.2928933,8.2928932 C22.6834176,7.90236891 23.3165825,7.90236891 23.7071068,8.2928932 C24.0976311,8.6834175 24.0976311,9.31658248 23.7071068,9.70710677 L23.7071068,9.70710677 L19.7071068,13.7071068 C19.3165825,14.0976311 18.6834175,14.0976311 18.2928932,13.7071068 L18.2928932,13.7071068 L16.2928932,11.7071068 C15.9023689,11.3165825 15.9023689,10.6834175 16.2928932,10.2928932 C16.6834175,9.90236892 17.3165825,9.90236892 17.7071068,10.2928932 L17.7071068,10.2928932 L19,11.5857864 Z M8.49999996,1.99999996 C11.2614237,1.99999996 13.5,4.23857622 13.5,6.99999996 C13.5,9.76142374 11.2614237,12 8.49999996,12 C5.73857622,12 3.49999996,9.76142374 3.49999996,6.99999996 C3.49999996,4.23857622 5.73857622,1.99999996 8.49999996,1.99999996 Z M8.49999997,3.99999997 C6.84314573,3.99999997 5.49999997,5.34314572 5.49999997,6.99999997 C5.49999997,8.65685424 6.84314573,9.99999997 8.49999997,9.99999997 C10.1568542,9.99999997 11.5,8.65685424 11.5,6.99999997 C11.5,5.34314572 10.1568542,3.99999997 8.49999997,3.99999997 Z" id="Shape" fill="#000000"></path>
    </g>
</svg>