<?xml version="1.0" encoding="UTF-8"?>
<svg width="24px" height="24px" viewBox="0 0 24 24" version="1.1" xmlns="http://www.w3.org/2000/svg" xmlns:xlink="http://www.w3.org/1999/xlink">
    <title>feather-icon/users</title>
    <g id="feather-icon/users" stroke="none" stroke-width="1" fill="none" fill-rule="evenodd">
        <rect id="Bounding-Box" fill-opacity="0" fill="#FFFFFF" x="0" y="0" width="24" height="24"></rect>
        <path d="M12.9999999,14 C15.7614238,14 17.9999999,16.2385763 17.9999999,19 L17.9999999,19 L17.9999999,21 C17.9999999,21.5522848 17.5522848,22 16.9999999,22 C16.4477153,22 15.9999999,21.5522848 15.9999999,21 L15.9999999,21 L15.9999999,19 C15.9999999,17.3431458 14.6568543,16 12.9999999,16 L12.9999999,16 L4.99999995,16 C3.34314571,16 1.99999995,17.3431458 1.99999995,19 L1.99999995,19 L1.99999995,21 C1.99999995,21.5522848 1.55228471,22 0.99999995,22 C0.447715202,22 -5.00000006e-08,21.5522848 -5.00000006e-08,21 L-5.00000006e-08,21 L-5.00000006e-08,19 C-5.00000006e-08,16.2385763 2.23857621,14 4.99999995,14 L4.99999995,14 Z M19.0317541,14.8800003 C19.1698252,14.3452528 19.7152523,14.0236831 20.2499998,14.1617541 C22.4562482,14.7314043 23.9983001,16.7206513 24.0000001,19 L24.0000001,19 L24.0000001,21 C24.0000001,21.5522848 23.5522848,22 23,22 C22.4477153,22 22,21.5522848 22,21 L22,21 L22.0000003,19.0007459 C21.9989805,17.6335842 21.0737494,16.4400361 19.7500003,16.0982459 C19.2152529,15.9601749 18.8936831,15.4147477 19.0317541,14.8800003 Z M8.99999997,1.99999996 C11.7614237,1.99999996 14,4.23857622 14,6.99999996 C14,9.76142374 11.7614237,12 8.99999997,12 C6.23857623,12 3.99999997,9.76142374 3.99999997,6.99999996 C3.99999997,4.23857622 6.23857623,1.99999996 8.99999997,1.99999996 Z M15.03125,2.88196078 C15.1682383,2.34693492 15.7130133,2.0242617 16.2480392,2.16124996 C18.4604327,2.7277122 20.0078433,4.7212389 20.0078433,7.00499998 C20.0078433,9.28876105 18.4604327,11.2822878 16.2480392,11.84875 C15.7130133,11.9857383 15.1682383,11.663065 15.03125,11.1280392 C14.8942618,10.5930133 15.216935,10.0482383 15.7519608,9.91124999 C17.079397,9.57137265 18.0078433,8.37525662 18.0078433,7.00499998 C18.0078433,5.63474333 17.079397,4.43862731 15.7519608,4.09874997 C15.216935,3.96176171 14.8942618,3.41698663 15.03125,2.88196078 Z M8.99999998,3.99999997 C7.34314573,3.99999997 5.99999998,5.34314572 5.99999998,6.99999997 C5.99999998,8.65685424 7.34314573,9.99999997 8.99999998,9.99999997 C10.6568542,9.99999997 12,8.65685424 12,6.99999997 C12,5.34314572 10.6568542,3.99999997 8.99999998,3.99999997 Z" id="Shape" fill="#000000"></path>
    </g>
</svg>