<?xml version="1.0" encoding="UTF-8"?>
<svg width="24px" height="24px" viewBox="0 0 24 24" version="1.1" xmlns="http://www.w3.org/2000/svg" xmlns:xlink="http://www.w3.org/1999/xlink">
    <title>feather-icon/user-plus</title>
    <g id="feather-icon/user-plus" stroke="none" stroke-width="1" fill="none" fill-rule="evenodd">
        <rect id="Bounding-Box" fill-opacity="0" fill="#FFFFFF" x="0" y="0" width="24" height="24"></rect>
        <path d="M11.9999999,14 C14.7614238,14 16.9999999,16.2385763 16.9999999,19 L16.9999999,19 L16.9999999,21 C16.9999999,21.5522848 16.5522848,22 15.9999999,22 C15.4477153,22 14.9999999,21.5522848 14.9999999,21 L14.9999999,21 L14.9999999,19 C14.9999999,17.3431458 13.6568543,16 11.9999999,16 L11.9999999,16 L4.99999995,16 C3.34314571,16 1.99999995,17.3431458 1.99999995,19 L1.99999995,19 L1.99999995,21 C1.99999995,21.5522848 1.55228471,22 0.99999995,22 C0.447715202,22 -5.00000059e-08,21.5522848 -5.00000059e-08,21 L-5.00000059e-08,21 L-5.00000059e-08,19 C-5.00000059e-08,16.2385763 2.23857621,14 4.99999995,14 L4.99999995,14 Z M20,6.99999998 C20.5522848,6.99999998 21,7.44771523 21,7.99999998 L21,7.99999998 L20.9999999,9.99999996 L23,9.99999999 C23.5128359,9.99999999 23.9355072,10.3860402 23.9932723,10.8833789 L24,11 C24,11.5522847 23.5522848,12 23,12 L23,12 L20.9999999,12 L21,14 C21,14.5128358 20.6139598,14.9355071 20.1166212,14.9932722 L20,15 C19.4477153,15 19,14.5522848 19,14 L19,14 L18.9999999,12 L17,12 C16.4871642,12 16.0644929,11.6139598 16.0067277,11.1166211 L16,11 C16,10.4477152 16.4477153,9.99999999 17,9.99999999 L17,9.99999999 L18.9999999,9.99999996 L19,7.99999998 C19,7.48716414 19.3860402,7.06449282 19.8833789,7.00672771 Z M8.49999996,1.99999996 C11.2614237,1.99999996 13.5,4.23857622 13.5,6.99999996 C13.5,9.76142374 11.2614237,12 8.49999996,12 C5.73857622,12 3.49999996,9.76142374 3.49999996,6.99999996 C3.49999996,4.23857622 5.73857622,1.99999996 8.49999996,1.99999996 Z M8.49999997,3.99999997 C6.84314573,3.99999997 5.49999997,5.34314572 5.49999997,6.99999997 C5.49999997,8.65685424 6.84314573,9.99999997 8.49999997,9.99999997 C10.1568542,9.99999997 11.5,8.65685424 11.5,6.99999997 C11.5,5.34314572 10.1568542,3.99999997 8.49999997,3.99999997 Z" id="Shape" fill="#000000"></path>
    </g>
</svg>