<?xml version="1.0" encoding="UTF-8"?>
<svg width="24px" height="24px" viewBox="0 0 24 24" version="1.1" xmlns="http://www.w3.org/2000/svg" xmlns:xlink="http://www.w3.org/1999/xlink">
    <title>feather-icon/video-off</title>
    <g id="feather-icon/video-off" stroke="none" stroke-width="1" fill="none" fill-rule="evenodd">
        <rect id="Bounding-Box" fill-opacity="0" fill="#FFFFFF" x="0" y="0" width="24" height="24"></rect>
        <path d="M0.29289317,0.29289317 C0.683417463,-0.0976311233 1.31658244,-0.0976311233 1.70710674,0.29289317 L1.70710674,0.29289317 L23.7071068,22.2928933 C24.0976311,22.6834176 24.0976311,23.3165825 23.7071068,23.7071068 C23.3165825,24.0976311 22.6834176,24.0976311 22.2928933,23.7071068 L22.2928933,23.7071068 L16.7608093,18.1758252 C16.3253075,19.1970661 15.3397269,19.9274953 14.1762728,19.9949073 L13.9999999,20 L2.99999995,20 C1.40231907,20 0.096339071,18.7510801 0.00509264343,17.1762728 L-5.00000041e-08,17 L-5.00000041e-08,6.99999997 C-5.00000041e-08,5.47498813 1.13789173,4.21574516 2.61095064,4.02499571 L0.29289317,1.70710674 C-0.0976311233,1.31658244 -0.0976311233,0.683417463 0.29289317,0.29289317 Z M4.58499995,5.99999995 L2.99999995,5.99999997 C2.48716412,5.99999997 2.0644928,6.38604017 2.00672769,6.88337885 L1.99999995,6.99999997 L1.99999995,17 C1.99999995,17.5128359 2.38604015,17.9355072 2.88337884,17.9932723 L2.99999995,18 L13.9999999,18 C14.5128358,18 14.9355072,17.6139598 14.9932723,17.1166211 L14.9999999,17 L14.9989999,16.414 L4.58499995,5.99999995 Z M14,3.99999997 C15.5976809,3.99999997 16.9036609,5.24891994 16.9949073,6.82372719 L17,6.99999997 L17,9.92578643 L17.1044657,10.0302521 L22.413918,6.18974828 C23.0436792,5.73422102 23.9125184,6.14105699 23.993837,6.88581709 L24,6.99999997 L24,17 C24,17.5522848 23.5522848,18 23,18 C22.4871642,18 22.0644929,17.6139598 22.0067278,17.1166211 L22,17 L22,8.95751771 L17.5860821,12.1502517 C17.2213299,12.4140891 16.7304449,12.3993469 16.3836871,12.127581 L16.2928932,12.0471068 L15.2928932,11.0471068 C15.1366129,10.8908265 15.0374017,10.6881451 15.0086724,10.471444 L15,10.34 L15,6.99999997 C15,6.48716414 14.6139598,6.06449281 14.1166211,6.00672771 L14,5.99999997 L10.66,5.99999997 C10.1077152,5.99999997 9.65999999,5.55228472 9.65999999,4.99999997 C9.65999999,4.48716413 10.0460402,4.06449281 10.5433789,4.0067277 L10.66,3.99999997 L14,3.99999997 Z" id="Shape" fill="#000000"></path>
    </g>
</svg>