<?xml version="1.0" encoding="UTF-8"?>
<svg width="24px" height="24px" viewBox="0 0 24 24" version="1.1" xmlns="http://www.w3.org/2000/svg" xmlns:xlink="http://www.w3.org/1999/xlink">
    <title>feather-icon/video</title>
    <g id="feather-icon/video" stroke="none" stroke-width="1" fill="none" fill-rule="evenodd">
        <rect id="Bounding-Box" fill-opacity="0" fill="#FFFFFF" x="0" y="0" width="24" height="24"></rect>
        <path d="M14,3.99999997 C15.6568543,3.99999997 17,5.34314572 17,6.99999997 L16.9999999,10.056 L22.4187618,6.1862665 C23.0806303,5.71350331 24,6.18662742 24,6.99999998 L24,17 C24,17.8133726 23.0806303,18.2864967 22.4187618,17.8137335 L16.9999999,13.943 L17,17 C17,18.6568543 15.6568543,20 14,20 L2.99999995,20 C1.34314571,20 -4.99999775e-08,18.6568543 -4.99999775e-08,17 L-4.99999775e-08,6.99999997 C-4.99999775e-08,5.34314572 1.34314571,3.99999997 2.99999995,3.99999997 L14,3.99999997 Z M14,5.99999998 L2.99999996,5.99999998 C2.44771521,5.99999998 1.99999996,6.44771523 1.99999996,6.99999998 L1.99999996,17 C1.99999996,17.5522848 2.44771521,18 2.99999996,18 L14,18 C14.5522848,18 15,17.5522848 15,17 L15,6.99999998 C15,6.44771523 14.5522848,5.99999998 14,5.99999998 Z M22,8.94318931 L17.7204651,12 L22,15.0568107 L22,8.94318931 Z" id="Shape" fill="#000000"></path>
    </g>
</svg>