<?xml version="1.0" encoding="UTF-8"?>
<svg width="24px" height="24px" viewBox="0 0 24 24" version="1.1" xmlns="http://www.w3.org/2000/svg" xmlns:xlink="http://www.w3.org/1999/xlink">
    <title>feather-icon/volume-1</title>
    <g id="feather-icon/volume-1" stroke="none" stroke-width="1" fill="none" fill-rule="evenodd">
        <rect id="Bounding-Box" fill-opacity="0" fill="#FFFFFF" x="0" y="0" width="24" height="24"></rect>
        <path d="M12,4.99999997 L12,19 C12,19.8385062 11.0300683,20.3046795 10.3753049,19.7808688 L5.64921891,16 L1.99999995,16 C1.44771521,16 0.999999954,15.5522848 0.999999954,15 L0.999999954,8.99999999 C0.999999954,8.44771524 1.44771521,7.99999998 1.99999995,7.99999998 L5.64921891,7.99999998 L10.3753049,4.21913116 C11.0300683,3.69532048 12,4.16149376 12,4.99999997 Z M9.99999996,7.08062483 L6.62469503,9.7808688 C6.44738198,9.92271924 6.22707147,9.99999999 5.99999996,9.99999999 L2.99999996,9.99999999 L2.99999996,14 L5.99999996,14 C6.22707147,14 6.44738198,14.0772808 6.62469503,14.2191312 L9.99999996,16.9193752 L9.99999996,7.08062483 Z M14.833,7.75278644 C15.2235833,7.36232112 15.8567482,7.36241672 16.2472136,7.75299998 C18.5895052,10.0959991 18.5895052,13.8940009 16.2472136,16.237 C15.8567482,16.6275833 15.2235833,16.6276789 14.833,16.2372136 C14.4424168,15.8467482 14.4423211,15.2135833 14.8327865,14.823 C16.3943142,13.2610006 16.3943142,10.7289994 14.8327865,9.16699999 C14.4423211,8.77641673 14.4424168,8.14325176 14.833,7.75278644 Z" id="Shape" fill="#000000"></path>
    </g>
</svg>