<?xml version="1.0" encoding="UTF-8"?>
<svg width="24px" height="24px" viewBox="0 0 24 24" version="1.1" xmlns="http://www.w3.org/2000/svg" xmlns:xlink="http://www.w3.org/1999/xlink">
    <title>feather-icon/volume-x</title>
    <g id="feather-icon/volume-x" stroke="none" stroke-width="1" fill="none" fill-rule="evenodd">
        <rect id="Bounding-Box" fill-opacity="0" fill="#FFFFFF" x="0" y="0" width="24" height="24"></rect>
        <path d="M12,4.99999997 L12,19 C12,19.8385062 11.0300683,20.3046795 10.3753049,19.7808688 L5.64921891,16 L1.99999995,16 C1.44771521,16 0.999999954,15.5522848 0.999999954,15 L0.999999954,8.99999999 C0.999999954,8.44771524 1.44771521,7.99999998 1.99999995,7.99999998 L5.64921891,7.99999998 L10.3753049,4.21913116 C11.0300683,3.69532048 12,4.16149376 12,4.99999997 Z M9.99999996,7.08062483 L6.62469503,9.7808688 C6.44738198,9.92271924 6.22707147,9.99999999 5.99999996,9.99999999 L2.99999996,9.99999999 L2.99999996,14 L5.99999996,14 C6.22707147,14 6.44738198,14.0772808 6.62469503,14.2191312 L9.99999996,16.9193752 L9.99999996,7.08062483 Z M16.2928932,8.2928932 C16.6834175,7.90236891 17.3165825,7.90236891 17.7071068,8.2928932 L17.7071068,8.2928932 L20,10.5851227 L22.2928933,8.2928932 C22.6533772,7.93240924 23.2206083,7.9046797 23.6128995,8.2097046 L23.7071068,8.2928932 C24.0976311,8.6834175 24.0976311,9.31658248 23.7071068,9.70710677 L23.7071068,9.70710677 L21.414,11.9991227 L23.7071068,14.2928932 C24.0675908,14.6533772 24.0953203,15.2206082 23.7902954,15.6128995 L23.7071068,15.7071068 C23.3165825,16.0976311 22.6834176,16.0976311 22.2928933,15.7071068 L22.2928933,15.7071068 L20,13.4141227 L17.7071068,15.7071068 C17.3466228,16.0675908 16.7793918,16.0953203 16.3871006,15.7902954 L16.2928932,15.7071068 C15.9023689,15.3165825 15.9023689,14.6834175 16.2928932,14.2928932 L16.2928932,14.2928932 L18.585,11.9991227 L16.2928932,9.70710677 C15.9324093,9.34662281 15.9046797,8.77939175 16.2097046,8.38710054 Z" id="Shape" fill="#000000"></path>
    </g>
</svg>