<?xml version="1.0" encoding="UTF-8"?>
<svg width="24px" height="24px" viewBox="0 0 24 24" version="1.1" xmlns="http://www.w3.org/2000/svg" xmlns:xlink="http://www.w3.org/1999/xlink">
    <title>feather-icon/watch</title>
    <g id="feather-icon/watch" stroke="none" stroke-width="1" fill="none" fill-rule="evenodd">
        <rect id="Bounding-Box" fill-opacity="0" fill="#FFFFFF" x="0" y="0" width="24" height="24"></rect>
        <path d="M14.1759587,-3.35567973e-05 C15.6729684,-0.00605862872 16.935229,1.08997752 17.1545854,2.55186045 L17.1758505,2.72899535 L17.4921169,6.1830437 C19.0363371,7.64154986 20,9.70823715 20,12 C20,14.3026149 19.0271891,16.3780176 17.4701411,17.8376345 L17.1559425,21.2699918 C17.021223,22.7609384 15.8113582,23.9145513 14.3380141,23.9954989 L14.16,24.0000583 L9.83404135,24.0000583 C8.33703164,24.0060586 7.07477104,22.9100225 6.85541462,21.4481395 L6.83414951,21.2710047 L6.51886123,17.8273056 C4.96823146,16.3682351 3.99999997,14.2971889 3.99999997,12 C3.99999997,9.69738507 4.97281085,7.62198232 6.5298589,6.16236545 L6.84405817,2.7300004 C6.97829066,1.24457364 8.18005364,0.0930567504 9.65210719,0.00535445289 L9.82999999,-3.35567973e-05 L14.1759587,-3.35567973e-05 Z M8.65921367,19.271185 L8.8259425,21.0900083 C8.86905305,21.5671145 9.24245503,21.9405952 9.71101391,21.9935746 L9.82999999,22.0000168 L14.1640414,22.000025 C14.6430964,22.001961 15.0500325,21.6653297 15.1466091,21.2062038 L15.1641495,21.0889954 L15.3307727,19.275785 C14.3166919,19.7407788 13.1886181,20 12,20 C10.807468,20 9.67587982,19.7390689 8.65921367,19.271185 Z M12,5.99999998 C10.5403679,5.99999998 9.20247049,6.52120831 8.16226915,7.38766367 C8.14359561,7.40732192 8.12294882,7.42465988 8.101634,7.44114595 C6.81470318,8.54049779 5.99999997,10.1751068 5.99999997,12 C5.99999997,15.3137085 8.68629149,18 12,18 C13.4596321,18 14.7975295,17.4787916 15.8377308,16.6123363 C15.8554827,16.5935174 15.8751425,16.5769459 15.8954123,16.5611474 C17.1840355,15.4620318 18,13.8263052 18,12 C18,8.68629149 15.3137085,5.99999998 12,5.99999998 Z M12,7.99999998 C12.5522848,7.99999998 13,8.44771524 13,8.99999998 L13,8.99999998 L13,11.5857864 L14.2071068,12.7928932 C14.5976311,13.1834175 14.5976311,13.8165825 14.2071068,14.2071068 C13.8165825,14.5976311 13.1834175,14.5976311 12.7928932,14.2071068 L12.7928932,14.2071068 L11.2928932,12.7071068 C11.1053568,12.5195704 11,12.2652165 11,12 L11,12 L11,8.99999998 C11,8.44771524 11.4477152,7.99999998 12,7.99999998 Z M14.18,1.99998321 L9.83095799,1.99998275 C9.3536724,2.00043999 8.94935547,2.33667673 8.85330476,2.79421658 L8.83585046,2.91100457 L8.66922722,4.72421493 C9.68330803,4.25922117 10.8113818,3.99999997 12,3.99999997 C13.1968371,3.99999997 14.3322897,4.26281844 15.3517926,4.73389033 L15.1840575,2.90999173 C15.140947,2.43288553 14.767545,2.05940482 14.2989861,2.00642544 L14.18,1.99998321 Z" id="Shape" fill="#000000"></path>
    </g>
</svg>