<?xml version="1.0" encoding="UTF-8"?>
<svg width="24px" height="24px" viewBox="0 0 24 24" version="1.1" xmlns="http://www.w3.org/2000/svg" xmlns:xlink="http://www.w3.org/1999/xlink">
    <title>feather-icon/wifi</title>
    <g id="feather-icon/wifi" stroke="none" stroke-width="1" fill="none" fill-rule="evenodd">
        <rect id="Bounding-Box" fill-opacity="0" fill="#FFFFFF" x="0" y="0" width="24" height="24"></rect>
        <path d="M11.2928932,19.2928932 C11.6834175,18.902369 12.3165825,18.902369 12.7071068,19.2928932 C13.0976311,19.6834175 13.0976311,20.3165825 12.7071068,20.7071068 C12.3165825,21.0976311 11.6834175,21.0976311 11.2928932,20.7071068 C10.9023689,20.3165825 10.9023689,19.6834175 11.2928932,19.2928932 Z M7.95083332,15.2947909 C10.3784645,13.5700763 13.6315355,13.5700763 16.0591667,15.2947909 C16.5093943,15.6146558 16.6150741,16.2389391 16.2952092,16.6891667 C15.9753443,17.1393943 15.3510609,17.2450741 14.9008333,16.9252092 C13.166811,15.6932702 10.843189,15.6932702 9.10916665,16.9252092 C8.65893907,17.2450741 8.03465574,17.1393943 7.71479082,16.6891667 C7.3949259,16.2389391 7.50060573,15.6146558 7.95083332,15.2947909 Z M4.35999997,11.7816251 C8.8093727,8.07562361 15.2706273,8.07562361 19.72,11.7816251 C20.1443618,12.1350873 20.2018372,12.7656383 19.8483749,13.19 C19.4949127,13.6143618 18.8643618,13.6718372 18.44,13.3183749 C14.7321894,10.2300403 9.34781058,10.2300403 5.63999997,13.3183749 C5.21563823,13.6718372 4.5850873,13.6143618 4.23162506,13.19 C3.87816282,12.7656383 3.93563822,12.1350873 4.35999997,11.7816251 Z M0.758749953,8.24983438 C7.18313184,2.58692144 16.8168682,2.58692144 23.24125,8.24983438 C23.6555551,8.61503267 23.6953639,9.24694496 23.3301657,9.66124999 C22.9649674,10.075555 22.3330551,10.1153639 21.91875,9.7501656 C16.2501778,4.75347771 7.74982221,4.75347771 2.08124996,9.7501656 C1.66694493,10.1153639 1.03503264,10.075555 0.669834346,9.66124999 C0.304636054,9.24694496 0.344444927,8.61503267 0.758749953,8.24983438 Z" id="Shape" fill="#000000"></path>
    </g>
</svg>