<?xml version="1.0" encoding="UTF-8"?>
<svg width="24px" height="24px" viewBox="0 0 24 24" version="1.1" xmlns="http://www.w3.org/2000/svg" xmlns:xlink="http://www.w3.org/1999/xlink">
    <title>feather-icon/wifi-off</title>
    <g id="feather-icon/wifi-off" stroke="none" stroke-width="1" fill="none" fill-rule="evenodd">
        <rect id="Bounding-Box" fill-opacity="0" fill="#FFFFFF" x="0" y="0" width="24" height="24"></rect>
        <path d="M0.29289317,0.29289317 C0.683417463,-0.0976311233 1.31658244,-0.0976311233 1.70710674,0.29289317 L1.70710674,0.29289317 L10.8013872,9.38451414 C10.8539995,9.4273144 10.902349,9.47549108 10.9455152,9.52839295 L23.7071068,22.2928933 C24.0976311,22.6834176 24.0976311,23.3165825 23.7071068,23.7071068 C23.3165825,24.0976311 22.6834176,24.0976311 22.2928933,23.7071068 L22.2928933,23.7071068 L15.6749481,17.0908162 C15.414586,17.1425181 15.1343068,17.0910808 14.9008333,16.9252092 C13.166811,15.6932702 10.843189,15.6932702 9.10916665,16.9252092 C8.65893907,17.2450741 8.03465574,17.1393943 7.71479082,16.6891667 C7.3949259,16.2389391 7.50060573,15.6146558 7.95083332,15.2947909 C9.33813281,14.3091817 10.9949954,13.8868109 12.6133308,14.0276785 L9.83179024,11.2461462 C8.29267367,11.5930355 6.85562284,12.3019931 5.64143682,13.3171758 C5.2177373,13.6714316 4.58707992,13.6151364 4.23282413,13.1914369 C3.87856834,12.7677373 3.9348636,12.1370799 4.35856312,11.7828242 C5.50153171,10.8271864 6.80890783,10.0974512 8.21085619,9.62590199 L5.8877739,7.30175603 C4.50331527,7.91873016 3.21983207,8.74374573 2.08228358,9.74925322 C1.66848245,10.1150224 1.03651587,10.0760847 0.670746722,9.66228361 C0.304977576,9.24848248 0.343915196,8.6165159 0.757716331,8.25074675 C1.85726763,7.27882593 3.0770409,6.45559551 4.38546977,5.80039827 L0.29289317,1.70710674 C-0.0976311233,1.31658244 -0.0976311233,0.683417463 0.29289317,0.29289317 Z M11.2928932,19.2928932 C11.6834175,18.902369 12.3165825,18.902369 12.7071068,19.2928932 C13.0976311,19.6834175 13.0976311,20.3165825 12.7071068,20.7071068 C12.3165825,21.0976311 11.6834175,21.0976311 11.2928932,20.7071068 C10.9023689,20.3165825 10.9023689,19.6834175 11.2928932,19.2928932 Z M15.8213135,10.6214084 C16.063541,10.1250775 16.6622608,9.91908605 17.1585917,10.1613135 C18.0525645,10.5976047 18.8885114,11.1439034 19.6470012,11.787511 C20.0681122,12.1448398 20.1198179,12.7758901 19.7624891,13.1970011 C19.4051602,13.6181122 18.77411,13.6698179 18.3529989,13.312489 C17.7215593,12.7766884 17.025637,12.3218971 16.2814084,11.9586865 C15.7850775,11.716459 15.5790861,11.1177392 15.8213135,10.6214084 Z M10.6296826,4.05323063 C15.2289961,3.68262851 19.7813798,5.19753294 23.2415577,8.25010564 C23.6557129,8.61547383 23.6952626,9.2474024 23.3298944,9.66155761 C22.9645262,10.0757128 22.3325976,10.1152625 21.9184424,9.74989433 C18.8653443,7.05644783 14.8485352,5.71976744 10.7903174,6.04676932 C10.2398169,6.09112738 9.75758872,5.68081786 9.71323065,5.13031736 C9.66887258,4.57981685 10.0791821,4.09758869 10.6296826,4.05323063 Z" id="Shape" fill="#000000"></path>
    </g>
</svg>