<?xml version="1.0" encoding="UTF-8"?>
<svg width="24px" height="24px" viewBox="0 0 24 24" version="1.1" xmlns="http://www.w3.org/2000/svg" xmlns:xlink="http://www.w3.org/1999/xlink">
    <title>feather-icon/wind</title>
    <g id="feather-icon/wind" stroke="none" stroke-width="1" fill="none" fill-rule="evenodd">
        <rect id="Bounding-Box" fill-opacity="0" fill="#FFFFFF" x="0" y="0" width="24" height="24"></rect>
        <path d="M1.99999995,14.9999645 L13.9958211,14.9999645 C15.3562826,14.9943056 16.5502674,15.9048028 16.9047633,17.2182772 C17.2592613,18.5317596 16.6855028,19.9193599 15.5069015,20.5989215 C14.3283003,21.2784831 12.8399516,21.0798591 11.8808015,20.1150088 C11.4914358,19.7233293 11.4933116,19.0901671 11.8849912,18.7008015 C12.2465415,18.3413871 12.8138523,18.3153381 13.2052381,18.6215239 L13.3905575,18.7863444 C13.7082649,19.0362265 14.1507467,19.0722232 14.5078986,18.8662954 C14.9007657,18.6397749 15.0920185,18.1772415 14.9738525,17.739414 C14.8664285,17.3413876 14.5277329,17.0543714 14.1231771,17.0069066 L14,16.9999822 L1.99999995,16.9999822 C1.44771521,16.9999822 0.999999954,16.552267 0.999999954,15.9999822 C0.999999954,15.4871464 1.38604015,15.064475 1.88337883,15.0067099 L1.99999995,14.9999645 L13.9958211,14.9999645 L1.99999995,14.9999645 Z M17.0237892,7.02199838 C18.1444105,5.90421152 19.8757337,5.67761173 21.2462781,6.46934879 C22.6168225,7.26108584 23.2854437,8.87408718 22.8769646,10.4032649 C22.4855056,11.8687268 21.1982134,12.9076332 19.6969715,12.9941584 L19.5,13 L1.99999995,13 C1.44771521,13 0.999999954,12.5522848 0.999999954,12 C0.999999954,11.4871642 1.38604015,11.0644928 1.88337883,11.0067277 L1.99999995,11 L19.4982109,11.0000016 C20.1765504,10.9987879 20.7696522,10.5424777 20.9447146,9.8871158 C21.1197771,9.23175393 20.8332251,8.54046764 20.245849,8.20115176 C19.6584728,7.86183588 18.9164771,7.95895007 18.4362109,8.43800159 C18.0451924,8.82803106 17.4120279,8.8272293 17.0219984,8.43621081 C16.6319689,8.04519232 16.6327707,7.41202785 17.0237892,7.02199838 Z M8.88080144,3.88499115 C9.83995161,2.92014094 11.3283003,2.72151688 12.5069015,3.4010785 C13.6855028,4.08064012 14.2592613,5.46824036 13.9047633,6.78172281 C13.5663809,8.03549381 12.4630922,8.92208929 11.183878,8.99516131 L11,9.0000178 L1.99999995,9.0000178 C1.44771521,9.0000178 0.999999954,8.55230255 0.999999954,8.0000178 C0.999999954,7.48718196 1.38604015,7.06451063 1.88337883,7.00674553 L1.99999995,7.0000178 L11.0041789,7.00002653 C11.4576811,7.00192168 11.8556861,6.69841501 11.9738525,6.260586 C12.0920185,5.82275852 11.9007657,5.36022511 11.5078986,5.13370457 C11.1507467,4.9277768 10.7082649,4.96377347 10.3905574,5.21365562 L10.2052381,5.37847613 C9.81385224,5.68466187 9.24654152,5.65861293 8.88499117,5.29919851 C8.49331163,4.9098329 8.49143583,4.27667069 8.88080144,3.88499115 Z" id="Shape" fill="#000000"></path>
    </g>
</svg>