<?xml version="1.0" encoding="UTF-8"?>
<svg width="24px" height="24px" viewBox="0 0 24 24" version="1.1" xmlns="http://www.w3.org/2000/svg" xmlns:xlink="http://www.w3.org/1999/xlink">
    <title>feather-icon/x-square</title>
    <g id="feather-icon/x-square" stroke="none" stroke-width="1" fill="none" fill-rule="evenodd">
        <rect id="Bounding-Box" fill-opacity="0" fill="#FFFFFF" x="0" y="0" width="24" height="24"></rect>
        <path d="M19,1.99999996 C20.6568543,1.99999996 22,3.34314571 22,4.99999996 L22,19 C22,20.6568543 20.6568543,22 19,22 L4.99999996,22 C3.34314571,22 1.99999996,20.6568543 1.99999996,19 L1.99999996,4.99999996 C1.99999996,3.34314571 3.34314571,1.99999996 4.99999996,1.99999996 L19,1.99999996 Z M19,3.99999997 L4.99999997,3.99999997 C4.44771522,3.99999997 3.99999997,4.44771522 3.99999997,4.99999997 L3.99999997,19 C3.99999997,19.5522848 4.44771522,20 4.99999997,20 L19,20 C19.5522848,20 20,19.5522848 20,19 L20,4.99999997 C20,4.44771522 19.5522848,3.99999997 19,3.99999997 Z M8.2928932,8.2928932 C8.6834175,7.90236891 9.31658248,7.90236891 9.70710677,8.2928932 L9.70710677,8.2928932 L12,10.585 L14.2928932,8.2928932 C14.6533772,7.93240924 15.2206082,7.9046797 15.6128995,8.2097046 L15.7071068,8.2928932 C16.0976311,8.6834175 16.0976311,9.31658248 15.7071068,9.70710677 L15.7071068,9.70710677 L13.415,12 L15.7071068,14.2928932 C16.0675908,14.6533772 16.0953203,15.2206082 15.7902954,15.6128995 L15.7071068,15.7071068 C15.3165825,16.0976311 14.6834175,16.0976311 14.2928932,15.7071068 L14.2928932,15.7071068 L12,13.415 L9.70710677,15.7071068 C9.34662281,16.0675908 8.77939175,16.0953203 8.38710054,15.7902954 L8.2928932,15.7071068 C7.90236891,15.3165825 7.90236891,14.6834175 8.2928932,14.2928932 L8.2928932,14.2928932 L10.585,12 L8.2928932,9.70710677 C7.93240924,9.34662281 7.9046797,8.77939175 8.2097046,8.38710054 Z" id="Shape" fill="#000000"></path>
    </g>
</svg>