<?xml version="1.0" encoding="UTF-8"?>
<svg width="24px" height="24px" viewBox="0 0 24 24" version="1.1" xmlns="http://www.w3.org/2000/svg" xmlns:xlink="http://www.w3.org/1999/xlink">
    <title>feather-icon/zap-off</title>
    <g id="feather-icon/zap-off" stroke="none" stroke-width="1" fill="none" fill-rule="evenodd">
        <rect id="Bounding-Box" fill-opacity="0" fill="#FFFFFF" x="0" y="0" width="24" height="24"></rect>
        <path d="M0.29289317,0.29289317 C0.683417463,-0.0976311233 1.31658244,-0.0976311233 1.70710674,0.29289317 L1.70710674,0.29289317 L23.7071068,22.2928933 C24.0976311,22.6834176 24.0976311,23.3165825 23.7071068,23.7071068 C23.3165825,24.0976311 22.6834176,24.0976311 22.2928933,23.7071068 L22.2928933,23.7071068 L16.0669999,17.4819999 L11.7682213,22.6401844 C11.153555,23.377784 9.97874859,22.9064412 9.99939412,21.988245 L10.0077221,21.8759653 L10.8672178,15 L2.99999996,15 C2.15216231,15 1.68900624,14.0111425 2.23177868,13.3598156 L2.23177868,13.3598156 L6.64599995,8.06099995 L0.29289317,1.70710674 C-0.0675907931,1.34662278 -0.0953203287,0.779391717 0.209704563,0.387100508 Z M12.9609999,14.3759999 L12.4153394,18.7395429 L14.646,16.0609999 L12.9609999,14.3759999 Z M21,8.99999999 C21.848312,8.99999999 22.3113084,9.98982163 21.7675723,10.6409624 L21.7675723,10.6409624 L19.3375723,13.5509624 C18.9835785,13.9748809 18.3529561,14.031566 17.9290376,13.6775723 C17.5051192,13.3235785 17.448434,12.6929561 17.8024278,12.2690376 L17.8024278,12.2690376 L18.8621396,11 L15.66,11 C15.1077153,11 14.66,10.5522847 14.66,9.99999999 C14.66,9.44771524 15.1077153,8.99999999 15.66,8.99999999 L15.66,8.99999999 Z M11.585,12.9999999 L8.06699995,9.48199995 L5.13504158,13 L11.585,12.9999999 Z M12.2313474,1.36033355 C12.8700487,0.59284061 14.1154513,1.1323865 13.992374,2.12326326 L13.992374,2.12326326 L13.402374,6.87326328 C13.3342976,7.42133631 12.8348097,7.81045042 12.2867367,7.74237398 C11.7386637,7.67429754 11.3495496,7.17480971 11.417626,6.62673668 L11.417626,6.62673668 L11.5872762,5.26090887 L11.3386526,5.55966638 C10.9853746,5.98418152 10.3548487,6.04193062 9.93033358,5.68865262 C9.50581845,5.33537461 9.44806934,4.70484869 9.80134735,4.28033356 L9.80134735,4.28033356 Z" id="Shape" fill="#000000"></path>
    </g>
</svg>