<?xml version="1.0" encoding="UTF-8"?>
<svg width="24px" height="24px" viewBox="0 0 24 24" version="1.1" xmlns="http://www.w3.org/2000/svg" xmlns:xlink="http://www.w3.org/1999/xlink">
    <title>feather-icon/zap</title>
    <g id="feather-icon/zap" stroke="none" stroke-width="1" fill="none" fill-rule="evenodd">
        <rect id="Bounding-Box" fill-opacity="0" fill="#FFFFFF" x="0" y="0" width="24" height="24"></rect>
        <path d="M10.8672178,15 L2.99999996,15 C2.15216231,15 1.68900624,14.0111425 2.23177868,13.3598156 L12.2317787,1.35981556 C12.8710317,0.592712035 14.1161321,1.13320058 13.9922779,2.12403469 L13.1327822,8.99999999 L21,8.99999999 C21.8478377,8.99999999 22.3109938,9.98885747 21.7682213,10.6401844 L11.7682213,22.6401844 C11.1289683,23.407288 9.88386785,22.8667994 10.0077221,21.8759653 L10.8672178,15 Z M11.5846606,5.26045715 L5.13504158,13 L12,13 C12.601498,13 13.0668845,13.5271816 12.9922779,14.1240347 L12.4153394,18.7395429 L18.8649584,11 L12,11 C11.398502,11 10.9331155,10.4728184 11.0077221,9.87596526 L11.5846606,5.26045715 Z" id="Shape" fill="#000000"></path>
    </g>
</svg>