<svg xmlns="http://www.w3.org/2000/svg" width="22" height="22" viewBox="0 0 22 22">
  <path id="Shape" d="M9.839,21.94a.994.994,0,0,1-.138-.015A11,11,0,0,1,0,11,10.916,10.916,0,0,1,2.108,4.52a1,1,0,0,1,.081-.11A11.155,11.155,0,0,1,3.222,3.222,10.924,10.924,0,0,1,11,0a11.2,11.2,0,0,1,1.175.062,1,1,0,0,1,.11.012A11,11,0,0,1,22,11a10.915,10.915,0,0,1-2.1,6.471.992.992,0,0,1-.093.126,11.156,11.156,0,0,1-1.027,1.181A10.924,10.924,0,0,1,11,22,11.2,11.2,0,0,1,9.839,21.94Zm1.75-1.959a8.987,8.987,0,0,0,6.251-3.137L15.62,13l-1.442,2.5,0,0Zm-2.233-.131L11.578,16H3.52A9.021,9.021,0,0,0,9.355,19.849Zm9.716-4.871A9,9,0,0,0,19.486,8H15.042l1.428,2.473q.016.026.03.052ZM12.733,14l1.733-3L12.733,8H9.267L7.535,11l1.733,3ZM6.958,14,5.527,11.522,5.5,11.48,2.928,7.021A9,9,0,0,0,2.514,14ZM6.38,9,7.81,6.523l.025-.043,2.576-4.461A8.988,8.988,0,0,0,4.16,5.156Zm12.1-3a9.021,9.021,0,0,0-5.835-3.85L10.422,6H18.48Z" transform="translate(0 0)"/>
</svg>
