<svg xmlns="http://www.w3.org/2000/svg" width="24" height="14.001" viewBox="0 0 24 14.001">
  <path id="Shape" d="M13.81,14a1,1,0,0,1-.116-1.994L13.81,12H17a1,1,0,0,0,.994-.883L18,11V3a1,1,0,0,0-.884-.993L17,2H15A1,1,0,0,1,14.883.006L15,0h2a3,3,0,0,1,3,2.823L20,3v8a3,3,0,0,1-2.823,3L17,14ZM3,14A3,3,0,0,1,.005,11.176L0,11V3A3,3,0,0,1,2.823.005L3,0H6.19a1,1,0,0,1,.116,1.993L6.19,2H3a1,1,0,0,0-.993.884L2,3v8a1,1,0,0,0,.884.994L3,12H5a1,1,0,0,1,.116,1.993L5,14Zm5.446-.168a1,1,0,0,1-.278-1.387L11.131,8H7a1,1,0,0,1-.832-1.554l4-6a1,1,0,1,1,1.664,1.11L8.869,6H13a1,1,0,0,1,.832,1.554l-4,6a1,1,0,0,1-1.387.277ZM22,8V6a1,1,0,0,1,2,0V8a1,1,0,0,1-2,0Z" transform="translate(0 0)"/>
</svg>
