<svg xmlns="http://www.w3.org/2000/svg" width="20" height="22.078" viewBox="0 0 20 22.078">
  <path id="Shape" d="M9.526,21.959A2.985,2.985,0,0,1,8.5,21.6l-7-4A3.009,3.009,0,0,1,0,15V7A3,3,0,0,1,.311,5.672a1,1,0,0,1,.257-.427A3,3,0,0,1,1.5,4.4l7-4a3,3,0,0,1,3,0l7,4a2.991,2.991,0,0,1,.931.844,1.006,1.006,0,0,1,.256.426A3,3,0,0,1,20,7v8a3.013,3.013,0,0,1-1.5,2.6l-7,4a3.01,3.01,0,0,1-1.025.363,1,1,0,0,1-.95,0ZM11,19.577l6.5-3.714A1,1,0,0,0,18,15V7.535l-7,4.049ZM2,15a1,1,0,0,0,.5.862L9,19.576V11.585L2,7.535Zm8-5.144,6.961-4.027L10.5,2.134A1,1,0,0,0,10,2a1.01,1.01,0,0,0-.506.136L3.039,5.826Z"/>
</svg>
