<svg xmlns="http://www.w3.org/2000/svg" width="24" height="24" viewBox="0 0 24 24">
  <path id="Shape" d="M22.293,23.707,20.586,22H3A3,3,0,0,1,.005,19.176L0,19V8A3,3,0,0,1,2.823,5L3,5h.585L.293,1.707A1,1,0,0,1,1.707.293L15.975,14.561l.026.026,7.705,7.705a1,1,0,1,1-1.414,1.414ZM2.007,7.883,2,8V19a1,1,0,0,0,.884.994L3,20H18.586l-3.262-3.262A5,5,0,0,1,8.261,9.676L5.586,7H3A1,1,0,0,0,2.007,7.883Zm7.032,5.734a3,3,0,0,0,4.867,1.7L9.679,11.093A2.993,2.993,0,0,0,9.039,13.617Zm12.968,3.839L22,17.339V8a1,1,0,0,0-.883-.994L21,7H17a1,1,0,0,1-.757-.346l-.076-.1L14.465,4H9a1,1,0,0,1-.117-1.994L9,2h6a1,1,0,0,1,.757.347l.075.1L17.536,5H21a3,3,0,0,1,3,2.824L24,8v9.339a1,1,0,0,1-1.994.117Z" transform="translate(0 0)"/>
</svg>
