<?xml version="1.0" encoding="UTF-8"?>
<svg width="24px" height="24px" viewBox="0 0 24 24" version="1.1" xmlns="http://www.w3.org/2000/svg" xmlns:xlink="http://www.w3.org/1999/xlink">
    <title>feather-icon/flag</title>
    <g id="feather-icon/flag" stroke="none" stroke-width="1" fill="none" fill-rule="evenodd">
        <rect id="Bounding-Box" fill-opacity="0" fill="#FFFFFF" x="0" y="0" width="24" height="24"></rect>
        <path d="M2.99999996,2.99999995 C2.99999996,2.73478347 3.1053568,2.48042956 3.29289318,2.29289318 C3.51247009,2.07331627 3.90748506,1.80997296 4.50360929,1.57152327 C5.40642488,1.21039703 6.5636088,0.999999954 7.99999996,0.999999954 C9.24990888,0.999999954 10.1490849,1.21489363 11.7095411,1.81193092 L12.6723124,2.19091021 C14.2258937,2.80159464 14.980295,2.99999995 16,2.99999995 C17.1886088,2.99999995 18.0939249,2.83539704 18.7536094,2.57152327 C19.0949851,2.43497296 19.2624702,2.32331627 19.2928932,2.29289318 L19.3774733,2.21677478 C20.0144864,1.70256614 21,2.1478301 21,2.99999995 L21,15 C21,15.2652165 20.8946432,15.5195704 20.7071068,15.7071068 C20.4875299,15.9266837 20.0925149,16.190027 19.4963907,16.4284767 C18.5935751,16.7896029 17.4363912,17 16,17 C14.7500911,17 13.8509151,16.7851063 12.2904589,16.1880691 L11.3276876,15.8090898 C9.77410629,15.1984053 9.01970501,15 7.99999996,15 C6.81139116,15 5.90607507,15.1646029 5.24639065,15.4284767 C5.15049858,15.4668335 5.06832721,15.5032262 4.99906028,15.5364058 L4.99999996,22 C4.99999996,22.5522848 4.55228472,23 3.99999996,23 C3.44771521,23 2.99999996,22.5522848 2.99999996,22 L2.99999996,22 L2.99999996,2.99999995 Z M7.99999997,2.99999996 C6.91944651,2.99999996 6.07301925,3.13603544 5.43242292,3.35902143 L5.15543435,3.46596572 L4.99999997,3.53595584 L4.99999997,13.396437 C5.81910643,13.1433287 6.81445108,13 7.99999997,13 C9.24990888,13 10.1490849,13.2148937 11.7095411,13.811931 L12.6723124,14.1909103 C14.2258937,14.8015947 14.980295,15 16,15 C17.0805535,15 17.9269807,14.8639645 18.5675771,14.6409785 L18.8445656,14.5340343 L19,14.4640441 L19,4.60356297 L18.720418,4.68382047 C17.9573577,4.8867526 17.0538213,4.99999996 16,4.99999996 C14.7500911,4.99999996 13.8509151,4.78510629 12.2904589,4.18806901 L11.3276876,3.80908972 C9.77410629,3.19840528 9.01970501,2.99999996 7.99999997,2.99999996 Z" id="Shape" fill="#000000"></path>
    </g>
</svg>