<?xml version="1.0" encoding="UTF-8"?>
<svg width="24px" height="24px" viewBox="0 0 24 24" version="1.1" xmlns="http://www.w3.org/2000/svg" xmlns:xlink="http://www.w3.org/1999/xlink">
    <title>feather-icon/git-branch</title>
    <g id="feather-icon/git-branch" stroke="none" stroke-width="1" fill="none" fill-rule="evenodd">
        <rect id="Bounding-Box" fill-opacity="0" fill="#FFFFFF" x="0" y="0" width="24" height="24"></rect>
        <path d="M18,1.99999996 C20.209139,1.99999996 22,3.79086097 22,5.99999996 C22,7.87798178 20.7058085,9.45368894 18.9606507,9.88389618 C18.5394735,14.7015386 14.7015386,18.5394735 9.88404719,18.9614588 C9.45368894,20.7058085 7.87798178,22 5.99999996,22 C3.79086097,22 1.99999996,20.209139 1.99999996,18 C1.99999996,16.1360729 3.27489269,14.5699129 5.00024343,14.1259548 L4.99999997,2.99999996 C4.99999997,2.44771521 5.44771522,1.99999996 5.99999997,1.99999996 C6.55228473,1.99999996 6.99999997,2.44771521 6.99999997,2.99999996 L6.99999997,2.99999996 L7.00076131,14.1262135 C8.39034673,14.4841615 9.48757588,15.5700783 9.86161286,16.953128 C13.5915387,16.5549787 16.5549787,13.5915387 16.9541992,9.86108226 C15.2517335,9.40148157 14,7.84691979 14,5.99999996 C14,3.79086097 15.790861,1.99999996 18,1.99999996 Z M5.99999997,16 C4.89543047,16 3.99999997,16.8954305 3.99999997,18 C3.99999997,19.1045695 4.89543047,20 5.99999997,20 C7.10456948,20 7.99999997,19.1045695 7.99999997,18 C7.99999997,16.8954305 7.10456948,16 5.99999997,16 Z M18,3.99999997 C16.8954305,3.99999997 16,4.89543047 16,5.99999997 C16,7.10456948 16.8954305,7.99999997 18,7.99999997 C19.1045695,7.99999997 20,7.10456948 20,5.99999997 C20,4.89543047 19.1045695,3.99999997 18,3.99999997 Z" id="Shape" fill="#000000"></path>
    </g>
</svg>