<?xml version="1.0" encoding="UTF-8"?>
<svg width="24px" height="24px" viewBox="0 0 24 24" version="1.1" xmlns="http://www.w3.org/2000/svg" xmlns:xlink="http://www.w3.org/1999/xlink">
    <title>feather-icon/globe</title>
    <g id="feather-icon/globe" stroke="none" stroke-width="1" fill="none" fill-rule="evenodd">
        <rect id="Bounding-Box" fill-opacity="0" fill="#FFFFFF" x="0" y="0" width="24" height="24"></rect>
        <path d="M12,23 C5.92486773,23 0.999999954,18.0751323 0.999999954,12 C0.999999954,5.92486773 5.92486773,0.999999954 12,0.999999954 L12,0.999999954 C18.0751323,0.999999954 23,5.92486773 23,12 C23,17.9787016 18.2302364,22.8433651 12.2884074,22.9962925 L12,23 L12,23 L12,23 Z M7.05279389,13.0010636 L3.05500565,13.0006954 C3.46835628,16.7372697 6.16921489,19.7842959 9.72607499,20.7102675 C8.20527918,18.4233137 7.28166191,15.7770381 7.05279389,13.0010636 Z M20.9449943,13.0006954 L16.9498422,13.0008226 C16.7255335,15.7635472 15.8008579,18.4154858 14.2745676,20.7097575 C17.8312897,19.7837266 20.5316823,16.7369207 20.9449943,13.0006954 Z M14.945194,13.0003647 L9.0576542,13.0006768 C9.30895922,15.713613 10.3304698,18.298268 12.0000219,20.4492318 C13.6759302,18.2904612 14.6988433,15.6975902 14.945194,13.0003647 Z M9.72543243,3.29024247 L9.68922376,3.29941006 C6.15025529,4.23685968 3.46644776,7.27618874 3.05489523,11.0003032 L7.0500766,11.0001782 C7.27424315,8.23709328 8.19895781,5.58479125 9.72543243,3.29024247 Z M11.9999781,3.55076817 L11.7596908,3.86934826 C10.2260407,5.96270884 9.28891083,8.43446163 9.05471463,11.0006358 L14.9424384,11.0003233 C14.703573,8.41970362 13.7678021,5.95512045 12.240269,3.86943186 L11.9999781,3.55076817 Z M14.273925,3.28973247 L14.4629615,3.5806352 C15.8714653,5.80010199 16.728192,8.34051476 16.9472885,10.9999359 L20.9451047,11.0003032 C20.5321249,7.26327316 17.831102,4.21578656 14.273925,3.28973247 Z" id="Shape" fill="#000000"></path>
    </g>
</svg>