<?xml version="1.0" encoding="UTF-8"?>
<svg width="24px" height="24px" viewBox="0 0 24 24" version="1.1" xmlns="http://www.w3.org/2000/svg" xmlns:xlink="http://www.w3.org/1999/xlink">
    <title>feather-icon/grid</title>
    <g id="feather-icon/grid" stroke="none" stroke-width="1" fill="none" fill-rule="evenodd">
        <rect id="Bounding-Box" fill-opacity="0" fill="#FFFFFF" x="0" y="0" width="24" height="24"></rect>
        <path d="M21,13 C21.5522848,13 22,13.4477153 22,14 L22,21 C22,21.5522848 21.5522848,22 21,22 L14,22 C13.4477153,22 13,21.5522848 13,21 L13,14 C13,13.4477153 13.4477153,13 14,13 L21,13 Z M9.99999996,13 C10.5522847,13 11,13.4477153 11,14 L11,21 C11,21.5522848 10.5522847,22 9.99999996,22 L2.99999996,22 C2.44771521,22 1.99999996,21.5522848 1.99999996,21 L1.99999996,14 C1.99999996,13.4477153 2.44771521,13 2.99999996,13 L9.99999996,13 Z M20,15 L15,15 L15,20 L20,20 L20,15 Z M8.99999997,15 L3.99999997,15 L3.99999997,20 L8.99999997,20 L8.99999997,15 Z M9.99999996,1.99999996 C10.5522847,1.99999996 11,2.44771521 11,2.99999996 L11,9.99999996 C11,10.5522847 10.5522847,11 9.99999996,11 L2.99999996,11 C2.44771521,11 1.99999996,10.5522847 1.99999996,9.99999996 L1.99999996,2.99999996 C1.99999996,2.44771521 2.44771521,1.99999996 2.99999996,1.99999996 L9.99999996,1.99999996 Z M21,1.99999996 C21.5522848,1.99999996 22,2.44771521 22,2.99999996 L22,9.99999996 C22,10.5522847 21.5522848,11 21,11 L14,11 C13.4477153,11 13,10.5522847 13,9.99999996 L13,2.99999996 C13,2.44771521 13.4477153,1.99999996 14,1.99999996 L21,1.99999996 Z M8.99999997,3.99999997 L3.99999997,3.99999997 L3.99999997,8.99999997 L8.99999997,8.99999997 L8.99999997,3.99999997 Z M20,3.99999997 L15,3.99999997 L15,8.99999997 L20,8.99999997 L20,3.99999997 Z" id="Shape" fill="#000000"></path>
    </g>
</svg>