<?xml version="1.0" encoding="UTF-8"?>
<svg width="24px" height="24px" viewBox="0 0 24 24" version="1.1" xmlns="http://www.w3.org/2000/svg" xmlns:xlink="http://www.w3.org/1999/xlink">
    <title>feather-icon/info</title>
    <g id="feather-icon/info" stroke="none" stroke-width="1" fill="none" fill-rule="evenodd">
        <rect id="Bounding-Box" fill-opacity="0" fill="#FFFFFF" x="0" y="0" width="24" height="24"></rect>
        <path d="M12,0.999999954 C18.0751323,0.999999954 23,5.92486773 23,12 C23,18.0751323 18.0751323,23 12,23 C5.92486773,23 0.999999954,18.0751323 0.999999954,12 C0.999999954,5.92486773 5.92486773,0.999999954 12,0.999999954 Z M12,2.99999996 C7.02943723,2.99999996 2.99999996,7.02943723 2.99999996,12 C2.99999996,16.9705628 7.02943723,21 12,21 C16.9705628,21 21,16.9705628 21,12 C21,7.02943723 16.9705628,2.99999996 12,2.99999996 Z M12,11 C12.5522848,11 13,11.4477152 13,12 L13,12 L13,16 C13,16.5522848 12.5522848,17 12,17 C11.4477152,17 11,16.5522848 11,16 L11,16 L11,12 C11,11.4477152 11.4477152,11 12,11 Z M11.2928932,7.2928932 C11.6834175,6.90236891 12.3165825,6.90236891 12.7071068,7.2928932 C13.0976311,7.68341749 13.0976311,8.31658247 12.7071068,8.70710677 C12.3165825,9.09763106 11.6834175,9.09763106 11.2928932,8.70710677 C10.9023689,8.31658247 10.9023689,7.68341749 11.2928932,7.2928932 Z" id="Shape" fill="#000000"></path>
    </g>
</svg>