<?xml version="1.0" encoding="UTF-8"?>
<svg width="24px" height="24px" viewBox="0 0 24 24" version="1.1" xmlns="http://www.w3.org/2000/svg" xmlns:xlink="http://www.w3.org/1999/xlink">
    <title>feather-icon/link</title>
    <g id="feather-icon/link" stroke="none" stroke-width="1" fill="none" fill-rule="evenodd">
        <rect id="Bounding-Box" fill-opacity="0" fill="#FFFFFF" x="0" y="0" width="24" height="24"></rect>
        <path d="M5.75276502,9.75302141 C6.98352606,8.52181405 8.68835811,7.88586189 10.4247852,8.01022139 C12.1612123,8.13458089 13.7580185,9.0069899 14.8007651,10.4010214 C15.1315718,10.8432717 15.0412289,11.4699583 14.5989786,11.800765 C14.1567283,12.1315718 13.5300417,12.0412289 13.199235,11.5989786 C12.5040706,10.6696242 11.4395331,10.0880182 10.2819151,10.0051119 C9.124297,9.92220557 7.9877423,10.3461737 7.16710676,11.1671068 L7.16710676,11.1671068 L4.17928817,14.1547118 C2.66339933,15.7242274 2.68507867,18.2190509 4.22801387,19.7619861 C5.77094907,21.3049213 8.26577264,21.3266007 9.82289321,19.8228933 L9.82289321,19.8228933 L11.5328932,18.1128932 C11.9234175,17.722369 12.5565825,17.722369 12.9471068,18.1128932 C13.3376311,18.5034175 13.3376311,19.1365825 12.9471068,19.5271068 L12.9471068,19.5271068 L11.2247118,21.2492882 C8.87043846,23.5231215 5.1282031,23.4906025 2.8138003,21.1761997 C0.499397503,18.8617969 0.466878489,15.1195615 2.75289318,12.7528932 L2.75289318,12.7528932 Z M12.7752882,2.75071176 C15.1295615,0.476878489 18.8717969,0.509397503 21.1861997,2.8238003 C23.5006025,5.1382031 23.5331215,8.88043846 21.2471068,11.2471068 L21.2471068,11.2471068 L18.247235,14.2469786 C17.0164739,15.4781859 15.3116419,16.1141381 13.5752148,15.9897786 C11.8387877,15.8654191 10.2419815,14.9930101 9.19923494,13.5989786 C8.86842821,13.1567283 8.95877108,12.5300417 9.40102141,12.199235 C9.84327173,11.8684282 10.4699583,11.9587711 10.800765,12.4010214 C11.4959294,13.3303758 12.5604669,13.9119818 13.7180849,13.9948881 C14.875703,14.0777944 16.0122577,13.6538263 16.8328932,12.8328932 L16.8328932,12.8328932 L19.8207118,9.8452882 C21.3366007,8.27577264 21.3149213,5.78094907 19.7719861,4.23801387 C18.2290509,2.69507867 15.7342274,2.67339933 14.1750423,4.17916527 L14.1750423,4.17916527 L12.4550423,5.88916528 C12.0633811,6.27854936 11.4302188,6.27670341 11.0408347,5.88504222 C10.6514506,5.49338104 10.6532966,4.86021875 11.0449577,4.47083467 L11.0449577,4.47083467 Z" id="Shape" fill="#000000"></path>
    </g>
</svg>