<?xml version="1.0" encoding="UTF-8"?>
<svg width="24px" height="24px" viewBox="0 0 24 24" version="1.1" xmlns="http://www.w3.org/2000/svg" xmlns:xlink="http://www.w3.org/1999/xlink">
    <title>feather-icon/menu</title>
    <g id="feather-icon/menu" stroke="none" stroke-width="1" fill="none" fill-rule="evenodd">
        <rect id="Bounding-Box" fill-opacity="0" fill="#FFFFFF" x="0" y="0" width="24" height="24"></rect>
        <path d="M21,17 C21.5522848,17 22,17.4477153 22,18 C22,18.5522848 21.5522848,19 21,19 L21,19 L2.99999996,19 C2.44771521,19 1.99999996,18.5522848 1.99999996,18 C1.99999996,17.4477153 2.44771521,17 2.99999996,17 L2.99999996,17 Z M21,11 C21.5522848,11 22,11.4477152 22,12 C22,12.5522848 21.5522848,13 21,13 L21,13 L2.99999996,13 C2.44771521,13 1.99999996,12.5522848 1.99999996,12 C1.99999996,11.4477152 2.44771521,11 2.99999996,11 L2.99999996,11 Z M21,4.99999997 C21.5522848,4.99999997 22,5.44771522 22,5.99999997 C22,6.55228473 21.5522848,6.99999997 21,6.99999997 L21,6.99999997 L2.99999996,6.99999997 C2.44771521,6.99999997 1.99999996,6.55228473 1.99999996,5.99999997 C1.99999996,5.44771522 2.44771521,4.99999997 2.99999996,4.99999997 L2.99999996,4.99999997 Z" id="Shape" fill="#000000"></path>
    </g>
</svg>