<?xml version="1.0" encoding="UTF-8"?>
<svg width="24px" height="24px" viewBox="0 0 24 24" version="1.1" xmlns="http://www.w3.org/2000/svg" xmlns:xlink="http://www.w3.org/1999/xlink">
    <title>feather-icon/monitor</title>
    <g id="feather-icon/monitor" stroke="none" stroke-width="1" fill="none" fill-rule="evenodd">
        <rect id="Bounding-Box" fill-opacity="0" fill="#FFFFFF" x="0" y="0" width="24" height="24"></rect>
        <path d="M7.99999998,22 C7.44771523,22 6.99999998,21.5522848 6.99999998,21 C6.99999998,20.4477153 7.44771523,20 7.99999998,20 L7.99999998,20 L11,20 L11,18 L3.99999995,18 C2.34314571,18 0.999999954,16.6568543 0.999999954,15 L0.999999954,4.99999996 C0.999999954,3.34314571 2.34314571,1.99999996 3.99999995,1.99999996 L20,1.99999996 C21.6568543,1.99999996 23,3.34314571 23,4.99999996 L23,15 C23,16.6568543 21.6568543,18 20,18 L13,18 L13,20 L16,20 C16.5128359,20 16.9355071,20.3860402 16.9932722,20.8833789 L17,21 C17,21.5522848 16.5522848,22 16,22 L16,22 Z M20,3.99999997 L3.99999996,3.99999997 C3.44771521,3.99999997 2.99999996,4.44771522 2.99999996,4.99999997 L2.99999996,15 C2.99999996,15.5522848 3.44771521,16 3.99999996,16 L20,16 C20.5522848,16 21,15.5522848 21,15 L21,4.99999997 C21,4.44771522 20.5522848,3.99999997 20,3.99999997 Z" id="Shape" fill="#000000"></path>
    </g>
</svg>