<?xml version="1.0" encoding="UTF-8"?>
<svg width="24px" height="24px" viewBox="0 0 24 24" version="1.1" xmlns="http://www.w3.org/2000/svg" xmlns:xlink="http://www.w3.org/1999/xlink">
    <title>feather-icon/moon</title>
    <g id="feather-icon/moon" stroke="none" stroke-width="1" fill="none" fill-rule="evenodd">
        <rect id="Bounding-Box" fill-opacity="0" fill="#FFFFFF" x="0" y="0" width="24" height="24"></rect>
        <path d="M11.1179793,2.00424286 C11.9781268,1.92475424 12.5276206,2.89976014 12.0141642,3.59440723 C10.2487601,5.98279442 10.4963841,9.30336713 12.5965085,11.4034915 C14.6966329,13.5036159 18.0172056,13.7512399 20.4055928,11.9858358 C21.1002399,11.4723794 22.0752458,12.0218732 21.9957571,12.8820207 C21.5094802,18.14403 17.0130021,22.119393 11.7310643,21.9570966 C6.44912641,21.7948002 2.20519982,17.5508736 2.0429034,12.2689357 C1.88060698,6.98699786 5.85596995,2.49051978 11.1179793,2.00424286 Z M9.0665474,4.53239939 C6.02020442,5.74996965 3.93636516,8.77092827 4.04195995,12.2075114 C4.17179708,16.4330616 7.56693836,19.8282029 11.7924886,19.9580401 C15.3219523,20.0664888 18.4130218,17.8655563 19.5623432,14.6843668 C16.7077162,15.7179143 13.4236927,15.0591028 11.1822949,12.8177051 C9.01320032,10.6486105 8.32623648,7.50307132 9.22089188,4.71520207 L9.31563317,4.43765678 L9.0665474,4.53239939 Z" id="Shape" fill="#000000"></path>
    </g>
</svg>