<?xml version="1.0" encoding="UTF-8"?>
<svg width="24px" height="24px" viewBox="0 0 24 24" version="1.1" xmlns="http://www.w3.org/2000/svg" xmlns:xlink="http://www.w3.org/1999/xlink">
    <title>feather-icon/octagon</title>
    <g id="feather-icon/octagon" stroke="none" stroke-width="1" fill="none" fill-rule="evenodd">
        <rect id="Bounding-Box" fill-opacity="0" fill="#FFFFFF" x="0" y="0" width="24" height="24"></rect>
        <path d="M16.14,0.999999954 C16.4052165,0.999999954 16.6595704,1.10535679 16.8471068,1.29289317 L22.7071068,7.1528932 C22.8946432,7.34042958 23,7.59478349 23,7.85999998 L23,16.14 C23,16.4052165 22.8946432,16.6595704 22.7071068,16.8471068 L16.8471068,22.7071068 C16.6595704,22.8946432 16.4052165,23 16.14,23 L7.85999998,23 C7.59478349,23 7.34042958,22.8946432 7.1528932,22.7071068 L1.29289317,16.8471068 C1.10535679,16.6595704 0.999999954,16.4052165 0.999999954,16.14 L0.999999954,7.85999998 C0.999999954,7.59478349 1.10535679,7.34042958 1.29289317,7.1528932 L7.1528932,1.29289317 C7.34042958,1.10535679 7.59478349,0.999999954 7.85999998,0.999999954 L16.14,0.999999954 Z M15.7257865,2.99999996 L8.27421355,2.99999996 L2.99999996,8.27421355 L2.99999996,15.7257865 L8.27421355,21 L15.7257865,21 L21,15.7257865 L21,8.27421355 L15.7257865,2.99999996 Z" id="Shape" fill="#000000"></path>
    </g>
</svg>