<?xml version="1.0" encoding="UTF-8"?>
<svg width="24px" height="24px" viewBox="0 0 24 24" version="1.1" xmlns="http://www.w3.org/2000/svg" xmlns:xlink="http://www.w3.org/1999/xlink">
    <title>feather-icon/phone-forwarded</title>
    <g id="feather-icon/phone-forwarded" stroke="none" stroke-width="1" fill="none" fill-rule="evenodd">
        <rect id="Bounding-Box" fill-opacity="0" fill="#FFFFFF" x="0" y="0" width="24" height="24"></rect>
        <path d="M7.10561095,0.999901635 L7.28490123,1.0037664 C8.70979989,1.07676124 9.89813669,2.15075646 10.1014144,3.58924248 C10.2181758,4.4745374 10.4347136,5.34378192 10.7460523,6.17813909 C11.1581548,7.27445164 10.8945749,8.5103485 10.0671068,9.34710677 L9.3500142,10.0641993 C10.5258702,11.9088481 12.0911572,13.4741344 13.9358065,14.6499895 L14.6568609,13.9289477 C15.4896515,13.1054251 16.7255484,12.8418452 17.8196049,13.2531028 C18.6562181,13.5652864 19.5254626,13.7818242 20.4196923,13.899805 C21.8677026,14.1040839 22.9480838,15.3189966 22.99904,16.7412027 L23.000041,19.9159411 C23.0034205,20.7606587 22.6505638,21.5676786 22.0281086,22.1387384 C21.4056535,22.7097982 20.5712877,22.9919732 19.7119777,22.9141485 C16.4793206,22.5628939 13.3741258,21.458265 10.6536785,19.6940138 C8.11360038,18.0799425 5.96005752,15.9263996 4.35072009,13.3936996 C2.57530036,10.6530796 1.47042053,7.53278383 1.12405823,4.27000041 C1.04826804,3.43130891 1.32846624,2.59937904 1.8962069,1.97743199 C2.46389785,1.35553939 3.2668227,1.00084272 4.10999997,0.999901635 L7.10561095,0.999901635 Z M7.1197437,2.99980597 L4.11111682,2.99980597 C3.8303063,3.00021464 3.56258113,3.11848378 3.37332458,3.32581005 C3.18407769,3.53312573 3.09067829,3.81043569 3.1144087,4.07440039 C3.42606539,7.00920524 4.42465568,9.8293283 6.03401376,12.3136785 C7.49061473,14.6059442 9.43405584,16.5493853 11.7341012,18.0109804 C14.1998725,19.6100242 17.0063472,20.6083877 19.9100083,20.924059 C20.1904402,20.9494031 20.4685622,20.8553447 20.6760472,20.6649915 C20.8835323,20.4746382 21.0011512,20.2056316 21,19.92 L21.0003077,16.895195 C21.0129027,16.3875913 20.6430891,15.9511251 20.1492425,15.8814144 C19.1144046,15.7449298 18.0983282,15.4918147 17.1181391,15.1260523 C16.7527016,14.9886848 16.340736,15.0765448 16.0671068,15.3471068 L14.7971068,16.6171068 C14.4787938,16.9354198 13.9870293,17.0018074 13.5957055,16.7792945 C10.935688,15.2667668 8.73323317,13.064312 7.22070547,10.4042945 C6.99819259,10.0129707 7.06458019,9.52120621 7.3828932,9.20289321 L8.64894768,7.93686087 C8.92345522,7.659264 9.01131518,7.24729838 8.87310274,6.87960482 C8.50818533,5.9016718 8.25507022,4.88559544 8.11984163,3.85995154 C8.04959096,3.3629275 7.62174193,2.99496261 7.1197437,2.99980597 Z M18.2928932,0.29289317 C18.6834175,-0.0976311233 19.3165825,-0.0976311233 19.7071068,0.29289317 L19.7071068,0.29289317 L23.7071068,4.29289319 C23.7355731,4.3213595 23.7623312,4.35153405 23.7872141,4.38324989 C23.7927156,4.39015756 23.7982466,4.39739693 23.8036655,4.40469335 C23.8215099,4.42886927 23.8382813,4.45372502 23.8539326,4.47933978 C23.8613931,4.49138686 23.8685012,4.50360553 23.8753289,4.51593787 C23.8862061,4.53570602 23.8966234,4.55610857 23.9063462,4.57690082 C23.914321,4.59390147 23.9218036,4.61120432 23.9287746,4.62866394 C23.9366843,4.64842076 23.9438775,4.66820229 23.9504533,4.68826356 C23.9552713,4.70314863 23.9599023,4.71853669 23.9641549,4.734007 C23.9701664,4.75556349 23.9753602,4.77725389 23.9798349,4.79920587 C23.9832979,4.81662471 23.986372,4.83405096 23.9889822,4.8515331 C23.9962388,4.89963787 24,4.94937968 24,4.99999997 L23.996298,4.91376918 C23.9978437,4.93173448 23.9989053,4.9497336 23.999483,4.96774535 L24,4.99999997 C24,5.0112225 23.9998151,5.02240186 23.9994483,5.03353516 C23.9988773,5.05059094 23.9978551,5.06792306 23.9963841,5.0852242 C23.994564,5.10705739 23.9920941,5.12811441 23.9889807,5.14896118 C23.986372,5.16594898 23.9832979,5.18337523 23.97976,5.20072573 C23.9753602,5.22274605 23.9701664,5.24443644 23.964279,5.26583958 C23.9599023,5.28146325 23.9552713,5.29685131 23.950262,5.3121425 C23.9438775,5.33179764 23.9366843,5.35157917 23.928896,5.37105849 C23.9218036,5.38879562 23.914321,5.40609847 23.9063267,5.42322152 C23.8966234,5.44389137 23.8862061,5.46429391 23.8751242,5.48427692 C23.8685012,5.49639441 23.8613931,5.50861308 23.8540046,5.52070873 C23.8382813,5.54627492 23.8215099,5.57113066 23.8036865,5.59515927 C23.7746871,5.63432555 23.7425009,5.6717127 23.7071068,5.70710675 L23.7872141,5.61675005 C23.7849289,5.61966273 23.7826279,5.62256241 23.7803113,5.62544896 L23.7071068,5.70710675 L19.7071068,9.70710677 C19.3165825,10.0976311 18.6834175,10.0976311 18.2928932,9.70710677 C17.902369,9.31658248 17.902369,8.6834175 18.2928932,8.2928932 L18.2928932,8.2928932 L20.5848725,5.99999995 L15,5.99999997 C14.4871642,5.99999997 14.0644928,5.61395978 14.0067277,5.11662109 L14,4.99999997 C14,4.44771522 14.4477153,3.99999997 15,3.99999997 L15,3.99999997 L20.5848725,3.99999995 L18.2928932,1.70710674 C17.9324093,1.34662278 17.9046797,0.779391717 18.2097046,0.387100508 Z" id="Shape" fill="#000000"></path>
    </g>
</svg>