<?xml version="1.0" encoding="UTF-8"?>
<svg width="24px" height="24px" viewBox="0 0 24 24" version="1.1" xmlns="http://www.w3.org/2000/svg" xmlns:xlink="http://www.w3.org/1999/xlink">
    <title>feather-icon/phone-off</title>
    <g id="feather-icon/phone-off" stroke="none" stroke-width="1" fill="none" fill-rule="evenodd">
        <rect id="Bounding-Box" fill-opacity="0" fill="#FFFFFF" x="0" y="0" width="24" height="24"></rect>
        <path d="M22.2928933,0.29289317 C22.6834176,-0.0976311233 23.3165825,-0.0976311233 23.7071068,0.29289317 C24.0976311,0.683417463 24.0976311,1.31658244 23.7071068,1.70710674 L23.7071068,1.70710674 L12.1230198,13.2915871 C12.5747037,13.6866763 13.0496429,14.054263 13.5452581,14.3923807 L13.9358079,14.6499881 L14.6568609,13.9289477 C15.4896515,13.1054251 16.7255484,12.8418452 17.8196049,13.2531028 C18.6562181,13.5652864 19.5254626,13.7818242 20.4199516,13.8998417 C21.8513188,14.1021548 22.9258026,15.2930246 22.9965319,16.7115533 L23.0001135,16.89 L23.0001135,19.8861156 C23.0033719,20.7307855 22.6505095,21.5377284 22.0281086,22.1087384 C21.4056535,22.6797982 20.5712877,22.9619732 19.7119777,22.8841485 C16.4793206,22.5328939 13.3741258,21.428265 10.6539732,19.664201 C9.66709233,19.0375794 8.73636291,18.3276998 7.87184262,17.5426266 L1.70710674,23.7071068 C1.31658244,24.0976311 0.683417463,24.0976311 0.29289317,23.7071068 C-0.0976311233,23.3165825 -0.0976311233,22.6834176 0.29289317,22.2928933 L0.29289317,22.2928933 L9.89734341,12.6873995 C9.9207415,12.658061 9.94602862,12.629734 9.97320471,12.6025819 L10.05,12.534 Z M10.7067969,14.7092709 L9.28782408,16.1265205 C10.0478319,16.8093903 10.8648542,17.4290094 11.7341012,17.9809804 C14.1998725,19.5800242 17.0063472,20.5783877 19.9100083,20.894059 C20.1904402,20.9194031 20.4685622,20.8253447 20.6760472,20.6349915 C20.8539005,20.4718233 20.9657503,20.2508335 20.9933839,20.0111931 L21.0000984,19.89 L21.0001458,16.8802563 C21.0050374,16.3782581 20.6370725,15.950409 20.1492425,15.8814144 C19.1144046,15.7449298 18.0983282,15.4918147 17.1181391,15.1260523 C16.7933058,15.0039479 16.4317095,15.0598009 16.1631865,15.2637445 L16.0671068,15.3471068 L14.7971068,16.6171068 C14.4787942,16.9354194 13.9870306,17.0018073 13.5957069,16.7792953 C12.5622543,16.1916601 11.5941065,15.4977041 10.7067969,14.7092709 Z M7.10025626,0.999949106 C8.60602001,0.985276664 9.88941545,2.08904093 10.1014144,3.58924248 C10.2181758,4.4745374 10.4347136,5.34378192 10.7460523,6.17813909 C11.1339135,7.20996267 10.9232463,8.36543186 10.2072543,9.19540989 L10.0671068,9.34710677 L8.79710677,10.6171068 C8.40658247,11.0076311 7.77341749,11.0076311 7.3828932,10.6171068 C7.02240924,10.2566228 6.9946797,9.68939175 7.29970459,9.29710055 L7.3828932,9.20289321 L8.64894768,7.93686087 C8.92345522,7.659264 9.01131518,7.24729838 8.87310274,6.87960482 C8.50818533,5.9016718 8.25507022,4.88559544 8.11984163,3.85995154 C8.05499486,3.40116012 7.68544889,3.05233625 7.22648047,3.00527047 L7.10999998,2.99990164 L4.11111682,2.99990102 C3.8303063,3.00021464 3.56258113,3.11848378 3.37332458,3.32581005 C3.18407769,3.53312573 3.09067829,3.81043569 3.11414843,4.07197762 C3.43161229,6.9936528 4.42997583,9.8001275 6.02901959,12.2658988 C6.32951837,12.7292766 6.19747889,13.3485208 5.73410115,13.6490196 C5.27072341,13.9495184 4.65147914,13.8174789 4.35098036,13.3541012 C2.58173502,10.6258742 1.47710608,7.52067942 1.12405823,4.27000041 C1.04826804,3.43130891 1.32846624,2.59937904 1.8962069,1.97743199 C2.41659027,1.40736377 3.13463546,1.06181436 3.90015708,1.00745672 L4.10999997,0.999804539 L7.10025626,0.999949106 Z" id="Shape" fill="#000000"></path>
    </g>
</svg>