<?xml version="1.0" encoding="UTF-8"?>
<svg width="24px" height="24px" viewBox="0 0 24 24" version="1.1" xmlns="http://www.w3.org/2000/svg" xmlns:xlink="http://www.w3.org/1999/xlink">
    <title>feather-icon/pie-chart</title>
    <g id="feather-icon/pie-chart" stroke="none" stroke-width="1" fill="none" fill-rule="evenodd">
        <rect id="Bounding-Box" fill-opacity="0" fill="#FFFFFF" x="0" y="0" width="24" height="24"></rect>
        <path d="M7.60004029,1.91346723 C8.10622734,1.69257559 8.69564108,1.92385321 8.91653272,2.43004027 C9.13742436,2.93622732 8.90614673,3.52564105 8.39995968,3.74653269 C4.69319513,5.36410332 2.52064789,9.2555894 3.08886802,13.2598077 C3.65708814,17.264026 6.82650908,20.397458 10.8369551,20.9199149 C14.847401,21.4423718 18.713824,19.2255274 20.2889597,15.5005327 C20.5040566,14.9918562 21.0907908,14.7538629 21.5994673,14.9689597 C22.1081438,15.1840565 22.3461372,15.7707908 22.1310403,16.2794673 C20.2058744,20.8322386 15.4802464,23.5417151 10.5785902,22.9031566 C5.67693399,22.2645982 1.8031973,18.4348479 1.10870603,13.5408033 C0.414214768,8.64675876 3.06955028,3.89049799 7.60004029,1.91346723 Z M12,0.999999954 C14.9173814,0.999999954 17.7152745,2.1589252 19.7781746,4.22182537 C21.8410748,6.28472555 23,9.0826186 23,12 C23,12.5522848 22.5522848,13 22,13 L12,13 C11.4477152,13 11,12.5522848 11,12 L11,1.99999995 C11,1.44771521 11.4477152,0.999999954 12,0.999999954 Z M13,3.05569672 L13,11 L20.9443033,11 C20.7186277,8.98098114 19.8143883,7.08646618 18.3639611,5.63603894 C16.9135338,4.18561171 15.0190189,3.28137232 13,3.05569672 Z" id="Shape" fill="#000000"></path>
    </g>
</svg>