<?xml version="1.0" encoding="UTF-8"?>
<svg width="24px" height="24px" viewBox="0 0 24 24" version="1.1" xmlns="http://www.w3.org/2000/svg" xmlns:xlink="http://www.w3.org/1999/xlink">
    <title>feather-icon/radio</title>
    <g id="feather-icon/radio" stroke="none" stroke-width="1" fill="none" fill-rule="evenodd">
        <rect id="Bounding-Box" fill-opacity="0" fill="#FFFFFF" x="0" y="0" width="24" height="24"></rect>
        <path d="M19.7772136,4.22299997 C24.0714149,8.51849835 24.0714149,15.4815016 19.7772136,19.777 C19.3867483,20.1675833 18.7535833,20.1676789 18.363,19.7772136 C17.9724168,19.3867483 17.9723212,18.7535833 18.3627865,18.363 C21.8762239,14.8485013 21.8762239,9.15149865 18.3627865,5.63699997 C17.9723212,5.24641672 17.9724168,4.61325174 18.363,4.22278642 C18.7535833,3.8323211 19.3867483,3.83241671 19.7772136,4.22299997 Z M5.63699997,4.22278642 C6.02758323,4.61325174 6.02767884,5.24641672 5.63721352,5.63699997 C2.12377606,9.15149865 2.12377606,14.8485013 5.63721352,18.363 C6.02767884,18.7535833 6.02758323,19.3867483 5.63699997,19.7772136 C5.24641672,20.1676789 4.61325174,20.1675833 4.22278642,19.777 C-0.0714149182,15.4815016 -0.0714149182,8.51849835 4.22278642,4.22299997 C4.61325174,3.83241671 5.24641672,3.8323211 5.63699997,4.22278642 Z M16.9467134,7.05249998 C18.2611527,8.36547778 18.99972,10.1471353 18.99972,12.005 C18.99972,13.8628647 18.2611527,15.6445222 16.9467134,16.9575 C16.5559719,17.347807 15.922807,17.3474548 15.5325,16.9567134 C15.142193,16.5659719 15.1425452,15.932807 15.5332867,15.5425 C16.4721719,14.6046587 16.99972,13.3320462 16.99972,12.005 C16.99972,10.6779538 16.4721719,9.40534127 15.5332867,8.46749999 C15.1425452,8.07719298 15.142193,7.4440281 15.5325,7.05328664 C15.922807,6.66254517 16.5559719,6.66219298 16.9467134,7.05249998 Z M8.46749999,7.04328664 C8.85780699,7.4340281 8.85745479,8.06719298 8.46671333,8.45749999 C7.52782811,9.39534127 7.00028003,10.6679538 7.00028003,11.995 C7.00028003,13.3220462 7.52782811,14.5946587 8.46671333,15.5325 C8.85745479,15.922807 8.85780699,16.5559719 8.46749999,16.9467134 C8.07719298,17.3374548 7.4440281,17.337807 7.05328664,16.9475 C5.73884733,15.6345222 5.00028003,13.8528647 5.00028003,11.995 C5.00028003,10.1371353 5.73884733,8.35547778 7.05328664,7.04249998 C7.4440281,6.65219298 8.07719298,6.65254517 8.46749999,7.04328664 Z M12,8.99999999 C13.6568543,8.99999999 15,10.3431457 15,12 C15,13.6568543 13.6568543,15 12,15 C10.3431457,15 8.99999999,13.6568543 8.99999999,12 C8.99999999,10.3431457 10.3431457,8.99999999 12,8.99999999 Z M12,11 C11.4477152,11 11,11.4477152 11,12 C11,12.5522848 11.4477152,13 12,13 C12.5522848,13 13,12.5522848 13,12 C13,11.4477152 12.5522848,11 12,11 Z" id="Shape" fill="#000000"></path>
    </g>
</svg>