<?xml version="1.0" encoding="UTF-8"?>
<svg width="24px" height="24px" viewBox="0 0 24 24" version="1.1" xmlns="http://www.w3.org/2000/svg" xmlns:xlink="http://www.w3.org/1999/xlink">
    <title>feather-icon/refresh-cw</title>
    <g id="feather-icon/refresh-cw" stroke="none" stroke-width="1" fill="none" fill-rule="evenodd">
        <rect id="Bounding-Box" fill-opacity="0" fill="#FFFFFF" x="0" y="0" width="24" height="24"></rect>
        <path d="M6.99999995,13 C7.55228473,13 7.99999995,13.4477153 7.99999995,14 C7.99999995,14.5522848 7.55228473,15 6.99999995,15 L6.99999995,15 L3.52399995,14.9999476 L6.34728393,17.6530705 C8.2891143,19.5958743 11.0919006,20.4065831 13.7710291,19.8003965 C16.4501576,19.1942098 18.6309447,17.2559045 19.547284,14.6664038 C19.7315241,14.1457561 20.3029486,13.8730438 20.8235963,14.057284 C21.344244,14.2415241 21.6169562,14.8129485 21.4327161,15.3335962 C20.287292,18.5704722 17.5613081,20.9933538 14.2123975,21.7510871 C10.9681403,22.4851412 7.57882071,21.5570414 5.18385217,19.310286 L4.95522338,19.0887531 L1.99999995,16.3109476 L1.99999995,20 C1.99999995,20.5128359 1.61395977,20.9355072 1.11662108,20.9932723 L0.99999995,21 C0.447715202,21 -4.99999819e-08,20.5522848 -4.99999819e-08,20 L-4.99999819e-08,20 L-4.99999819e-08,14 C-4.99999819e-08,13.9962911 2.01410761e-05,13.992587 6.04193044e-05,13.9888876 C0.000268263304,13.9690349 0.00107997552,13.9490146 0.00249038149,13.929025 C0.0039775855,13.9077325 0.00611220423,13.886845 0.0088793231,13.8661577 C0.0111674077,13.8493984 0.0138478327,13.8326473 0.0169562036,13.8159573 C0.0206826568,13.7956131 0.0251041078,13.7753949 0.0301267258,13.7554154 C0.0351244706,13.7357942 0.0405176251,13.7167694 0.0464871211,13.6978825 C0.0517847744,13.681005 0.0576602606,13.6640482 0.0639720789,13.6473054 C0.0714867124,13.627367 0.0796411405,13.607641 0.0884567823,13.5881341 C0.0958350511,13.5719112 0.103426932,13.5562624 0.111408138,13.5408478 C0.119597689,13.5248974 0.128478824,13.5088181 0.137838713,13.4929369 C0.152255506,13.4685903 0.167643214,13.4448529 0.183980268,13.4218365 C0.187794677,13.4163973 0.191658128,13.4110716 0.195580894,13.4057751 C0.216965287,13.376926 0.239873242,13.3492124 0.264183988,13.3228106 C0.266464276,13.3203395 0.268847575,13.3177768 0.271246888,13.3152234 C0.298160449,13.2868213 0.323393004,13.2628309 0.349820315,13.2401953 L0.271246888,13.3152234 C0.301502221,13.2830251 0.333387424,13.2532766 0.366654152,13.2259857 C0.425579644,13.1777588 0.490628378,13.1357753 0.560225279,13.1016412 C0.588964017,13.08779 0.610420273,13.0784385 0.63212181,13.0698721 C0.643440214,13.0653567 0.654994229,13.0610278 0.666647384,13.0569087 C0.685739787,13.0502393 0.70528104,13.0440164 0.724964801,13.0384066 C0.744324003,13.0327751 0.763776255,13.0278534 0.783445982,13.0235108 C0.796632934,13.0207113 0.810347156,13.0179756 0.824104538,13.0155287 C0.881143778,13.0052923 0.939953821,13 0.99999995,13 L0.902855619,13.0047162 C0.917846308,13.0032591 0.932865592,13.0021391 0.947901127,13.0013567 L0.99999995,13 Z M18.8161478,4.68971399 L19.0447766,4.91124691 L22,7.68894762 L22,3.99999996 C22,3.48716413 22.3860402,3.0644928 22.8833789,3.00672769 L23,2.99999996 C23.5522848,2.99999996 24,3.44771521 24,3.99999996 L24,3.99999996 L24,9.99999996 C24,10.0071416 23.9999252,10.0142657 23.9997762,10.0213716 C23.9995531,10.0323758 23.9991228,10.0437957 23.9984976,10.0552081 C23.9970269,10.0820578 23.9945632,10.108105 23.9911206,10.1338423 C23.9887685,10.151093 23.9859795,10.1684344 23.9827319,10.1857097 C23.9791603,10.2050048 23.9750336,10.2238815 23.9703822,10.2425507 C23.9650344,10.263822 23.9589411,10.2852503 23.9521163,10.3065008 C23.9471912,10.321912 23.9419728,10.3368739 23.9364138,10.3516692 C23.928839,10.3718443 23.9205351,10.391969 23.9115432,10.4118659 C23.9041649,10.4280888 23.896573,10.4437376 23.8885918,10.4591522 C23.8802618,10.4753745 23.871224,10.4917197 23.8616913,10.5078598 C23.8490143,10.5291985 23.8357201,10.549906 23.8217026,10.570073 C23.8148638,10.5799965 23.8074009,10.5903154 23.7997158,10.6005236 C23.779623,10.6271504 23.7587504,10.652217 23.7367215,10.6762047 C23.7341871,10.6789596 23.7314805,10.6818741 23.7287531,10.6847766 C23.7018395,10.7131786 23.676607,10.7371691 23.6501797,10.7598047 L23.7287531,10.6847766 C23.6984978,10.7169749 23.6666126,10.7467234 23.6333458,10.7740143 C23.5863793,10.8124319 23.5353561,10.8470326 23.4812847,10.8767769 C23.4453414,10.8966066 23.4084834,10.9139527 23.3708814,10.9289368 C23.3586113,10.9338726 23.3460407,10.9386064 23.3333526,10.9430913 C23.3142602,10.9497607 23.294719,10.9559836 23.2750352,10.9615934 C23.255676,10.9672249 23.2362237,10.9721466 23.216554,10.9764891 C23.1993771,10.9801719 23.1816375,10.9835977 23.1638306,10.9865414 C23.1106441,10.9954203 23.0558569,11 23,11 L23.1052526,10.9944625 C23.0865749,10.9964309 23.0678492,10.9978753 23.0490996,10.9987949 L23,11 L17,11 C16.4477153,11 16,10.5522847 16,9.99999996 C16,9.44771524 16.4477153,8.99999996 17,8.99999996 L17,8.99999996 L20.476,8.99994762 L17.6527161,6.34692954 C15.7108857,4.40412574 12.9080994,3.5934169 10.2289709,4.19960355 C7.5498424,4.8057902 5.36905525,6.74409546 4.45271602,9.33359622 C4.26847591,9.85424392 3.69705143,10.1269562 3.17640373,9.94271604 C2.65575603,9.75847593 2.3830438,9.18705145 2.56728391,8.66640375 C3.71270795,5.4295278 6.43869189,3.00664622 9.78760252,2.24891291 C13.0318597,1.51485876 16.4211793,2.44295863 18.8161478,4.68971399 Z" id="Shape" fill="#000000"></path>
    </g>
</svg>