<?xml version="1.0" encoding="UTF-8"?>
<svg width="24px" height="24px" viewBox="0 0 24 24" version="1.1" xmlns="http://www.w3.org/2000/svg" xmlns:xlink="http://www.w3.org/1999/xlink">
    <title>feather-icon/rss</title>
    <g id="feather-icon/rss" stroke="none" stroke-width="1" fill="none" fill-rule="evenodd">
        <rect id="Bounding-Box" fill-opacity="0" fill="#FFFFFF" x="0" y="0" width="24" height="24"></rect>
        <path d="M3.99999996,9.99999999 C9.52284749,9.99999999 14,14.4771525 14,20 C14,20.5522848 13.5522848,21 13,21 C12.4477153,21 12,20.5522848 12,20 C12,15.581722 8.41827798,12 3.99999996,12 C3.44771521,12 2.99999996,11.5522847 2.99999996,11 C2.99999996,10.4477152 3.44771521,9.99999999 3.99999996,9.99999999 Z M4.99999996,17 C6.10456948,17 6.99999996,17.8954305 6.99999996,19 C6.99999996,20.1045695 6.10456948,21 4.99999996,21 C3.89543047,21 2.99999996,20.1045695 2.99999996,19 C2.99999996,17.8954305 3.89543047,17 4.99999996,17 Z M3.99999996,2.99999996 C13.3888408,2.99999996 21,10.6111592 21,20 C21,20.5522848 20.5522848,21 20,21 C19.4477153,21 19,20.5522848 19,20 C19,11.7157288 12.2842712,4.99999996 3.99999996,4.99999996 C3.44771521,4.99999996 2.99999996,4.55228472 2.99999996,3.99999996 C2.99999996,3.44771521 3.44771521,2.99999996 3.99999996,2.99999996 Z" id="Shape" fill="#000000"></path>
    </g>
</svg>