<?xml version="1.0" encoding="UTF-8"?>
<svg width="24px" height="24px" viewBox="0 0 24 24" version="1.1" xmlns="http://www.w3.org/2000/svg" xmlns:xlink="http://www.w3.org/1999/xlink">
    <title>feather-icon/shopping-bag</title>
    <g id="feather-icon/shopping-bag" stroke="none" stroke-width="1" fill="none" fill-rule="evenodd">
        <rect id="Bounding-Box" fill-opacity="0" fill="#FFFFFF" x="0" y="0" width="24" height="24"></rect>
        <path d="M18,0.999999954 C18.3147573,0.999999954 18.6111456,1.14819411 18.8,1.39999996 L21.8,5.39999997 L21.8131491,5.41781332 C21.831658,5.44361913 21.8489689,5.47034233 21.8650005,5.49790158 L21.8,5.39999997 C21.8291254,5.43883372 21.8552486,5.47955177 21.878251,5.52179729 C21.8924302,5.54739106 21.9053477,5.57375041 21.9171096,5.60072932 C21.9223331,5.61336947 21.9274431,5.6257939 21.9322999,5.63831323 C21.9760903,5.75032671 22,5.87237114 22,5.99999997 L21.9999815,5.99391611 L22,20 C22,21.6568543 20.6568543,23 19,23 L4.99999996,23 C3.34314571,23 1.99999996,21.6568543 1.99999996,20 L2.00001796,5.99393513 C2.00076288,5.8685046 2.02460047,5.74854785 2.0674941,5.63810151 C2.07255685,5.6257939 2.07766691,5.61336947 2.08302762,5.60104776 C2.09465226,5.57375041 2.10756972,5.54739106 2.12158024,5.5217138 C2.12595421,5.51407411 2.13026373,5.50640198 2.13467683,5.49878308 C2.16065017,5.45368936 2.19031102,5.41073576 2.22305223,5.37038287 L5.19999997,1.39999996 C5.38885435,1.14819411 5.68524267,0.999999954 5.99999996,0.999999954 L18,0.999999954 Z M20,6.99999995 L3.99999996,6.99999995 L3.99999997,20 C3.99999997,20.5522848 4.44771522,21 4.99999997,21 L19,21 C19.5522848,21 20,20.5522848 20,20 L20,6.99999995 Z M16,8.99999999 C16.5522848,8.99999999 17,9.44771524 17,9.99999999 C17,12.7614238 14.7614238,15 12,15 C9.23857624,15 6.99999998,12.7614238 6.99999998,9.99999999 C6.99999998,9.44771524 7.44771523,8.99999999 7.99999998,8.99999999 C8.55228474,8.99999999 8.99999998,9.44771524 8.99999998,9.99999999 C8.99999998,11.6568542 10.3431457,13 12,13 C13.6568543,13 15,11.6568542 15,9.99999999 L15,9.99999999 L15.0067277,9.88337887 C15.0644929,9.38604018 15.4871642,8.99999999 16,8.99999999 Z M17.5,2.99999996 L6.49999997,2.99999996 L4.99999996,4.99999995 L19,4.99999995 L17.5,2.99999996 Z" id="Shape" fill="#000000"></path>
    </g>
</svg>