<?xml version="1.0" encoding="UTF-8"?>
<svg width="24px" height="24px" viewBox="0 0 24 24" version="1.1" xmlns="http://www.w3.org/2000/svg" xmlns:xlink="http://www.w3.org/1999/xlink">
    <title>feather-icon/skip-forward</title>
    <g id="feather-icon/skip-forward" stroke="none" stroke-width="1" fill="none" fill-rule="evenodd">
        <rect id="Bounding-Box" fill-opacity="0" fill="#FFFFFF" x="0" y="0" width="24" height="24"></rect>
        <path d="M5.62469502,3.21913115 L15.6246951,11.2191312 C16.1251017,11.6194565 16.1251017,12.3805435 15.6246951,12.7808688 L5.62469502,20.7808688 C4.96993167,21.3046795 3.99999997,20.8385062 3.99999997,20 L3.99999997,3.99999997 C3.99999997,3.16149375 4.96993167,2.69532048 5.62469502,3.21913115 Z M19,3.99999997 C19.5522848,3.99999997 20,4.44771522 20,4.99999997 L20,4.99999997 L20,19 C20,19.5522848 19.5522848,20 19,20 C18.4477153,20 18,19.5522848 18,19 L18,19 L18,4.99999997 C18,4.44771522 18.4477153,3.99999997 19,3.99999997 Z M5.99999997,6.08062482 L5.99999997,17.9193752 L13.3992189,12 L5.99999997,6.08062482 Z" id="Shape" fill="#000000"></path>
    </g>
</svg>