<?xml version="1.0" encoding="UTF-8"?>
<svg width="24px" height="24px" viewBox="0 0 24 24" version="1.1" xmlns="http://www.w3.org/2000/svg" xmlns:xlink="http://www.w3.org/1999/xlink">
    <title>feather-icon/skip-back</title>
    <g id="feather-icon/skip-back" stroke="none" stroke-width="1" fill="none" fill-rule="evenodd">
        <rect id="Bounding-Box" fill-opacity="0" fill="#FFFFFF" x="0" y="0" width="24" height="24"></rect>
        <path d="M20,3.99999997 L20,20 C20,20.8385062 19.0300683,21.3046795 18.375305,20.7808688 L8.37530494,12.7808688 C7.87489833,12.3805435 7.87489833,11.6194565 8.37530494,11.2191312 L18.375305,3.21913115 C19.0300683,2.69532048 20,3.16149375 20,3.99999997 Z M4.99999997,3.99999997 C5.55228472,3.99999997 5.99999997,4.44771522 5.99999997,4.99999997 L5.99999997,4.99999997 L5.99999997,19 C5.99999997,19.5522848 5.55228472,20 4.99999997,20 C4.44771522,20 3.99999997,19.5522848 3.99999997,19 L3.99999997,19 L3.99999997,4.99999997 C3.99999997,4.44771522 4.44771522,3.99999997 4.99999997,3.99999997 Z M18,6.08062482 L10.6007811,12 L18,17.9193752 L18,6.08062482 Z" id="Shape" fill="#000000"></path>
    </g>
</svg>