<?xml version="1.0" encoding="UTF-8"?>
<svg width="24px" height="24px" viewBox="0 0 24 24" version="1.1" xmlns="http://www.w3.org/2000/svg" xmlns:xlink="http://www.w3.org/1999/xlink">
    <title>feather-icon/sliders</title>
    <g id="feather-icon/sliders" stroke="none" stroke-width="1" fill="none" fill-rule="evenodd">
        <rect id="Bounding-Box" fill-opacity="0" fill="#FFFFFF" x="0" y="0" width="24" height="24"></rect>
        <path d="M6.99999995,13 C7.55228473,13 7.99999995,13.4477153 7.99999995,14 C7.99999995,14.5522848 7.55228473,15 6.99999995,15 L6.99999995,15 L4.99999995,15 L4.99999996,21 C4.99999996,21.5128359 4.61395978,21.9355072 4.11662109,21.9932723 L3.99999996,22 C3.44771521,22 2.99999996,21.5522848 2.99999996,21 L2.99999996,21 L2.99999995,15 L0.99999995,15 C0.487164113,15 0.0644927896,14.6139598 0.00672768135,14.1166211 L-5.00000068e-08,14 C-5.00000068e-08,13.4477153 0.447715202,13 0.99999995,13 L0.99999995,13 Z M12,11 C12.5522848,11 13,11.4477152 13,12 L13,12 L13,21 C13,21.5522848 12.5522848,22 12,22 C11.4477152,22 11,21.5522848 11,21 L11,21 L11,12 C11,11.4477152 11.4477152,11 12,11 Z M23,15 C23.5522848,15 24,15.4477153 24,16 C24,16.5522848 23.5522848,17 23,17 L23,17 L20.9999999,17 L21,21 C21,21.5128359 20.6139598,21.9355072 20.1166212,21.9932723 L20,22 C19.4477153,22 19,21.5522848 19,21 L19,21 L18.9999999,17 L17,17 C16.4871642,17 16.0644929,16.6139598 16.0067277,16.1166211 L16,16 C16,15.4477153 16.4477153,15 17,15 L17,15 Z M20,1.99999996 C20.5522848,1.99999996 21,2.44771521 21,2.99999996 L21,2.99999996 L21,12 C21,12.5522848 20.5522848,13 20,13 C19.4477153,13 19,12.5522848 19,12 L19,12 L19,2.99999996 C19,2.44771521 19.4477153,1.99999996 20,1.99999996 Z M3.99999996,1.99999996 C4.55228472,1.99999996 4.99999996,2.44771521 4.99999996,2.99999996 L4.99999996,2.99999996 L4.99999996,9.99999996 C4.99999996,10.5522847 4.55228472,11 3.99999996,11 C3.44771521,11 2.99999996,10.5522847 2.99999996,9.99999996 L2.99999996,9.99999996 L2.99999996,2.99999996 C2.99999996,2.44771521 3.44771521,1.99999996 3.99999996,1.99999996 Z M12,1.99999996 C12.5522848,1.99999996 13,2.44771521 13,2.99999996 L13,2.99999996 L12.9999999,6.99999996 L15,6.99999998 C15.5128359,6.99999998 15.9355071,7.38604017 15.9932723,7.88337885 L16,7.99999998 C16,8.55228474 15.5522848,8.99999998 15,8.99999998 L15,8.99999998 L8.99999998,8.99999998 C8.44771524,8.99999998 7.99999998,8.55228474 7.99999998,7.99999998 C7.99999998,7.44771523 8.44771524,6.99999998 8.99999998,6.99999998 L8.99999998,6.99999998 L10.9999999,6.99999996 L11,2.99999996 C11,2.48716412 11.3860402,2.0644928 11.8833789,2.00672769 Z" id="Shape" fill="#000000"></path>
    </g>
</svg>