<?xml version="1.0" encoding="UTF-8"?>
<svg width="24px" height="24px" viewBox="0 0 24 24" version="1.1" xmlns="http://www.w3.org/2000/svg" xmlns:xlink="http://www.w3.org/1999/xlink">
    <title>feather-icon/smartphone</title>
    <g id="feather-icon/smartphone" stroke="none" stroke-width="1" fill="none" fill-rule="evenodd">
        <rect id="Bounding-Box" fill-opacity="0" fill="#FFFFFF" x="0" y="0" width="24" height="24"></rect>
        <path d="M17,0.999999954 C18.6568543,0.999999954 20,2.34314571 20,3.99999995 L20,20 C20,21.6568543 18.6568543,23 17,23 L6.99999997,23 C5.34314572,23 3.99999997,21.6568543 3.99999997,20 L3.99999997,3.99999995 C3.99999997,2.34314571 5.34314572,0.999999954 6.99999997,0.999999954 L17,0.999999954 Z M17,2.99999996 L6.99999997,2.99999996 C6.44771523,2.99999996 5.99999997,3.44771521 5.99999997,3.99999996 L5.99999997,20 C5.99999997,20.5522848 6.44771523,21 6.99999997,21 L17,21 C17.5522848,21 18,20.5522848 18,20 L18,3.99999996 C18,3.44771521 17.5522848,2.99999996 17,2.99999996 Z M11.2928932,17.2928932 C11.6834175,16.9023689 12.3165825,16.9023689 12.7071068,17.2928932 C13.0976311,17.6834175 13.0976311,18.3165825 12.7071068,18.7071068 C12.3165825,19.0976311 11.6834175,19.0976311 11.2928932,18.7071068 C10.9023689,18.3165825 10.9023689,17.6834175 11.2928932,17.2928932 Z" id="Shape" fill="#000000"></path>
    </g>
</svg>