<?xml version="1.0" encoding="UTF-8"?>
<svg width="24px" height="24px" viewBox="0 0 24 24" version="1.1" xmlns="http://www.w3.org/2000/svg" xmlns:xlink="http://www.w3.org/1999/xlink">
    <title>feather-icon/speaker</title>
    <g id="feather-icon/speaker" stroke="none" stroke-width="1" fill="none" fill-rule="evenodd">
        <rect id="Bounding-Box" fill-opacity="0" fill="#FFFFFF" x="0" y="0" width="24" height="24"></rect>
        <path d="M18,0.999999954 C19.6568543,0.999999954 21,2.34314571 21,3.99999995 L21,20 C21,21.6568543 19.6568543,23 18,23 L5.99999996,23 C4.34314572,23 2.99999996,21.6568543 2.99999996,20 L2.99999996,3.99999995 C2.99999996,2.34314571 4.34314572,0.999999954 5.99999996,0.999999954 L18,0.999999954 Z M18,2.99999996 L5.99999997,2.99999996 C5.44771522,2.99999996 4.99999997,3.44771521 4.99999997,3.99999996 L4.99999997,20 C4.99999997,20.5522848 5.44771522,21 5.99999997,21 L18,21 C18.5522848,21 19,20.5522848 19,20 L19,3.99999996 C19,3.44771521 18.5522848,2.99999996 18,2.99999996 Z M12,8.99999999 C14.7614238,8.99999999 17,11.2385762 17,14 C17,16.7614238 14.7614238,19 12,19 C9.23857624,19 6.99999998,16.7614238 6.99999998,14 C6.99999998,11.2385762 9.23857624,8.99999999 12,8.99999999 Z M12,11 C10.3431457,11 8.99999999,12.3431458 8.99999999,14 C8.99999999,15.6568543 10.3431457,17 12,17 C13.6568543,17 15,15.6568543 15,14 C15,12.3431458 13.6568543,11 12,11 Z M11.2928932,5.29289319 C11.6834175,4.9023689 12.3165825,4.9023689 12.7071068,5.29289319 C13.0976311,5.68341748 13.0976311,6.31658247 12.7071068,6.70710676 C12.3165825,7.09763105 11.6834175,7.09763105 11.2928932,6.70710676 C10.9023689,6.31658247 10.9023689,5.68341748 11.2928932,5.29289319 Z" id="Shape" fill="#000000"></path>
    </g>
</svg>