<?xml version="1.0" encoding="UTF-8"?>
<svg width="24px" height="24px" viewBox="0 0 24 24" version="1.1" xmlns="http://www.w3.org/2000/svg" xmlns:xlink="http://www.w3.org/1999/xlink">
    <title>feather-icon/trash-2</title>
    <g id="feather-icon/trash-2" stroke="none" stroke-width="1" fill="none" fill-rule="evenodd">
        <rect id="Bounding-Box" fill-opacity="0" fill="#FFFFFF" x="0" y="0" width="24" height="24"></rect>
        <path d="M14,0.999999954 C15.5976809,0.999999954 16.9036609,2.24891992 16.9949073,3.82372718 L17,3.99999995 L17,4.99999995 L21,4.99999997 C21.5128359,4.99999997 21.9355071,5.38604016 21.9932722,5.88337885 L22,5.99999997 C22,6.55228473 21.5522848,6.99999997 21,6.99999997 L21,6.99999997 L20,6.99999995 L20,20 C20,21.5976809 18.7510801,22.9036609 17.1762728,22.9949074 L17,23 L6.99999997,23 C5.40231909,23 4.09633909,21.7510801 4.00509266,20.1762728 L3.99999997,20 L3.99999996,6.99999995 L2.99999996,6.99999997 C2.48716412,6.99999997 2.0644928,6.61395979 2.00672769,6.1166211 L1.99999996,5.99999997 C1.99999996,5.44771522 2.44771521,4.99999997 2.99999996,4.99999997 L2.99999996,4.99999997 L6.99999996,4.99999995 L6.99999998,3.99999995 C6.99999998,2.40231908 8.24891995,1.09633908 9.8237272,1.00509265 L9.99999998,0.999999954 L14,0.999999954 Z M18,6.99999995 L5.99999996,6.99999995 L5.99999997,20 C5.99999997,20.5128359 6.38604017,20.9355072 6.88337885,20.9932723 L6.99999997,21 L17,21 C17.5128359,21 17.9355072,20.6139598 17.9932723,20.1166212 L18,20 L18,6.99999995 Z M9.99999999,9.99999999 C10.5522847,9.99999999 11,10.4477152 11,11 L11,11 L11,17 C11,17.5522848 10.5522847,18 9.99999999,18 C9.44771524,18 8.99999999,17.5522848 8.99999999,17 L8.99999999,17 L8.99999999,11 C8.99999999,10.4477152 9.44771524,9.99999999 9.99999999,9.99999999 Z M14,9.99999999 C14.5522848,9.99999999 15,10.4477152 15,11 L15,11 L15,17 C15,17.5522848 14.5522848,18 14,18 C13.4477153,18 13,17.5522848 13,17 L13,17 L13,11 C13,10.4477152 13.4477153,9.99999999 14,9.99999999 Z M14,2.99999995 L9.99999998,2.99999995 C9.48716415,2.99999995 9.06449283,3.38604015 9.00672772,3.88337884 L8.99999998,3.99999995 L8.99999996,4.99999995 L15,4.99999995 L15,3.99999995 C15,3.48716413 14.6139598,3.0644928 14.1166211,3.00672769 L14,2.99999995 Z" id="Shape" fill="#000000"></path>
    </g>
</svg>