<?xml version="1.0" encoding="UTF-8"?>
<svg width="24px" height="24px" viewBox="0 0 24 24" version="1.1" xmlns="http://www.w3.org/2000/svg" xmlns:xlink="http://www.w3.org/1999/xlink">
    <title>feather-icon/trello</title>
    <g id="feather-icon/trello" stroke="none" stroke-width="1" fill="none" fill-rule="evenodd">
        <rect id="Bounding-Box" fill-opacity="0" fill="#FFFFFF" x="0" y="0" width="24" height="24"></rect>
        <path d="M19,1.99999996 C20.6568543,1.99999996 22,3.34314571 22,4.99999996 L22,19 C22,20.6568543 20.6568543,22 19,22 L4.99999996,22 C3.34314571,22 1.99999996,20.6568543 1.99999996,19 L1.99999996,4.99999996 C1.99999996,3.34314571 3.34314571,1.99999996 4.99999996,1.99999996 L19,1.99999996 Z M19,3.99999997 L4.99999997,3.99999997 C4.44771522,3.99999997 3.99999997,4.44771522 3.99999997,4.99999997 L3.99999997,19 C3.99999997,19.5522848 4.44771522,20 4.99999997,20 L19,20 C19.5522848,20 20,19.5522848 20,19 L20,4.99999997 C20,4.44771522 19.5522848,3.99999997 19,3.99999997 Z M9.99999997,5.99999998 C10.5522847,5.99999998 11,6.44771523 11,6.99999998 L11,16 C11,16.5522848 10.5522847,17 9.99999997,17 L6.99999997,17 C6.44771523,17 5.99999997,16.5522848 5.99999997,16 L5.99999997,6.99999998 C5.99999997,6.44771523 6.44771523,5.99999998 6.99999997,5.99999998 L9.99999997,5.99999998 Z M8.99999998,7.99999998 L7.99999998,7.99999998 L7.99999998,15 L8.99999998,15 L8.99999998,7.99999998 Z M17,5.99999998 C17.5522848,5.99999998 18,6.44771523 18,6.99999998 L18,12 C18,12.5522848 17.5522848,13 17,13 L14,13 C13.4477153,13 13,12.5522848 13,12 L13,6.99999998 C13,6.44771523 13.4477153,5.99999998 14,5.99999998 L17,5.99999998 Z M16,7.99999998 L15,7.99999998 L15,11 L16,11 L16,7.99999998 Z" id="Shape" fill="#000000"></path>
    </g>
</svg>