<?xml version="1.0" encoding="UTF-8"?>
<svg width="24px" height="24px" viewBox="0 0 24 24" version="1.1" xmlns="http://www.w3.org/2000/svg" xmlns:xlink="http://www.w3.org/1999/xlink">
    <title>feather-icon/underline</title>
    <g id="feather-icon/underline" stroke="none" stroke-width="1" fill="none" fill-rule="evenodd">
        <rect id="Bounding-Box" fill-opacity="0" fill="#FFFFFF" x="0" y="0" width="24" height="24"></rect>
        <path d="M20,20 C20.5522848,20 21,20.4477153 21,21 C21,21.5522848 20.5522848,22 20,22 L20,22 L3.99999996,22 C3.44771521,22 2.99999996,21.5522848 2.99999996,21 C2.99999996,20.4477153 3.44771521,20 3.99999996,20 L3.99999996,20 Z M18,1.99999996 C18.5522848,1.99999996 19,2.44771521 19,2.99999996 L19,2.99999996 L19,9.99999996 C19,13.8659933 15.8659933,17 12,17 C8.13400674,17 4.99999997,13.8659933 4.99999997,9.99999996 L4.99999997,9.99999996 L4.99999997,2.99999996 C4.99999997,2.44771521 5.44771522,1.99999996 5.99999997,1.99999996 C6.55228473,1.99999996 6.99999997,2.44771521 6.99999997,2.99999996 L6.99999997,2.99999996 L6.99999997,9.99999996 C6.99999997,12.7614238 9.23857624,15 12,15 C14.7614238,15 17,12.7614238 17,9.99999996 L17,9.99999996 L17,2.99999996 C17,2.44771521 17.4477153,1.99999996 18,1.99999996 Z" id="Shape" fill="#000000"></path>
    </g>
</svg>