<?xml version="1.0" encoding="UTF-8"?>
<svg width="24px" height="24px" viewBox="0 0 24 24" version="1.1" xmlns="http://www.w3.org/2000/svg" xmlns:xlink="http://www.w3.org/1999/xlink">
    <title>feather-icon/user-x</title>
    <g id="feather-icon/user-x" stroke="none" stroke-width="1" fill="none" fill-rule="evenodd">
        <rect id="Bounding-Box" fill-opacity="0" fill="#FFFFFF" x="0" y="0" width="24" height="24"></rect>
        <path d="M11.9999999,14 C14.7614238,14 16.9999999,16.2385763 16.9999999,19 L16.9999999,19 L16.9999999,21 C16.9999999,21.5522848 16.5522848,22 15.9999999,22 C15.4477153,22 14.9999999,21.5522848 14.9999999,21 L14.9999999,21 L14.9999999,19 C14.9999999,17.3431458 13.6568543,16 11.9999999,16 L11.9999999,16 L4.99999995,16 C3.34314571,16 1.99999995,17.3431458 1.99999995,19 L1.99999995,19 L1.99999995,21 C1.99999995,21.5522848 1.55228471,22 0.99999995,22 C0.447715202,22 -5.00000343e-08,21.5522848 -5.00000343e-08,21 L-5.00000343e-08,21 L-5.00000343e-08,19 C-5.00000343e-08,16.2385763 2.23857621,14 4.99999995,14 L4.99999995,14 Z M17.2928932,7.2928932 C17.6834175,6.90236891 18.3165825,6.90236891 18.7071068,7.2928932 L18.7071068,7.2928932 L20.4999999,9.08499996 L22.2928933,7.2928932 C22.6533772,6.93240924 23.2206083,6.9046797 23.6128995,7.20970459 L23.7071068,7.2928932 C24.0976311,7.68341749 24.0976311,8.31658247 23.7071068,8.70710677 L23.7071068,8.70710677 L21.9149999,10.5 L23.7071068,12.2928932 C24.0675908,12.6533772 24.0953203,13.2206082 23.7902954,13.6128995 L23.7071068,13.7071068 C23.3165825,14.0976311 22.6834176,14.0976311 22.2928933,13.7071068 L22.2928933,13.7071068 L20.4999999,11.915 L18.7071068,13.7071068 C18.3466228,14.0675908 17.7793918,14.0953203 17.3871006,13.7902954 L17.2928932,13.7071068 C16.9023689,13.3165825 16.9023689,12.6834175 17.2928932,12.2928932 L17.2928932,12.2928932 L19.085,10.5 L17.2928932,8.70710677 C16.9324093,8.3466228 16.9046797,7.77939175 17.2097046,7.38710054 Z M8.49999996,1.99999996 C11.2614237,1.99999996 13.5,4.23857622 13.5,6.99999996 C13.5,9.76142374 11.2614237,12 8.49999996,12 C5.73857622,12 3.49999996,9.76142374 3.49999996,6.99999996 C3.49999996,4.23857622 5.73857622,1.99999996 8.49999996,1.99999996 Z M8.49999997,3.99999997 C6.84314573,3.99999997 5.49999997,5.34314572 5.49999997,6.99999997 C5.49999997,8.65685424 6.84314573,9.99999997 8.49999997,9.99999997 C10.1568542,9.99999997 11.5,8.65685424 11.5,6.99999997 C11.5,5.34314572 10.1568542,3.99999997 8.49999997,3.99999997 Z" id="Shape" fill="#000000"></path>
    </g>
</svg>