<?xml version="1.0" encoding="UTF-8"?>
<svg width="24px" height="24px" viewBox="0 0 24 24" version="1.1" xmlns="http://www.w3.org/2000/svg" xmlns:xlink="http://www.w3.org/1999/xlink">
    <title>feather-icon/voicemail</title>
    <g id="feather-icon/voicemail" stroke="none" stroke-width="1" fill="none" fill-rule="evenodd">
        <rect id="Bounding-Box" fill-opacity="0" fill="#FFFFFF" x="0" y="0" width="24" height="24"></rect>
        <path d="M18.5,5.99999997 C21.5375662,5.99999997 24,8.46243386 24,11.5 C24,14.5295205 21.5505935,16.9869514 18.5241248,16.9999482 L18.5,17 L5.49999997,17 C5.49190788,17 5.48383825,16.9999039 5.47579214,16.9997127 L5.49999995,17 C2.46243384,17 -5.00000024e-08,14.5375661 -5.00000024e-08,11.5 C-5.00000024e-08,8.46243386 2.46243384,5.99999997 5.49999995,5.99999997 C8.53756611,5.99999997 10.9999999,8.46243386 10.9999999,11.5 C10.9999999,12.8298843 10.5280013,14.0495273 9.74238581,15.0005473 L14.2576142,15.0005473 C13.4719987,14.0495273 13,12.8298843 13,11.5 C13,8.46243386 15.4624339,5.99999997 18.5,5.99999997 Z M5.49999996,7.99999998 C3.56700334,7.99999998 1.99999996,9.56700337 1.99999996,11.5 C1.99999996,13.4329966 3.56700334,15 5.49999996,15 C7.43299661,15 8.99999996,13.4329966 8.99999996,11.5 C8.99999996,9.56700337 7.43299661,7.99999998 5.49999996,7.99999998 Z M18.5,7.99999998 C16.5670034,7.99999998 15,9.56700337 15,11.5 C15,13.4329966 16.5670034,15 18.5,15 C20.4329967,15 22,13.4329966 22,11.5 C22,9.56700337 20.4329967,7.99999998 18.5,7.99999998 Z" id="Shape" fill="#000000"></path>
    </g>
</svg>