<?xml version="1.0" encoding="UTF-8"?>
<svg width="24px" height="24px" viewBox="0 0 24 24" version="1.1" xmlns="http://www.w3.org/2000/svg" xmlns:xlink="http://www.w3.org/1999/xlink">
    <title>feather-icon/x-circle</title>
    <g id="feather-icon/x-circle" stroke="none" stroke-width="1" fill="none" fill-rule="evenodd">
        <rect id="Bounding-Box" fill-opacity="0" fill="#FFFFFF" x="0" y="0" width="24" height="24"></rect>
        <path d="M12,0.999999954 C18.0751323,0.999999954 23,5.92486773 23,12 C23,18.0751323 18.0751323,23 12,23 C5.92486773,23 0.999999954,18.0751323 0.999999954,12 C0.999999954,5.92486773 5.92486773,0.999999954 12,0.999999954 Z M12,2.99999996 C7.02943723,2.99999996 2.99999996,7.02943723 2.99999996,12 C2.99999996,16.9705628 7.02943723,21 12,21 C16.9705628,21 21,16.9705628 21,12 C21,7.02943723 16.9705628,2.99999996 12,2.99999996 Z M8.2928932,8.2928932 C8.6834175,7.90236891 9.31658248,7.90236891 9.70710677,8.2928932 L9.70710677,8.2928932 L12,10.585 L14.2928932,8.2928932 C14.6533772,7.93240924 15.2206082,7.9046797 15.6128995,8.2097046 L15.7071068,8.2928932 C16.0976311,8.6834175 16.0976311,9.31658248 15.7071068,9.70710677 L15.7071068,9.70710677 L13.415,12 L15.7071068,14.2928932 C16.0675908,14.6533772 16.0953203,15.2206082 15.7902954,15.6128995 L15.7071068,15.7071068 C15.3165825,16.0976311 14.6834175,16.0976311 14.2928932,15.7071068 L14.2928932,15.7071068 L12,13.415 L9.70710677,15.7071068 C9.34662281,16.0675908 8.77939175,16.0953203 8.38710054,15.7902954 L8.2928932,15.7071068 C7.90236891,15.3165825 7.90236891,14.6834175 8.2928932,14.2928932 L8.2928932,14.2928932 L10.585,12 L8.2928932,9.70710677 C7.93240924,9.34662281 7.9046797,8.77939175 8.2097046,8.38710054 Z" id="Shape" fill="#000000"></path>
    </g>
</svg>