<?xml version="1.0" encoding="UTF-8"?>
<svg width="24px" height="24px" viewBox="0 0 24 24" version="1.1" xmlns="http://www.w3.org/2000/svg" xmlns:xlink="http://www.w3.org/1999/xlink">
    <title>feather-icon/x-octagon</title>
    <g id="feather-icon/x-octagon" stroke="none" stroke-width="1" fill="none" fill-rule="evenodd">
        <rect id="Bounding-Box" fill-opacity="0" fill="#FFFFFF" x="0" y="0" width="24" height="24"></rect>
        <path d="M16.14,0.999999954 C16.4052165,0.999999954 16.6595704,1.10535679 16.8471068,1.29289317 L22.7071068,7.1528932 C22.8946432,7.34042958 23,7.59478349 23,7.85999998 L23,16.14 C23,16.4052165 22.8946432,16.6595704 22.7071068,16.8471068 L16.8471068,22.7071068 C16.6595704,22.8946432 16.4052165,23 16.14,23 L7.85999998,23 C7.59478349,23 7.34042958,22.8946432 7.1528932,22.7071068 L1.29289317,16.8471068 C1.10535679,16.6595704 0.999999954,16.4052165 0.999999954,16.14 L0.999999954,7.85999998 C0.999999954,7.59478349 1.10535679,7.34042958 1.29289317,7.1528932 L7.1528932,1.29289317 C7.34042958,1.10535679 7.59478349,0.999999954 7.85999998,0.999999954 L16.14,0.999999954 Z M15.7257865,2.99999996 L8.27421355,2.99999996 L2.99999996,8.27421355 L2.99999996,15.7257865 L8.27421355,21 L15.7257865,21 L21,15.7257865 L21,8.27421355 L15.7257865,2.99999996 Z M8.2928932,8.2928932 C8.6834175,7.90236891 9.31658248,7.90236891 9.70710677,8.2928932 L9.70710677,8.2928932 L12,10.585 L14.2928932,8.2928932 C14.6533772,7.93240924 15.2206082,7.9046797 15.6128995,8.2097046 L15.7071068,8.2928932 C16.0976311,8.6834175 16.0976311,9.31658248 15.7071068,9.70710677 L15.7071068,9.70710677 L13.415,12 L15.7071068,14.2928932 C16.0675908,14.6533772 16.0953203,15.2206082 15.7902954,15.6128995 L15.7071068,15.7071068 C15.3165825,16.0976311 14.6834175,16.0976311 14.2928932,15.7071068 L14.2928932,15.7071068 L12,13.415 L9.70710677,15.7071068 C9.34662281,16.0675908 8.77939175,16.0953203 8.38710054,15.7902954 L8.2928932,15.7071068 C7.90236891,15.3165825 7.90236891,14.6834175 8.2928932,14.2928932 L8.2928932,14.2928932 L10.585,12 L8.2928932,9.70710677 C7.93240924,9.34662281 7.9046797,8.77939175 8.2097046,8.38710054 Z" id="Shape" fill="#000000"></path>
    </g>
</svg>