<?xml version="1.0" encoding="UTF-8"?>
<svg width="24px" height="24px" viewBox="0 0 24 24" version="1.1" xmlns="http://www.w3.org/2000/svg" xmlns:xlink="http://www.w3.org/1999/xlink">
    <title>feather-icon/x</title>
    <g id="feather-icon/x" stroke="none" stroke-width="1" fill="none" fill-rule="evenodd">
        <rect id="Bounding-Box" fill-opacity="0" fill="#FFFFFF" x="0" y="0" width="24" height="24"></rect>
        <path d="M5.29289319,5.29289319 C5.68341748,4.9023689 6.31658247,4.9023689 6.70710676,5.29289319 L6.70710676,5.29289319 L12,10.585 L17.2928932,5.29289319 C17.6533772,4.93240923 18.2206083,4.90467969 18.6128995,5.20970458 L18.7071068,5.29289319 C19.0976311,5.68341748 19.0976311,6.31658247 18.7071068,6.70710676 L18.7071068,6.70710676 L13.415,12 L18.7071068,17.2928932 C19.0675908,17.6533772 19.0953203,18.2206083 18.7902954,18.6128995 L18.7071068,18.7071068 C18.3165825,19.0976311 17.6834175,19.0976311 17.2928932,18.7071068 L17.2928932,18.7071068 L12,13.415 L6.70710676,18.7071068 C6.3466228,19.0675908 5.77939174,19.0953203 5.38710053,18.7902954 L5.29289319,18.7071068 C4.9023689,18.3165825 4.9023689,17.6834175 5.29289319,17.2928932 L5.29289319,17.2928932 L10.585,12 L5.29289319,6.70710676 C4.93240923,6.3466228 4.90467969,5.77939174 5.20970458,5.38710053 Z" id="Shape" fill="#000000"></path>
    </g>
</svg>