<svg xmlns="http://www.w3.org/2000/svg" width="20.001" height="20" viewBox="0 0 20.001 20">
  <g id="feather-icon_youtube" data-name="feather-icon/youtube" transform="translate(0)">
    <rect id="Bounding_Box" data-name="Bounding Box" width="20" height="20" fill="rgba(255,255,255,0)"/>
    <path id="Shape" d="M9.475,14.547,8.157,14.53c-.7-.013-1.348-.031-1.934-.053l-.592-.025a16.853,16.853,0,0,1-3.019-.316A3.189,3.189,0,0,1,.4,11.881,25.065,25.065,0,0,1,0,7.3,24.913,24.913,0,0,1,.408,2.681,3.168,3.168,0,0,1,2.618.411,17.815,17.815,0,0,1,5.8.089L6.887.049C7.536.029,8.205.016,8.876.008L9.8,0h.484L11.4.01c.584.007,1.173.02,1.748.036l.583.018a21.6,21.6,0,0,1,3.668.317A3.158,3.158,0,0,1,19.6,2.7,25.076,25.076,0,0,1,20,7.289a24.8,24.8,0,0,1-.408,4.58,3.164,3.164,0,0,1-2.209,2.269,16.78,16.78,0,0,1-3.014.315l-.592.025c-.586.023-1.237.041-1.934.053l-1.318.017ZM9.358,1.669c-.816.007-1.6.021-2.32.042l-1.109.04a18.192,18.192,0,0,0-2.868.266A1.468,1.468,0,0,0,2.037,3.031,23.455,23.455,0,0,0,1.667,7.3,23.669,23.669,0,0,0,2.018,11.5a1.488,1.488,0,0,0,1.031,1.024,18.758,18.758,0,0,0,2.977.273l.881.032c.374.011.793.022,1.282.031l1.3.017h1.026l1.3-.017c.488-.009.907-.019,1.282-.031l.881-.032.736-.035a14.14,14.14,0,0,0,2.228-.235,1.468,1.468,0,0,0,1.024-1.012,23.446,23.446,0,0,0,.37-4.232,23.255,23.255,0,0,0-.358-4.234,1.483,1.483,0,0,0-1.006-1.06,17.158,17.158,0,0,0-2.524-.232l-.776-.031c-.681-.023-1.453-.041-2.3-.053l-1.092-.009H9.8ZM7.545,10.616a.823.823,0,0,1-.254-.6V4.566a.835.835,0,0,1,.835-.834.822.822,0,0,1,.41.11l4.792,2.725a.833.833,0,0,1,0,1.449L8.537,10.74a.821.821,0,0,1-.411.111A.845.845,0,0,1,7.545,10.616ZM8.958,8.583l2.272-1.292L8.958,6Z" transform="translate(0 2.501)" fill="#7f7f7f"/>
  </g>
</svg>
