<svg xmlns="http://www.w3.org/2000/svg" width="102" height="29" viewBox="0 0 102 29">
  <path id="Logo" d="M56.364,29h0c-.1,0-.195,0-.291-.012-1.566-.124-3.339-1.074-3.182-3.342.127-1.843,1.889-3.461,4.12-5.511l.009-.008,1.356-1.247-.043-1.265c-.062.093-.122.178-.182.26a4.079,4.079,0,0,1-3.194,1.752,3.175,3.175,0,0,1-2.726-1.6,4.883,4.883,0,0,1-.276-.5,2.969,2.969,0,0,1-2.735,2.09,2.784,2.784,0,0,1-2.647-2.595v0a4.539,4.539,0,0,1-.525.851,4.077,4.077,0,0,1-3.193,1.752,3.176,3.176,0,0,1-2.727-1.6,5.964,5.964,0,0,1-.725-1.776c-.562,1.635-1.877,3.372-3.2,3.372-1.925,0-3.086-1.66-3.358-4.8-1.361,3.257-3.335,4.84-6.033,4.84-.079,0-.159,0-.239,0a7.539,7.539,0,0,1-2.251-.446c-.58-.259-1.134-.559-.983-1.111a2.486,2.486,0,0,1,.915-1.4.482.482,0,0,1,.293-.088.759.759,0,0,1,.405.121c.163.108.284.2.4.289a4.774,4.774,0,0,0,.511.351,1.958,1.958,0,0,0,.975.309A1.306,1.306,0,0,0,28.063,16.6c.259-1.021-.172-2.074-1.281-3.127-.3-.29-.607-.566-.9-.834-.189-.172-.364-.333-.535-.491-.55.929-1.473,2.483-2.429,4.079-1.294,2.159-2.675,3.4-3.787,3.4A1.459,1.459,0,0,1,18,19.194c-.681-.708-.947-2.4-.836-5.34.036-.936.08-1.949.118-2.844v-.015c.036-.827.067-1.542.081-1.958a.175.175,0,0,0-.034-.129.077.077,0,0,0-.058-.023.244.244,0,0,0-.156.084c-.455.453-2.033,2.261-3.234,6.493a19.46,19.46,0,0,0-.764,3.516c-.012.1-.023.2-.035.289-.041.3-.513.364-.9.364a4.447,4.447,0,0,1-.772-.069.927.927,0,0,1-.567-.364,1.987,1.987,0,0,1-.322-.832,13.8,13.8,0,0,1-.088-1.9L10.5,7.147c0-.3.164-.455.489-.455a4.258,4.258,0,0,1,1.742.478.417.417,0,0,1,.245.367L12.934,13.5c0-.009.419-1.128.639-1.763a10.247,10.247,0,0,1,2.478-4.379,2.367,2.367,0,0,1,1.667-.662,3.925,3.925,0,0,1,1.48.62A1.461,1.461,0,0,1,20.065,8.7c-.018.472-.037.941-.055,1.4v.031c-.059,1.465-.115,2.847-.115,3.831v.06a20.577,20.577,0,0,0,.065,2.081c.073.651.222.967.454.967.621,0,1.447-1.435,2.493-3.251l.189-.328c.422-.732.92-1.675,1.263-2.337-.055-.063-.1-.117-.139-.166a2.377,2.377,0,0,1-.449-2.419A2.963,2.963,0,0,1,26.455,6.46a2.62,2.62,0,0,1,.587.068.957.957,0,0,1,.685.5,1.946,1.946,0,0,1-.134,1.592,6.543,6.543,0,0,1-1.171,1.846c1.059.785,2.022,1.514,2.514,1.9,1.48,1.168,2.017,2.408,1.689,3.9a6.816,6.816,0,0,0,2.139-3.805c0-.139,0-.283,0-.431,0-1.372.037-5.873.038-5.917-.348-.011-.758-.021-1.192-.032-.624-.016-1.266-.031-1.708-.049-.277-.011-.311-.377-.307-.595.012-.6.333-1.446.632-1.446.252,0,.816.025,1.362.049s1.112.049,1.364.049c0,0,0-.029,0-.078.036-1.675.085-2.876.138-3.381.046-.44.235-.628.632-.628a2.127,2.127,0,0,1,.426.052,6.918,6.918,0,0,1,1.383.4l.014.006c.192.081.513.215.491.469-.026.307-.137,3.236-.139,3.265h0c.008,0,1.245.093,1.7.1a14.391,14.391,0,0,1,2.072.166c.2.084.206.444.151.753-.077.431-.3.9-.53.914-.594.031-1.049.032-1.489.032l-.485,0c-.237,0-1.448.023-1.459.023-.033.442-.226,4.82-.226,8,0,2.381.555,3.446,1.105,3.446.993,0,2.159-1.943,2.418-3.533a14.4,14.4,0,0,1,.113-1.857A8.172,8.172,0,0,1,40.763,8,3.314,3.314,0,0,1,43.469,6.46a3.415,3.415,0,0,1,.972.147A3.329,3.329,0,0,1,46.1,7.954V7.442a.619.619,0,0,1,.565-.544c.046,0,.095-.005.145-.005A3.666,3.666,0,0,1,47.622,7c.426.1,1.142.331,1.148.763,0,.063,0,.221-.013.439V8.21c-.011.3-.026.714-.036,1.195s-.024.93-.037,1.352c-.026.828-.053,1.683-.053,3.027,0,3.53.515,4.239,1.346,4.239.681,0,1.267-1.079,1.472-2.093a13.025,13.025,0,0,1-.077-3.662A9.216,9.216,0,0,1,52.868,8a3.288,3.288,0,0,1,2.7-1.538,3.429,3.429,0,0,1,.976.147A3.322,3.322,0,0,1,58.2,7.954c0-.007,0-.4,0-.464a.512.512,0,0,1,.151-.376.845.845,0,0,1,.614-.221c.034,0,.069,0,.1,0a4.24,4.24,0,0,1,1.207.27c.41.162.593.289.6.613,0,.063,0,.217-.013.429-.011.3-.026.709-.037,1.2-.018.889-.058,3.282-.048,6.3,0,.143,0,.285,0,.428v.216a20.069,20.069,0,0,0,1.177-1.852,17.958,17.958,0,0,0,1.886-4.7,1.785,1.785,0,0,1-.806-1.738,2.269,2.269,0,0,1,.737-1.509,1.836,1.836,0,0,1,1.17-.4,1.284,1.284,0,0,1,.982.381,1.38,1.38,0,0,1,.267,1.118,4.685,4.685,0,0,1-.091.55c.882-.131,1.763-.291,2.358-.43a3.208,3.208,0,0,1,.728-.091,1.383,1.383,0,0,1,1.063.383,1.454,1.454,0,0,1,.286,1.457c-.065.3-.129.589-.191.865a17.816,17.816,0,0,0-.553,3.652c-.052,1.756.244,3.1.813,3.685a.9.9,0,0,0,.652.3c.679,0,1.2-.657,1.48-1.849a12.773,12.773,0,0,1-.156-3.892A8.5,8.5,0,0,1,74.078,8a3.287,3.287,0,0,1,2.7-1.537,3.43,3.43,0,0,1,.978.148,3.385,3.385,0,0,1,1.658,1.346s0-.149,0-.288c0-.073,0-.146,0-.2a.581.581,0,0,1,.6-.567q.054,0,.112,0A3.689,3.689,0,0,1,80.937,7c.426.1,1.142.328,1.148.763,0,.063-.005.22-.013.439-.011.3-.026.718-.037,1.2s-.024.931-.037,1.35c-.026.828-.053,1.683-.053,3.028,0,3.563.444,4.238,1.263,4.238.859,0,1.649-1.836,1.889-3.161,0-.076,0-.15,0-.221v-.017q0-.09,0-.174c0-1.692.023-4.1.067-6.969,0-.1,0-.162,0-.167,0-.3.065-.6.548-.6a8.414,8.414,0,0,1,1.621.331.624.624,0,0,1,.407.639c-.005,1.2-.01,4.39-.01,4.42,0-.01.279-.827.661-1.991a12.341,12.341,0,0,1,1.34-3.152.848.848,0,0,1,.691-.262,3.213,3.213,0,0,1,1.467.439,1.57,1.57,0,0,1,.777,1.5,50.152,50.152,0,0,0,.238,5.011c.008.083.016.16.022.232s.03.094.05.094.027-.015.03-.036a27.346,27.346,0,0,1,1.876-6.475,1.042,1.042,0,0,1,1-.756,2.93,2.93,0,0,1,.956.228l.006,0c1.485.541,1.583,1.083,1.557,1.592a60.57,60.57,0,0,0-.049,6.668c.128,1.679.618,2.722,1.279,2.722.519,0,.948-.382,1.352-2.245.109-.5.246-.84.554-.84a.364.364,0,0,1,.286.129,1.343,1.343,0,0,1,.146,1.005c-.33,2.4-1.288,3.666-2.772,3.666a2.719,2.719,0,0,1-1.51-.49,4,4,0,0,1-1.506-2.52,32.5,32.5,0,0,1-.292-6.766.133.133,0,0,0-.026-.077.029.029,0,0,0-.021-.01c-.023,0-.05.033-.079.1l-.019.043a21.889,21.889,0,0,0-1.266,3.58,18.508,18.508,0,0,0-.625,4.491.49.49,0,0,1-.116.4,1.225,1.225,0,0,1-.83.267,1.642,1.642,0,0,1-1.65-.944,10.306,10.306,0,0,1-.584-3c-.228-2.2-.263-3.877-.277-4.506v-.071c0-.126-.038-.2-.1-.2s-.152.084-.231.225l-.024.042a14.121,14.121,0,0,0-1.426,3.94,19.512,19.512,0,0,0-.356,3.8c-.009.338-.018.655-.032.926-.021.4-.157.627-.417.68a4.367,4.367,0,0,1-.879.092,3.28,3.28,0,0,1-1.144-.193c-.179-.067-.451-.215-.5-.335a7.31,7.31,0,0,1-.15-1.539c-.771,1.829-1.746,2.064-2.508,2.064a2.876,2.876,0,0,1-2.751-2.608.092.092,0,0,1-.008.017,6.475,6.475,0,0,1-.517.838,4.1,4.1,0,0,1-3.2,1.751,3.17,3.17,0,0,1-2.722-1.6,4.182,4.182,0,0,1-.206-.374,3.046,3.046,0,0,1-2.579,1.965,3.426,3.426,0,0,1-3.066-2.49c-.914-2.581-.032-6.389.154-7.126l0-.014a.222.222,0,0,0-.011-.192c-.034-.043-.1-.062-.214-.062q-.042,0-.091,0c-.715.047-1.391.052-1.648.052h-.09a26.22,26.22,0,0,1-2.365,5.075A25.736,25.736,0,0,1,60.8,18.345c.01.67.021,1.315.032,1.909v.008c.008.475.016.917.022,1.311a10.977,10.977,0,0,1-1.138,5.505A4.087,4.087,0,0,1,56.364,29Zm2.131-8.235c-1.958,1.936-3.321,3.546-3.605,5.111a1.716,1.716,0,0,0,.29,1.475,1.3,1.3,0,0,0,1.02.46,1.792,1.792,0,0,0,1.079-.385c.74-.56,1.193-2.489,1.212-5.162C58.5,21.228,58.495,20.769,58.495,20.765Zm-2-12.22c-1.553,0-2.117,2.183-2.288,3.121a11.339,11.339,0,0,0,.122,4.757c.294.983.8,1.524,1.425,1.524a2.064,2.064,0,0,0,1.635-1.326,9.7,9.7,0,0,0,.788-3.415c.119-2.23-.117-3.624-.722-4.261A1.273,1.273,0,0,0,56.492,8.545Zm21.055-.007c-1.062,0-1.839,1.068-2.131,2.931a12.584,12.584,0,0,0,.122,4.955c.3.982.807,1.523,1.43,1.523a2.059,2.059,0,0,0,1.63-1.325,8.494,8.494,0,0,0,.789-3.4c.135-2.943-.447-4.561-1.683-4.676C77.651,8.54,77.6,8.537,77.547,8.537Zm-33.316,0c-1.031,0-1.808,1.056-2.131,2.9a11.931,11.931,0,0,0,.122,4.99c.3.979.81,1.518,1.426,1.518a2.094,2.094,0,0,0,1.634-1.32,8.73,8.73,0,0,0,.789-3.435c.157-2.913-.425-4.518-1.683-4.641C44.335,8.539,44.282,8.537,44.231,8.537ZM4.73,21.991a.284.284,0,0,1-.195-.059c-.176-.158-.069-.5.08-.971.069-.22.147-.468.213-.745a18.529,18.529,0,0,0,.323-4.563c0-1.2.02-4.942.038-8.244V7.354c.012-2.331.023-4.343.023-4.807v-.08A4.783,4.783,0,0,0,5.2,1.949c-.017-.133-.05-.192-.108-.192a.266.266,0,0,0-.15.078A8.592,8.592,0,0,0,2.456,8.711a4.327,4.327,0,0,0,.729,2.069c.213.335.341.537.172.831-.038.066-.128.1-.26.1A3.5,3.5,0,0,1,.89,10.328,4.265,4.265,0,0,1,.142,6.557,9.6,9.6,0,0,1,5.25.1,1.519,1.519,0,0,1,5.835,0c.91,0,2.141.546,2.152,1.1.045,2.328.035,5.989.029,7.956V9.15c0,.3,0,.558,0,.764v.495c0,1.723-.005,4.325-.064,6.019a7.307,7.307,0,0,1-1.2,4.159A3.36,3.36,0,0,1,4.73,21.991Z" transform="translate(0 0)"/>
</svg>
